<svg xmlns="http://www.w3.org/2000/svg" fill="currentColor" viewBox="0 0 348 155"><g data-name="Layer 2"><g data-name="Layer 1"><g data-name="Calque 2"><path d="M230.18 132.15a6.1 6.1 0 012.8 1.9c-2.4 3.4-6.9 4.4-9.5 7.6.4 2.9 1.8 5.2 3 7.6.5 1.1 1.2 2.1 1.6 3.1a2.32 2.32 0 01-.7 2.6c-1.6-.2-2.9-2.1-4.5-1.4a21.33 21.33 0 01-4.3-7.5 2.07 2.07 0 00-2.5.6c-1.4 1.2-2.3 2.9-4 3.7-1.2.5-2-.2-2.9-.7s-2.1.3-2.9-.9c2.5-3.3 6.4-5.3 9.1-8.4-.6-3.3-4-5.2-4-8.7a2.68 2.68 0 012.8-1.6 3.66 3.66 0 013 1.6 22.9 22.9 0 011.4 2.7 3.67 3.67 0 001.8 1.9c3.4-.6 5.8-4.4 9.8-4.1zM339 76.85c2.9-.3 2.9-.3 4.8.6a6.94 6.94 0 01-.5 1.3c-1.8 3-3.7 5.9-5.4 8.7-1.3.1-1.6-.7-2-1.3-.9-.4-1.6.7-2.4 0-.1-.3-.4-.6-.3-.9 1.08-3.4 3.58-5.8 5.8-8.4zM114.88 39.15a18.65 18.65 0 01-8.8 3.1c-2.5.4-4.7-.9-6.9-1.9a2.64 2.64 0 012.7-2.1c3.1.3 5.8-1.2 8.8-1.7.7-.1 1.3-.3 2.1-.4.9.4 1.7.9 2.5 1.3.4.9.2 1.4-.5 1.8l-.2-.4q0 .15.3.3zM327.18 92.85c1.6.3 2.7.5 3.7 1.5a5 5 0 01-.3 1.3 24.28 24.28 0 01-8.7 6.5 2.92 2.92 0 01-2.7-1.1c.3-1.8 2.4-2.7 2.5-4.6 2.2-.8 3.9-2.4 5.5-3.6zM181.58 24.45c1.3.4 2.1 1 2.1 2.5-2.7 2.8-6.6 3-10.1 4.3-1.6-.5-3.1-1-4.6-1.5.1-.9.5-1.6 1.1-1.7 3.8-1.3 7.6-3 11.5-3.6zM310.78 102.85c1.7.3 2.6.7 3.1 1.8-.1.4-.2.9-.3 1.4-2 2.2-4.9 1.8-7.4 2.8-1.7-.6-3.4-1.2-5-1.7-.2-.4-.3-.5-.3-.7 0-1.2.8-1.8 2-2.4 2.6-.05 5.4-.05 7.9-1.2zM8.68 20.15c-.5.6-.9 1-1.1 1.3-1.1.1-1.4-.9-2.2-1.1l-2 .3c-.5-.9-1-1.7-1.6-2.6v-4.9a7.26 7.26 0 01.5-.9c.5-.4 1.1-.8 1.7-1.2a9.82 9.82 0 011.8.8 9.34 9.34 0 011.5 1.3c.1 1.2 0 2.4.2 3.5a18.2 18.2 0 001.2 3.5zM220 18.55c-1.1-1.1-2.5-1.3-3.8-1.9 0-.8.7-1 1.2-1.4 2.4-1.6 5.2-2.3 7.9-3.1a3.43 3.43 0 014.4 1.6c-.2.4-.2 1.1-.5 1.2-3.02 1.4-5.92 3.05-9.2 3.6zM342.78 65a10.74 10.74 0 01-.3-7.1 3.27 3.27 0 012.5-2.3 3.48 3.48 0 012.7 1.1c.1.3.4.6.3.9-.6 2.9 1.1 6-.9 8.7-1.8.4-1.3-1.6-2.3-2.1-.6.25-.9 1.15-2 .8zM25.48 33.35c-.5.6-.6.9-.9 1.3-2.9-.5-5.9-.7-8.3-3.2-.7-1.3-1.8-2.6-1.3-4.4a3.75 3.75 0 012.1-1.4 3.42 3.42 0 012.7 1.2c1.5 2.3 3.7 4.15 5.7 6.5zM201.18 131.05c1.6-1.2 3-1.2 4.1-.5 1.2.9 1.2 1.9 1.5 3.5a24.39 24.39 0 002.3 1.6c.5 1.4.3 2-.5 2.6-3.1-.3-6.4-.4-8.2-3.5a4.78 4.78 0 01.8-3.7zM275.28 105.25c-.6 1.8-2 2.3-3.9 2.5-2.4-1-5.5-.8-8-2.7-.1-2.6 1.6-3.2 3.5-3.7 2.1.7 3.8 2.4 6.4 2.1a2.43 2.43 0 012 1.8zM64.88 41.55a4 4 0 01-3 1.5 20.27 20.27 0 01-9.1-2.4c-.5-1.4.7-1.7 1.2-2.2 3.1-.9 5.8 1.5 8.3.1 1.6.7 2.8 1.3 2.6 3zM141.78 38.75c.2 1.9-1 2.6-2.2 3-1.9.6-3.9.9-4.7 1.1-2.2.2-2.9-.5-3.9-.8a26.81 26.81 0 00-2.7-.7 2 2 0 011.5-1.9c3.8-.3 7.6-2.3 12-.7zM87.28 38c1.6.4 2.6.7 3 1.8 0 .7-.2 1.3-1.3 2.2-1.4.4-3.4 1.1-5.6 1.8-1.8-.5-3.7-1.1-5.4-1.6-.5-1.3.1-1.9.8-2.6 2.8-.35 5.9-.15 8.5-1.6zM244.78 12.45c-.7-.1-1-1.2-2-1a9 9 0 01-2.3-.2 1.71 1.71 0 011.3-2c2.7-.8 5.4-1.5 8.2-2.2a3.11 3.11 0 012.7.9 1.82 1.82 0 01.1 2.4c-2.3 1.4-5.1 1.7-8 2.1zM271.18 7.75c.1-.5.1-.9.3-1a5.5 5.5 0 014.6-1.6c2.7.5 5.7-1.3 8.2.9a1.76 1.76 0 01.1 2.2c-4.38 1.6-8.8.8-13.2-.5zM254.08 101.15c.3.8.6 1.2.5 1.4-.1.5-.5.8-.7 1.3-4.3.5-8.6.7-12.6-1.4a2.25 2.25 0 011.5-2.2c3.7-.8 7.4.5 11.3.9zM34.08 38c.1-1.5.9-2 2.1-2.7 2.7.4 5.7.9 8.6 1.4.3 0 .5.4.9.7a5.85 5.85 0 01.2 1.3c0 .3-.3.6-.7 1.1-3.9 1.25-7.5-.15-11.1-1.8zM293.88 106.55a10.31 10.31 0 01-.5 1.6c-5.7 2.3-8.9 2.2-11.8-.7 2.3-2.4 5.6-1.7 8.4-2.5 1.3-.4 1.4-.3 3.9 1.6zM158.68 32.55a3 3 0 011.2 2.9c-1.7 1.5-4.2 1.5-6 2.8-1.5-.5-2.9-1-4.3-1.5a1.41 1.41 0 01.1-1.4c1.6-1.9 4.2-1.8 6.3-2.7.8-.3 1.9 0 2.7-.1zM195.18 118.55a5.2 5.2 0 012.5-1.2 6.14 6.14 0 012.7 1.7c-.9 2.1.2 4.5-.8 6.6-1.5.1-1.6-1.2-2.3-1.8-.6.2-.8 1.1-1.7.9-1.7-1.7-1.7-1.7-.4-6.2zM212.28 106.35c-1.1 1.7-1.1 1.7-5.8 4.2l-1.5-1.2-1.9.3a1 1 0 01-.2-1.4c1.6-2.6 4.3-3.4 7-3.9 1.2.4 2.12.9 2.4 2zM296.08 11.65c-.2-1.4.8-1.8 1.7-2.2a5 5 0 013.4-.1 17.67 17.67 0 015.3 2 2 2 0 01-.7 2.6 56.85 56.85 0 01-9.7-2.3zM336 29.55c.6-1.5 1.7-1.7 2.4-2.2 2.3.1 3.5 1.4 4.4 3.2.5 1.1.9 2.2 0 3.3-1.6 1.1-2.9-2.4-4.4.1a14.82 14.82 0 01-2.4-4.4zM198.88 24.05c-1.5-.6-2.6-1.3-3.9-1-.1-.6-.3-1-.2-1.2a7.7 7.7 0 016.5-2.9c.6 0 .6 0 2.4 1.5a2.2 2.2 0 01-.8 2c-1 .4-2.4 1-4 1.6zM320.18 18.85a4.29 4.29 0 012.5-2.6c2.4.4 5 .9 6.8 2.9a3.09 3.09 0 01-.7 2.6 20.45 20.45 0 01-8.6-2.9zM224 104.45c1-3.7 4.4-2 6.3-3.1a4.81 4.81 0 012.7 1.9v1.3a4.45 4.45 0 01-5.1 1.1 35.94 35.94 0 00-3.9-1.2zM.78.55a4.14 4.14 0 014.3.1 7.59 7.59 0 01.6 1.8c.1 1.8.1 1.8-1.3 3.5a23.07 23.07 0 00-1.9-1.4c-.8.1-1.1 1.4-2.2.9-.8-1 .4-2.1 0-3.3-.2-.4.2-1 .5-1.6zM340.88 41.35a5.37 5.37 0 012.9 1.1c.9 1.2.9 1.6.3 4.9-1.4-.4-1.4-.4-2.1-1.4-1-.4-1.2 1-2.1.9-.6-.2-.6-.2-1.4-3.9a2.88 2.88 0 012.4-1.6z"/></g></g></g></svg>