<svg xmlns="http://www.w3.org/2000/svg" fill="CurrentColor" viewBox="0 0 78 50">
    <path d="M51.61 3.3a4.65 4.65 0 00.89 2 73.87 73.87 0 013.63 7.46l2 4.3c.42.92.88 1.83 1.26 2.78.68 1.68 1.56 3.25 2.38 4.85a4 4 0 01.77 2.51c-.27.17-.43 0-.57-.16a3.33 3.33 0 01-.34-.58l-2.88-6.12c-.55-1.18-1.07-2.36-1.61-3.54-1-2.25-2-4.52-3.15-6.75a56.44 56.44 0 00-3.43-6.22 8.79 8.79 0 00-1.08-1.7 1 1 0 00-.05.89 34.52 34.52 0 001.73 5.13c.8 2 1.64 4 2.41 6 .52 1.37.88 2.79 1.41 4.16.79 2.05 1.55 4.13 2.51 6.1.87 1.76 1.51 3.68 2.51 5.39.44.53 1.08.69 1.6 1.1-.26 1.14 0 2.28-.4 3.34.8 1.76.94 3.76 1.8 5.4.29.17.49.24.67 0-.84-1.78-.85-1.78-.9-4.19v-2.54a2.58 2.58 0 01.46-1.6 1.5 1.5 0 01.94-.46c1.48.39 2.54 1.54 3.8 2.37a8.58 8.58 0 012.94 3.44c.4-.26.07-.51.1-.74s0-.44.07-.66a35.87 35.87 0 01-2.75-3.65.41.41 0 010-.58l.07-.05a12.35 12.35 0 012.48 2.63c.56.06.78-.47 1.21-.58s.86-.27 1.19-.38a3.42 3.42 0 012.5 1.12A11.87 11.87 0 0178 36.88v2.18a6 6 0 01-.95 1.57 5.75 5.75 0 01-1.58.76 2.61 2.61 0 01-3-.62 9.56 9.56 0 01-2-2.68 12 12 0 01-1.09-2.44c-1.39-1-2.46-2.39-4-3.2-.39-.21-.7-.58-1.17-.6a.54.54 0 00-.43.47 16 16 0 000 4.7 5.64 5.64 0 001 2.49A19.23 19.23 0 0167 44.37a4.31 4.31 0 01-.76 2.37c-.31.22-.66.5-1 .74a3 3 0 01-4.3-.84 7.29 7.29 0 01-1.46-3 4.79 4.79 0 01.91-4.1l1.21-.77c-.72-2.41-1.59-4.77-.94-7.34L59 30.11a15.28 15.28 0 01-1.6-3.62 20.75 20.75 0 00-1.17-2.81 59.2 59.2 0 01-2.87-6.86c-1.47-3.66-2.61-7.44-4.24-11-.18-.41-.29-.85-.46-1.27a5.73 5.73 0 01.1-4.55 8.87 8.87 0 014.18 3.31C54 5.08 55 6.92 56.16 8.68c1.41 2.24 2.5 4.66 3.74 7 .79 1.49 1.7 2.93 2.54 4.39a4.84 4.84 0 01.49.88 18.54 18.54 0 002 3.89 7.63 7.63 0 011.26 3.88c.29.7.94.9 1.36 1.34.09.1.09.3.11.45s-.07.08-.17.18c-.85-.37-1.46-1.19-2.22-1.39-.38-.63 0-1 0-1.46a4.49 4.49 0 00-.51-1.44 37.43 37.43 0 00-2.06-3.68 2 2 0 01-.27-.43c-1.09-2.79-2.9-5.21-4.19-7.9a8.42 8.42 0 00-.86-1.46 39.06 39.06 0 01-3.48-6.37 8.29 8.29 0 00-2.3-3.24c-.05-.34 0-.73-.55-.69 0 .37.25.55.56.67zM61.1 45l.09.08-.1-.08-.09-.06zm15.25-5.09l.08-.09-.07.11-.34.34h-2.38l-.1-.07.12.06a1.87 1.87 0 002.19.51l.17-.51zm-15.24.36c-.28.14-.31.41-.34.68-.14.11-.37.19-.12.46l.11-.47a.86.86 0 00.34-.68l.07-.11zM65.85 45a4.89 4.89 0 01-2.59 2 2.75 2.75 0 002.43-1l.14-1c.14-.11.36-.2.09-.46zm7.75-10.74a2 2 0 00-1.53 1.23c.29 1.64.73 3.12 2.13 4a1.73 1.73 0 001.39-.08 2.11 2.11 0 00.62-1.13c-.5-2-.79-2.48-2.62-4zm-9.12 11.18c.61-.94.2-1.94.13-2.95-.56-.41-.45-1.23-1-1.7a2.87 2.87 0 00-1.23-.37 1.19 1.19 0 00-.26.09 2.88 2.88 0 00-.52 2.9 3.5 3.5 0 001.4 2.21 1.77 1.77 0 001.45-.19zm-4.24-3.29c-.09.28-.13.43 0 .54.14-.13.13-.27 0-.54zm.34 2c.11-.28.13-.42 0-.52-.14.11-.09.25 0 .51zM72.36 34h-.13v.1h.13s0-.07.06-.11zm4.88 3.65v-.12c0-.01-.11 0-.05.14h.1zm0 1v-.12l-.06.15z"/>
    <path d="M61.79 28.82a.87.87 0 01.57-.71.89.89 0 011 .24.93.93 0 01-.43 1.3c-.6.02-.93-.35-1.14-.83zM5.14 50a9.28 9.28 0 01-4.3-2.71 2.29 2.29 0 01-.59-1 7.78 7.78 0 01.17-4.46c1.16-.7 2.27-1.36 3.37-2 2.1-1.31 4.17-2.69 6.3-4 1.79-1.06 3.65-2 5.38-2.94 1 0 1.5.69 2.1 1.27a38.86 38.86 0 003.9-2.43C22.77 31 24 30 25.24 29.2s2.59-1.6 3.85-2.46 2.35-1.76 3.56-2.57 2.49-1.74 3.81-2.52A42.83 42.83 0 0040.1 19c.26-.43-.15-.81.12-1.34A21 21 0 0144 16a7 7 0 011.43 1.53c-.4 1.34-1.62 2-2.3 3.13a.74.74 0 01-.69.26l-.78-.51a2.3 2.3 0 00-.46.17q-3 1.87-5.92 3.92c-2.07 1.46-4 3.09-6.21 4.38-.38.23-.69.58-1.07.82-1.81 1.13-3.49 2.46-5.33 3.54a29.6 29.6 0 00-3.11 2.32 3.94 3.94 0 00-.51.57c-.06.85.93 1.28.51 2.32-.26.49-1 .74-1.51 1.27s-1 1-1.6 1.51c-1.19 1-2.4 2-3.61 3.06-.91.76-1.81 1.53-2.73 2.27s-1.78 1.39-2.63 2.12A7 7 0 015.14 50zm22.72-21.61l.09-.12-.07.13-.34.34a1.06 1.06 0 00-1 .68 5.6 5.6 0 00-3.05 2 1.72 1.72 0 00-1.36 1 1 1 0 00-1 .68 1.05 1.05 0 00-1 .68 1 1 0 00-1 .68c-.31.08-.76 0-.7.53a.71.71 0 00.68-.55 1.11 1.11 0 001-.68 1 1 0 001-.68 1.1 1.1 0 001-.68 1.69 1.69 0 001.36-1 7.63 7.63 0 003.05-2 1.16 1.16 0 001-.68zm1-.68l.34-.34a.82.82 0 00.7-.37l.34-.34a.8.8 0 00.68-.34 10.83 10.83 0 003.57-2.06 2.82 2.82 0 00.49-.66 3.85 3.85 0 002-1.36l.34-.34a.75.75 0 00.68-.34l.34-.34a.77.77 0 00.68-.34l.34-.34a.77.77 0 00.68-.34l.34-.34c.66 0 1-.63 1.45-.7s.71.27 1.14 0 .84-.65 1.08-1.28c0-.39 0-.75-.55-.88l-1.88 1a.94.94 0 01-.23.8c-.34.37-.66.74-1 1.12l-.34.34a.87.87 0 00-.68.34l-.34.34a.84.84 0 00-.68.34l-.34.34a.74.74 0 00-.68.34l-.33.34a2.79 2.79 0 00-2 1.36 11.5 11.5 0 00-4.07 2.71.91.91 0 00-.68.34l-.34.34a.76.76 0 00-.68.34l-.34.34-.09.11zm-13.1 6.5a8.08 8.08 0 00-3.89 1.55C10 37 8.1 38.21 6.21 39.45c-1.55 1-3.08 2.09-4.53 3.06-1 1.44-.46 2.81.07 4 .66 1.46 2.16 2 3.65 2.44.6-.47 1.14-.88 1.65-1.31 1-.87 2-1.83 3.09-2.64 1.81-1.34 3.62-2.69 5.34-4.16 1-.83 2.16-1.45 2.78-2.53a2.23 2.23 0 00-.38-1.71 7.06 7.06 0 00-2.11-2.38z"/>
    <path d="M8.27 43c.06-.49.45-.76.81-1q1.44-1 2.93-2a14.36 14.36 0 003.6-3l-.06-.43c-.34-.26-.83.22-1.12-.36.46-.56 1.05-.36 1.53-.29a1.37 1.37 0 01.61.85 2.18 2.18 0 01-.34 1c-1 .82-1.93 1.58-2.88 2.29-1.44 1.08-2.9 2.13-4.37 3.17a.44.44 0 01-.71-.23zM5 42.58v-.45a57.81 57.81 0 016-4l.5.26a.9.9 0 010 .19.28.28 0 01-.08.14A28.18 28.18 0 015 42.58zM4.43 45.39c.44.44.94-.17 1.31.23 0 .53-.36.62-.74.71-1.56-.58-1.8-.9-1.81-2.37a1.84 1.84 0 01.39-.24c.08 0 .2.05.3.08a1.07 1.07 0 01.25.77 1.14 1.14 0 00.3.82z"/>
</svg>