<svg xmlns="http://www.w3.org/2000/svg" fill="CurrentColor" viewBox="0 0 106 197"><g data-name="Layer 2"><g data-name="Layer 1"><g data-name="Calque 2"><path d="M75.2 129.3a1.94 1.94 0 01.3 1.3c0 1.3-.1 2.7 0 4 0 .6-.4 1.2-.3 1.8s.4 1.1.3 1.8v.8a2.93 2.93 0 01.7 1.6 9.24 9.24 0 001 .5 1.42 1.42 0 011.2 1.5.76.76 0 00.2.4c1.3.2 2.7 0 4 .6.6.3.9 1 1.6 1 .5.8.9 1.5 1.3 2.3a2.58 2.58 0 00.9.9c.9.5 1.8 1.1 2.7 1.6l.5-.1.5.7a22.85 22.85 0 003.7 1.2 13.33 13.33 0 002.8.3 15.52 15.52 0 012.1.4l2.3.3c.4.1.8.1 1.2.2a7 7 0 012.9-.2 2.38 2.38 0 011.1.6v.8a4 4 0 01-2.2 1.6 12.26 12.26 0 01-3.2.7 15.52 15.52 0 00-2.1.4c-.2 0-.4.2-.6.2a8.92 8.92 0 00-2.8.3 42.1 42.1 0 00-5 .4 3.4 3.4 0 00-1 .1 5.85 5.85 0 01-1.3.2 17.52 17.52 0 00-4 .5 1.23 1.23 0 00-.4.8 4.49 4.49 0 01-1.9 3 11.78 11.78 0 01-4.7 1.8 6.1 6.1 0 00-1.3.3c-.3.1-.8-.1-1.1 0a2.28 2.28 0 01-1.6-.4 19.78 19.78 0 01-4.1-2.8 2.7 2.7 0 01-1-1.7.94.94 0 00-.4-.9 3.4 3.4 0 00-2 0 2.22 2.22 0 01-1.6.1 7.72 7.72 0 00-2.6-.3H59l-.8-.6-1.2.3a.75.75 0 01-.5-.1 7.17 7.17 0 00-2.9-.6 10.87 10.87 0 01-2.6-.4c-1.3-.3-2.6-.7-3.8-1-.3-.2-.5-.5-.8-.7a4.23 4.23 0 00-.7-.5c.8-.5 1.3-1.3 2.1-1.4a41.31 41.31 0 0012.2-2.4l.6.2c.3 0 .3-.2.5-.4a6.11 6.11 0 001.2-.5c.4-.2.8-.5 1.2-.4a10.08 10.08 0 001.7-1.9 3.53 3.53 0 011.6-1.8.1.1 0 00.1-.1c.4-1.1 1.5-1.4 2.3-2.1a13.57 13.57 0 002.7-.4 6.25 6.25 0 011-2l.9-.5c.3-.3.1-.5 0-.8a5.08 5.08 0 00.8-2.7 1.7 1.7 0 01-.1-.7v-4.3c0-.2-.1-.5 0-.7a2.88 2.88 0 00.1-2.4 14.92 14.92 0 01-.2-2.1v-4.5a10.21 10.21 0 00-.3-3 12.75 12.75 0 01-.1-2 4.59 4.59 0 00-.3-2.3 3.4 3.4 0 01-.1-1c.1-1.4-.2-2.9.3-4.3a5.44 5.44 0 000-1.8 7.69 7.69 0 01.3-3c.1-.2 0-.5 0-.8a33.89 33.89 0 01.2-4.5.64.64 0 000-.6 3.62 3.62 0 010-2.3c.1-.2-.3-.5.1-.7a.52.52 0 01.4.2 5.7 5.7 0 00.1 1.3v1.8c.4-.1.3-.4.3-.5v-9.2c0-.4.1-.8-.2-1.1s.1-.7 0-1.1a2.78 2.78 0 010-1.8c0-.1.1-.2.1-.3-.4-.7-.1-1.5-.2-2.3a.75.75 0 00-.5-.7 6.08 6.08 0 00-.1 1.9v3.8a13.35 13.35 0 000 2 5.23 5.23 0 01.3 1.8 2.89 2.89 0 00.3 1.8c.1.7-.3 1.2-.4 1.7-.4-.3-.2-.6-.2-.9a13.82 13.82 0 00-.3-3.5 3.35 3.35 0 010-1c0-.3.1-.6 0-.8-.5-1.1-.2-2.2-.3-3.3a20.13 20.13 0 00.3-5.5v-5.5a2 2 0 00-.2-1.1 2.13 2.13 0 01.1-1.9 1.7 1.7 0 01-.2-1.4.52.52 0 01.4-.2c.4.4.1 1 .4 1.4.2-.1.2-.4.2-.5v-9.7a3.73 3.73 0 01.3-2.1 26.7 26.7 0 000-4c-.4-.6-.2-1.2-.2-1.8v-4.2c-.5.1-.2.5-.4.6s-.4-.1-.4-.3a3.4 3.4 0 01-.1-1v-4.2l1-1a1.74 1.74 0 01.3 1.4v3.5a5.39 5.39 0 00.3 2.5 3.4 3.4 0 01.1 1v8.2a4.57 4.57 0 01-.2 2c-.2.4.3.9 0 1.4s0 1 .2 1.4-.3 1-.1 1.4a2 2 0 01.1 1.3 4.88 4.88 0 00-.1 1.7 1.69 1.69 0 01-.2.5c.2.5.5 1.1.2 1.6-.4.7 0 1.5-.2 2.2a8.68 8.68 0 00-.1 2.3v2.8c.5.7 0 1.5.3 2.2-.3.6 0 1.2 0 1.8a11.27 11.27 0 00.3 1.8 26.2 26.2 0 01.1 2.8 3.86 3.86 0 00.3 2.1 1.48 1.48 0 01.1.7v3.8a1.43 1.43 0 01-.3 1.1 4.53 4.53 0 01.3 1.6v3.5a14.77 14.77 0 00-.1 2.1 17.7 17.7 0 01.1 2.3v4.4c0 .3.1.5-.2.7a.46.46 0 01-.4-.5 45.1 45.1 0 010-5.2c0-.2.1-.3.2-.5 0-.4-.3-.8-.3-1.3a3.44 3.44 0 00-.1-1.4c-.4.4 0 1-.3 1.4a2.62 2.62 0 00-.2 1.5v2.3a3.89 3.89 0 01-.2 1.5c-.1.3-.1.8-.2 1.1a13.73 13.73 0 01-.2 3.5c.4 1.3-.1 2.6.4 3.9a8.24 8.24 0 01.2 2.4 1.88 1.88 0 00.2-1.2c0-.3-.1-.7.2-1a20.32 20.32 0 01.5 6h-.6v.4c.1.4.4.4.5.6l.3 1a5.07 5.07 0 00-.2 1.3c-.1.5.3.9.1 1.5a2 2 0 00.1 1.3c-.7.5-.6.9-1 1.1-.1-.3.2-.6-.2-.8a.49.49 0 00.2.8zm-8 17.7c-.1 0-.1 0-.1.1v.1l.1-.2c.1-.1.3 0 .1-.2zm13 9.3a2.09 2.09 0 001.3-.2c-.6-.1-1-.3-1.3.2-.1.1-.3 0-.1.2zm8-1h1.5a.55.55 0 00.5-.3h1.3c.1 0 .1-.1.4-.2h-.8c-.3 0-.5-.3-.8-.1l-.1.5h-1.5c-.2-.2-.5-.1-.5.1-.3.1-.6-.1-.8.2a.49.49 0 00.8-.2zm11.7-2l-1.2-.3c-.3.1-.7.1-.6.6h1.5a.75.75 0 01.3-.3c.3-.1.6.1.8-.2a.49.49 0 00-.8.2zm-42.4-.7c-.5-.1-.6.3-.9.6s-1-.1-1.3.6c.8.2 1.3-.3 1.8-.4a1 1 0 00.4-.8c.2-.1.4.1.5-.2-.3-.1-.4 0-.5.2zm4-1a4.75 4.75 0 00-2.6.6c-.1.3-.1.6.3.7l.1-.1v-.4c.5-.4.9.3 1.3.1 0-.2-.2-.4.1-.5s.6.5 1 .1l-.2-.5c.6-.1 1.3.1 1.9-.2a.76.76 0 00-.2-.5c-.5.1-1-.2-1.6.2zm-7.7 2.4a8.59 8.59 0 00-3.2.5 1.2 1.2 0 00.5.5h1.4c.5-.4 1.1-.4 1.3-1 .2-.1.4.1.5-.2-.3-.2-.4-.1-.5.2zm14.7-3.7h1.2l.4-.8c-.2-.1-.5-.3-.7-.4s-.2-.1-.3-.1l-.7.2c-.7-.2-.7-.2-1 .2.2.3.9.2 1.1.9l-.5.1-.4.8c.6.6 1.2.4 1.8.3a.62.62 0 00.1-.7c-.3-.3-.9-.1-1-.5zm10.3 6a3.51 3.51 0 01.8-.5c.3-.2.8 0 1.1-.3-.5-.5-.5-.5-1.3-.5a6.56 6.56 0 00-2 .1c-.3.4-.3.6 0 .9a4.1 4.1 0 011.1.1c.1-.1.2.1.3.2a2 2 0 00-1.4.3c.6 0 .8.1 1.1 0 .1 0 .2-.2.3-.3zm6.4-6.4h1.4l.9-.5-2.2-1.5c-.4 0-.7-.1-1 .2a1.25 1.25 0 00.6 1.1 1.08 1.08 0 01.3.7c-.5-.1-.9-.6-1.4-.6-.3.5 0 .6.3.9.4.1.8.3 1.1-.3zm-16.1 2.4a.1.1 0 00-.1-.1 3.33 3.33 0 00-2.2-.1.37.37 0 00.2.5 3.61 3.61 0 002.1-.3 1 1 0 00.4.5c.6.3 1.2-.1 1.8.3-.7.3-1.4-.1-2.1.3a2 2 0 001.3.1c.5-.1.9.3 1.4.3.5-.9.5-.9.4-1.5a2.08 2.08 0 00-1.1-.1c-.4-.1-.7-.2-1.2-.3a1 1 0 01-.9.4zm-7.6 3.3l.1.5.7.4a2.92 2.92 0 011.6-.1 3 3 0 002.1 0 14.34 14.34 0 00-2.8-.7 10.27 10.27 0 00-1.7-.1 1.38 1.38 0 00-.4-.3 20 20 0 00-2.4-.4 30.74 30.74 0 00-4.2-.3c-.3.2-.7.2-.8.6a15.46 15.46 0 013.1.4 16.61 16.61 0 002.2.3 4.53 4.53 0 011.6.3c.3-.2.4-.7.9-.6zm11.6 2.5c-.7-.3-1.3.1-1.8 0a4.06 4.06 0 00-1.9 0 1.42 1.42 0 00-.1 1.1l1.5 1.8 1.4.7h1.3l1 .6h4c.4-.2.7-.2.9-.5v-.3l.8-.3a7 7 0 011.6-1.4 2.08 2.08 0 00-.5-2c-.5-.1-.9.3-1.4.2a2.6 2.6 0 00-1.7.2l.2.7c-.4.1-.8.6-1.3.4-.3-.1-.4-.5-.8-.5s-.3.7-.8.7-.2-.6-.5-.8a.61.61 0 00-.8 0c-.3.3-.5.7-.8 1-.1.1-.2 0-.3.1l-.2-.3c-.1-.4.4-.8.2-1.4zm-13.3-4.6c1.4.2 2.7-.1 3.9.3.3-.2.5-.5.9-.6s.4-.6.8-.8.7 0 .6-.6c-.4-.1-.9-.3-1.4-.4h-.2c-.3.1-.5.2-.5.5.2.2.6.2.7.7-.4.1-.6-.2-.9-.2s-.8-.1-1.1.1c.1.3.3.4.6.5s.4-.1.4.3c-.1 0-.2.1-.3.1a2.35 2.35 0 01-.8-.2 2.45 2.45 0 00-2.7.3zm11 1.7a13.44 13.44 0 01-1.9.1 3.4 3.4 0 00-1 .1.35.35 0 00-.3.5h3.8c.1 0 .3-.1.3-.5l-.4-.3a1.21 1.21 0 00.7-.7 7.8 7.8 0 00-3.4 0c-.1 0-.1.2-.1.3.7.5 1.5 0 2.3.5zm14.8-3.1c-.9-.2-1.2-.8-1.8-1.1H82l-.5.4c.3.5.4 1 1 1.2.9-.1 1.9.3 3.1-.5zm5.8-.6a10.41 10.41 0 00-1.6-.6 9.82 9.82 0 00-2.9-.5c-.3 0-.4.1-.4.4.5.7 1.3.8 1.8 1.1a7.78 7.78 0 003.1-.4zm-28.1-1c.5.6 1.1.3 1.7.2l.8.6a1.42 1.42 0 001.1-.1l.6-.6c-.2-.5-.7-.5-1-.7-.4 0-.5.4-.8.3-.4-.6.4-.9.4-1.5-.7.2-.9.8-1.4 1a6.38 6.38 0 00-1.4.8zm32.3 4.7c-.3-.1-.4-.2-.6-.2a11 11 0 00-2.5.2 22.26 22.26 0 01-3.6.5l-.3.4c1.3.4 2.4-.3 3.6-.2 1 0 2.1-.3 3.1-.4.1 0 .1-.1.3-.3zm-18.9-13.4a4.28 4.28 0 00-1.6-.5c-.3.5-1 .2-1.5.5l.7.3a2.1 2.1 0 00-1.1.8 11.45 11.45 0 003.2-.1.71.71 0 00.3-1zm-13.4 13.4c.3.2.5.4.8.4a12.86 12.86 0 011.9.4c.4.1.9.1 1-.5-.4-.3-.8-.1-1.1-.2a3.55 3.55 0 00-1-.2c0-.3.2-.3.3-.4a1.39 1.39 0 011.1.2 1.1 1.1 0 001.1-.1c0-.2 0-.3-.2-.4h-2.7c-.3.1-.2.4-.4.5a1.33 1.33 0 00-.8.3zm13.2-3.1c.1.4-.1.8.2 1 .1 0 .2.1.3.1a.6.6 0 00.4.1l-.6.5a11.5 11.5 0 002.7-.1c-.3-.4-.8-.1-1-.4.1-.2.4-.2.4-.6a1.34 1.34 0 00-.9-.9h-.7c-.4.2-.6.2-.8.3zm4.8-1.2c.6-.4 1.4-.1 2.1-.3-.2-.4-.2-.9-.8-1.2a6.08 6.08 0 00-1.9.1c-.4.7.2 1 .6 1.4zm-7.6-1.2c-.4.6 0 .9.3 1.2-.1.2-.5.2-.3.7a4.86 4.86 0 001.7 0l-.2-.6c.1-.3.5-.7.1-1.2a2.92 2.92 0 00-1.6-.1zm0 2.3c-.6.4-.7.8-.4 1.3.9-.1 1.8.3 2.6-.3a1.35 1.35 0 00-.5-.9h-1.7zm-.8 3.4l-.3.5 2 .1c.4.2.5.8 1.1.5v-.4l.8-.3v-.5c0-.1-.1-.2-.2-.3-1.1.5-2.2.2-3.4.4zm-10-1.4a22.21 22.21 0 01-4.5-.3.68.68 0 00-.8.4.37.37 0 00.3.1c.9.1 1.8.1 2.8.3a5.44 5.44 0 001.8 0c.2.1.5-.1.4-.5zm11.3-6.7c-.2.1-.3.2-.3.1.1.7.8.4.9.9-.1.4-.6.2-.8.5a1.71 1.71 0 001.4 0 .9.9 0 01-.1-.5v-.2c.6-.5 1.5.2 2.1-.4.1-.1 0-.3-.1-.4h-.1a.64.64 0 00-.6 0 3.26 3.26 0 01-1.7 0zm-1.1 2.8a.75.75 0 00-.6-.7 4.33 4.33 0 00-1.6.1.75.75 0 00-.4.9l.3.3a4 4 0 001.9-.1zm6.3-4c-.5.4-1.1-.1-1.5.4-.1.2.1.3.3.4a9.35 9.35 0 012.5-.4l-.5-.8.1-.3-.5-.4.1-.7c-.4 0-.7-.2-1 .1 0 .3.5.3.4.6s.2.7.1 1.1zm8 8.7c-.1-.3-.2-.5-.1-.7.4-.3.7-.1 1.1 0l.5-.2c.2-.1.4 0 .5-.3-1.4.1-2.7-.3-4.1.5.6.2 1 .3 1.2.8h.5a.6.6 0 00.4-.1zm13.8-.4c-3-.2-3.2-.2-5 .5a10.72 10.72 0 005-.5zM79.5 153a9.07 9.07 0 002.3-.1 1.88 1.88 0 00-.8-1.1c-.5.4-1.2 0-1.7.4-.1.2-.1.4.2.8zm-8.3-5.3a2 2 0 001.8.5c.3-.2.5-.4.4-.7a2 2 0 00-1.8-.5 1 1 0 00-.4.7zm7.1 2.1a.81.81 0 00.5 1.1 3 3 0 001.6-.1l-.8-1.2c-.5 0-.9-.1-1.3.2zm3.3 5.4a10.26 10.26 0 003.5 0v-.4a4.79 4.79 0 00-3.5.4zm-11.7-3.8c.3.3.6.2.9.2a2.92 2.92 0 01.9.2l.9-.3c.1-.2.1-.4-.3-.6a20.09 20.09 0 00-2.4.1zm6.1-1.6c.2.4.3.9.8 1.2a1.3 1.3 0 001-.2l-.1-1.1c-.6 0-1.2-.2-1.7.1zm8.9 1.1c.3.9 1.2.9 1.7 1.4.3-.1.5-.1.5-.5-.6-.2-1-.8-1.5-1.1-.3-.1-.5-.1-.7.2zm-1.4 4.8c-.3.2-.7.2-.8.6l1.4.3.6-.5a4.87 4.87 0 011.2-.1c.2 0 .2-.2.1-.4-.8.1-1.6 0-2.5.1zm-3.6-7.2c.7.7 1.5.4 2.2.4-.1-.5-.5-.7-.8-.9zM73 155a2.77 2.77 0 00.9-.1c.3-.1.5-.2.8-.3s.5.1.7-.4c-.9.3-1.7-.1-2.4.3zm31.4-1.3a9.24 9.24 0 00-1.5-.1c-.4 0-.7-.4-1.1-.3-.2.1-.3.2-.2.4.3.3.7.2 1 .4zm-8.8-.8a.52.52 0 00.2-.4.75.75 0 00-.8-.1c-.3.1-.6.1-1 .2-.2.1-.5-.1-.7.3zm-24 3.6a9.16 9.16 0 00-3.3.1 18.21 18.21 0 003.3-.1zm11-8.4a.77.77 0 00.7.8c.3.1.5 0 .5-.4-.3-.5-.7-.7-1.2-.4zM66 153v.2l.9.2c.1.2-.2.5.3.5a5.55 5.55 0 00.6-.8v-.1H66zm3.7-5.1c.2 0 .5.1.7-.2l.3-.6a.65.65 0 10-1 .8zm6.6.8a.91.91 0 00.8.4c.3-.1.4-.3.3-.7a.78.78 0 00-1.1 0zm8.2-2.1c-.4.2-.6.4-.5.8a.76.76 0 001 0 1 1 0 00-.5-.8zm-12.3-.9c.9.3.9.3 1.4-.3-1-.2-1-.2-1.4.3zm1.1 8.2a15 15 0 003 0 4.85 4.85 0 00-2-.2c-.4-.1-.7-.2-1 .2zm9.6-6.3a.4.4 0 00.2-.4 1.69 1.69 0 00-1.4-.1c.2.6.7.6 1.2.5zm-8.6-1.9a.78.78 0 001.1 0c.1-.2 0-.3-.1-.4a1 1 0 00-.9.1zm8.4 7.7a4.45 4.45 0 00-2.3.1 4.54 4.54 0 002.3-.1zm-.3-7.9c-.1-.3-.2-.4-.6-.5l-1 .5a2.88 2.88 0 001.6 0zm-6.8 1.1c-.8-.3-.8-.3-1.2-.1.5.4.5.4 1.2.1zm3.5.9c-.8-.3-.8-.3-1 .4.2 0 .3.1.5.1a.9.9 0 00.5-.1zm-3.4 10.7c.6-.1 1.1.3 1.6.3l.1-.1c-.6-.4-.6-.4-1.7-.2zm18.3-4.6a4.46 4.46 0 00-1.6.1v.2a2.74 2.74 0 011.3.2c.2-.1.4-.2.3-.5zm-23.3-4.7a6.92 6.92 0 002.5-.1 4.24 4.24 0 00-2.5.1zM82 154c1.3.3 1.3.3 2 0zm1.7-8.6c-.3-.1-.5-.5-.8-.2a1.05 1.05 0 00.5.9zm-10.8-.8v-.2h-1.4c-.1 0-.2.1-.1.2zm3.4 1.9c0 .2 0 .3.2.4s.4.1.6-.1v-.3c-.3-.3-.6-.3-.8 0zm0-.8c.3.3.5.3.8 0 0-.2 0-.3-.2-.4s-.4-.1-.6.1zm1.9 3.1c.3.3.6.3.8 0 0-.2 0-.3-.2-.4s-.4-.1-.6.1zm13.4 4.6c-1-.1-1-.1-1.5.1a1.62 1.62 0 001.5-.1zm-10.6-6a1.76 1.76 0 00-1.4.1 1.41 1.41 0 001.4-.1zm-6.4-2.6c.5.1.5.1.8-.3-.4-.2-.4-.2-.8.3zm1.6-.5c.1.3.2.5.5.5a.48.48 0 000-.7.37.37 0 00-.5.2zm-4.4 2.2a2 2 0 001.7 0 1.72 1.72 0 00-1.7 0zm-3.4 1c.5-.3.5-.3.2-.7-.3.2-.6.4-.2.7zm12.9-1.4a.43.43 0 00.4.4c.2-.1.5-.1.6-.4a.9.9 0 00-1 0zm-10.6-1a.44.44 0 00-.3.6c.3-.2.6.2 1-.3zm14.4 8a1.4 1.4 0 00-1.4 0 1.7 1.7 0 001.4 0zm.9 3.4a.91.91 0 00-1 0 1.17 1.17 0 001 0zm-4.2-12.2c-.5.1-.8-.2-1.2.3.4-.1.8.2 1.2-.3zm-3.6 1.6a.27.27 0 00.3-.3.22.22 0 00-.2-.2c-.2-.1-.3.1-.3.2s0 .3.2.3zm-8.1 2.5a1.1 1.1 0 00-1.1.1 1.11 1.11 0 001.1-.1zm-.1-2.3c.4.1.4.1.7-.1a.59.59 0 00-.7.1zm7 5.4a.47.47 0 00-.6-.1c.1.3.4.2.6.1zm15.3.3c.2.2.4.2.7 0a.48.48 0 00-.7 0zm-6.4 1.1c.3 0 .5.2.8-.1a.63.63 0 00-.8.1zm10.8.3c.4 0 .4 0 .3-.4-.2 0-.3.1-.3.4zm-30.4-5.1l.1.1a.37.37 0 00.3-.1.25.25 0 00-.1-.4zm-1 5.7c.2.2.5.2.6 0-.1-.2-.4-.2-.6 0zm24.4.7c-.3-.2-.5-.2-.7 0a.48.48 0 00.7 0zm-21.3-6.4c-.5 0-.5 0-.4.4.2 0 .3-.2.4-.4zm6.3-13.9c.4.1.5 0 .3-.4-.2 0-.4.1-.3.4zm.3-9.7c.2-.2.2-.5-.1-.8 0 .3-.1.5.1.8zM74 46a.21.21 0 000-.4c-.2.1-.2.2 0 .4zM58 151.4c.1.2.2.1.4 0-.2-.1-.3-.1-.4 0zm33.8.8l-.1-.1c-.1 0-.2.1-.1.2v.1l.1.1zm-15.5 4.3c.1 0 .2.1.3.1l.1-.1a.21.21 0 00-.4 0zm-27-2.4c-.1-.2-.2-.1-.4 0 .2.2.3.1.4 0zm28.4-9.6c.1 0 .2.1.3.1l.1-.1c-.1-.1-.1-.1-.2-.1s-.2 0-.2.1zm18.4 9a.21.21 0 00-.4 0c.1.1.2.1.4 0zm-43.5-.7c.1 0 .2.1.3.1l.1-.1c-.1-.1-.2-.1-.4 0zm16.5-6.7zm21.9 6zm-16-25.7zm-1.1 31.7zm13.1-1.9zm8.7-2zm-22-9.8zM38.4 186.3c.1.4.5.3.9.5-.4.3-.9.1-1.4.3a1.65 1.65 0 00-.8 1c1.6.1 3.1-.5 4.8-.5-.4-.6-.9-.1-1.3-.4.2-.4.6-.1.9-.3s.2-.8.4-1.1c0-.3-.4-.4-.3-.8l1.3-.1c0-.4-.2-.5-.5-.5a1.85 1.85 0 00-.7.2l-1.3-.6h-2.2v.5c-.4.2-1 .2-1.2.8a9.31 9.31 0 00-1.9 1.1v.5l-1.3.1a8.17 8.17 0 01-2 1.2c-.3-.2-.1-.4.1-.5s.5-.4.8-.6c.1-.1.1-.2.2-.3a7.94 7.94 0 00-2.2-.1 4.85 4.85 0 00-2.3 1.5 1.2 1.2 0 00.5.5l.9-.3c.2.1.4.1.5.2a3.39 3.39 0 01.6 2c-.3.3-.6.2-.9.2 0-.1 0-.1-.1-.2h-.1c0 .1 0 .2.2.2-.1.4.2.7.4 1.1s.6.9.9 1.4 0 1.1.4 1.5l-.4.8a2.55 2.55 0 00-1.2.8c-1.4.4-2.8.4-4.1.7a12.21 12.21 0 01-2.7.1 3.62 3.62 0 01-2.3-.3 7.56 7.56 0 01-3.7-1.8c-.2-.1-.4-.3-.6-.4a5.85 5.85 0 011.2-2.8 1.14 1.14 0 00.3-.8c.1-.1.3 0 .1-.2l-.1.2c-.5-.2-.2-.5-.1-.9a20 20 0 01-2.4-.4 2 2 0 00-1.5.3c-.6 0-.9-.5-1.4-.7-1.1.1-2.3-.5-3.5-.3l-1.4-.7-.9.3c-.4 0-.5-.4-.8-.6l-.5.1c-.3-.1-.5-.4-.9-.5a5.77 5.77 0 01-3-1.3 4.67 4.67 0 00-1-.5 2 2 0 01-.8-.4c.1-.4.5-.5.7-.7l-.7-.2c.1-.4.1-.4.6-.4.4-.2.3-.8 1-.8l.6.2.6-.5c.6 0 1.3-.1 2-.1s1.2-.4 1.9-.3a2.89 2.89 0 001.8-.3c.3-.1.8 0 1.2-.1.6 0 1.1.2 1.6-.1s1.1.1 1.6.1a21.08 21.08 0 003.5-.5l1.7.3.7-.5c.8.5 1.6.3 2.6.3.2-.8 0-1.6.2-2.4a2.58 2.58 0 011.2-1.1l.1-.9.6-.9v-1.7a5.66 5.66 0 01.3-2.6 1.1 1.1 0 000-.8 7.49 7.49 0 01.2-2.1c.1-.5.1-1.1.2-1.6.1-.7-.2-1.4-.1-2.1a7.94 7.94 0 00.1-2.2 7.57 7.57 0 01.1-1.5 6.15 6.15 0 00-.1-1.4 4.45 4.45 0 01.3-2.3.45.45 0 000-.5c-.3-.5.1-1-.1-1.4a8.1 8.1 0 01-.1-3.1c0-.2.2-.4.3-.6.1.1.2.1.2.2a.9.9 0 01.1.5v9c-.6 1.9-.2 3.9-.3 5.8v1.7a11.42 11.42 0 01-.5 3.7l.3.9c.1.1.2 0 .2-.1a9.91 9.91 0 00.4-3.4v-.5a5 5 0 00.1-3.2c-.1-.4.1-.8 0-1.3a3.13 3.13 0 00.2-1.9 14.52 14.52 0 01.2-3.6c.1-.6 0-1.2.1-1.7s0-1.3.1-2v-3.6a3.55 3.55 0 00-.2-1 5.33 5.33 0 01.1-2.8 3.23 3.23 0 01-.4-2.7l.5.3c0 1.3.5 2.6.4 3.9a3.4 3.4 0 00.1 1 2.78 2.78 0 010 1.8 2.88 2.88 0 00-.1 1.3v5.3a3.72 3.72 0 01-.2 1.8c-.2.3-.1.8-.1 1.1v6a3.72 3.72 0 01-.2 1.8.37.37 0 00-.1.3 21.86 21.86 0 01-.3 3.6c-.1.6 0 1.2-.4 1.7.7 1.2 1.2 2.4 2.2 3 .4.4 0 .9.4 1.1.5 0 .6-.4 1-.5a.86.86 0 01.6.3c.1.5-.3 1 .1 1.5.4.3.9 0 1.4.2a1.93 1.93 0 001.3 0c.4.4 1 .2 1.4.3h1.3a5.77 5.77 0 011.4.3l.6-.2h.3a4.53 4.53 0 001.6.3h2a8.19 8.19 0 014 1c.3.1.5.3.8.4l1.4.1c.7.4 1.4 1 2.4.7a1 1 0 01.5.4l-.4.7.4.3a2.65 2.65 0 01-1.4 1.7l-.3.7c-.5.3-.9-.2-1.3-.2s-.4.1-1.1.6l-1.9.1c-.9.5-1.9 1-2.9.3-.6.1-1.1.6-1.6.3l-.7.6-.7-.2a1.69 1.69 0 01-1.8.1l-.7.5a5.39 5.39 0 00-2.5-.3 1 1 0 01-.5-1.4c.5-.4 1.1-.2 1.6-.2h1.5a3.52 3.52 0 002-1.4c-.2-.5-.7 0-1-.4a.31.31 0 01.2-.1 7.22 7.22 0 012-.9zM4.1 186c.1.2.2.3.6.1zm1.3-1a3 3 0 001.3-.1l.3-.3c-.1 0-.2-.1-.3-.1-.4.1-.8.3-1.2.4a.1.1 0 00-.1.1c-.1.1-.3 0-.1.2zm27.7-.3l.2.5c-.5.2-.9.4-1.4.6-.2.1-.4.2-.2.5h2.8a2 2 0 001-1 4.16 4.16 0 002.3-1.3h-6.7l-1.1.8v.5a3.55 3.55 0 00-1 .2c-.2.1-.4.2-.3.5a2.2 2.2 0 01.8.1c.1 0 .2.2.4.3-1.5 0-1.5 0-2 .5.5-.2.9.4 1.4.1a1 1 0 00.5-.6 2.36 2.36 0 001.5-.7c0-.3-.4-.2-.3-.6a7.12 7.12 0 002.1-.4zm-16 2.3c.3.5 1 .4 1.4.6h1.8a6 6 0 00.8-.8c.1-.1.2-.3.3-.4s-.1-.4-.1-.6l.4-.4a.62.62 0 00-.2-.7 1.39 1.39 0 00-1 .5c-.2.2-.1.6-.5.8-.7-.1-1.3.3-2 .4l.2-.6c-.3-.2-.7.1-.9-.4h2a14.8 14.8 0 001.3-.8c.3-.3.9-.1 1.1-.6a8.93 8.93 0 00-2-.6 4 4 0 00-2.2.8c.5.3 1.2-.1 1.8.4-1.3.2-2.5-.1-3.6.2l-.2.4c.3.3.7 0 1.1.5h-2.5a5.92 5.92 0 00-.6.4.78.78 0 01-.8.2l.2-.6a.75.75 0 01-.5-.1c-.2 0-.4.1-.5-.3a4.55 4.55 0 003-.6v-.4a1.73 1.73 0 011-.1 1.91 1.91 0 001-.5 5 5 0 00-3-.4c-.3.3-.9.2-1.1.8.4.3 1 0 1.4.4a10.29 10.29 0 01-1.7.1 7.57 7.57 0 00-1.5.1.47.47 0 00-.5.5c.1.3.6 0 .7.4H9.5c-.5.4-1.1.3-1.3.9.9.3 1.8-.1 2.5.4l.9-.3a7 7 0 005.5.4zm5.3 9a20.84 20.84 0 012.5 0 10.68 10.68 0 002.5-.1 4.51 4.51 0 002.5-.7 1.5 1.5 0 00.9-1l-2.2-3.5c-.6-.3-1.1.1-1.5.2-.4-.4-.4-.4-.8-.4-.3.3-.2.7-.1 1.1s.9.7.8 1.4l-.3.2c-.8 0-.9-.8-1.4-1.1a1.21 1.21 0 00-.7.7l.2.6a.51.51 0 01-.5.4c-.7-.3-.3-1-.6-1.5-.2-.2-.3-.6-.7-.6-.2.2-.3.5-.6.5a.37.37 0 01-.3-.1.31.31 0 01-.1-.2c0-.5.7-.6.5-1.2l-.9-.5-1.5.7a16.66 16.66 0 00-1.8 2.8l.8 1c1 .7 2.3.5 3.3 1.3zm1.8-17.9a2.83 2.83 0 00-1.1 1.7 8.31 8.31 0 01-.3 2.8.89.89 0 00.5.8 11.3 11.3 0 002.6 0l.4-.5v-2.5c-.1-.2-.1-.4-.3-.6a9.58 9.58 0 00-1.8-1.7zm20.1 6.7c-.6.7-1.8.7-2 1.9.7-.2 1.3-.6 2-.1-.1.3-.6 0-.7.4a3.64 3.64 0 002.7-.4.49.49 0 00.3-.6c-.6-.9-1.7-.4-2.3-1.2zm-21.1 6.4l1 .8 1.1-.4c.2-.5 0-.8-.4-1.1l-.9.3a.63.63 0 00-.8.4zm5.6-6.2l1.3-1a26.23 26.23 0 00-2.9.1 1.15 1.15 0 00.6.9zm-14.4 3.1a1.3 1.3 0 001 .2 2.88 2.88 0 011.3.1 3.72 3.72 0 001.8.2h2.1a.76.76 0 00-.4-.2 19.53 19.53 0 01-3.4-.3 4.87 4.87 0 00-2.4 0zm13.3.1a1.43 1.43 0 00-.6-1.2c-.7-.1-.9.4-1.3.9.6.6 1.2.4 1.9.3zm-5.1-2.1c-.1.5-.1 1.1-.2 1.6a.27.27 0 00.3.3c.3 0 .4-.3.6-.6 0-.2-.1-.4-.1-.6s-.1-.5-.1-.7zm-15.1-.9a2.53 2.53 0 002.5-.4l-.7-.3c-.5.4-1.1.1-1.6.4zm16.7 2.7a.4.4 0 00.5-.1c0-.4.2-.8-.1-1.2l-.3-.1c-.3.4-.2.8-.1 1.4zM8 185.8c-1.2-.1-1.2-.1-1.8.2.6.6 1.2.2 1.8-.2zm1.8-2.1l.3.3.6.3 1.2-.5-.1-.1zm-6 .8c.4.4.5.4 1 .2.2-.1.3-.3.1-.5zm19.1 4.4a2.36 2.36 0 00-2 .1h1.5a1.09 1.09 0 01.5-.1zm5.1-5.4a4.11 4.11 0 002.2 0 4.11 4.11 0 00-2.2 0zm-2.1 5.3a.91.91 0 001 0 1.17 1.17 0 00-1 0zm-1.7-3.9c.3.2.5.2.7 0-.2-.2-.4-.2-.7 0zm1.8 1.9c-.1-.1-.1-.2-.2-.3l-.1-.1c0 .1-.1.2-.1.3 0 .3.2.4.4.1zm-14 .6c-.3 0-.5-.2-.7.1a.5.5 0 00.7-.1zm15.6-5.5a.21.21 0 00-.4 0l.1.1a.37.37 0 01.3-.1zm-14 6a.37.37 0 00-.3-.1c0 .1.1.2.3.1zm14.3-2.4c-.1-.2-.2-.1-.4 0l.1.1c.2 0 .3 0 .3-.1zm-3.6-8.6zm2.3 9.7zm1.7 1zm-4.1 1.2z"/><path d="M38.8 97.2l.7-.6v4.9a4 4 0 00.2 1.9.9.9 0 01.1.5v5.1c0 .1-.1.2-.1.3-.3-.2-.3-.6-.7-.7-.4.3-.1.7-.1.9.5.4 1 .1 1.4.3s.2.5.4.7a6.58 6.58 0 011.5 1.4l.1 1.2c.2.3.4.3.6.2a5.3 5.3 0 001-.6c.9.3.6 1.1 1 1.6l-.5 1.3-.8.1a1 1 0 00-.7-1l-.2.2c.3.6.3.6.9.7a1.42 1.42 0 00.9 1.3 20.09 20.09 0 003.3 1.6c2.1.8 4.3 1.5 6.4 2.2 1.4.5 2.8.9 4.3 1.3a4.87 4.87 0 011.1.4 7.63 7.63 0 011.1.8c.1.8-.7 1.1-1 1.6a15.25 15.25 0 01-3.7.8 6.07 6.07 0 00-1.8.5l-.5-.2-.7.2-.6-.3a4.67 4.67 0 01-1.7.3h-3.2a2 2 0 00-.7.1 3 3 0 00-.8.4 29 29 0 011.9 3.4c-.2.6 0 1.3-.5 2.1a3.83 3.83 0 01-1.1.5 19.42 19.42 0 01-5.9.6h-1.2a15.38 15.38 0 01-5.2-.9c-.2-.1-.4-.1-.6-.2l-1.3-1.3a24.8 24.8 0 011.5-4.1 4.93 4.93 0 00-2.3-.6c-.9 0-1.8-.5-2.8-.4-.8-.4-1.6-.2-2.5-.6-.5 1.2.1 2.5-.3 3.6.2 1.2-.4 2.3-.4 3.5l-.3-.9c.4-1.7-.1-3.4.4-5.2-.1-.2-.1-.3-.2-.5v-5a3.71 3.71 0 01.2-.9 2.79 2.79 0 010-2.2 2.88 2.88 0 00.1-1.3v-6.6a.55.55 0 01.6-.4 10.82 10.82 0 010 1.8 4.3 4.3 0 000 1.6c-.3.5.1 1.1 0 1.6a6.72 6.72 0 01-.3 2.8 4.11 4.11 0 000 2.2c.5.2.8-.2 1.2-.3a23.94 23.94 0 004.4-1.8 17.94 17.94 0 013-.9l.9-1.1c.1-.9.6-1.8.4-2.8a4.35 4.35 0 011-1.6 3.32 3.32 0 001.3-2.6c.5-.9.2-2 .4-3l.5-.7c.1-.3-.3-.4-.4-.9a10.28 10.28 0 00-.1-1.7 10.8 10.8 0 000-1.8 16.28 16.28 0 01-.3-3.1 5.11 5.11 0 00-.3-2.1c-.1-.2 0-.4 0-.6a.37.37 0 01.5-.2c.3.4.1.9.2 1.3a9.91 9.91 0 01.3 1.9c-.1 0-.3 0-.1.2zm5.3 21c-.9.1-1.7-.6-2.6-.6a8.21 8.21 0 01-4.4 0c-.6.1-1 .6-1.6.5-.2-.4.5-.4.2-.9-.2 0-.4-.1-.6 0-1.3.4-2.5.8-3.7 1.3a39.93 39.93 0 01-4.8 1.9l-.6.3c-.7.7-.2 1.6-.6 2.4.4.2.1.8.4 1a5.73 5.73 0 011.4.4 7.22 7.22 0 003.6.6c.3 0 .6-.1.8 0a4.45 4.45 0 002.3.3h4.3a4.87 4.87 0 001.2-.1 4.7 4.7 0 013.1 0 2.26 2.26 0 001.8-.1 1.27 1.27 0 01.6-.1 24.33 24.33 0 003.8-.3 8.16 8.16 0 014.1.2c.1.1.3 0 .5 0a3.38 3.38 0 011.9-.9c.6-.2 1.2-.3 1.7-.5.1 0 .2-.2.2-.5l-1.9-.1a2.4 2.4 0 01-1.2-.7 3.35 3.35 0 00-2-1.1c-1.1-.3-2.2-.8-3.3-1.2a25.49 25.49 0 00-3.9-1.3c-.1.1-.5-.1-.7-.5.2 0 .4.1.5-.2-.3-.1-.4 0-.5.2zm2.2 13a2 2 0 00-.3-1.9c-.4-.5-.8-1.1-1.2-1.6a4.21 4.21 0 00-1.4-1.2c-.5.4-1.3.3-1.9.4a.83.83 0 00-.3.7v.6c.3.6 1 1 .8 1.8a.37.37 0 01-.3.1h-.4c-.6-.3-.6-.9-1-1.2a.65.65 0 00-.8.2 4.1 4.1 0 01-.1 1.1.47.47 0 01-.5.5c-.5-.2-.3-.8-.7-1-.5.2-.9.4-1.4-.1a1.18 1.18 0 01.1-1c.3-.6.9-.7 1.5-.9a1.42 1.42 0 00-.4-1.4 2.25 2.25 0 00-2.1.3 5.07 5.07 0 00-1.8 2.5 20.48 20.48 0 01-.5 2.4.31.31 0 00.1.2l.5.4h1.2a6.11 6.11 0 011.3.3h4.9a3.19 3.19 0 001.4-.3 3 3 0 002.1.2zM39.7 112c-.3-.4-.3-.8-.8-1a12.67 12.67 0 01-1.1 1.3 2.12 2.12 0 00-.6 2.3c1 .6 2.2 0 3.2.5.1 0 .2-.1.4-.1a4.34 4.34 0 00.2-2.3zm-.7 14.7a2.12 2.12 0 000 1.9c.5-.3 1.1-.2 1.5-.6 0-.1.1-.1.1-.2a2.1 2.1 0 00-.4-1.1c-.3-.2-.6-.2-1.2 0zm19.7-3c-.3.2-.6.2-.7.5a.85.85 0 00.7 0zM38 128.8a.21.21 0 00-.4 0c-.1.2-.1.3.1.4zm-7.1-2.7c.1.2.2.2.4 0a.21.21 0 00-.4 0zm26-1.7a.21.21 0 00.4 0c-.1-.2-.2-.1-.4 0zm-1.6-2c-.1 0-.2-.1-.3-.1l-.1.1a.3.3 0 00.4 0z"/><path d="M38.8 61.5l-.6-.1a6.61 6.61 0 010-2.8 12.42 12.42 0 000-4.3 1.48 1.48 0 01-.1-.7v-4.2c.2-.3.3-.3.5-.2.3.5.1 1.1.1 1.6 0 .3-.2.7-.1.9a4.87 4.87 0 01.1 1.2 3.4 3.4 0 00.1 1c.4.1.4-.1.5-.2.2-.4-.1-.6-.2-1a3.23 3.23 0 00.3-1.7v-3a1.43 1.43 0 01.3-1.1 11 11 0 01-.3-1.6v-2.8a2.77 2.77 0 00-.3-1.3l.3-.7a3.07 3.07 0 01-.2-2.1c.4-.1.5.2.5.5a9.7 9.7 0 01.1 1.7 3.89 3.89 0 00.2 1.5 2.26 2.26 0 01-.1 1.8c0 .4.3.8.3 1.3v4c0 .5-.3 1-.1 1.4a1.7 1.7 0 01-.2 1.4 3.35 3.35 0 000 1v3.5a4.4 4.4 0 01-.2 1.6 2 2 0 00-.1.8v1.5a11.07 11.07 0 01-.4 3.6 9.36 9.36 0 00-.4 1.6c-.1.5-.1.9-.2 1.4a9.15 9.15 0 00-.1 1.7v1.9c-.3.4-.6-.1-.8.2a1.69 1.69 0 00-.1 1.4c.3-.2.3-.6.8-.7a11.73 11.73 0 01.5 2.7v3.3a11 11 0 00.2 2.5 12 12 0 01.1 2.7 4.57 4.57 0 00.2 2c.2.3.1.8.1 1.2a5.69 5.69 0 00.4 2.6c-.1.3-.2.5-.3.8s0 .5-.4.7a2 2 0 00-.1-.8 6.8 6.8 0 00-.2-2 2.88 2.88 0 01-.1-1.3v-2.5c-.4.1-.3.3-.3.5a8.13 8.13 0 01-.1 2.2c-.5 1.4-.2 2.9-.3 4.3a6.05 6.05 0 010 1.9c-.1.6 0 1.2-.1 1.8 0 .1-.1.2-.1.3-.3-.2-.2-.5-.2-.7v-2.2a3.89 3.89 0 00-.2-1.5 1.48 1.48 0 010-1.3 3.89 3.89 0 00.2-1.5v-5.7a3.89 3.89 0 00-.2-1.5 4.33 4.33 0 01-.1-1.6c-.1-.8.2-1.6-.3-2.2.1-.3.2-.5.5-.6l.3.4s.1 0 .1-.2v-2.5c-.6.1-.6.5-.6.9-.1-.1-.3-.2-.3-.3v-1.3a3.89 3.89 0 00-.2-1.5 1.7 1.7 0 010-1.4 3.64 3.64 0 00.2-1.4c.1-.4.6-.4.6-.8-.1-.2-.3 0-.4-.1s-.1-.2-.1-.3c.3-1.4.5-2.9.7-4.3.2-.4.6-.2.9-.5v-.8a.1.1 0 00.1-.1 3.09 3.09 0 00-.1-2.3zm-.5 19.1c-.2.2-.2.5.1.8 0-.3.1-.5-.1-.8zm0-2zm0-.9zm-.7-8zm1.7-12.3zm-.4-2.4zM26.1 20.1l-.1-.5-.5.1c-.8-.6-.3-1.6-.5-2.3a3.81 3.81 0 00-.4 3.1 2.2 2.2 0 01.1.8c0 .3-.2.7-.2 1s.3.6.1.9-.3.2-.5 0a24.37 24.37 0 01-.1-2.7l-.5-1.5-1-.9a2.4 2.4 0 01-.2-1.4v-1.3l1.8-1.3c.2-.5-.3-.9-.2-1.1.3-.6.5-.9 1-.8a7.51 7.51 0 01.5 2.6 1.85 1.85 0 01-.7.8c-.2.1-.2.4-.2.6l-.1.1.1-.1h.9c.4.2.7.4 1.1.6h.1c.3-.3-.2-.6-.1-.9a1 1 0 01.5-.6.76.76 0 01.4.2.71.71 0 01.3.6 4.16 4.16 0 01-.2 2.5 5.15 5.15 0 001.5 2.7.49.49 0 00.6-.3 11.72 11.72 0 001.2-3.1c.1-.8.5-1.5.7-2.4a12.25 12.25 0 01.2-1.9c.2-.6-.1-1.2.3-1.8-.5-.8.3-1.6.2-2.4a5.24 5.24 0 00.3-2.5c-.1-1.1.5-2.2.4-3.3A5.64 5.64 0 0033 .2l.3-.2c.3.3.2 1 .9 1 0 1.5-.6 2.8-.3 4.2l-.5.5c0 .3.1.8.1 1.3v3.2c0 .5-.2.9-.2 1.4a3.33 3.33 0 000 1 1.88 1.88 0 01-.3 1.9c-.4-.7 0-1.4-.4-2.2a8.73 8.73 0 01-.7 3.7v1.7a1.06 1.06 0 00-.7.6c0 .3-.2.6.2.9a2 2 0 00.4-1.5.55.55 0 00.3-.5 4.55 4.55 0 01.5-2h.4c0 .1.2.3.1.4a17.51 17.51 0 01-1.8 5.3c-.4-.3 0-.8-.4-1.1a6.08 6.08 0 01-.9 1.8l-.8.4-1.3-.5c-.2.3-.2.3.8 1.2h.7a2.54 2.54 0 001.1-1.2c.3-.1.4 0 .5.3a4.09 4.09 0 01-1.6 1.6 2.58 2.58 0 01-2.4-1.8 1.87 1.87 0 00-.9-1.5zm-2.2-2.8a.3.3 0 000-.4c-.1.1-.1.2 0 .4zm2-.1c-.2.1-.1.2 0 .4.2-.1.1-.2 0-.4zm6.8-6.6zM74.5 42.8l-.9.2a4.64 4.64 0 01-.3-3.3 2 2 0 000-1.5 3.89 3.89 0 01-.2-1.5 11.34 11.34 0 00-.3-2.5 3 3 0 01.1-2.1 1.76 1.76 0 01-.2-1.4c0-.4.3-.9.1-1.3s.1-1 0-1.5a1.88 1.88 0 00-1.8-.2 5.66 5.66 0 01-2.3 2.3 4.71 4.71 0 01-1.5.6 14.49 14.49 0 01-3.5.7c-.3 0-.5.2-.8.2a4.33 4.33 0 00-.5-.1 2.39 2.39 0 011.4-.5.55.55 0 00.5-.3 5.63 5.63 0 011.8-.7 4.35 4.35 0 002.1-.9 14.42 14.42 0 002.7-2.2c-.1-.6-.5-1.2-.2-1.9s.8-.9 1.1-1.5c.3-.9-.1-1.9.3-2.8.2 0 .3-.1.4 0a2.92 2.92 0 011.1 1.6c0 .6-.5 1.1-.3 1.6-.3.5-.9.5-1 1.1.6.1 1.1-.6 1.7-.4.4.2-.1.8.5.8.4-.4 0-1 .3-1.4l.4-.1a2.35 2.35 0 011.1 1.1l-.4 1.4A7.72 7.72 0 0174 28a2.88 2.88 0 00.1 1.3 7.31 7.31 0 010 3.6 7.08 7.08 0 00-.1 1.4l.6 1.3a13.69 13.69 0 00.1 5.7zm-1-11.4c.1.1 0 .3.2.2l-.2-.2c-.1 0 0-.3-.2-.1zm.1 3.2a4.11 4.11 0 000-2.2 5.41 5.41 0 000 2.2zm0 .8zM41.8 7.4a13.65 13.65 0 002.9.7 13.09 13.09 0 012.8.9c.1 0 .1.2.2.3-.4.4-.7.1-1 0a.37.37 0 00-.5.2c-.3 0-.6.1-.8 0a8.19 8.19 0 00-3.1-.3 8.75 8.75 0 00-2.6 1.2c-.3.5-.1.9.1 1.5a4.15 4.15 0 00-.3 1.6v4.3a11 11 0 01-.2 2.5 3.61 3.61 0 00.1 2.5 2.2 2.2 0 01.1.8 52.53 52.53 0 00.3 5.6 36.48 36.48 0 01.1 4.7c0 .6-.1 1.1.3 1.5l-.6.9a1.79 1.79 0 01-.3 1.7l-.3-1.4c.1-.3.1-.7.2-1 .4-.6.2-1.2.2-1.8-.5-.7-.1-1.5-.3-2.2a2.62 2.62 0 01.2-1.5c-.6-1.4 0-3-.6-4.4a1.79 1.79 0 00.1-1.6 2.15 2.15 0 01-.2-1.1v-5.7c-.1-.8.6-1.5.2-2.3a3.8 3.8 0 01-.2-2.1v-2.1c-.2-.5-.6-.4-.8-.6.1-.5-.4-.7-.6-1a2 2 0 01-.2-1.3 2.38 2.38 0 011.3-.9l.6.6c.4 0 .8 0 1-.4-.3-.6-1-.4-1.5-.9a12.21 12.21 0 01-.1-2.7c.4-.2.6-.1.9.2.3 1 .6 2.2 2 2.4.4.1.6.6.6 1.2a.49.49 0 00-.2.8 3.62 3.62 0 002.9.3l-2.6-.6zm-.8.7a1.58 1.58 0 00-2 .2.46.46 0 00.5.4zm4.7.8zM24.4 77.2a.76.76 0 01-.2-.4 23.36 23.36 0 01-.4-2.6 28.05 28.05 0 010-4.1c.4-.1.4.1.6.3 0 .5-.3 1-.3 1.6v1.6l.4.8.2-.2v-1.8c0-.3-.1-.6.1-.8.2-.5.4-.9.1-1.4a1.86 1.86 0 00-.1-1.9 26.93 26.93 0 01.1-4.9 6 6 0 01-.2-4.4 2.92 2.92 0 01-.2-.9v-4.7c0-.6.4-1.1.2-1.7a7.49 7.49 0 00.2-2.1 10.9 10.9 0 01.3-2.6 4.74 4.74 0 00.1-1.7 3.42 3.42 0 01.2-1.5 12.31 12.31 0 01.1-5.4 7.82 7.82 0 01.2-5h.4a2.23 2.23 0 010 1.4 11.19 11.19 0 00-.1 4.1l-.3.5c.1.7.1 1.5.2 2.2a8.58 8.58 0 00.2 2.2l-.5 1.2.2.6a3.19 3.19 0 00-.3 1.4v1.8a26 26 0 01-.5 3.9 2.08 2.08 0 00.1 1.1c-.3.5.2 1.1 0 1.6s.2 1 .1 1.6a9.65 9.65 0 000 1.7v.5c-.4 1 .1 1.9.1 2.8a2.89 2.89 0 01.3 1.8 10.48 10.48 0 00.1 2.5 4.33 4.33 0 00-.1.5 11.31 11.31 0 00.1 4.1l-.3 1.6a4.25 4.25 0 01.2 1.1c.2.3.5.3.5.6l-.4.5a14.83 14.83 0 01.1 3.7l-.7-1.3V75c-.3.8-.6 1.3-.3 1.8a1.75 1.75 0 01-.5.4zM100.2 6.1c0 .1-.1.2-.1.3a9.39 9.39 0 01-2.6 1.4c-1.9.7-3.8 1.5-5.8 2.3h-.8v-.3c.1-.1.3 0 .1-.2l-.1.2a11.19 11.19 0 00-3.6.5 24.38 24.38 0 00-2.6.6c-.5.1-1 .4-1.7.6h-.8a6.5 6.5 0 00-3.1.4 6.28 6.28 0 01-1.9.3 3.71 3.71 0 00-.9.2 6 6 0 00-3.5 0 3.4 3.4 0 01-1 .1h-3.6c-1.5-.6-3-.2-4.4-.3a4.87 4.87 0 01-1.2-.1.56.56 0 01-.5-.6 9.26 9.26 0 003.3.3 10.21 10.21 0 013 .3 7 7 0 002.5 0 8.75 8.75 0 001.6-.2 5.46 5.46 0 011.8-.1H76a8 8 0 003.1-.4 6.45 6.45 0 012-.3 9.24 9.24 0 002.9-.4c1.3-.4 2.5-.7 3.8-1a32.9 32.9 0 004.3-.9 18.42 18.42 0 003.8-1.7 3.55 3.55 0 01.9-.4 10.89 10.89 0 004.9-3c.1-.1.2-.1.3-.2a.37.37 0 01.5.2v.1l-.1.1.1-.1a.73.73 0 01.6.2 4.82 4.82 0 01-2.9 2.1v-.3a.32.32 0 00.3-.3.32.32 0 00.3-.3c.1-.1.3 0 .2-.2l-.1.2a.32.32 0 00-.3.3.32.32 0 00-.3.3.73.73 0 00-.6.2c.1.1.3 0 .5.1zm-2.7 1c-.4 0-.8-.2-1 .3l-.2.2c.1 0 .2 0 .2-.2.4 0 .8.1 1-.3.1-.1.4 0 .5-.2-.3-.2-.4-.1-.5.2zm1.5-.8zM24.3 129.5c-.3-.4-.2-.7-.2-1.1a5.85 5.85 0 00-.2-1.3 8.81 8.81 0 01-.2-1.7 40.22 40.22 0 00-5-1l-1-1.9 1.3-.9h.2c.6.2.8-.3 1.4-.4l1.4-.1c.7-.1 1.3-.7 2-.7a13.52 13.52 0 01.4-2.9.27.27 0 01.3.3v4.5c0 .2-.1.3-.1.5a20.81 20.81 0 01.1 5v.5c-.1.4-.3.7-.4 1.2zm-.9-7.6c-.3.3-.5.6-.7.8s-.7 0-.8.5a1.38 1.38 0 00.4.3c.2 0 .3.1.5.1a1.42 1.42 0 01.6.2c.2 0 .3.1.5.1.3-1.3.3-1.5 0-1.8zm-1.8 1.9zm-3-1.1z"/><path d="M23.4 46.9l.7-.1c.1.1.2.2.2.3a12.31 12.31 0 00-.2 2 2.08 2.08 0 01-.3 1.3 3.59 3.59 0 01.1 2.5c-.1.3.1.5.1.8a2.35 2.35 0 01-.2.8 27.48 27.48 0 01-.2 4.1 22.45 22.45 0 01.3 2.4 3.65 3.65 0 01-.2 2.9 4.71 4.71 0 01.3.9 1.39 1.39 0 000 .9c.1.4-.2.6-.2.9a3.34 3.34 0 01.1 2.6 1 1 0 01-.4-1c.1-.8-.2-1.6-.1-2.4a20.85 20.85 0 000-2.5 7.69 7.69 0 00-.3-3 4.48 4.48 0 01-.1-1.2 8.68 8.68 0 01.1-2.3c.2-.7-.1-1.4 0-2.1a2 2 0 01.1-.8 8.92 8.92 0 00.3-2.8c0-.5-.3-.9-.1-1.4a2.88 2.88 0 00.1-1.3 6.62 6.62 0 01-.1-1.5zM25.4 91.2c-.3-.6 0-1.2-.2-1.7a4.45 4.45 0 01-.1-1.6 14.92 14.92 0 00-.2-2.1 10.55 10.55 0 00-.2 2.5c0 .6 0 .6-.6 1.6a19.93 19.93 0 01.2-4.9 10.87 10.87 0 00.1-1.8l.5-.1c.3-.3.2-.6.2-1 0-1 0-2.1.1-3.2 0-.2.1-.4.3-.4a.71.71 0 01.3.6v2.8a3.55 3.55 0 01-.2 1 3.8 3.8 0 00-.1 2.1 10.88 10.88 0 01.3 3.1v2.5a.68.68 0 01-.4.6zM24.8 146.2c-.6.8-.2 1.7-.4 2.5h-.1c-.1-.4-.3-.7-.4-1.1.1-.6.4-1.2.1-1.8a2.34 2.34 0 01-.2-1.1v-10a9.64 9.64 0 000-2.4 1.73 1.73 0 01.1-1c.1-.4.2-.8.3-1.3.2 0 .2.2.2.3v9.3a2 2 0 01-.1.7 10.87 10.87 0 000 3.6c.1.8-.1 1.6.5 2.3zM24.7 102.5c.1.4-.4.8 0 1.3 0 1.7.1 3.3 0 5a2 2 0 01-.6-1.6v-3.5c0-1-.1-2.1-.2-3.1a13.5 13.5 0 00-.4-2.8 2.08 2.08 0 01.1-1.1c.1-.3-.2-.7-.1-1.1s-.2-1.1.1-1.8a4.33 4.33 0 00.1-1.6 5.39 5.39 0 01.3-1c.1-.3.1-.6.2-1 .2 0 .3.1.4.3a3.18 3.18 0 00-.2 1.4c0 .5-.4.9-.1 1.4-.5 1.6-.2 3.3-.3 5a7.77 7.77 0 00.2 1.6 5.46 5.46 0 01.1 1.8c.2.4.2.7.4.8zM37.8 24.7l.4-.1a.48.48 0 01.2.6v9.2a4.29 4.29 0 01-.4 1.4 3.92 3.92 0 01.4 1.8 2.54 2.54 0 00.4 1.7l-.3.9a2.46 2.46 0 01.2 1.7.52.52 0 01-.4.2c-.3-.3-.2-.6-.2-.9a8.19 8.19 0 00-.3-3.1 5.46 5.46 0 01-.1-1.8v-3.7a7.72 7.72 0 01.2-1.5 5.11 5.11 0 000-3c-.2-1.2 0-2.3-.1-3.4z"/><path d="M24.8 102.6v-2.3a3.89 3.89 0 00-.2-1.5 2.78 2.78 0 010-1.8 3 3 0 00.2-1 7.61 7.61 0 01.3-2.1 6.56 6.56 0 00.1-2c0-.3 0-.6.4-.7a3.34 3.34 0 01.2 2.6 16 16 0 00-.5 4.9 5.9 5.9 0 00.2 1.4c-.4.6.2 1 .1 1.6a3.79 3.79 0 000 1.5 11 11 0 01.3 3.6 4.4 4.4 0 00.2 1 1.69 1.69 0 01-.1 1.4l-.4-.2a8.53 8.53 0 010-1.6 9 9 0 00-.3-1.6c-.1-.5 0-.9-.1-1.4a8.55 8.55 0 010-1.6l-.4-.2zM24 46.4c-.3-.1-.3-.4-.3-.6a20.89 20.89 0 01.3-5.7 3.36 3.36 0 01-.2-2.2 11.14 11.14 0 00.2-1.7 9.15 9.15 0 00.1-1.7v-3.6c.3-.1.4 0 .5.2a2.51 2.51 0 00.1 1.9 2.55 2.55 0 010 1.5c-.2.7-.1 1.5-.3 2.2a8.84 8.84 0 000 2.3v2.3a5 5 0 01-.2 2.1 8.58 8.58 0 01.2 2.3c0 .3 0 .6-.4.7zM65.4 13.3a3.32 3.32 0 01-2.2 0c-1-.3-2.1-.2-3.1-.6-.7.1-1.3-.4-1.9-.4a6.93 6.93 0 01-2-.3 1.1 1.1 0 00-.8 0 5.89 5.89 0 01-3.9-1 24.49 24.49 0 01-3.9-.8 1 1 0 01-.7-.4 1.11 1.11 0 011.1-.1 13.79 13.79 0 002.9.8 4.76 4.76 0 012.1.7c.8.2 1.7-.1 2.5.4a.45.45 0 00.5 0 13.81 13.81 0 015 .8 1.42 1.42 0 00.6.2c1.2 0 2.3.5 3.4.4a1.38 1.38 0 01.4.3zM74.1 63.1c-.1-.1-.3-.1-.4-.2a1.08 1.08 0 01-.2-.8c.1-1-.2-2.1.3-3.2l-.2-.6a2.65 2.65 0 000-2.3 15.41 15.41 0 01.1-3.7 2 2 0 010-1.7l.3.1a.37.37 0 01.1.3c.1 1.5.1 10.9 0 12.1zM26.1 20.1a10.88 10.88 0 00.3 3.1.85.85 0 010 .7 4.42 4.42 0 000 3.2.85.85 0 010 .7 2 2 0 000 1.1.45.45 0 010 .5 5.66 5.66 0 00-.3 2.6 1 1 0 01-.4.7 1.39 1.39 0 010-.9l-.3-.8a5.34 5.34 0 00.3-2.2v-4.2a14.92 14.92 0 00-.2-2.1 3.66 3.66 0 01.1-2.3l.5-.1zM90.9 10.1c-.1.4-.5.3-.8.4a14.32 14.32 0 01-4.6 1.3 1.42 1.42 0 00-.6.2 11.93 11.93 0 01-2.6.5 9.23 9.23 0 00-3.7.5 4 4 0 01-1.9.1c.2-.5.6-.3.8-.4a6.89 6.89 0 01.8-.3 18.59 18.59 0 013.3-.4c.6.1 1.2-.3 1.8-.4a22.87 22.87 0 003.6-.7c.8-.3 1.7-.5 2.5-.8a6.54 6.54 0 011.4 0z"/><path d="M48.3 9.2c.8-.2.8-.2 2.9.5a17.6 17.6 0 013 1h3.6c1.1.6 2.4 0 3.6.9a3.75 3.75 0 01-2.1 0 16 16 0 00-2.1-.5 8.1 8.1 0 00-2.2 0 5.22 5.22 0 01-2.1-.4 16.15 16.15 0 00-3.6-1 1.39 1.39 0 01-1-.5zM76.2 13.1a11.58 11.58 0 01-3.2.3 13.55 13.55 0 00-2 .2 6.17 6.17 0 01-3.3-.1 4.49 4.49 0 00-1.1-.1.73.73 0 01-.6-.2 1.08 1.08 0 01.8-.2 14.77 14.77 0 002.1.1c.7 0 1.4-.1 2.1-.1h2.2a6.8 6.8 0 002-.2.75.75 0 011 .3zM55.8 27.8a1 1 0 01-.5-.4 9 9 0 00-2.1-2.7 1.38 1.38 0 01-.3-.4c.1-.1.3-.2.4-.1.3.2.4.5.8.6a.32.32 0 00.3.3l.1.1-.1-.1a.32.32 0 00-.3-.3c0-.5-.4-.9-.5-1.4a.45.45 0 010-.5.55.55 0 01.5.3c.7 1.1 1.4 2.1 2.1 3.2h-.7a.32.32 0 00-.3-.3c-.1-.1 0-.3-.2-.1l.2.1a.32.32 0 00.3.3c0 .2.1.4.1.6a2.35 2.35 0 01.2.8zM38.3 42.6l.4.3a4.07 4.07 0 010 1.9c-.2.7.2 1.3.1 1.9a12.1 12.1 0 01-.1 1.9c-.3-.1-.5-.3-.5-.5v-5.4zM24.8 29.4l-.5.9-.2-.2c.1-1.3-.2-2.7.3-3.9a2.05 2.05 0 010-1.1 4.48 4.48 0 00.1-1.1.63.63 0 01.6.5 6.88 6.88 0 00-.3 2.5zM74.1 69.6a3.08 3.08 0 00-.6-.6 1.27 1.27 0 01-.1-.6 17.63 17.63 0 010-2.3c.2-.8-.2-1.5 0-2.3a.52.52 0 01.4-.2c.1.1.2.2.2.3a35.5 35.5 0 01.1 5.7zM25.7 139.5c-.5-.2-.6-.4-.6-.7v-2.2a6.8 6.8 0 00-.2-2 1.5 1.5 0 01.1-1.3h.4a6.08 6.08 0 01.1 1.9c0 .7.6 1.4.1 2.1a5.45 5.45 0 01.1 2.2zM75.2 115.9c-.2-.1-.2-.2-.2-.2-.3-1.5 0-3-.2-4.4l.5-.9a.1.1 0 01.1.1l.1.1c.1 3.4 0 4.5-.3 5.3zM39.3 90.3a28.07 28.07 0 010 5.8l-.4-.2a.37.37 0 01-.1-.3V92c.2-.6.3-1.1.5-1.7zM24.6 109.4c.2.6.2 1.2.4 1.8a6.56 6.56 0 01.1 2v1.7c-.2.2-.3.3-.5.3a22.22 22.22 0 010-5.8zM37.7 20.7l-.4-.1a3.9 3.9 0 01.2-2.6l-.3-.8c.1-.5.2-1 .7-1.2a1.24 1.24 0 00.2.3 5.83 5.83 0 00-.3 2.3 7.23 7.23 0 01-.1 2.1zM25.4 146a2 2 0 01-.3-1.4 32 32 0 01.1-4.4l.1-.1h.4a3.67 3.67 0 01.1 1.8 16.28 16.28 0 00-.3 3.1 2.25 2.25 0 00-.1 1zM37.5 12.4l.5-1.2-.2-.5c.1-.2.2-.3.5-.1a.94.94 0 01.1.9 10.88 10.88 0 00-.3 3.1c0 .2-.1.4-.1.6s-.2.1-.3.1c-.5-.5.2-.9.1-1.4a5.67 5.67 0 01-.3-1.5zM64.5 30.8a9.16 9.16 0 01-4.3-.8c-.1 0-.2-.2-.3-.3.1-.1.1-.1.2-.1a7.36 7.36 0 011.4.4 5.34 5.34 0 002.5.5c.2-.1.4.1.5.3zM24.8 152.6a.1.1 0 01-.1-.1c-.1-.1-.2-.2-.2-.3.1-.9-.5-1.7-.3-2.6a.1.1 0 01.1-.1c.1-.2.2-.2.5-.1l.3 1.7c-.4.4-.3 1-.3 1.5zM24.4 83.2c-.1-.1-.2-.1-.2-.2a22.6 22.6 0 01-.1-2.6c.5-.1.6.2.6.4a8.6 8.6 0 01.1 1.6l-.4.8z"/><path d="M58.8 30.5c-.2-.1-.5 0-.6-.2a19 19 0 01-2.4-2.5l.1-.1c.2.1.4.1.6.2a14.28 14.28 0 012.3 2.6zM38 24c-.4 0-.5-.4-.5-.7v-1c-.1-.3-.1-.6-.2-.9.1-.2.2-.3.4-.2.3.3.2.6.2.9a3.18 3.18 0 00.3.9c-.1.3 0 .7-.2 1zM39.1 186l.1-.5a13 13 0 011.7-.8c.3.4.1.6-.1.7a5.77 5.77 0 01-1.7.6zM24.4 77.2l.3.6c.1.4-.1.6-.2 1s-.1.6-.2 1c-.4 0-.3-.4-.5-.6a8 8 0 00.3-1.5 1.07 1.07 0 01.3-.5zM61.1 31.1h-1.5c-.5-.2-.7-.3-.8-.7a14.16 14.16 0 002 .4.45.45 0 01.3.3zM25 116.1l-.4 1.1a2.57 2.57 0 01-.1-1.5.66.66 0 01.5.4zM57.1 27.8c.7 0 1 .5 1.3 1a1.48 1.48 0 01-1.3-1zM58.5 28.8a.84.84 0 01.9.6c-.6 0-.8-.2-.9-.6zM56.1 26.4a1 1 0 01.7 1 .9.9 0 01-.7-1zM61.2 31.1l.9.1c-.5.2-.5.2-.9-.1zM37.4 73.8c.2.1.4.2.2.5s-.2.2-.4 0l.2-.5zM74.5 43.5v-.7c.4.3.4.3 0 .7zM38.4 186.3c.1-.4.4-.3.7-.3-.1.3-.4.3-.7.3zM37.1 185.3l.2.1c-.2.2-.1 0-.2-.1zM38.2 185.5h.1-.1zM49.9 187.2l.1-.1v.1h-.1zM65.9 158.1h.1v.1l-.1-.1zM32.3 190.9l-.1-.1h.1v.1zM46.1 9.4l.3.1c-.3.3-.2 0-.3-.1z"/><path d="M56.8 27.4a.27.27 0 01.3.3.32.32 0 01-.3-.3zM86.7 154.4v.1h-.1l.1-.1zM18.1 186.3a1 1 0 01-1 .7.9.9 0 011-.7zM12.7 186.3l-.1.2c-.2-.2.1-.1.1-.2zM35.4 185.3h-1.6c1.1-.4 1.1-.4 1.6 0zM33.1 184.7l.1-.2c.2.2 0 .1-.1.2zM33 120.6l.4.3c-.5.6-1.2.9-1.2 1.9a5.64 5.64 0 001.2-.4 5 5 0 011.3-.4 2.14 2.14 0 011.5.9l1.4-.6h2.8c.2 0 .4.1.4.5a3 3 0 01-2.3-.1c-.9.1-1.7.8-2.7.6l-.9-.6c-1.1 0-2 .8-3.1.9l-.4-.3a3.66 3.66 0 011.6-2.7zM32.1 119.2a2.88 2.88 0 012-.7 1.8 1.8 0 01-2 .7zM34.1 118.6a.49.49 0 01.8-.2c-.2.3-.5.1-.8.2zM32.1 119.2c-.1.2-.2.4-.5.2.1-.2.3-.1.5-.2zM29.9 120l.1.1h-.1v-.1z"/></g></g></g></svg>