<svg xmlns="http://www.w3.org/2000/svg" fill="CurrentColor" viewBox="0 0 154 106"><g data-name="Layer 2"><g data-name="Layer 1"><g data-name="Calque 2"><path d="M153.2 27.3a3.45 3.45 0 01-.8-.9.72.72 0 00.4-.7 23.35 23.35 0 00-3.8-5.1l-.4-1.2h-.6c-.2-.9-1-1.4-1.7-1.9a4 4 0 00-2.6-.6c-.1-.2-.1-.4-.4-.4-1.5.1-3 .6-4.5.2l-.9.5-.9-.1a4.19 4.19 0 01-1.5.4c-.8.1-1.5.3-2.3.4a7 7 0 01-2.5 0c-.2 0-.3-.1-.5-.1a8.28 8.28 0 01-3.5-.5 15.72 15.72 0 01-5.3 0c-1.4-.2-2.8-.2-4.2-.4-1.1-.2-2.2-.3-3.2-.4-1.6-.2-3.1-.5-4.7-.6-1.1-.1-2.3-.1-3.4-.3a35.5 35.5 0 01-4.7-.9 15.71 15.71 0 00-2.5-1.4c-.8-.4-1.6-.9-2.4-1.3s-1.8-.5-2.5-1a3.25 3.25 0 01-1.4-.4c-.1 0-.3-.1-.4-.1a1.88 1.88 0 00-.8-.2c-.5 0-1-.1-1.5-.1h-.1a2.13 2.13 0 01-1.2.3 3.75 3.75 0 011 .1 2.79 2.79 0 011.8.1c.1 0 .1.1.2.2-1 .5-2.2.2-3.2.3a8.54 8.54 0 01-3.1-.4l2.3-.3a43.61 43.61 0 01-6.3-.3.1.1 0 01-.1.1v-.1c-.3 0-.5-.1-.8-.1a.35.35 0 01-.1.2 1.58 1.58 0 01-1.5-.1c0-.1.1-.2.1-.3a1.27 1.27 0 01-.6-.1.1.1 0 01-.1.1c-.2.1-.3 0-.3-.2-.2-.1-.4-.1-.5-.2l-2.3-.3a6.88 6.88 0 01-1.3-.2c-1.4-.3-2.8-.6-4.2-1a15.24 15.24 0 01-3.8-2h-.1c-.1-.1-.3-.2-.4-.3v-.1c-.4-.3-.9-.5-1.3-.8v.1h-.1a10.09 10.09 0 00-1.5-.7c-2.4-.9-4.6-2-7-3-.2-.1-.4-.1-.6-.2-.5.2-.9-.1-1.4-.1A1.46 1.46 0 0152 .4V.2c-.2-.1-.4-.1-.6-.2a2.51 2.51 0 00-.4.7 4.5 4.5 0 00-1.2.6c-.2.2-.1.7-.7.8-.3.1-.5-.2-.9-.2a38.75 38.75 0 01-3.1 2.6 5.6 5.6 0 00-1.6 1.8v.3l1 .3.6-.6a4.35 4.35 0 01.7-.6c.2-.1.2-.5.6-.4-.8 1.5-1.9 2.8-2.2 4.6.1.3.4 0 .6.2a.6.6 0 00.6.3 1.42 1.42 0 01.2.6 1.7 1.7 0 011 0 3.11 3.11 0 00.7-.9c.5.3.3.8.5 1.2.1 0 .2.1.3.1h.3l.2.3c.2.1.3.3.5.5a4.35 4.35 0 00.6-.7v-.2c-.2-.1-.4-.1-.5-.4s-.1-.7.2-.9a3.82 3.82 0 011.3.4c-.1.6-.2 1.1-.3 1.6a2.77 2.77 0 00-.1.9 13.05 13.05 0 01-.3 3.4c-.1.4-.2.9-.3 1.3a3.71 3.71 0 01-.4 1.5 5.07 5.07 0 00-.4 2.4 3.14 3.14 0 01-.5 2.1 3.74 3.74 0 00-.6 2.5l.5.1c0 1.4-.4 2.7-.5 4a4 4 0 00-1 2.3 3.49 3.49 0 01-.8 2.2 7.05 7.05 0 01-.6 2.5 10.13 10.13 0 00-1 3.5c0 .1-.1.1-.2.2a22.28 22.28 0 01-5.2-1.5c-2.1-.9-4.2-1.7-6.4-2.4l-2.4-.9a13.61 13.61 0 01-2.5-1.1h-.3l-.2.2c-.3-.2-.6 0-.9-.1-.1-.1 0-.4-.1-.4a8.44 8.44 0 00-2.8.1c-.5 0-.7-.4-1.1-.3l-.4.8c-.1.1-.3.2-.4.3a4.3 4.3 0 00-2.1 1.9c-.1.3-.4.4-.6.7s-.6.5-.7.9l.1.6c-.2.3-.7.5-.8.9v.2l1.1.2c.4-.1.6-.4 1-.3l.7.7.9.2.6-.2a.82.82 0 01.5.5 7.22 7.22 0 01-.9 2 14.17 14.17 0 00-.8 1.8c-.1.3-.2.7-.3 1a21.67 21.67 0 00-.8 4.3l.5-.3a.55.55 0 01.3-.5 2 2 0 01.2-1.1c.3-.7.5-1.4.8-2.1a20.37 20.37 0 01.9-2.2 13.34 13.34 0 011.3-3.3c-.1-1.2.5-2.3.7-3.4-.1-.3-.5-.5-.4-.9l.5-.4c-.4-.3-.5-.6-.2-1 .2-.1.4-.1.5.1a1.7 1.7 0 01.1.7 4.87 4.87 0 00.1 1.2c0 .2.2.3.4.2a.8.8 0 00.2-.9c-.1-.3-.2-.6.2-.9.2.1.4.1.6.2a6.35 6.35 0 011.2.7c.2.3.1.5.4.6a3.92 3.92 0 011.8.4 4.19 4.19 0 001.5.4v.5l.8-.5h.5c.2 0 .4.1.6-.1a4.48 4.48 0 00-2.9-.7 1.38 1.38 0 00-.3-.4l-.3.2c-.2-.2-.3-.5-.5-.7s0 0 .1-.1l.3-.1c1.5.9 3.3.9 4.8 1.8l-.4.3.1.6c.3-.3.6-.7 1.2-.4.2.2.1.4.2.6l.9-.4c1.7.2 1.7.2 2.3.7a4.36 4.36 0 00-2.2 2.9 14.6 14.6 0 01-1 3.4 1.42 1.42 0 00-.2.6c-.3 1.2-.9 2.3-1.2 3.4s-.9 2.4-1.2 3.6c-.2.9-.5 1.9-.8 2.8s-.6 1.8-1 2.7a1 1 0 000 .9 3.38 3.38 0 00.6-1.2c.1-.3.2-.7.3-1a13.52 13.52 0 001.1-3.4 6.64 6.64 0 01.6-2c.5-1.6 1.1-3.1 1.6-4.7.2-.7.5-1.3.7-2s.6-1.2.8-1.9a10.84 10.84 0 01.8-1.9c.3-.5.4-1.2.8-1.6.4-.1.7-.2 1-.3a2.85 2.85 0 011.3 0c1.1.4 2.3.4 3.3 1.2a.76.76 0 00.5.2 5.78 5.78 0 011.4.5l.7-.1a5.85 5.85 0 002.8 1.2 7.2 7.2 0 013.8 2.1c.2.2.4.5.2.8a2.67 2.67 0 00-1.9 1.3c.5 0 .8-.5 1.3-.6a6.62 6.62 0 011.5-.1 9.06 9.06 0 011.6 1.1 4.47 4.47 0 00-2.4 1.6c-.6.2-.6.8-1 1.2a4.57 4.57 0 00-1.1 1.6 5.72 5.72 0 01-1.1 1.6 2.13 2.13 0 00-.7 1.2l.1.1a6.15 6.15 0 001.6-2 20 20 0 012-2.8 4.81 4.81 0 012.7-1.9 1.76 1.76 0 01.9.8c.2.4.7.3.8.8a7.12 7.12 0 01-1.1 1.7c-.5.8-1.2 1.6-1.8 2.4 0 .1-.2.1-.2.1-.3-.5.5-1.1-.2-1.5a3.67 3.67 0 00-.3 2.9c-.1.5-.6.9-.5 1.5.4-.1.5-.6.9-.8h1a1.35 1.35 0 001.2-.5c-.6-.1-1.1.3-1.7.2-.2 0-.3-.1-.4-.3a.8.8 0 01.2-1c1.3-1.2 2-2.9 3.3-4.2l.9.2a7.34 7.34 0 012-.5 8.56 8.56 0 013.9 0 18.67 18.67 0 002.5.4 14.27 14.27 0 013.6.6 2 2 0 001.3.1 7 7 0 014.5.3c.1 0 .3.1.4.1 1.7.5 3.5.9 5.2 1.4a27.93 27.93 0 005.7 1.4c.1 0 .3.1.4.1 1.1.7 2.4.2 3.6.5a24.78 24.78 0 002.7-.3h.4a16.16 16.16 0 003.1.2c.3 0 .6-.1.9.3.1.5-.6.7-.5 1.2.5-.2.7-.8 1.3-1a12.66 12.66 0 002.8.6 8.59 8.59 0 01-.3 1.7c-.1.6-.5 1.1-.4 1.7.4-.1.4-.4.5-.6.1-.5.2-1.1.3-1.7a1.07 1.07 0 01.7-.9 6.9 6.9 0 002.5.4 1.79 1.79 0 01-.5-.7c-1.2-.2-2.3-.9-3.7-1.3a14.32 14.32 0 002.3-.3 10.87 10.87 0 00-1.8-.1 4.74 4.74 0 01-1.7-.1 18.84 18.84 0 00-3.4-.2c-1 0-2.1.1-3.1.2a7.49 7.49 0 00-2.1.2 1.7 1.7 0 01-1 0c.2-.3.6 0 .9-.4-.6-.1-1.1-.1-1.6-.2a2.88 2.88 0 00-1.3-.1 6.46 6.46 0 01-2.7-.5 4.48 4.48 0 00-2-.4 5.9 5.9 0 01-1.4-.2l-4.3-1.2a7.58 7.58 0 00-1.6-.6 15.17 15.17 0 00-2.1-.3 2.2 2.2 0 00-1.4.1c-.2 0-.3.1-.5 0l-.1-.5h-.6a3.4 3.4 0 00-1 .1 4.54 4.54 0 01-3.2-.6h-2.6a4.68 4.68 0 01-1.6-.2 7.69 7.69 0 00-3-.3 8.2 8.2 0 00-2.2.2 1.26 1.26 0 01-1.3-.2 2.87 2.87 0 01-1.1-1.4 13.15 13.15 0 01-2.5-2.2 3.48 3.48 0 00-1.4-1.3 6.73 6.73 0 01-1.1-.7 7.46 7.46 0 00-1.2-.7l-.9.1a5.82 5.82 0 00-2.5-1.2 3.34 3.34 0 00.1-1.7l.4-.1c.5-.8.8-1.6 1.2-2.4a10.61 10.61 0 011.6-2.1c.4-.1.6.3.9.4.7.1 1.3.1 2 .2 1.2.2 1.2.2 1.9-.1a18.65 18.65 0 01-2-1 .91.91 0 01.7-.3 1.49 1.49 0 00.9-.2l.2-.2-.1-.4a4.42 4.42 0 011.5.5 1.67 1.67 0 001.2.1c0-.2-.2-.3-.4-.3a10.89 10.89 0 00-3.1-.8 5.85 5.85 0 01-2.2-.5 1.21 1.21 0 00-.8-1.1 1.51 1.51 0 01-.7-1.4c-.1-.9.2-1.8.1-2.7a4.19 4.19 0 01.4-1.5c.1-.3.1-.6.2-.9v-.4l-.4-.9a3.43 3.43 0 00.3-1.8 2.25 2.25 0 01.9-2l2.7-2.1a1.69 1.69 0 011-.3.35.35 0 00.2-.1c.3-.4.9-.6 1.3-.9a.4.4 0 00.2-.4.47.47 0 00-.6-.1c-1 .2-2 .5-3.1.8-.3.1-.6.2-.7.5a.33.33 0 000 .5c.4.1.5-.2.8-.3s.6-.4 1-.2c-.4.6-1.1.8-1.6 1.2a11.09 11.09 0 01-1.6 1.2 1.49 1.49 0 00.1-.6 18 18 0 00.6-3.2 2.62 2.62 0 01.5-1.7c0-.1 0-.2.1-.2l-.2-.4c.1-.5.2-1.1.3-1.6a8.08 8.08 0 00.1-1.6h.1l.1 1.6a13.37 13.37 0 00.9-3.1 16 16 0 000-3.1c-.2-.4-.4-1-1.1-1.2-.5.6.3 1.2-.1 1.8a3.36 3.36 0 01-.5-2.5c.2-.2.4.2.6.1.1-.3 0-.6.3-.9a1.38 1.38 0 011.1-.1l.9.7a1.26 1.26 0 001.3-.3c.3.3.6.8 1.1 1l.7-.1a17.64 17.64 0 013.7 1.7 5.83 5.83 0 001.8.8 4 4 0 001.6.8l3.1.9c1.6.5 3.2 1 4.9 1.5a10.36 10.36 0 012.4.9 2.92 2.92 0 01-1.6-.1c-.3-.1-.6-.1-.9-.2-1.3-.2-2.7-.3-4-.5-.1 0-.3 0-.3.2s.4.3.6.3a3.23 3.23 0 012.2.7 8.8 8.8 0 011.7.2 5 5 0 001.7.2 23.49 23.49 0 012.7.1 13.4 13.4 0 004 0h.4c.3.2.3.6.6.7.5.1.8-.3 1-.4.6-.1 1.1-.2 1.6-.3.3 0 .7-.1 1-.1a28 28 0 012.8.6 2.54 2.54 0 001.2.2l.1-.3a4 4 0 011.5.3c1.1.5 2.2.8 3.3 1.2l.8-.2a26.72 26.72 0 003.6 1.4l.2-.4 1.1.4.2.5a8.06 8.06 0 013 1.3c.5.1 1 .1 1.5.2.3.1.5-.3.7-.1a1.39 1.39 0 001.1.2c.5-.1.7.3 1.1.3 1.6.1 3.2.3 4.8.5 1 .1 2.1.2 3.1.4 2.1.4 4.1.6 6.2.9l2.1.3c1.1.1 2.2.2 3.3.4.2.1.3.4.7.4a5.84 5.84 0 001.8-.2l.8.4a7.77 7.77 0 011.6.2 4.6 4.6 0 002.6 0 3.4 3.4 0 011-.1 9.86 9.86 0 013.8.7c.4.2.8.3 1.2.5a.37.37 0 00.5-.2c0-.1-.1-.2-.2-.3a5 5 0 00-2.6-1.1 4.77 4.77 0 01-2.2-.7c.7.1 1.3.5 2 .1-.5-.3-1-.2-1.4-.6.9-.2 1.9.1 2.8-.3a12.41 12.41 0 002.7.3 4.06 4.06 0 011.9.4 8.8 8.8 0 001.5.5c.3.1.6.2 1 .3-1 .8-1.9 1.6-2.9 2.4a.91.91 0 01-.7.3c0-.2.1-.4-.1-.6-.1 0-.2 0-.2.1-.9.8-1.8 1.6-2.7 2.3s-1.5 1.4-2.4 2.1a17.67 17.67 0 00-3 3.1 2.84 2.84 0 000 1.3c.2.4.7.4 1 1.1a15.6 15.6 0 01.5 1.6 27 27 0 01-1.3 4.3 26.55 26.55 0 01-1.8 4.2 1.16 1.16 0 00-.2 1 2 2 0 00.8-.8 20 20 0 001-2.1c.5-1.3.9-2.7 1.5-4a18.67 18.67 0 00.7-2.2 14 14 0 00-.9-2.9 1.8 1.8 0 01-.2-1 2.75 2.75 0 011 1.6 28.38 28.38 0 01.6 3.1 10.64 10.64 0 01-.4 4.7 12 12 0 01-1.5 3 11.88 11.88 0 01-3.1 3.6l-1 1.8.4.3a2.18 2.18 0 01-.5.8c-.2-.1-.1-.4-.4-.4a.76.76 0 00-.2.9c.1.1.4.1.4.4a10.55 10.55 0 01-.2 2.5c-.2.9-.2 1.9-.4 2.9a.35.35 0 01-.1.2c0-.1-.1-.3-.1-.4s-.1-.2-.2-.3h-.2c-.4.9-.2 2-.6 2.9a3.39 3.39 0 01-1.4 1.5l-.8 1.7-.8.5a2.65 2.65 0 01-1.4 1.7c0 .3.1.5.1.7-.2 1.2-.4 2.4-.7 3.6-.2.9-.5 1.8-.7 2.8.3.3.3.5 0 .8a6.34 6.34 0 01-.3 2.4l-.4-.1a5.38 5.38 0 00.5 3.3c.1.2.3.5.1.7s-.4-.3-.6-.1c-.2.4.2.6.2 1l-2 .2a4.76 4.76 0 01-2.1.7 14.08 14.08 0 01-2.9-.1.37.37 0 00-.3.1c.1 0 .1.1.2.1a10.79 10.79 0 011.9.3 5 5 0 002.1-.1 16.55 16.55 0 012.1-.6 11.6 11.6 0 002.1 1.6 20.26 20.26 0 01.6 4.3 4.1 4.1 0 00.1 1.1 12.17 12.17 0 01.1 3.3 2.4 2.4 0 00.6 2.1 6.78 6.78 0 012.7 1.3 1.36 1.36 0 01.7 1.1c0 .3.3.7.1 1l-.4.3c.2.4.7.3 1 .6v.4c-.2.1-.5.2-.7.3l-.6.6c-.5.6-1.2.4-1.8.4-.3-.1-.5-.5-.8-.3l.1.4c-.3.1-.6.2-.8 0 0-.2.2-.3-.1-.6-.9-.1-1.9-.1-2.5-1-.2 0-.3.1-.4 0a4.18 4.18 0 01-1-.4 10.08 10.08 0 00-3.4-.9 28.11 28.11 0 01-2.9-.1c-1.3-.1-2.6-.3-3.9-.4a15.52 15.52 0 01-2.1-.4 41.9 41.9 0 01-4.6-1.6 15.39 15.39 0 00-1.9-.8c.3-.4.8.1 1-.5l-1.1-.3c-.4 0-.6.4-1 .2-.1-.2.2-.3 0-.4a6.07 6.07 0 00-1.8-.5c-1.6-.4-3.1-.8-4.7-1.3a1.51 1.51 0 01-1.1-.7 5.75 5.75 0 01.5-2.6c.2-.6.5-1.1.7-1.7a.64.64 0 000-.6c-.2 0-.3.1-.4.3s0 .6-.3.8a3.64 3.64 0 01.6-2.7.35.35 0 01.1-.2V81c-.2 0-.4-.1-.6.1a6.53 6.53 0 00-.5 2 7.39 7.39 0 000 2.1.91.91 0 00-.3.7 5 5 0 01-.8 2.6 2.77 2.77 0 00-.3 1.3V92a11.33 11.33 0 01-.1 2.6c0 .2.1.3.3.2.2-1.5.6-3 .1-4.4.1-.3.1-.5.5-.6a9.7 9.7 0 00.1 1.7v.1c0 .2.2.3.3.2.2-.3.1-.7.1-1.1s0-.5.3-.7h.5c.6.2 1.2.4 1.7.6 1.7.9 3.6 1.2 5.4 1.9.2.1.3 0 .5.1a8.86 8.86 0 013.1 1.1 13.09 13.09 0 003.7 1.5 2.35 2.35 0 00.8.2 18.88 18.88 0 003.4.9c.2 0 .3.1.5.2a9.64 9.64 0 003.8.9.6.6 0 01.4.1 27.94 27.94 0 004 .7c.1 0 .2.1.1.1.3.3.1.7.5.8s.3-.7.6-.7l3.4.1c-.1.2-.4.2-.3.5 1.1.2 1.9-.8 3-.8.3.1.5.2.8.3a7.26 7.26 0 002.8 1 3.94 3.94 0 011.4.5 8.65 8.65 0 002.3.6c.2-.1.4-.3.7-.2.5.1 1.1.2 1.7.3h.3a.67.67 0 00.4-.7l-.4-.6c0-.3.3-.5.1-.9-.1-.2-.5-.1-.6-.4a.51.51 0 00.5-.4c.2-.3-.3-.5-.1-.9s.9-.2.9-.9a2.73 2.73 0 01-.9-1.2c-.3-.3-.7-.2-.8-.6.1-.2.4-.4.2-.7s-.6-.3-.9-.4c.1-.3.4-.5.2-.9-.1-.1-.2-.1-.3-.2s-.3-.1-.4-.1c-.4.4-1 .4-1.4.8a4.57 4.57 0 01-1.6 1.1 17.48 17.48 0 00-2.9 1.8h-.3a8.61 8.61 0 00-3.8-4.8c-.2-.6-.4-1.2-.6-1.9-.1-.3-.3-.7-.2-1a30.28 30.28 0 00-.2-3.1 2 2 0 00-.3-1.1 2.51 2.51 0 01-.2-1.5c-.1-.4-.3-.8-.4-1.2a5.36 5.36 0 00-.5-1.1 1.68 1.68 0 01-.1-1.8 4.57 4.57 0 00.5-1.4 5.83 5.83 0 01-.2-2.3 4.43 4.43 0 01.6-3V71l-.6-.3a7 7 0 01.6-1.9 3 3 0 00.4-1 14.19 14.19 0 00.5-2.2 10.14 10.14 0 011-2.4c.9-1.8 2.3-3.4 3.2-5.3a.35.35 0 01.1-.2 5.13 5.13 0 001-2.4 10.88 10.88 0 00.3-3.1 4.19 4.19 0 01.1-1.6l.5-.3-.3-.7a3.52 3.52 0 011.4-2.2 3.55 3.55 0 001.1-1.6 8.42 8.42 0 011.1-2.1c1.1 0 1.5-.7 1.8-1.6a15.8 15.8 0 00.6-7.8c0-.3.3-.5.1-1a5.07 5.07 0 01-.7-3.3 17.1 17.1 0 011.1-1.4 14.48 14.48 0 001.8-1.7 14 14 0 012.7-2.1 11.36 11.36 0 002.3-1.5.43.43 0 01.6-.1c-.2.3-.3.6-.5.9a5.84 5.84 0 00-.8 2.2c-.1.4-.2.9-.3 1.3a3 3 0 00-.2 1.3 2.28 2.28 0 01-.4 1.6c-.1.2-.2.5-.3.7s.1.1.1.3l.5-.6.7.1.5-.2a.45.45 0 00.6.2c.3-.1.4.4.9.1s.1-1.3.6-1.9l.5 2.2 1.1.2a1.91 1.91 0 00.5-1c0-.3-.3-.6.1-.9.3.1.6.4 1 .3s.7.3.9.2c.6-.4.1-.8.3-1.1.4-.2.6.1.9.1s.6-.2.7-.5c-.4-1-.5-1.2-.7-1.4zM27.9 36.6a18.61 18.61 0 01-2.5-1c.2-.3.4-.2.6-.2a11.43 11.43 0 012.7.8zm7.3 1.9h.4a.76.76 0 01.4.1c-.4.2-.4.2-.8-.1zm23 10.8a7.36 7.36 0 013.3-.1l-2.8.5a.91.91 0 01-.7-.3c.1 0 .1 0 .2-.1zm-7.7-15l1.3.7c-.7.1-.9.1-1.3-.7zm.2-1.5a2.74 2.74 0 012.3.9h-2.2c-.4-.2-.4-.5-.1-.9zm-3.3-.9c.5.3.5.3 0 1a1.16 1.16 0 010-1zm0 3.4l.1.7a25.31 25.31 0 01-1.2 2.3 1.8 1.8 0 00-.3 1.2.75.75 0 00-.5.7 2 2 0 01-.4.8c-.3-.1-.3-.3-.2-.4a22.85 22.85 0 011.2-3.7 3.58 3.58 0 00.4-1.1 6.27 6.27 0 011.6-2.7c.1-.1.3 0 .4.1-.3.7-.8 1.4-1.1 2.1zm.9-3.4l-.1-.1c.1-.4.1-.8.2-1.1.3-.1.4.2.4.4.1.4 0 .4-.5.8zm1.4.5a3.46 3.46 0 01.1 2 .91.91 0 01-1.1-.3c0-.7.7-1.1 1-1.7zM51 2c-.3.2-.5.1-.7-.2h.6c.1 0 .2.1.1.2zm.9-.2c-.1-.4.3-.4.5-.5a1 1 0 01.8.4zm7.2 1.8a1.6 1.6 0 011 .5 1 1 0 01-1-.5zm1.6.8a.76.76 0 01.5.2c-.2 0-.4 0-.5-.2zm.7.5c-.1-.1-.1-.2-.2-.3a14.39 14.39 0 013.6 1.5 8.68 8.68 0 01-3.4-1.2zM98 14c-1.1-.5-2.2-1-3.3-1.4s-2.2-.7-3.5-1.1a4.56 4.56 0 012.1.2c1.2.5 2.4.8 3.5 1.3.5.3 1 .5 1.2 1zm28.3 4.5a21.84 21.84 0 01-5.7-.3c1.1-.3 1.6-.3 5.7.3zm6.5.5a1.27 1.27 0 01-1.2 0 1.65 1.65 0 011.2 0zm1.4.5c.3-.1.6-.2.8 0a.6.6 0 01-.8 0zm1.4-1.2a1 1 0 01.7-.2c-.2.2-.4.1-.7.2zm7-.2c-.5-.5-1-.5-1.5-.8a4.51 4.51 0 012.5.5c-.3.3-.7.2-1 .3zm-7 11.8l-.4-.1a1.46 1.46 0 01.6-.9 1.8 1.8 0 01-.2 1zm-20.4 65.8c.4-.2.5-.1.7.1zm.7.1h1.2c-.7.2-.8.2-1.2 0zm-1.4-1c-.3-.1-.7-.1-1-.2a.55.55 0 01-.5-.3.35.35 0 00.2-.1 13.73 13.73 0 003.5.2 11.15 11.15 0 013.1.5c.2.1.3.1.4.5a5.28 5.28 0 00-2.4-.3 7.18 7.18 0 01-3.3-.3zm7.4 1.7a.64.64 0 01-.6 0c-.9-.2-1.7-.4-2.7-.6l.2-.2c.7.2 1.4-.1 2 .3l.5-.3c.3.1.7.1.8.6-.1.1-.1.2-.2.2zm15.2-4.4c-.1.1-.2.3-.4.1zm-11.1-2a2.85 2.85 0 011.5 1 8.44 8.44 0 01-1.7-.5c-.1-.3 0-.4.2-.5zm-2.3-14.4c-.5-1-.5-1-.1-1.5a2.52 2.52 0 01.1 1.5zm12.6-33.6c0-.1-.1-.2-.1-.3a1.16 1.16 0 01.6-.8 1.61 1.61 0 01-.5 1.1zm6.6-18.6a.79.79 0 01.8-.5c-.1.4-.4.5-.8.5zm1.9-1.3a1.37 1.37 0 01-1 .8 1.37 1.37 0 011-.8.55.55 0 01.5-.3.55.55 0 01-.5.3zm-.9-4.8a2.92 2.92 0 012.7 1.1 5.75 5.75 0 01-2.7-1.1zm.8 1.3a4.55 4.55 0 012 .5 3 3 0 01-2-.5zm2.3 1.7c-.2.4-.2.4-.7.4.2-.3.2-.3.7-.4z"/><path d="M30.8 38.4l-.1-.2c.1.1.2.2.1.2zM30.7 38.3l-.3-.1c.2-.2.2-.1.3.1zM27.4 35.2c-.2.2-.3.1-.3-.1zM35.2 38.5l-.3-.1c.1-.1.2 0 .3.1zM53.6 33.3l-.3-.1c.1-.1.2 0 .3.1zM59.1 3.6l-.3-.1c.1-.2.2 0 .3.1zM60.2 4.1a.76.76 0 01.5.2c-.2 0-.4 0-.5-.2zM62.5 6.2c.1-.1.1-.2.3-.1zM64.9 6.2c.1.1 0 .1 0 0zM94 83.5l-.1.3c-.1-.2 0-.2.1-.3zM127.4 91.1a.76.76 0 01.5.2.55.55 0 01-.5-.2zM145.3 30.1c.1-.1.1 0 0 0zM145.6 21.7c.2-.1.4-.1.5-.2zM152.1 26.3c.2-.1.3 0 .3.1zM132.4 46.7l.3-.3.2-.3.3-.2.1-.1-.1.1-.2.3-.3.2-.3.3v.1-.1zM140.8 24.6q-.15 0-.3.3-.15 0-.3.3l-.1.1.1-.1.3-.3q.3-.15.3-.3l.1-.1zM115.9 17.4c-.1-.1-.2-.2-.4 0zM118.9 17.9c.2.1.3.1.4 0-.1-.1-.2-.1-.4 0zM138.1 26.8v-.1c-.1 0-.1.1-.2.1v.1c.1 0 .2 0 .2-.1zM130.8 19.7c.1.1.3.2.4 0zM50.1 3.3a.14.14 0 00-.2 0c-.1.1 0 .2.1.1 0 .1 0 0 .1-.1zM103.5 16.1h.1l-.1-.1v.1zM114.1 17.1zM141.1 18.2c0-.1 0-.1-.1-.1v.1zM96.9 54.5h.1c0-.1-.1-.1-.1 0zM28.3 37.4h.1v-.1l-.1.1zM99.3 55c.1 0 .1-.1 0 0zM93.9 88.3c-.2 0-.2.1 0 0-.1.1-.1 0 0 0zM114.6 95.4c-.1 0-.1.1 0 0zM95.9 78.5a1.37 1.37 0 00.8.5c1.5.4 2.8 1.3 4.3 1.7.2.1.4.2.4.5a3.85 3.85 0 01-2.1-.5 9.49 9.49 0 00-3.7-1.2l-.5.2c-.3 0-.3-.4-.6-.4l-.2-.8a.31.31 0 01-.2.1 6.9 6.9 0 01-.4 1 1 1 0 01-.4.5c-.1-.5.2-.9.3-1.3l.9-3.3c0-.1.1-.3.1-.4a10.64 10.64 0 00.9-3.5 7.05 7.05 0 01.6-2.5c.1-.3.1-.6.2-.9a1.37 1.37 0 01.5-.8 2.89 2.89 0 01-.3 1.8c-.1.3-.3.6 0 1 .1-.1.2-.1.2-.2.8-1.9 1.7-3.8 2.5-5.7a14.14 14.14 0 011.9-3.4 9.49 9.49 0 001-1.7 2 2 0 01.8-.8 3.18 3.18 0 001-1c.4-.3 1.1-.1 1.3-.7h.5c.3.2.1.4.2.7l.6.9c.1.1.2.1.3.2a2.19 2.19 0 011.2 1.3 5.71 5.71 0 001.3 2.1c.4.4.4.5.5 1.4-.1.3-.3.2-.6.2l-1.1.8-.7-.1c-.4.3 0 .8-.4 1.1a3.59 3.59 0 01-1.1-.2c-.3-.2-.2-.6-.4-.8-.3 0-.3.4-.6.5s-.3-.1-.5-.2c-.4-.1-.6.3-.9.4s-.3-.2-.5-.2h-.5c0-.2-.1-.3-.1-.4a19.46 19.46 0 01.8-2.2c.1-.4.3-.7.1-1.1-.6-.4-.8.2-1.2.3l-.3-.2c.1 0 .2-.1.1-.1a.1.1 0 01-.1.1 3.52 3.52 0 00-1 1.9 29.92 29.92 0 00-.8 3.2 16.12 16.12 0 01-.9 2.9 5.64 5.64 0 00-.4 1.2l.3.4c0 .3-.3.2-.4.4l-2.1 6.7a1.5 1.5 0 001.1.4 17.63 17.63 0 014 .7 10.11 10.11 0 001.7.3 1.8 1.8 0 011 .2 3.31 3.31 0 002.4 0 11.07 11.07 0 013.6-.4 6.8 6.8 0 002-.2 10.06 10.06 0 013 0 14.36 14.36 0 01-4.6.4 6.89 6.89 0 01-4 .8 5.54 5.54 0 00-1.8.2c-.5-.5-1.1-.3-1.7-.7a5.26 5.26 0 00-1.8-.4 10.11 10.11 0 00-1.7-.3l-1.8-.3a14.79 14.79 0 00-2-.1zm1.8-7.4c-.3-.3-.5-.4-.8-.3-.5.4-.5 1.1-.8 1.6a4.71 4.71 0 00-.4 1.6c-.2.6-.6 1-.6 1.7a8.47 8.47 0 01-.4 1.7 1.13 1.13 0 001.1.3 63.57 63.57 0 001.9-6.6zm1.9-7.3c-.7 2.2-1.9 4.2-2.6 6.3a.67.67 0 001-.1c.8-1.9 1.2-4 1.9-6zm5.2-6a.78.78 0 00-.8.4c-.5.4-.5 1.1-.9 1.6a.44.44 0 00-.1.5.45.45 0 00.5 0 8.42 8.42 0 001.3-2.5zm-8.8 13v.1c0 .1.1 0 0-.1zm11.5 8.8h-.1v.1l.1-.1zM19.4 53c-.4.2 0 .6-.1.9a11.28 11.28 0 00-1.2 1.8c-.8 1.4-1.6 2.8-2.3 4.3a8.8 8.8 0 00-.5 1.5 1.69 1.69 0 01-.7 1c.2.7-.3 1.2-.5 1.8s-.6 1.2-.9 1.7l.3.4c-.1.2-.3.1-.5.2a4.74 4.74 0 00-1 1c-.3.4-.2.9-.7 1.4l-.9.7c-.1.1-.3-.2-.5 0a.35.35 0 00.1.2c.8.2 1.7.5 2.5.7.3.1.6.1.9.2a5.49 5.49 0 003.3.5h.5c.3-.3 0-.5.1-.8a1.27 1.27 0 00.1-.6c.1-.2.1-.5.4-.7a1.7 1.7 0 01.1.7 2.23 2.23 0 000 1.4 3.34 3.34 0 001.7.1 1.79 1.79 0 00.6-1c.2-.4.3-.8.7-1l-.7 2.1a2.46 2.46 0 001.2.1 12.52 12.52 0 011.8-4.1 2.51 2.51 0 01.4-.7 15.57 15.57 0 001.6-2.8 2.92 2.92 0 01.7-1.2 3.51 3.51 0 01-.5 2c-.6 1-1.3 2-1.9 3.1-.5.9-.9 1.9-1.4 2.8a4.82 4.82 0 000 1.2l.7.6a2.6 2.6 0 01-1.5-.4l-1.5.1a3 3 0 00-1.9-.4 8.2 8.2 0 01-2.2-.2h-.1a18.61 18.61 0 01-5.3-1.2c-.4-.1-.8-.1-1.2-.2l-.1-.1h.1l.1.4c-.3.3-.3.3-.8.3l-2.5 3.4a1.38 1.38 0 00-1.1-.1l-.1-.1h.1c-.2.3-.4.3-.7.2a3.55 3.55 0 01-1-.2c-.3-.4-.1-.9.1-1.4-.5-.1-.9.2-1.3.3a2.11 2.11 0 01-1-.4c0-.1.1-.2.1-.3.3-.3.7-.3 1-.7-.7-.2-1.3 0-2-.4a11 11 0 01.9-1.4l-.2-.4a.47.47 0 01.5-.5c.5 0 1.1-.1 1.6-.1h5.4l.6.5a.76.76 0 00.4-.1 3 3 0 001.5-1.2 1.38 1.38 0 01.3-.4 9.11 9.11 0 002.2-3.3 24.77 24.77 0 011.7-3.7c.1-.2.2-.5.3-.7a20.88 20.88 0 011.9-4 6.12 6.12 0 00.5-1.2 5.36 5.36 0 01.7-1.9c.3 0 .3.2.3.4a.1.1 0 00-.1.1v-.1a6.6 6.6 0 001.1-2.6c.2-.1.2-.3.3-.5l.4-.3c.2.6-.3 1.1-.2 1.7a.55.55 0 00-.3.5.55.55 0 00-.3.5 1.27 1.27 0 01-.1.6zM93 96.3l.5.6v.8c.2.2.6.1 1 .2.4.3.9.8 1.4.8l2.9 2.4.5 1.1-.2.3c-.3.2-.5-.1-.8 0-.6.1-1.1.6-1.7.7 0-.1-.1-.2-.1-.1a.1.1 0 01.1.1c0 .4.4.7.1 1.2-.4.2-.7-.1-1.1-.1-.4-.2-.4-.7-.8-.9-.3.4.1.8-.1 1.2-.3.2-.6.1-1 .1-.3-.2-.4-.7-.9-.8-.6.4 0 1.3-.6 1.7-.2.1-.3 0-.5 0a.52.52 0 01-.4-.2.37.37 0 01-.1-.3 12.22 12.22 0 01.3-3.8 14.92 14.92 0 01.2-2.1 3 3 0 01.4-1.8c.1-.1 0-.3 0-.5l.4-.2c.3.2.2-.1.5-.4zM48.6 60.6a3 3 0 01-.8 2.2 8.11 8.11 0 00-1 2.1 12.37 12.37 0 01-1.5 3.3l-.6 1.2-.6 1.2a4.39 4.39 0 00-.9 2.7c0 .2-.1.3-.1.5a9.61 9.61 0 00-.3 3.4 2.16 2.16 0 00.5 1.7c.2.2.2.5.3.9-.5 0-.9-.5-1.5-.4s-1-.3-1.5-.5l-.8.1a3.84 3.84 0 00-1.8-.9c-1.3-.4-2.5-.8-3.7-1.2a14.89 14.89 0 00-3-.9 9 9 0 00-2.3-.8 5.23 5.23 0 01-1.6-.6c.2-.3.5-.2.7-.2a2.89 2.89 0 001.6 0 11.94 11.94 0 002.2 1.2 7.83 7.83 0 011.4.5c1.6.6 3.2 1.1 4.8 1.6a.8.8 0 00.8-.1 2.57 2.57 0 00-.1-1.5 1.7 1.7 0 010-1c.3-1.1.5-2.3.8-3.4a4.18 4.18 0 01.4-1 17.55 17.55 0 001.2-3.2c.1-.1.1-.2.1-.4 0-1.4.8-2.7 1.2-4 .1-.3.2-.5.5-.6l.1.4a8.42 8.42 0 00-.8 2.7 5.64 5.64 0 01-.4 1.2c-.1.4-.4.7-.5 1.1-.4 1.3-.8 2.5-1.3 3.7a17.19 17.19 0 00-1 3.9l.5 2.4a1.4 1.4 0 001.5.3 2 2 0 00.2-1.3c.1-1.5.2-3 .3-4.4a9.17 9.17 0 011.4-3.9c0-.1.1-.1.2-.1.2.3-.1.5-.1.7a12.81 12.81 0 00-1.1 3.3 52.4 52.4 0 00-.2 5.6.35.35 0 00.1.2q.3.15.3-.3a1.27 1.27 0 00-.1-.6 2 2 0 010-1.5 3.4 3.4 0 00.1-1 23.36 23.36 0 01.4-2.6 3.51 3.51 0 01.6-1.4 10.08 10.08 0 001.2-2.3c.2-.4.4-.8.7-1.3a19.42 19.42 0 001.5-3.6c.1-.2.1-.3.2-.5a13.55 13.55 0 001.8-2.6zM73 82.4v.8c-1 1.3-1.1 2.8-1.5 4.3a3.68 3.68 0 00.7 2.7c2.5 1.1 5.2 1.7 7.8 2.7l.1.2c.1.2.3 0 .5.1l.1.3a3.92 3.92 0 01-1.8-.4c-1.7-.6-3.4-1.2-5-1.8-1.4-.5-2.8-1.1-4.2-1.7a14.58 14.58 0 00-1.9-.7l-.7.1a3.86 3.86 0 00-1.7-1.1c-.2-.1-.5-.1-.7-.4h1.1c.1.2.3.2.5.3l.1.1-.1-.1c-.1-.2-.3-.2-.5-.3a1.16 1.16 0 00-.7-.5 1.17 1.17 0 01-.6-.6c.7 0 1.2.6 1.8.7a23 23 0 00.3-2.6 4.66 4.66 0 01.6-2c.1-.2.3-.3.3-.4a29.53 29.53 0 011.6-3.7 8.26 8.26 0 00.8-2.2.68.68 0 01.4-.6 10 10 0 01-1.5 4.5 3.08 3.08 0 00-.5 1.2c-.4 1-.8 2-1.3 3.2v2.7l.5.8-.1.1V88l.7.1a1.5 1.5 0 00.4-1.1v-1.2a1.8 1.8 0 01.4-.9c.5 1.2-.2 2.3 0 3.4a5 5 0 002.5 1.3 16.2 16.2 0 00.1-2.2 3.81 3.81 0 01.3-1.8 1.42 1.42 0 00.2-.6 2.72 2.72 0 01.8-1.7c0-.3-.1-.7.2-.9z"/><path d="M84.3 94a3.85 3.85 0 012.1.5c.5.2.9.4 1.4.6.3-.5-.2-.6-.3-1.1 0-1.1-.1-2.3-.1-3.5a.32.32 0 01.3-.3c.2.8 0 1.7.2 2.6l.5.7v1.4c.6.5.6.5 1.3.5a.61.61 0 00.3-.7 15.14 15.14 0 01.2-3 8.68 8.68 0 01.5-2.8c.5-1.6.7-3.2 1.3-4.8a18.87 18.87 0 00.9-3.4c.1-.3.1-.6.4-.8a2.49 2.49 0 01-.2 1.9 39.61 39.61 0 00-1.3 4.6 13.32 13.32 0 01-.5 1.9 20.79 20.79 0 00-.9 6 4.19 4.19 0 01-.1 1.6l.4.4a2 2 0 01-1.1-.3 6.49 6.49 0 00-2.7-.8 3.82 3.82 0 01-1.3-.4l.8-.2c-.1-.3-.4-.3-.6-.4-.6.1-1.1.2-1.5-.2zM80.4 56.9a1.39 1.39 0 01.2-1.1c.2-.3.4-.7.6-1a2.8 2.8 0 011.2-.8c-.4.7-1.1 1-1.1 1.8.5.1.8-.3 1.1-.4a4.51 4.51 0 001.1-.3 7.7 7.7 0 001.3-.9c-.1.9-1 1.4-1 2.2a2.21 2.21 0 001.6 0 1.48 1.48 0 011.3 0 7.79 7.79 0 01-2.1.4 1.87 1.87 0 00-1.4.5 41.39 41.39 0 00-1.9 4.9c-.2.5-.5.9-.7 1.4a2.75 2.75 0 01-.8 1.5l-.1.1a3.37 3.37 0 01.5-1.7c.7-1.5 1.2-3.2 1.9-4.7.2-.5.4-1 .6-1.6-.4-.3-.7.1-1.1.1s-.7-.3-1.2-.4zm3-1.2a6.63 6.63 0 00-1.9.9 1.25 1.25 0 001.4.2 1 1 0 00.5-1.1zM127.1 26.4v.8c.3.9 1.2 1.3 1.7 1.9-.1.3-.3.3-.4.2a4.88 4.88 0 01-2-2.3 2 2 0 01.3-1.1c.1-.1.1-.1.2-.1a16.06 16.06 0 013.8-.8c.5-.1.8.2 1.3.2a7.24 7.24 0 013.2-.5v.1c-2 .6-4.1 1-6.1 1.4-.6.1-1.2.1-2 .2zm1.1-.6c.1 0 0-.1 0 0zM116.9 39.9l-.3.6c0 .2.3.1.3.3s.1.3.2.4a1.88 1.88 0 00.8.2 29.08 29.08 0 013.1.4 23 23 0 012.6.3.91.91 0 01.7.3c-.1.2-.4.1-.6.2a.31.31 0 00.1.2l2.8 1.9c.2.1.4.2.4.5s-.2.2-.3.1a.1.1 0 01-.1-.1 42.07 42.07 0 00-4.1-2.8 20.78 20.78 0 01-2.3-.3c-1-.2-2-.4-3-.5a1.43 1.43 0 01-1.2-.6c-.1-.9-.1-1 .9-1.1zM73 74.1a14.46 14.46 0 01.9-2.2 20.09 20.09 0 001.6-3.3c.6-1.9 1.6-3.6 2.1-5.5a2 2 0 01.4-.8 3.58 3.58 0 00.4-1.1 5.15 5.15 0 01.9-2 1.16 1.16 0 010 1c-.5 1.2-.9 2.4-1.3 3.7l-1.5 3.9a38.81 38.81 0 01-2.2 4.6 2 2 0 01-.4.8c-.3.3-.5.7-.9.9zM75.2 66c.1-.7.4-1.2.4-1.7l.5-.7c0-.1.1-.2.1-.3a4.19 4.19 0 01.4-1.5 33.76 33.76 0 001.3-4.2 22.56 22.56 0 011.3-3.3c.3-.7.9-.9 1.8-.9-.2.5-.7.3-.9.5a2.59 2.59 0 00-.7 1.1 15.24 15.24 0 00-1.2 3.6c-.2.9-.5 1.9-.8 2.8a5.92 5.92 0 00-.5 1.9v.1a12.27 12.27 0 00-1.2 2.6c-.3-.1-.4-.1-.5 0zM107.3 83.1c-.7 0-1.4-.1-2-.1a1.25 1.25 0 01-1.1-.6.25.25 0 01.4-.1 2.26 2.26 0 001.8.1 6.16 6.16 0 012.7-.1 20.46 20.46 0 003.5 0 3.32 3.32 0 012.2.3c-.4.3-.7 0-1.1 0a2.33 2.33 0 01-2 .2 2.85 2.85 0 00-1.3 0 6.08 6.08 0 01-1.9.1 2.53 2.53 0 00-1.2.2zM74.9 56.4a5.34 5.34 0 01-.3 2.2c-.7 2-1.3 4.1-1.9 6.1-.1.2-.1.4-.2.5-.7.8-.8 1.9-1.4 2.8-.1.1-.1.1-.2.1a.45.45 0 010-.5 3.25 3.25 0 00.7-1.7 15.66 15.66 0 001.2-3c.4-1 .7-2.1 1-3.1s.6-2.1.9-3.1c0-.1.1-.2.2-.3zM94.8 65.9a5 5 0 01-.9 2.4 34.78 34.78 0 00-2.1 4.8c-.3.8-.7 1.6-1 2.4-.1.2-.2.5-.5.5a.37.37 0 01-.1-.3c.9-2.5 2-4.9 3.1-7.3a27.49 27.49 0 011.5-2.5zM63 85.6l.4-.1a8.3 8.3 0 00.6-2.1 5.31 5.31 0 01.6-1.9c.1-.9-.1-1.8.6-2.5.3.3 0 .6 0 .9a2.77 2.77 0 01-.1.9c-.3 1.2-.6 2.5-.9 3.7a2.74 2.74 0 00.1 2c-.2.1-.4.1-.4.3.1.4.6.4.7.7a4.92 4.92 0 01-2-.5c.2-.4.5 0 .7-.1s.2-.4.1-.6a1.61 1.61 0 00-.4-.7zM70.1 75.6v-.5a43.09 43.09 0 012.6-4.7c.5-.8.9-1.7 1.3-2.5a4.2 4.2 0 01.9-1.4c.1.6-.3.9-.5 1.4v.6a5.61 5.61 0 00-1 1.5 11.78 11.78 0 01-1.1 1.9c-.5 1-1.1 2-1.6 3-.1.2-.2.6-.6.7zM68.7 84.3a12.76 12.76 0 01.6-3.3c.5-1.1.9-2.1 1.5-3.2.2-.3.3-.6.5-.9a6.78 6.78 0 011.4-2.3c.3.3 0 .5-.1.6a36.51 36.51 0 00-1.8 3.4A17.19 17.19 0 0069 84c0 .1-.1.2-.2.3s-.1 0-.1 0zM106.1 42.5a5.66 5.66 0 01-1.8-.3c-1-.2-2-.4-3.1-.7-2.2-.5-4.4-.9-6.6-1.4-.3-.1-.5 0-.7-.3 0-.2.2-.2.3-.2 2.9.6 5.7 1.2 8.5 1.9a17.66 17.66 0 002 .4c.6.2 1.1.2 1.4.6zM28.9 55.3c-.3-.3-.1-.5 0-.8a19.75 19.75 0 01.8-2.6c.7-1.8 1.3-3.7 2-5.5.1-.3.1-.6.5-.7a1.16 1.16 0 01-.2 1 3.08 3.08 0 00-.5 1.2c-.3 1.2-.8 2.4-1.2 3.6-.4 1-.6 2-.9 3a2.51 2.51 0 01-.5.8zM116.9 39.9c.1-.3.3-.4.6-.5a12.51 12.51 0 011.9-.3h1.8a3.18 3.18 0 001.4-.2 2.77 2.77 0 011.3-.3 2.15 2.15 0 001.1-.2 1.78 1.78 0 011 .4.35.35 0 01-.1.2c-1.5.1-2.9.4-4.4.4a14 14 0 00-4.1.5zM43.1 62.5c.4-1.2.8-2.5 1.2-3.7.2-.4.5-.8.7-1.3a14.45 14.45 0 001.1-2.6c.2-.5.5-.9.7-1.4.2.6.2.6.1.8-.8 1.4-1.2 2.9-2 4.2a14.27 14.27 0 00-.8 2.2c-.2.6-.3 1.4-1 1.8zM17.9 69.3a3 3 0 01.5-1.6c.9-1.4 1.5-3.1 2.5-4.5a10.09 10.09 0 00.7-1.5 2.65 2.65 0 01.5-.6 4.65 4.65 0 01-.9 2.3c-.4.7-.8 1.4-1.2 2.2a2.51 2.51 0 01-.4.7 7.14 7.14 0 00-.8 1.5c-.2.5-.3 1.2-.9 1.5zM46.5 80.6a2 2 0 01-1.3-.4l-.3-.3c-.1-.1-.1-.2-.2-.4l-.7-.3.5-.3.2-.8c.3.3.3.8.8 1 1.7.4 3.6.7 5.4 1.3.1 0 .1.1.2.3-1.9-.2-3.6-1.1-5.5-1.1a.1.1 0 01-.1.1c.2.6.8.5 1 .9zM30.5 47.2a3.4 3.4 0 01.1-1 12.86 12.86 0 00.4-1.9 5.64 5.64 0 01.4-1.2c.4-1.1.8-2.1 1.2-3.2.1-.2.2-.3.3-.5l.5-.1a23.4 23.4 0 00-.9 2.4c-.2.8-.8 1.3-.9 2.1a18.91 18.91 0 01-.5 2.3 2.87 2.87 0 01-.6 1.1zM51.5 59.8l.2.5a25.83 25.83 0 01-2.2 4.4c-.4.7-.8 1.4-1.2 2.2a1.2 1.2 0 01-.5.5v-.8a39.08 39.08 0 002.6-4.4 7 7 0 00.8-2 .54.54 0 01.3-.4zM69.1 71.5a10.84 10.84 0 01-.8 1.9c-.5.8-1.1 1.6-1.5 2.4-.3.6-.6 1.3-.9 1.9-.1.2-.1.5-.4.6a.22.22 0 01-.2-.2V78a16.84 16.84 0 012.2-4.2 10.65 10.65 0 011.6-2.3zM48.9 55.1c-.1.3-.1.5-.2.8a44.71 44.71 0 00-2.5 6c-.1.3-.2.6-.5.7-.2-.1-.1-.2-.1-.3a23.51 23.51 0 011.5-4.2c.4-.8.8-1.7 1.2-2.6a1.27 1.27 0 01.6-.4zM71.1 15c2.9.3 5.8.8 8.8 1 0 .3-.2.2-.4.2a5.5 5.5 0 01-2.2-.2 29.63 29.63 0 01-3.1-.3 24.78 24.78 0 01-2.7-.3c-.2-.1-.4-.2-.4-.4zM96.2 19.1a7.79 7.79 0 012.1.4l4.4 1.2a4.55 4.55 0 011.9.8c-.3 0-.7-.1-1-.1-2-.5-4-1.1-6-1.6-.5-.3-1-.4-1.4-.7zM91.2 42.5h-.7c-2-.4-4.1-.6-6.1-1.2a8.8 8.8 0 01-1.5-.5.47.47 0 01.6-.1c1.1.3 2.3.5 3.4.8.9.2 1.8.3 2.7.5a2.52 2.52 0 011.6.5zM37.5 76.1a1.73 1.73 0 01-1.3-1.3 10.92 10.92 0 01-.5-1.7c0-.2-.1-.3-.3-.5-.4.1-.7.5-1 .8a1.74 1.74 0 01-1.2.6c-.1-.1-.1-.2 0-.2.9-.3 1.3-1.3 2.1-1.6a.6.6 0 01.6.3 3 3 0 01.4 1 5.18 5.18 0 001.2 2.6zM108.8 73a2.54 2.54 0 011.2.2 49.06 49.06 0 006.3 1.7.55.55 0 01.5.3l-.1.1-1.5-.3a23 23 0 01-4.3-1.2c-.4-.1-.8-.2-1.1-.3-.5-.2-.8-.2-1-.5zM119.6 69.6v.3a.35.35 0 00-.2.1c-.6-.2-1.3-.3-1.9-.5-1.7-.5-3.4-1.1-5.1-1.6.2-.3.5-.2.7-.1a14.16 14.16 0 012.2.7 22.65 22.65 0 004.3 1.1zM100.8 25.9a1.19 1.19 0 00.5-.2 11.79 11.79 0 012 .4c1.7.4 3.4.8 5.4 1.3-.3.1-.5.2-.6.1-2.2-.5-4.6-1.1-7.3-1.6z"/><path d="M78.6 52.7l-1.3.4a4.53 4.53 0 00-1.5 2.1c-.4.4-.4 1-.9 1.2a6.44 6.44 0 011.1-2.7 2.59 2.59 0 011.4-1.1.92.92 0 011.2.1zM77.8 71.9a1.27 1.27 0 01-.1-.6c.4-1.6.8-3.2 1.3-4.7a1.38 1.38 0 01.3-.4 4.33 4.33 0 00.1.5c-.5 1.7-1 3.3-1.5 5a.35.35 0 00-.1.2zM124.7 47.1l-.1.1c-.2 0-.4-.1-.6-.1-2.1-.8-4.3-1.1-6.4-1.9.2-.1.3-.2.3-.1 1.7.4 3.4.9 5 1.3a9.62 9.62 0 011.8.7zM34.4 39.9a2 2 0 01-.3 1.1c-.4 1.2-.9 2.5-1.3 3.7-.1.2-.1.3-.2.5-.3.1-.3-.1-.3-.3a.6.6 0 01.1-.4c.4-1.1.8-2.3 1.2-3.4.2-.5.3-1 .8-1.2zM102.7 45.6a2.77 2.77 0 01.9.1c1.9.6 3.8 1.2 5.8 1.7.2 0 .3.1.4.3a4.87 4.87 0 01-1.2-.1c-1.9-.6-3.8-1.2-5.6-1.8-.1 0-.2-.1-.3-.2zM53.8 50.9a3.67 3.67 0 01-.9 1.6 6.88 6.88 0 01-1.1 1.3 5.83 5.83 0 00-.8 1.8c-.1.2-.1.5-.5.5a1.64 1.64 0 01.2-1 20.87 20.87 0 012.7-3.9c.2-.2.3-.2.4-.3zM99.9 36.1a70.1 70.1 0 01-6.9-1.4c-.1 0-.1-.1-.1-.2a.35.35 0 00.2-.1c2.2.5 4.3 1 6.5 1.4.1 0 .2.2.3.3zM76.2 75.3a2.77 2.77 0 01-.3 1.3c-.4.9-.8 1.7-1.3 2.6a11.73 11.73 0 00-.5 1.1c-.1.2-.2.3-.4.3s-.1-.3 0-.5c.4-.9.8-1.7 1.2-2.6a10.09 10.09 0 00.7-1.5.88.88 0 01.6-.7zM94.8 65.9a1.27 1.27 0 01.1-.6c.5-1.5 1-3 1.5-4.4.1-.2.1-.3.3-.3a.35.35 0 00.1.2c-.3 1.2-.7 2.3-1.1 3.5a3.27 3.27 0 01-.9 1.6zM114.3 89.5a11.53 11.53 0 012.6.3 17.52 17.52 0 004 .4.37.37 0 01.3.1c-.1.3-.3.2-.5.2a18.4 18.4 0 01-4.1-.4 7.49 7.49 0 01-1.6-.4c-.4.1-.6 0-.7-.2zM93 96.4v-4.3c0-.2 0-.4.3-.5a2 2 0 01.1 1.5c-.1.5 0 .9-.1 1.4l.4.7c-.2.2-.2.4-.3.7.1.1-.1.3-.4.5zM30.5 47.2v.1c-.5 1.7-1.1 3.3-1.6 5-.3 0-.3-.1-.3-.3a19.84 19.84 0 011.4-4.1.75.75 0 01.5-.7zM26 51.7c0-.3.1-.5.1-.8l1.2-4.2c.1-.1.1-.2.2-.3s.2.1.2.3c-.4 1.4-.7 2.8-1.1 4.2a.8.8 0 01-.6.8zM27.3 65.6v-.4c.5-1 1-1.9 1.6-2.9a6 6 0 00.6-1.1 1 1 0 01.4-.5c.2.1.1.2.1.3a3.1 3.1 0 01-.6 1.3c-.5.9-1 1.7-1.5 2.6-.1.3-.2.6-.6.7zM22.1 61.1c.4-1.3 1-2.6 1.4-3.9a1.9 1.9 0 01.7-1.1 3 3 0 01-.2 1.3c-.4 1-.9 2.1-1.3 3.1-.2.3-.3.5-.6.6zM87.5 89.6c-.2-1.6.5-3.1.6-4.6 0-.1.1-.2.2-.3.1.1.2.1.2.2-.2 1.3-.3 2.6-.5 3.8-.1.3-.1.7-.5.9zM102.2 36.5c1.7.1 3.4.6 5.1.8a.55.55 0 01.5.3 23.1 23.1 0 01-5.6-1.1zM24.7 63a2 2 0 01-.2 1.1c-.5.9-1 1.8-1.5 2.8a.75.75 0 01-.7.6 11.46 11.46 0 011-2.3c.4-.7.7-1.3 1.1-1.9.1-.2.2-.2.3-.3zM28.1 54.3a5.66 5.66 0 01-.3 1.8 17.24 17.24 0 00-.7 2.1c-.1.2-.2.5-.3.7-.3-.2-.2-.4-.2-.6a24.64 24.64 0 011.4-3.8c0-.1.1-.1.1-.2zM24.7 69.8c0-.6.5-1 .8-1.5.4-.8 1-1.6 1.5-2.4a1.38 1.38 0 01.4-.3l.1.1a.75.75 0 01-.1.5 14.22 14.22 0 01-2.1 3.3 3.34 3.34 0 00-.6.3zM27 60.3a21.61 21.61 0 011.4-4.3c0-.1.2-.2.3-.2a.66.66 0 01-.1.6c-.3 1-.6 1.9-.9 2.9-.1.4-.1.9-.7 1zM29.4 41.2a1.49 1.49 0 01-.2.9 12.81 12.81 0 00-1.1 3.3c0 .1 0 .2-.2.3s-.2-.1-.2-.3a16.26 16.26 0 011.3-3.9c.1-.1.3-.2.4-.3zM47.8 67.4a5.66 5.66 0 01-.3 1.8c-.3.8-.5 1.6-.8 2.3a1.62 1.62 0 01-.5.9 3.4 3.4 0 01.1-1 24.18 24.18 0 001-3.6l.5-.4zM48.6 60.6l.2-1.2c.7-.8.8-2.1 1.6-2.9.3.2.2.4.1.5-.3.6-.6 1.2-.9 1.9a6.12 6.12 0 00-.5 1.2c0 .2-.2.4-.5.5zM111.1 55c-.1.2-.3.1-.5.1a10.48 10.48 0 01-2.5-.1 10.14 10.14 0 00-2.5-.2c-.3 0-.7.1-1-.2 0-.2.1-.2.2-.2.3 0 .6.1.9.1a14.15 14.15 0 012.9.2c.5.1 1 0 1.6.1.4 0 .7-.1.9.2zM69.6 10.8a28.1 28.1 0 01-5 .4 1 1 0 01-.7-.2c0-.2.1-.2.3-.1a12.21 12.21 0 002.7-.1 14.77 14.77 0 002.1-.1c.2 0 .5-.1.6.1zM26 73.8a2.2 2.2 0 01-.8-.1 3.19 3.19 0 00-1.4-.3l-.3-.3c0-.1-.1-.1 0-.2.5-.7.2-1.6.9-2.2 0 .7-.4 1.4-.2 2.1.6.4 1.4.4 1.8 1zM101.1 45.1c-.2 0-.5.1-.6 0-1.5-.5-3.1-.7-4.7-1.1-.1 0-.2-.1-.3-.2s.2-.2.3-.1l4.3.9c.4.1.8.1 1 .5zM92.9 29.7a.76.76 0 01.4-.1c1.5.2 3.1.4 4.6.7.1 0 .1.1.2.2-.7.2-1.8-.1-5.2-.8zM67.3 42.7a2.77 2.77 0 01-.9-.1c-1.1-.5-2.3-.8-3.4-1.2a3 3 0 01-.8-.4c.1-.1.3-.2.4-.1 1.4.5 2.7.9 4.1 1.4a2.09 2.09 0 01.6.4zM50.7 47.5a1.42 1.42 0 01-.2.6 9.32 9.32 0 00-2.2 3c0 .1-.1.1-.2.2s-.2-.1-.1-.3a6.34 6.34 0 012.7-3.5zM116.9 49.3a6.15 6.15 0 01-1.9-.2l-2.9-.6a.68.68 0 01-.6-.4c.9.2 1.7.3 2.6.5s1.6.3 2.4.5a.76.76 0 01.4.2zM72.8 29.9a5.84 5.84 0 01-1.8-.4 25.83 25.83 0 01-2.6-.8c-.2-.1-.3-.1-.5-.2.1-.2.3-.2.5-.2 1.3.4 2.6.8 3.8 1.2a.68.68 0 01.6.4zM89.1 81.1v-.5a.75.75 0 01.1-.5c.5-.9.3-2.1.8-3 .1-.1.1-.2.2-.3.3.2.2.4.2.6a14.62 14.62 0 00-.5 2 5.31 5.31 0 01-.8 1.7zM116 56a17.71 17.71 0 014.7.6 2.23 2.23 0 01-1.4 0c-1-.4-2.2.1-3.3-.6zM70.5 15l-.1.1-3.9-.9c-.2 0-.4 0-.6-.4 1.5.1 2.8.7 4.2.9.1.1.3.2.4.3zM80.4 46.9h.3c1.3.4 2.6.8 3.8 1.1.1.3-.1.3-.2.3a24.73 24.73 0 01-3.6-1.1c-.1 0-.2-.2-.3-.3z"/><path d="M24.7 63a2.2 2.2 0 01.1-.8c.4-.8.8-1.6 1.3-2.4 0-.1.1-.1.2-.1a1.41 1.41 0 01-.1.9 12 12 0 01-1.5 2.4zM77.8 71.9a5.93 5.93 0 01-1 2.9c-.1.2-.4.3-.6.5a8.51 8.51 0 01.6-1.7 5.91 5.91 0 00.6-1.4 1.38 1.38 0 01.4-.3zM45.2 64a.88.88 0 01.1.7c-.3.5-.5 1.1-.8 1.6a4.05 4.05 0 01-.5.9c-.2.1-.3-.1-.3-.3.5-.9 1-1.9 1.5-2.9zM96.7 67.4a5.76 5.76 0 011.2-3.2.75.75 0 01.1.5 22.45 22.45 0 01-1.3 2.7zM62.1 27.1a1.45 1.45 0 011.1-.1c1 .2 2 .5 3 .8 0 .3-.2.2-.4.2-1.2-.3-2.4-.6-3.7-.9zM50.2 81.9h.5c1.1.4 2.3.8 3.4 1.3.1 0 .2.2.3.3a7.17 7.17 0 01-2.5-.7c-.6-.3-1.3-.4-1.7-.9zM117.2 24.7a9.28 9.28 0 014 .3 8.62 8.62 0 01-4-.3zM88.2 17.1a18 18 0 013.9.8c-.2.1-.4.2-.5.1-1.1-.2-2.2-.4-3.3-.7a.35.35 0 01-.1-.2zM80.4 46.9a1.43 1.43 0 01-1.1-.3 23.94 23.94 0 01-2.8-1.3h.5c1.1.6 2.4.8 3.4 1.6zM67.4 23.4a14.48 14.48 0 01-4.1-1c.2-.2.3-.2.5-.1 1.1.3 2.2.6 3.3.8q-.15 0 .3.3zM126.4 30.7c1.3.3 2.5 0 3.7.5-.1.2-.3.2-.5.2-1-.1-2-.3-3.1-.4.1 0 0 0-.1-.3zM46.2 72.4v.7c-.3.9-.5 1.7-.8 2.6-.3 0-.3-.2-.3-.4a6.47 6.47 0 011.1-2.9zM117.8 29.3a25.85 25.85 0 01-4-.9 12.72 12.72 0 013.9.6.77.77 0 00.1.3zM123.2 50.2a5.89 5.89 0 01-3.5-.3v-.1c1.2-.1 2.3.4 3.5.4zM57.8 39.6a2.77 2.77 0 01.9.1 15.55 15.55 0 012.3.8c.2.1.4.1.5.4h-.4c-1-.3-2.1-.7-3.1-1 0-.1-.1-.2-.2-.3zM92.2 29.5c-.3.2-.6.1-.9.1-.9-.3-1.8-.1-2.7-.6 1.1-.2 1.7-.1 3.6.5zM52.8 56.9a6.82 6.82 0 01-1 2.7c0 .1-.2.1-.3.2a2.79 2.79 0 01.6-1.8c.3-.3.3-.8.7-1.1zM76.5 45.4h-.1c-1.1-.3-2.2-.5-3.3-.8a.24.24 0 01.4-.2 14.74 14.74 0 012.8.8l.2.2zM91.2 23.6a8.63 8.63 0 013.7.7 1.76 1.76 0 01-.6.1l-2.9-.6-.2-.2zM26 51.7a2 2 0 01-.2 1.3 4.2 4.2 0 01-.9 1.4c-.1-.1-.2-.1-.1-.2a5.82 5.82 0 011.2-2.5zM85.1 32.8a8.75 8.75 0 01-3.5-.7h.5c.9.2 1.8.4 2.8.6.1-.1.2 0 .2.1zM80.6 93.5c.3 0 .4-.2.5-.4.4 0 .7.3 1.1.2-.1.4-.5.1-.6.4.4.2.8.1 1.2.5a4 4 0 01-2.2-.7zM89.1 81.1a5.48 5.48 0 01-.4 2.8.27.27 0 01-.3-.3c.1-.7.3-1.3.4-2a.55.55 0 01.3-.5zM112.2 28.2a9.73 9.73 0 01-3.2-.7 8 8 0 013.2.7zM69.3 71a3.89 3.89 0 011.1-2.3c.3.1.1.3.1.4-.3.6-.5 1.1-.8 1.6-.1.2-.2.3-.4.3zM74.3 19.9a10 10 0 01-2.9-.6c-.2 0-.4-.2-.6-.3a.77.77 0 01.3-.1c.9.2 1.8.5 2.7.7a.55.55 0 01.5.3zM76.7 25.9a3.4 3.4 0 011 .1 15.55 15.55 0 012.3.8c-.1.1-.1.2-.2.2a12.8 12.8 0 01-3.1-1.1zM100.9 71.3a6.65 6.65 0 013.4.6 34.31 34.31 0 00-3.4-.6zM105.7 31.5a9.27 9.27 0 013.2.5 1.19 1.19 0 00-.5.2c-.8-.4-1.8-.1-2.7-.7zM77 20.5c.2-.2.4-.1.6-.1a12.09 12.09 0 012.5.8 5.36 5.36 0 01-3.1-.7zM54 38.7a7.55 7.55 0 013.2.6c-.3.1-.4.2-.4.1-1-.2-1.9-.5-2.8-.7zM121.6 86.6a26.53 26.53 0 01-3-.6c-.1-.3 0-.3.2-.3l2.4.6c.2.1.4.2.4.3zM58.4 53.3a8.06 8.06 0 01-1.2 1.4c-.1.1-.2.1-.4.1a10.54 10.54 0 01.7-1.1.82.82 0 01.6-.4zM111.4 88.7a4.89 4.89 0 012.9.8 6 6 0 01-2.9-.8zM108 66.5a5.93 5.93 0 012.3.5 2.89 2.89 0 01-2.3-.5zM100.4 25.5a10.89 10.89 0 01-2.6-.5 4.85 4.85 0 012.6.5zM88.1 22.9a5.51 5.51 0 01-2.5-.5c.1 0 .1-.1.2-.1.7.3 1.5.1 2.3.6zM65.2 13.7a7.37 7.37 0 01-2.7-.6 5.4 5.4 0 012.7.6zM30.7 39.1a3.6 3.6 0 01-1.3 2.1 2.77 2.77 0 011.3-2.1zM80.6 21.2l2.5.6a4.69 4.69 0 01-2.6-.3zM97.7 56.4a2.2 2.2 0 01-.6 2.2 4.86 4.86 0 01.6-2.2zM92.2 42.7a4.47 4.47 0 012.4.9 4.33 4.33 0 01-2.4-.9zM65.4 9.5c-.8.3-1.6 0-2.4.3-.2-.1-.2-.2-.1-.4a6.92 6.92 0 012.5.1zM99.7 59.5a4.17 4.17 0 01-.8 1.8c0-1.1.1-1.2.8-1.8zM67.8 18a6.67 6.67 0 012.8.8 5.12 5.12 0 01-2.8-.8zM69.6 43.5a5.3 5.3 0 012.8.7 7.22 7.22 0 01-2.8-.7zM57.5 82.9a6.42 6.42 0 01-2.7-1 7.94 7.94 0 012.7 1zM95.1 18.8a6.53 6.53 0 01-2.4-.6c0-.3.2-.2.4-.2a7.36 7.36 0 011.4.4c.2.1.5.2.6.4zM78.8 39.6a6 6 0 012.9.8 6 6 0 01-2.9-.8zM100.9 56.7a7.17 7.17 0 01-.8 2.2c-.2-.1-.3-.3-.2-.4.3-.6.3-1.4 1-1.8zM120.6 29.8c-.6-.1-1.2-.3-1.9-.4-.1 0-.2-.1-.3-.2a4.28 4.28 0 012.2.6zM87.5 17.3a11.21 11.21 0 00-2.4-.3c-.1-.3.1-.4.3-.4.4 0 .8.1 1.2.1a2.69 2.69 0 01.9.6zM100.8 30.8c-.1.1-.1.2-.2.2-.5 0-1-.1-1.5-.1-.1 0-.1-.1-.2-.1-.1-.2.1-.3.3-.3a9 9 0 011.6.3zM53.3 38.4a2.37 2.37 0 01-1.9-.3 2.79 2.79 0 011.9.3zM82.8 27.8c-.8-.1-1.3-.2-1.8-.3-.1 0-.2-.1-.3-.2a.1.1 0 00-.1-.1 2.86 2.86 0 012.2.6zM22.3 67.5a1.89 1.89 0 01-1.1 1.8 3.07 3.07 0 011.1-1.8zM132.2 45.9l-.4-.1a1.53 1.53 0 01.4-1.8v1.9zM92.2 34.5c-.6-.3-1.4 0-1.9-.6 1 .1 1.5.2 1.9.6zM72.4 24.7c1.2 0 1.2 0 1.9.5a5.3 5.3 0 01-1.9-.5zM107.2 42.7a4 4 0 012.4.5 3.31 3.31 0 01-2.4-.5zM106.9 72.4a3.29 3.29 0 01-2-.4c.8-.2 1-.1 2 .4zM91.2 23.6H90a4.15 4.15 0 01-1.2-.4 3.19 3.19 0 012.4.4zM76.1 31.1c1-.3 1.5.1 2.3.2-.8.3-1.4 0-2.3-.2zM116.9 49.3a4.31 4.31 0 012.2.4 2.85 2.85 0 01-2.2-.4zM58.1 85a3.11 3.11 0 01-1.8-.7c.6 0 .7 0 1.8.7zM113.9 55.6c1.1 0 1.1 0 1.5.3-.6.1-.6.1-1.5-.3zM109.1 88a6.07 6.07 0 01-1.8-.5 2.27 2.27 0 011.8.5zM58.9 26.6c1.1-.2 1.1-.2 1.7.1a.35.35 0 01-.1.2c-.6-.1-1.1-.2-1.6-.3zM124.1 50.4a8.35 8.35 0 012 .5c-.8.2-.9.1-2-.5zM109.5 43.3a2.77 2.77 0 012.1.5 4.65 4.65 0 01-2.1-.5zM27.1 60.4a1.73 1.73 0 01-.7 1.6c-.1-.6-.1-.6.7-1.6zM52.4 80.9a3.74 3.74 0 011.6.7 3.8 3.8 0 01-1.7-.5c-.1-.1-.1-.2.1-.2zM116.4 44.9a4.77 4.77 0 01-2-.4 2.24 2.24 0 012 .4zM80.9 31.8a1.94 1.94 0 01-1.8-.2c.2 0 .3-.1.4-.1.6.1 1 .2 1.4.3zM73 82.4a1.79 1.79 0 01.4-1.4l.3.2a1.85 1.85 0 01-.7 1.2zM88.5 38.5c-.7.1-1.1-.2-1.8-.3.7-.3.8-.3 1.8.3zM104.5 31.3a3.67 3.67 0 01-1.8.1 2.79 2.79 0 011.8-.1zM81.4 16.4a1.57 1.57 0 011.8.3zM85.1 32.8a3.44 3.44 0 012 .4 3.29 3.29 0 01-2-.4zM44.7 76.3l.3-.1c.2.5-.1.8-.2 1.4a2 2 0 01-.1-1.3zM119.9 75.9c.7-.3.7-.3 1.1.1a1.42 1.42 0 01-1.1-.1zM86.6 28.4c.6-.1.9.3 1.4.2 0 .3-.2.3-.4.3H87c-.2-.2-.4-.3-.4-.5zM24.2 56.1a1.37 1.37 0 01.4-1.2l.3.2c-.2.5-.3.9-.7 1zM123.9 30.6a2.46 2.46 0 01-1.1-.4 1.26 1.26 0 011.2.1c.1.1.2.2-.1.3zM28.1 54.3a1.09 1.09 0 01.3-1.3c.1.6.1.6-.3 1.3zM124.6 30.6a.76.76 0 01.4-.1 3.55 3.55 0 01.9.4 1.59 1.59 0 01-1.3-.3zM113 24.1c1.2 0 1.2 0 1.7.5-.5-.2-1-.2-1.7-.5zM47.7 51.8c.2.5-.1.8-.5 1.1 0-.6 0-.6.5-1.1zM90.6 39.1a2.5 2.5 0 01-1.8-.5 2.07 2.07 0 011.8.5zM54.4 83.5a2.2 2.2 0 011.5.6c-.7 0-.7 0-1.5-.6zM111.9 55.2a1.48 1.48 0 011.3.2c-.5.2-.9-.1-1.3-.2zM20.2 51.4l.5-.4a1.42 1.42 0 01-.7 1.4v-.5c.2-.1.2-.3.2-.5zM107.2 22.2a2.27 2.27 0 01-1.8-.5 2.9 2.9 0 011.8.5zM85 22.4c-.6.2-.9-.1-1.3-.2.7-.3.7-.3 1.3.2zM109.8 88.2a1.84 1.84 0 011.6.5 1.6 1.6 0 01-1.6-.5zM116.9 85.2l1.3.5c-.7.2-1.1 0-1.3-.5zM60.4 84.3a1.82 1.82 0 011.6.8 4 4 0 01-1.6-.8zM86 28.4c-.5.1-.5.1-1.2-.2.2-.3.4-.1.7-.1s.4 0 .5.3zM62.5 9.7a3.26 3.26 0 01-1.3.4c.4-.4.4-.4 1.3-.4zM105.9 87.1a2.35 2.35 0 01-1.6-.5 4.28 4.28 0 011.6.5zM101.4 81.1h1c.1.1.2.2.1.4a1.19 1.19 0 01-1.1-.4zM108.8 22.8a2.35 2.35 0 01-1.6-.5 1.6 1.6 0 011.6.5zM76.7 25.9a3 3 0 01-1.6-.5 1.84 1.84 0 011.6.5zM60.4 84.3a1.47 1.47 0 01-1.3-.6c.8.1.8.1 1.3.6z"/><path d="M121.6 86.6l1-.2c.2.2.1.3 0 .4-.4.1-.7.2-1-.2zM101.1 45.1a2.35 2.35 0 011.6.5 1.67 1.67 0 01-1.6-.5zM56 21.1a1.93 1.93 0 011.5 0 2.53 2.53 0 01-1.5 0zM72.8 29.9a2.35 2.35 0 011.6.5c-.7 0-1.2 0-1.6-.5zM118.8 75.6c-.5 0-1 .2-1.4-.3a2.09 2.09 0 011.4.3zM79.4 58.7c.1-.5.2-.8.6-.9.2.5-.2.6-.6.9zM115.2 24.4a1.5 1.5 0 011.3.1c-.4.2-.4.2-1.3-.1zM98.4 62.5c.1.5.1.9-.3 1.1a1.19 1.19 0 01.3-1.1zM50.2 81.9a2.35 2.35 0 01-1.6-.5 1.6 1.6 0 011.6.5zM123.5 70.9l-.4.3c-.2-.5-.2-.5.4-1.1v.8zM46.5 80.6a1.54 1.54 0 011.3.5 1.3 1.3 0 01-1.3-.5zM59.4 85.6a1.54 1.54 0 01-1.3-.5 1.38 1.38 0 011.3.5zM60.7 86.1a1.54 1.54 0 01-1.3-.5c.5 0 1 0 1.3.5zM103 86.1a1.07 1.07 0 01-1.1-.5 1.43 1.43 0 011.1.5zM60.7 86.1c.4 0 .9-.1 1.2.3-.1 0-.2.1-.3.1-.3-.1-.7-.1-.9-.4zM103 86.1a1.3 1.3 0 011.3.5 1.54 1.54 0 01-1.3-.5zM111.6 87.6c.2 0 .3.2.3.4s.1.3-.1.3c-.4-.3-.4-.3-.2-.7zM110 23.2c.4-.2.7 0 1 .2-.5.3-.7-.1-1-.2zM54.9 50.1a.9.9 0 01.6-.6c.2 0 .3.1.3.2a1.09 1.09 0 01-.9.4zM19.1 51.4c-.1.5-.1.8-.4 1-.1-.5-.1-.5.4-1zM97.1 59.1c0 .6 0 .6-.2.8-.1-.2-.1-.2.2-.8zM45.2 64a1.39 1.39 0 01.5-1c0 .6 0 .6-.5 1z"/><path d="M74.3 30.4c.3 0 .7-.1.9.2-.4.1-.4.1-.9-.2zM74.3 19.9a1.8 1.8 0 011 .2c-.5.1-.5.1-1-.2zM90.7 96.6a.87.87 0 01.9.4c-.5 0-.5 0-.9-.4zM113 44.1c-.3 0-.7.1-1-.2.5-.1.5-.1 1 .2zM62 85a1.17 1.17 0 011.1.5A1.17 1.17 0 0162 85zM96.5 84.7c.3-.4.5-.2.7-.1 0 .2-.1.2-.2.2a.9.9 0 00-.5-.1zM47.6 26.6c.1.4-.1.5-.2.7-.2-.3 0-.5.2-.7zM26 74v-.3a.87.87 0 01.9.4c-.3.2-.6-.1-.9-.1zM95.1 18.8c.4 0 .8-.1 1.1.3-.4 0-.8.1-1.1-.3zM67 17.8c-.4 0-.8.1-1.1-.3.4 0 .8-.1 1.1.3zM79.3 66.1c0-.4.1-.7.5-.8a.62.62 0 01-.5.8zM100.2 71c-.3.1-.5.2-.7 0 .2-.2.4-.2.7 0zM122.8 71.9c.2.2.1.4 0 .6a.63.63 0 010-.6zM91.2 42.5c.4 0 .8-.1 1.1.3-.5-.1-.9.1-1.1-.3zM95.3 24.5a.37.37 0 01.6 0 .64.64 0 01-.6 0zM126.5 47.8c-.2.2-.4 0-.5-.2.3-.1.4 0 .5.2zM101.3 31q.45-.15.6 0c-.1.2-.4.2-.6 0zM92.3 39.5c-.2.1-.4.1-.5-.2a.37.37 0 01.5.2zM83.6 16.6c.4-.1.6-.2.7 0-.1.2-.3.1-.7 0zM105.9 87.2h1.1c-.6.3-.9.2-1.1 0zM84.5 94.8c.2-.1.4 0 .4.1-.2.2-.3 0-.4-.1zM106.1 42.5c.4 0 .8-.1 1.1.3-.4-.1-.8.1-1.1-.3zM68.8 43.3c-.3 0-.6.1-.8-.3a.83.83 0 01.8.3zM68.8 43.3c.3 0 .6-.1.8.3-.3-.1-.6 0-.8-.3zM54.4 50.4a.82.82 0 01-.5.5c0-.3.1-.5.5-.5zM44.5 79.9a.19.19 0 01-.3 0c-.1-.1 0-.2.1-.2a.22.22 0 01.2.2zM67.3 28.2a.19.19 0 01-.3 0c.1-.2.2-.1.3 0zM97 24.7a.3.3 0 01-.4 0c.2-.1.3 0 .4 0zM90.6 39.1c.2 0 .4-.1.6.1-.2.2-.4 0-.6-.1zM48.6 81.4c-.3 0-.6.1-.8-.2a.63.63 0 01.8.2zM113 44.1h.7c-.4.3-.6.1-.7 0zM61.6 26.8c-.1.2-.3.1-.4 0 .1-.1.2-.1.4 0zM57.5 82.9a.83.83 0 01.8.3c-.3 0-.6.1-.8-.3z"/><path d="M67.3 42.7a.83.83 0 01.8.3c-.3 0-.7.1-.8-.3zM84.3 94c-.2 0-.4.1-.6-.1.3-.3.5-.1.6.1zM109.8 47.7c.2 0 .4-.1.6.1-.2.3-.4.2-.6-.1zM111.4 67.4a1.27 1.27 0 01-.6-.1c.2-.2.4-.1.6.1zM100.9 56.7c0-.2 0-.4.3-.4.1.2-.2.3-.3.4zM93.8 95c.2.1.4.1.3.4-.3 0-.3-.2-.3-.4zM108.8 22.8c.2 0 .4-.1.6.1-.3.3-.5.1-.6-.1zM24.7 69.8c0 .3.1.6-.3.8a.83.83 0 01.3-.8zM125.2 47.4c.1-.1.2-.1.3.1v.1c-.2 0-.3-.1-.3-.2zM100.6 36.1a.35.35 0 01.1.2c0 .1-.1.1-.2.1a.1.1 0 01-.1-.1.22.22 0 01.2-.2zM133.6 36.5a.21.21 0 010-.4.21.21 0 010 .4zM108 72.7c.3 0 .6-.1.8.3a.83.83 0 01-.8-.3zM67 17.8a.83.83 0 01.8.3c-.3-.1-.6 0-.8-.3zM81.7 40.4c.2 0 .4-.1.6.1-.3.2-.4.1-.6-.1zM87.8 56.5c-.1.2-.2.1-.4.1 0-.1 0-.1.1-.1a.19.19 0 01.3 0zM118.7 75.6c.2 0 .4-.1.6.1-.2.3-.4.1-.6-.1zM121.6 75.7c.1-.2.3-.1.4 0-.2.2-.3.2-.4 0zM66.3 9.7a.19.19 0 01-.3 0v-.1c0-.1.1-.1.2-.1a.31.31 0 01.1.2zM132.2 44.1l.1-.4c.1.2-.1.3-.1.4zM117 45h-.1a.1.1 0 01-.1-.1.31.31 0 01.2.1zM112.8 23.9c-.1.1-.1.1-.1 0v-.1a.1.1 0 00.1.1zM80.4 56.9l-.1.3c-.2-.1-.1-.2.1-.3zM101.4 36.4c-.1-.1 0-.1 0-.1a.1.1 0 01.1.1zM85.1 48.4c.2 0 .2 0 .1.1s-.1 0-.1-.1zM54.9 50.1a.55.55 0 01-.5.3c.1-.3.3-.3.5-.3zM112.9 28.2l.1-.1v.1zM57.8 39.6l-.4-.1c.2-.2.3 0 .4.1zM106.9 72.4l.4.1c-.2.2-.3 0-.4-.1zM75.1 25.4l-.4-.1c.3-.2.3 0 .4.1zM20 52.5c0 .2 0 .4-.3.5v-.5h.3zM83.1 93.5a.1.1 0 01-.1.1c-.1-.1-.1-.1 0-.1zM83.8 94.5c-.1 0-.3.1-.4-.1.2-.2.3 0 .4.1zM125.1 42.7l.1-.5c.1.4 0 .5-.1.5zM92.1 96.3c-.1.1-.1 0-.1 0a.1.1 0 01.1-.1zM67 9.8c-.1-.1-.1-.1 0-.1s.1 0 0 .1zM37.6 76.1l.3.1c-.2.2-.3.1-.3-.1zM111.4 67.4a.1.1 0 01.1.1c0 .1-.1.1-.1-.1zM21.3 69.3c0 .1-.1.2-.2.3l.2-.3zM121.4 29.9zM78.8 39.6a.1.1 0 01-.1-.1.1.1 0 01.1.1zM34.7 39.6q0 .15-.3.3a.27.27 0 01.3-.3zM108 72.7h-.1c0-.1 0-.1.1 0zM22.8 72.7c0 .1.1.1.1.2a.1.1 0 00-.1.1.19.19 0 000-.3zM125.1 42.7c-.2.1-.1.1 0 0zM132.7 43a.1.1 0 01-.1.1c-.1 0 0 0 .1-.1zM105.4 21.7a.1.1 0 01-.1-.1l.1.1zM58.6 83.5q-.15 0-.3-.3.15 0 .3.3zM58.6 83.5zM19.2 50.9v.1c-.2 0-.1-.1 0-.1zM19.7 53q-.15.3-.3 0h.3zM109.8 88.2h-.1c0-.1.1-.1.1 0zM56.2 55.4l-.3.3q.15-.3.3-.3zM65.9 17.5l-.1-.1.1.1zM83.8 94.5h.1c0 .1 0 .1-.1 0z"/></g></g></g></svg>