<svg xmlns="http://www.w3.org/2000/svg" fill="currentColor" viewBox="0 0 193.94 56.97"><g data-name="Layer 2"><g data-name="Layer 1"><g data-name="Calque 2"><path d="M81.44 30.6c.3.3.8.2 1 .6 0 .2-.1.2-.6.4-.3.3-.1.7-.3 1.1-.5 0-1 .1-1.4.1-.5-.4-.3-1.1-.7-1.5s-.9-.1-1.4-.1a33.67 33.67 0 00-5.5 0h-1.1c-2.9-.1-5.8 0-8.7 0-1.6 0-3.2-.1-4.8-.1-.3 0-.6-.1-.6-.5.7-.4 1.4.1 2.1-.3.1-.1.2-.2.2-.3-.2-2-.1-4-.2-6.1 0-1.6-.1-3.2-.1-4.8 0-1.4.1-2.9.1-4.3.1-2.1-.1-4.1-.1-6.2a3.15 3.15 0 01.5-2.3l.8-.4a13.68 13.68 0 002.9.2 7.61 7.61 0 003.6-3c-.3-.7-.9-.8-1.4-1.2.2-.5.5-.7 1.2-.8.6.5 1.4.8 2.2 1.4.7.1 1.5.1 2.2.2 2 1.2 4.1 2.4 5.9 3.6a3.29 3.29 0 002-.2l.9-.9h.5a6 6 0 002.8 1.3c-.1.5-.4.4-.6.4a1.49 1.49 0 01-.6.1 1.1 1.1 0 00-.4 1c0 1.4 0 2.7-.1 4.1-.1 2.9-.1 5.7-.2 8.6 0 .5-.1 1-.1 1.4a80.24 80.24 0 000 8.5zm-7.2-25.5c.1.1 0 .1 0 0zm-9.6 9c.1.1.2.3.3.4a10.41 10.41 0 00-1 1.8 5 5 0 00-.1 2.1c0 .2-.1.5.3.6 1.7-1.4 5.6-7.3 6.2-9.3a5.26 5.26 0 00-1.8-.4 60.27 60.27 0 01-3.6 5.2c0-.2-.1-.3-.3-.4a6.91 6.91 0 00.3-.8c.5-.7 1-1.4 1.4-2a4.45 4.45 0 00.8-2c-.9 0-1.8-.1-2.6-.1a.91.91 0 00-.8.4c.3 1.4 0 2.9.2 4.4a3.55 3.55 0 01.7.1zm12.1 12.5q.45-.15 0-.3a13 13 0 01-.1-4.4c0-.3.1-.7.1-1a30.11 30.11 0 01.3-6.7 10.82 10.82 0 000-1.8c0-.1-.2-.2-.3-.4-.2.2-.4.5-.6.7-1.5 2.6-3.2 4.9-4.9 7.3h-.8a4.62 4.62 0 01.9-1.5 21.42 21.42 0 011.3-1.9 10 10 0 001.2-1.9 20.74 20.74 0 001.9-3.2l.2-.2c.3-.1.6-.1.8-.4s.1-.4-.2-.7a4.26 4.26 0 00-1.7-.4c-.2.2-.4.3-.6.5a12 12 0 00-1.8 2.6.37.37 0 00-.4-.4 4 4 0 01.9-1.7 1.46 1.46 0 00.4-1.2c-.6 0-1.2-.2-1.8.2-.4.6-.9 1.3-1.3 2a10.71 10.71 0 01-1.5 2.2 22.64 22.64 0 00-1.3 2 16.61 16.61 0 01-1.6 2.1c-.5.6-1.1 1.2-1.6 1.8-.2 0-.4-.2-.5.2a3.46 3.46 0 001 1.1c-.2.5-.7.8-1 1.2-.1.4-.2.8-.3 1.1.1.2.2.4.5.3 1.4-1.8 2.7-3.7 4.1-5.5a14.1 14.1 0 011.8-2.3.37.37 0 01.3-.1c.1.1.2.3.3.4l-.6.9c-1.3 1.6-2.7 3.3-3.9 5.1a13 13 0 00-2.5 4.8c.9.7 1.7.3 2.6.2a1.94 1.94 0 01.3-1.3 4.52 4.52 0 011.8-2.5c.4.4 0 .9.1 1.3.2.2.5.3.4.7-.5.6-1 1.2-1.6 1.8l8.8.3a1 1 0 00.9-.5.45.45 0 000-.5zm-3-20.5a12.38 12.38 0 00-3.9-2.5c-.5.8-1.4.9-2.2 1.2a5.83 5.83 0 00-1.8 1.1 66.5 66.5 0 007.9.2zm.9 2a67.23 67.23 0 00-11-.1 1.9 1.9 0 001.4.3c2.4.1 4.8.1 7.3.1a3.79 3.79 0 002.3-.3zm-13.9 14.7h-.2c-.1 1.1-.2 2.1-.2 3.2s.1 2.1.2 3.1c.3.1.5-.1.7-.3-.2-.9.2-1.9-.1-2.9a14.57 14.57 0 01-.4-3.1zm15 6.4c-.9 0-1.8-.1-2.7-.1-1.4.1-2.8.2-4.5.3a33.51 33.51 0 006.3.1.74.74 0 00.9-.3zm2.9-22.4c-1.4.1-2.6.2-3.8.3-.1.2-.1.3-.2.4 1.4.1 2.7.4 4-.2.1-.1.1-.2 0-.5zm-12.7.4a23.08 23.08 0 00-5.2-.2v.4c.8.6 1.6-.2 2.4-.1a6.72 6.72 0 002.8-.1zm12.5 1.9c.1 1.3.2 2.7.2 4 0 .3-.1.6.1.8.1 0 .2 0 .2-.1.2-1.5-.2-3-.1-4.5l-.1-.1-.1-.1zM78 29.4c.5 0 1 .4 1.5.2a4.86 4.86 0 01.3-.7.92.92 0 00-.4-.6 3 3 0 00-1.4 1.1zM81.14 9c-.2-.2-.1-.5-.5-.5-.1.4-.3.8-.4 1.1.1.6.3 1.1.4 1.8a24.25 24.25 0 01.5-2.4zm-3.9-.3c-.7.1-1.2-.1-1.7.2.5.1 1 .3 1.4.4.06-.1.06-.2.3-.6zm-11.3 19.9a2.2 2.2 0 001.6 0zm14.8-21.3c-.5-.6-.5-.6-.7 0 .2.2.4.2.7 0zm-19.4 2.9c0 .4-.1.6-.1.8s-.1.4.1.5a1.93 1.93 0 000-1.3zm17 16.8c-.1.2-.2.4 0 .6a.38.38 0 000-.6zM79 16.9c0 .1-.1.2-.1.3s.1.2.1.3c0-.1.1-.2.1-.3s-.1-.2-.1-.3zM61.14 8.5c0 .1-.1.2-.1.3a.37.37 0 00.1.3c0-.1.1-.2.1-.3s-.1-.2-.1-.3zM61 30c-.1-.1-.1-.1-.2-.1s-.1.1 0 .2c.14-.1.14-.1.2-.1zM84.14 39.3a7.45 7.45 0 000-1.5 9.23 9.23 0 01.1-3.7c-.2-2.1 0-4.1 0-6.2s0-4.2-.2-6.2c.1-.5.6-.6.8-.9s.2-.9.5-1.3c.7.2.2 1 .7 1.2.8.4 1.5 0 2.2-.4a15.71 15.71 0 002.6-1.9 3.1 3.1 0 012.2-.9c.4 0 .7-.1 1.1-.1.2-.3.5-.5.7-.8.7.1.7.5.7 1.1a2.18 2.18 0 00-.4.5c-.3.3-.9 0-1.1.5.1.7.8.9 1.3 1.3a17.44 17.44 0 011.4 1.2 2.39 2.39 0 001.3.3c.6 0 .7-.6 1.3-.6a1.76 1.76 0 01.8.9 10.11 10.11 0 00-.3 1.7c0 .5.2 1.1.2 1.6 0 1.9 0 3.8-.1 5.7-.1 2.2-.1 4.4-.1 6.6a1.41 1.41 0 00.8 1.5 12.09 12.09 0 00-.8 2.5c-.3.1-.5 0-.5-.2a1.47 1.47 0 00-.6-1.3c-1.7-.1-3.4-.2-5.2-.2-2.4 0-4.9.1-7.3.1a3 3 0 01-2.1-.5zm9.3-6.7c-.1 0-.1.1 0 0 .2-.1.3-.2.3-.4a4.81 4.81 0 001.1-.9c.4-.4 1-.4 1.4-.6a3 3 0 00-.1-2.1 21.46 21.46 0 00-1.8 2.4 1.66 1.66 0 00-.5 1.3c-.3-.1-.4 0-.4.3zM86 38.7v-.2h-.1c-.1.2 0 .2.1.2.14.1 0 .1 0 0zm9.4-13.3a2.84 2.84 0 01-.4 1.3c-.7 1-1.3 2-2 2.9-1.5 2-3.1 4-4.5 6-.1.5-.2 1 .2 1.3.7.2 1.5-.1 2.1.3.5-.2.9-.4 1.1-.5l2.2-2.5c0-.4.5-.7.2-1.1-1.4 1-2.4 2.5-4 3.3-.2-.1-.5-.1-.7-.2.2-1.1 1.1-1.6 1.6-2.3s1.2-1.5 1.7-2.2a16 16 0 001.6-2.3 12.42 12.42 0 011.7-2.3c-.1-.9.4-2-.4-2.9a13.43 13.43 0 00-2.1-.1 4.86 4.86 0 01-1.5 2.6l-1.1 1.1a1 1 0 00-.3-.1c.2-1.3 1.7-1.9 1.9-3.2a1.21 1.21 0 00-1.3-.1l-1.2 2.1a29.77 29.77 0 01-2 2.9 1.57 1.57 0 00-.4 1.3c0 .2.1.5.4.5.8-.9 1.1-2.2 2-2.9.3 0 .5-.1.7.2-.2.8-.9 1.2-1.4 1.8a10.13 10.13 0 01-1.4 2c.1 1.1-.6 2-.8 3.2a1.32 1.32 0 00.9-.7c1-1.4 2-2.8 3.1-4.1a24.49 24.49 0 003.4-5 1 1 0 01.4-.5 1.41 1.41 0 01.34.2zm.8 6.5a15.26 15.26 0 00-1.3 1.5c-.5 1.1-1.2 2.1-1.8 3.2 2 .3 2.1.3 3.2-.2a11.44 11.44 0 00-.06-4.5zM94.64 21c-.2-.7-.8-.6-1.1-1s-.5-.8-1-1a9.67 9.67 0 00-.7.9 1.85 1.85 0 00-1.7.5.44.44 0 00-.3.6 38.41 38.41 0 004.8 0zm1.6 17.6c-.2-.6-.6-.5-.9-.5-.5 0-.9.1-1.4.1a4.87 4.87 0 00-1.2.1c-.4.1-.8-.1-1.2.2 1.46.1 3 .8 4.7.1zm-8-11c1.4-1.5 1.9-2.5 1.8-3.6-.9.3-1.1 1.2-1.6 1.8a2.2 2.2 0 00-.2 1.8zm9.9-5c-1.9.2-3.8-.3-5.9.5a46.11 46.11 0 015.4.2c.1 0 .36-.2.5-.7zM97 38.4a1.56 1.56 0 001.7.2c0-.1.1-.2.1-.4a1.72 1.72 0 00-1.8.2zm-11.1-8.7a3.85 3.85 0 00-.1 2.6 22.61 22.61 0 01.14-2.6zm1.2-5.7c-.3 1-.3 1 .1 1.4.24-.6.24-.6-.06-1.4zm4.8-2.5a2.79 2.79 0 001.8.1 10.87 10.87 0 00-1.76-.1zM89.44 39a3.27 3.27 0 00-1.7 0 4.82 4.82 0 001.7 0zm7.9-14.6c-.2.3-.1.5 0 .8a.6.6 0 000-.8zm-10.6-2.2a.91.91 0 001 0 .76.76 0 00-1 0zm-1 6.2c.2-.2.2-.3 0-.5 0 .2-.1.3 0 .5zm.7-7c-.1-.1-.2-.2-.3 0zm11.1 11.8v.3a.19.19 0 010-.3zm-9.9-4.9zm8.6-.6zM102.54.3a.71.71 0 01.6-.3 2.07 2.07 0 011.7 1.4c.5.4.8-.2 1.2 0a1 1 0 01.7.7 11.1 11.1 0 01.7 1.6 4.57 4.57 0 001.1 1.6 6.53 6.53 0 012.1 5.3c0 .9 0 1.9.1 3a5.08 5.08 0 01-.2.9 4.77 4.77 0 01-4.7 3.4 2.54 2.54 0 01-2.1-.9 10.71 10.71 0 01-1.4-1.6 6 6 0 01-1-3V8.9a4.11 4.11 0 01.9-2.6 15.8 15.8 0 002-3.6 7.45 7.45 0 00-.7-1.2c-.4-.3-1.1-.3-1.4-.7.2-.2.3-.4.4-.5.1.1.1.2 0 0 .2.1.1 0 0 0zm2.4 16.2c0-.1-.1-.1 0 0-.1-.2 0-.1 0 0a1.06 1.06 0 00.7.6c.2-.1.3-.2.2-.4a.76.76 0 00-.9-.2zm1.2-13.9c-.1-.2-.1-.1 0 0a4.33 4.33 0 00-.1.5c-.3.1-.6.3-.9.4a2.1 2.1 0 00-.4 1.1 8.85 8.85 0 002.3 0 3.37 3.37 0 00-.9-2zm.4 7.8c.3.1.7-.3 1 0a.8.8 0 01.1.8 6.11 6.11 0 01-.7 1.4 9.17 9.17 0 00-.9 2.3.66.66 0 00.2.7c.9-.1 1.2-.8 1.7-1.4.2-1.3.7-2.7.3-4s-.6-2.9-1.7-4c-.3 0-.5-.1-.7.1.4.4.1 1 .3 1.5a9.49 9.49 0 00-1 1.7 4.07 4.07 0 01-1.2 1.7c.2 1 .4 1.9.6 2.8.1.3.2.6.6.5.2-.4.3-.8.5-1.3a9.29 9.29 0 01-1-.5.72.72 0 01.2-.8 1.85 1.85 0 00.7-1.2 7.83 7.83 0 01.9-2.1c0-.1.2-.1.3-.2.3 0 .3.2.4.6a3.28 3.28 0 01-.6 1.4c0 .1-.4 0-.1.3 0-.1.1-.2.1-.3zM105 8a.31.31 0 00.1-.2c-.1-.1-.1-.1-.1.2z"/><path d="M72.24 12.5a.37.37 0 00.4.4c-.5.9-1.1 1.8-1.6 2.7-.3-.1-.5-.2-.5-.6a7.94 7.94 0 011.7-2.5zM70.54 20c.1.3.2.5.3.8l-.9 1.2a1.05 1.05 0 01-.9.5 7.94 7.94 0 011.5-2.5zM69 22.4c.2.9.1.9-.8 1.1a1.48 1.48 0 01.8-1.1zM64.84 21.3c0-.1.1-.1 0 0 .1-.1 0-.1 0 0zM73.64 22.6a.75.75 0 01-.1.5c-.8 1.2-1.6 2.5-2.3 3.6-.4.1-.6.1-.8-.2.9-1.4 1.9-2.8 2.8-4.2.2.2.3.3.4.3zM73.74 22.6c-.2-1.1.5-1.9.9-2.8.5 0 .2-.7.6-.6a.4.4 0 01.2.4c0 .4-.3.5-.5.6a2.62 2.62 0 01-1.2 2.4zM76.84 26.3v.4c-.2-.2-.3-.3 0-.4zM95.34 25.5c-.1-.1-.2-.3-.4-.4.1-.3.3-.4.5-.3s.1.4 0 .6c.1 0 0 0-.1.1zM137.24 31.9a.88.88 0 01.1.7c-.4.7.1.8.6 1a2.18 2.18 0 01.5.3.28.28 0 010 .5 1.38 1.38 0 01-.4.3c-.9.3-.8 1.1-.7 1.8a.45.45 0 00.3.3l1.3.3a1.37 1.37 0 011.2 1.1 40.4 40.4 0 011 5.9 16.36 16.36 0 00.2 2.2c.2 1.3.3 2.5.5 3.8s.1 2.4.2 3.7 0 1.4-1.3 1.4h-1.8c-2.1 0-4.2.1-6.3.1-1 0-2-.1-2.9-.1s-1.4-.7-2-1.3a.75.75 0 01-.1-.5c.1-.8.2-1.5.3-2.3.4-.1.3-.4.2-.7a1.7 1.7 0 010-1c.2-2 .3-4.1.6-6.1.2-1.2.3-2.4.5-3.6a10.93 10.93 0 01.5-1.7 1.5 1.5 0 011.5-1.1c.7 0 .9-.4 1.1-.9a1.36 1.36 0 00-.3-1.5 1.79 1.79 0 01-.5-.7c-.1-.2-.1-.4.2-.5a5 5 0 011.2-.2c.9 0 1.7.1 2.6.1h.4a.82.82 0 00.8-.5c0-.1.3-.4.5-.8zm-2.6 18a18.49 18.49 0 012.3-.1 9.67 9.67 0 003.4-.5.27.27 0 00.3-.3c0-1.1-.3-2.3-.4-3.4a19.42 19.42 0 01-.2-2.4c-.1-1.4-.5-2.8-.7-4.2a1.58 1.58 0 00-.5-.8 4.94 4.94 0 00-1.6-.5c-.7-.2-.9-.5-.8-1.3v-.5c0-.1 0-.1-.1-.2l-.2.2c-.3.8-.7 1.7-1 2.5a4.22 4.22 0 00-.3 1.9 25.48 25.48 0 01-.4 5.5 10.45 10.45 0 01-.4 1.7 11.76 11.76 0 00-.7 2c-.1.3 0 .5.3.5a3.4 3.4 0 011-.1zm-5-2.3c-.1 0-.1.1 0 0a9.15 9.15 0 00-.1 1.6c.4.3.9.2 1.4.3.2.1.5.1.7.2.4.1.5.1.6-.3a.76.76 0 01.1-.4 21.66 21.66 0 001.3-5 16 16 0 00.3-4.4 3 3 0 01.3-1.6l1.2-2.7a1.66 1.66 0 000-1.2c-.1-.3-.5-.1-.8-.1h-1a.32.32 0 00-.3.3 2.9 2.9 0 010 1.6c-.2 1.3 0 1.3-1.4 1.4h-.2a2 2 0 00-1.2.8 6.46 6.46 0 00-1 3.4 5.85 5.85 0 01-.2 1.3 11.33 11.33 0 00-.1 2.6 4.49 4.49 0 01.4 2.2zm8 6.7a8.12 8.12 0 011.7.1c.8.1 1.2-.3 1.5-1a3.08 3.08 0 00.1-1 8.75 8.75 0 00-.2-1.6c-.3-1.4-.1-1.3-1.5-1-.3 0-.6.1-.9.1a40.29 40.29 0 01-4.9.3h-.2a2.18 2.18 0 00-.5.3 10.88 10.88 0 00-1 2.5c0 .3-.2.5-.3.8s-.2.3.1.3a9.7 9.7 0 001.7-.1 4.82 4.82 0 011.2 0 9.72 9.72 0 003.2.3zM129 53c0 .7.1.9.7 1.1.4.1.5.1.8-.4a1.21 1.21 0 01.5-.5.76.76 0 00.2-.4.76.76 0 01.3-.8 6.71 6.71 0 00.6-1.5c0-.1-.1-.4-.2-.4a7.11 7.11 0 00-2-.4.43.43 0 00-.4.4 14.68 14.68 0 00-.5 2.9zm4.5-6.5z"/><path d="M137.24 31.9a1.44 1.44 0 00-.8-1.3 4.44 4.44 0 01-1.1-.8 2.37 2.37 0 01-.9-1.5 9.25 9.25 0 00-.5-1c0-.1 0-.3.1-.3h.3a3.13 3.13 0 01.5 1c.1.3.3.3.6.3a2.77 2.77 0 01.9.1c.1 0 .2.3.1.4s-.2.2-.3.2c-.4.4-.4.6-.1.9s.7.4 1 .6.3 0 .4-.2c.1-.4.1-.9.2-1.3.2-1.2.5-2.4.8-3.6 0-.2.2-.3.1-.5-.2-.4 0-.9-.1-1.3 0-.2-.1-.4-.4-.3a.76.76 0 01-.5-.2s-.1-.2 0-.2a.35.35 0 01.1-.2c.2 0 .3.1.5 0s.2-.1.3-.1v-.7c0-.4 0-.4-.4-.3a.35.35 0 00-.2.1c-.2-.3-.5-.5-.7-.8.3 0 .6.1.8.1.4 0 .8.1 1.1-.4a.57.57 0 01.7-.2c.3.1.1.2.1.3s.2.3.2.5a1.69 1.69 0 01-.2.5c-.1.3-.2.4-.5.4-.1 0-.2.2-.2.3a.27.27 0 00.3.3c.3 0 .6-.1.8-.1s.3-.1.5 0a.22.22 0 01.2.2.35.35 0 00-.1.2c-.2 0-.3.1-.5.1h-.9a.27.27 0 00-.3.3v.7a6.75 6.75 0 01.2 1.4c.5 0 .8-.4 1.2-.7a22.61 22.61 0 012.6-1.6 1.78 1.78 0 001-1.6.76.76 0 01.2-.5 3 3 0 01.5-.7.37.37 0 00.1-.3.76.76 0 00-.2-.4c-.2-.2-.3 0-.4.1a.1.1 0 01-.1.1c-.2.4-.4.1-.6 0 .1-.4.2-.8-.4-1-.1 0-.1-.1-.2-.2s-.1-.2 0-.2.1-.1.2-.1c.3 0 .6.1 1 .1s.9.1 1 .8c0 .3.3.3.5 0a1.38 1.38 0 01.4-.3c.1 0 .3 0 .3.1a1.27 1.27 0 01.1.6c0 .4-.2.5-.5.4s-.3-.1-.5-.1a.27.27 0 00-.3.3v.2a1.91 1.91 0 00-.5 1 2.77 2.77 0 00-.1.9 1.42 1.42 0 01-.8.9 8.8 8.8 0 01-1 .6c-.1.1-.2.2-.1.3s.1.2.2.3a8.11 8.11 0 012.1 1 1.38 1.38 0 001.1.1 2.49 2.49 0 01.8-.1c-.1.3-.2.6-.6.7-.2 0-.4.2-.6.2h-.3a14.09 14.09 0 00-3.2-1.7.88.88 0 00-.7.1 16.45 16.45 0 01-2.2 1.4c-.3.5-.9.8-.9 1.5v1.1c0 .2.2.2.4.2.6-.3 1.2-.6 1.7-.9a4.89 4.89 0 01.7-.3.81.81 0 01-.4.8 6.53 6.53 0 01-1.7.8.94.94 0 00-.9 1.1 3 3 0 01-.5 1.6c-.2.1-.4-.1-.5-.2zM145 16.9c.1 0 .3.1.4.1s.3-.2.4 0c.2.5.6.4.9.5.1 0 .1.1.1.2s-.1.3-.2.3a6.48 6.48 0 01-2-.2c-.2-.1-.4-.1-.4-.3s.3-.1.4-.2c.1-.3.3-.4.4-.4zM133.94 28.9c0 .1-.1.1-.1.2a.92.92 0 01-1.3-.1.3.3 0 010-.4 2.09 2.09 0 01.6-.4c.4-.3.8.1.8.7zM147 25.5a1.69 1.69 0 01.5-.2.76.76 0 01.4.2c.5.2 1 .5 1.6.2a1.44 1.44 0 01.3.2c.1.1 0 .3-.2.3h-.1a.45.45 0 00-.6.2c0 .1-.3.1-.3 0-.2-.6-.9-.5-1.3-.8-.2 0-.3 0-.3-.1zM148.54 27.4c-.1.1 0 .3.2.4s.1.3 0 .5a.42.42 0 01-.7-.1 4.18 4.18 0 01-.4-1s0-.2.1-.2a1.41 1.41 0 01.9-.1v.2c0 .1-.1.2-.1.3z"/><path d="M145.24 27.1c.1-.1.1-.3.2-.3a3.6 3.6 0 011.1-.2c.1 0 .2.1.3.2a.37.37 0 01-.1.3.93.93 0 01-1.2.3zM148.64 24.9c.1-.1.2-.3.3-.4.2-.3.4-.5.6-.8a.63.63 0 01.6 0 .38.38 0 010 .6l-.1.1a1.22 1.22 0 00-1 .6h-.2c-.1 0-.1-.1-.2-.1zM142 28.4a2.5 2.5 0 01.4-.7.38.38 0 01.6 0c.1.4.5.5.7.8a.31.31 0 00.1.2.35.35 0 00-.2.1 3.43 3.43 0 00-1.6-.4zM141.34 27.6c-.2-.2-.4-.5-.6-.7s-.1-.4.1-.5a.3.3 0 01.4 0c.2.2.3.4.6.5s.2.5-.1.6a.76.76 0 01-.4.1zM146.74 17.1c-.3 0-.5-.2-.4-.3a2.09 2.09 0 01.4-.6c.1-.1.5 0 .6.1s0 .5-.2.5a.54.54 0 01-.4.3zM140.74 22.1c-.1 0-.2-.1-.3-.2v-.3c.3-.1.6-.3.9-.4.1 0 .3.1.4.1s.1.1.1.2a.35.35 0 01-.1.2l-.9.3a.1.1 0 01-.1.1zM145 16.8c-.2 0-.4.1-.6 0s-.6.2-.7-.2c0-.2.6-.5.9-.5a.32.32 0 01.3.3.6.6 0 01.1.4z"/><path d="M142 28.3a3.08 3.08 0 01.1 1c0 .1 0 .2-.1.2h-.3l-.1-.1c-.6-.8-.6-.8.4-1.1zM146.64 24.6c0-.1-.1-.2 0-.2.2-.2.5-.4.7-.6s.3 0 .5.1l.1.2c-.3.2-.5.5-.8.7a1.69 1.69 0 00-.5-.2zM132.94 25.6c.2-.1.2-.2.3-.2.3 0 .4.2.6.4a.6.6 0 01.1.4c0 .1-.4.1-.5-.1zM148.84 18.8a.76.76 0 01-.9.5c-.1 0-.1-.1-.1-.2s.5-.5 1-.3zM135.84 26.9c.1.1.3.2.4.3s0 .3-.1.4-.2.1-.3 0-.3-.2-.3-.3a.37.37 0 01-.1-.3c.1-.1.2-.1.4-.1zM135.34 25.7q.6 0 .3.6c-.1.2-.2.2-.4.1s-.2-.1-.3-.2-.2-.2-.1-.3.2-.1.3-.2zM142.74 26.9h-.2a.1.1 0 01-.1-.1.35.35 0 01.1-.2c.3-.2.5-.1.8 0l.1.1a.35.35 0 01-.1.2c-.2-.1-.4 0-.6 0zM131.44 26.5a.37.37 0 01.3.1.14.14 0 010 .2c-.2.2-.4.4-.7.3-.1 0-.1-.1-.2-.1a.35.35 0 01.1-.2c.2-.2.4-.2.5-.3zM145.84 21.9c0 .3-.1.4-.3.4s-.3-.2-.2-.3.2-.2.3-.2.1.1.2.1zM133.34 27.7c-.1.1-.1.2-.2.2a.9.9 0 01-.5-.1c-.1 0-.1-.2-.1-.3a.35.35 0 01.2-.1c.2 0 .3.1.4.1a.22.22 0 01.2.2zM134.44 30.8l-.2-.2a1.75 1.75 0 01.4-.5 1.44 1.44 0 01.3.2.37.37 0 01-.1.3.76.76 0 01-.4.2zM149.84 27c.2.1.3.1.4.2a.37.37 0 01.1.3.35.35 0 01-.2.1c-.2 0-.3-.1-.4-.1s-.1-.2-.1-.2c0-.2.1-.2.2-.3zM138.74 19.7c-.1 0-.1.1-.2.1s-.5-.2-.4-.3a.37.37 0 01.3-.1c.2 0 .3 0 .3.3zM137.74 21.8c-.1.4-.2.5-.5.4-.1 0-.1-.1-.1-.2a.35.35 0 01.1-.2zM137.84 20.6a.37.37 0 01.3-.1c.1 0 .1.1.1.2s-.1.1-.2.1c.1-.1-.1 0-.2-.2zM147 18.6c0 .1-.1.2 0 0a.44.44 0 01-.5-.1v-.1h.4c.1 0 .1.1.1.2zM132.74 26.7a.31.31 0 01-.2.1c-.1 0-.1 0-.2-.1l.1-.1a.37.37 0 00.3.1zM143.54 27.2c.2 0 .2.1.3.1-.1 0-.1.1-.2.1s-.1-.1-.1-.2zM137 21.1c-.2-.1-.3-.2-.5-.3.3-.2.4-.2.5.3zM135.24 25c.1 0 .1 0 .2.1-.1 0-.1.1-.2.1V25zM140.74 19.9h-.2a.1.1 0 01-.1-.1c.1 0 .1-.1.2-.1a.35.35 0 00.1.2zM138.64 42.2a.37.37 0 01-.1.3c0 .1-.1.1-.2.1s-.2 0-.2-.1a4.29 4.29 0 01-.4-2.5c0-.1.1-.1.2-.1s.2 0 .2.1a1.42 1.42 0 01.2.6 9 9 0 01.3 1.6zM151.84 55.5a31.07 31.07 0 00-4.3.3 25.08 25.08 0 01-8.2.1 37.56 37.56 0 00-11.6.4 41.35 41.35 0 01-13.6.2 44.93 44.93 0 00-8.2-.1 24.84 24.84 0 01-7.7-.6 8.53 8.53 0 00-2.3-.3c-4.8 0-9.6-.5-14.4 0a54.42 54.42 0 01-12.1-.2 29.14 29.14 0 00-6.6.1 19.93 19.93 0 01-7.3-.6c-5.2-1.6-10.5-1.4-15.9-1.6a10.66 10.66 0 00-3 .6c-4.8 1.3-9.7 1.8-14.6.4-2.1-.6-4.3-1-6.4-1.5a11.39 11.39 0 01-5.9-3.4 5.24 5.24 0 00-1.1-1 4 4 0 00-3.9-1 8.31 8.31 0 01-2.7.3 5.38 5.38 0 01-2-1c-.1 0 0-.4.1-.6s.2-.2.3-.2c.3 0 .6 0 .7.1a3.88 3.88 0 003 .4c2.9-.5 5.4.2 7.1 2.7A6.43 6.43 0 0015 51.4c3.6.9 7.3 1.9 11 2.6 2.9.6 5.7-.2 8.5-.9a20 20 0 018.8-.7c2.1.4 4.4-.2 6.6.3 1.9.4 3.9.5 5.7 1a17.12 17.12 0 005 .6 74.66 74.66 0 0112.5.4 23.47 23.47 0 007-.1c5.2-.7 10.4-.2 15.6-.2a8.57 8.57 0 012.7.5 16.74 16.74 0 007.7.6 37.73 37.73 0 018.9.3 54.71 54.71 0 0012.8-.4 29.76 29.76 0 014.3-.5q10.35-.15 20.7 0a24.74 24.74 0 012.7.3c.1 0 .2.2.3.2-.1.1-.2.2-.3.2-1.2.1-2.3.2-3.5.2-.16-.2-.16-.2-.16-.3zM177.34 55.5a18.46 18.46 0 018.1-.5c2.1.2 4.1.4 6.2.4a9.15 9.15 0 011.6.1 2.12 2.12 0 01.7.3 1.8 1.8 0 01-.9.4 8.08 8.08 0 01-1.6.1c-4.3-.1-8.6-.1-12.8-.2-.7.1-1.1-.1-1.3-.6zM177.34 55.3c-.1.1-.2.2-.3.2-2.6.2-5.3.3-7.9.5-.1 0-.3-.3-.5-.4 0 0 .1-.3.2-.3 2.8-.6 5.7-1.4 8.5 0z"/></g></g></g></svg>