<svg xmlns="http://www.w3.org/2000/svg" fill="currentColor" viewBox="0 0 83.08 83.23"><g data-name="Layer 2"><g data-name="Layer 1"><g data-name="Calque 2"><path d="M0 43.43C0 32 3.82 23 11.32 15.63c4-4 7.6-8.6 12.9-11.1 9-4.3 18-6.5 27.6-2.2a4.11 4.11 0 002.4.3c6-2 10.5 1.1 14.1 4.9a52.63 52.63 0 018.9 13c3.6 7.2 5 15.1 5.2 23.2a40.32 40.32 0 00.4 6 18.4 18.4 0 01-2.4 12.8c-3 5-5.6 10.3-10.4 14-5.8 4.4-12.5 6.2-19.6 6.6a60.85 60.85 0 01-29.9-6 17.41 17.41 0 01-1.8-1.1C7.82 67.63-.48 57.53 0 43.43zm45.1 35.4c3.9-.7 8-.9 11.7-2.2 12.2-4.2 19.1-15.1 18.1-28.2-.1-1.2-.1-2.3-.2-3.4-.9-11.4-3.1-22.2-10.6-31.5-3.2-4-6.4-7-11.9-8.1a37.88 37.88 0 00-17.4.2C26 7.93 20 14 14.52 20.63a28.8 28.8 0 00-5.3 8.2c-5.6 14.5-2.8 28.7 9.1 39.9 7.5 7.1 16.6 9.6 26.8 10.1z"/><path d="M28.62 54.43c1.6.1 2.5.3 3.4.3 7.9-.1 15.7-.2 23.6-.4a5.74 5.74 0 015 2.6c-.9 3.7-.9 3.7-3.8 3.6-7.7-.1-15.4 0-23.1-.3a85.56 85.56 0 01-11.3-1.7c-1.2-.2-2.1-1.2-3.3-1.8.6-3.4 2.8-5.4 4.9-7.5 5.6-5.7 11.2-11.4 16.6-17.3 2.6-2.9 3.7-6.4 2.2-10.4a8.34 8.34 0 00-1.4-2.1c-3.4 1.7-6.7 3.4-7.6 7.4-.4 1.7-.9 2.7-2.7 2.3-3.2-.7-4.3-1.8-3.9-4 1.2-6 10.8-12 16.8-10.4a8.35 8.35 0 016.2 6.9 14.49 14.49 0 01-3.1 12.5c-4.3 5.2-8.9 10.1-13.4 15-1.4 1.7-3 3.2-5.1 5.3z"/></g></g></g></svg>