<svg xmlns="http://www.w3.org/2000/svg" fill="currentColor" viewBox="0 0 75.48 79.13"><g data-name="Layer 2"><g data-name="Layer 1"><g data-name="Calque 2"><path d="M0 44.06c-.3-10.7 3.9-18.2 9.9-24.9 5.3-5.9 11.8-10.3 18.6-14.4 5.6-3.4 11.8-4.2 18.2-3.7a5.67 5.67 0 002.9-.1c5.5-2.5 9.9.3 13.5 3.7a31.88 31.88 0 016 8.8 57.64 57.64 0 016.3 22.9c.6 12.9-2.8 24.7-12.3 34-7 6.9-15.7 9.7-25.5 8.5-6.5-.8-12.9-1.9-18.8-5.3C6.72 66.66.12 56.06 0 44.06zm67.9-3.3c.3-8.2-2.3-17.1-5.8-24.5-2.4-5.1-5.4-8.9-11.6-10.1-5.9-1.2-11.4-1-16.6 1.8-5.9 3.2-11.6 6.7-16.4 11.6C12 25.26 7 31.16 6.42 39.76c-.9 12.7 5.2 25.7 18 31.8 5.6 2.7 11.6 3 17.6 2.9a22 22 0 0015.4-6.7 33.78 33.78 0 0010.5-27z"/><path d="M15.12 50.16c.5-1 .6-1.4.8-1.7 7-8.8 14-17.7 21.1-26.4a11.66 11.66 0 013.5-3.1c3.6-2.1 6.7-.5 6.9 3.5.2 6 .2 11.9 0 18-.1 6.4-.4 12.8-.7 19.2-.1 1.9 0 4-2.7 5-.5-1.2-.9-2.3-1.8-4.6-.6 2-.9 3.1-1.2 4.3-.4-.3-.9-.6-1.3-.9a4.72 4.72 0 01-.7-1.7c.2-6.4.6-12.8.8-19.2a57.37 57.37 0 00-.7-11.6c-2.7 3.2-5.3 6.5-8 9.7-2.5 2.9-5.1 5.8-7.8 8.6-1.8 1.8-3.8 3.5-6.4 1.1-.4-.36-.92-.2-1.8-.2z"/></g></g></g></svg>