<svg xmlns="http://www.w3.org/2000/svg" fill="currentColor" viewBox="0 0 76.05 78.1"><g data-name="Layer 2"><g data-name="Layer 1"><g data-name="Calque 2"><path d="M39.21 78.1c-7.6 0-15-1.4-21.5-5.1-12.4-7-19-17.7-17.5-32.6 1.2-12.8 7.3-23.6 15.4-33.4a18.08 18.08 0 019.5-5.6 40.37 40.37 0 0118.6-.6 33.85 33.85 0 0112 4.3 10.09 10.09 0 001.5.7c11.9 3.6 17.6 12.5 18.6 24.1 1.1 12.2-1.5 23.9-8.7 34.2-5.8 8.4-13.9 12.8-24.1 13.6-1.2.1-2.5.3-3.8.4zm.3-4.3c14.5.1 24.1-9.8 27.7-22.4a75.05 75.05 0 002.1-10.5c1.5-12.7-2-23.6-14.1-31.3-.6-.4-1.6-.6-1.7-1.1-.5-2.7-2.7-2.6-4.6-3.2a34.44 34.44 0 00-13.5-1.4c-5.7.5-11.5 1.3-15.6 6-1.6 1.8-2.9 3.9-4.4 5.8A49.44 49.44 0 005.81 41c-.6 5.8 0 11.5 3 16.6 6.6 11.6 16.9 16.6 30.7 16.2z"/><path d="M42.91 32.7a44.44 44.44 0 015.2 1.5c3.7 1.7 7.5 3.4 7.7 8.3.2 5.2-1.5 9.6-5.8 12.7-3.9 2.7-8.6 3.9-13.2 4.7-3.4.6-6.7-.4-9.9-1.8.6-2.8 2.5-3.2 4.9-3.1a24.42 24.42 0 0014.4-3.6 8.06 8.06 0 003.9-8.8 6.48 6.48 0 00-6-5.2 31.23 31.23 0 00-6.7 1.1c-1.9.5-3.7 2.8-5.8.3-.3-.3-1.5.3-2.7.6a4.25 4.25 0 013-4c4.8-2.3 7.1-6.4 7.9-11.5.6-3.5.3-4.4-2.1-8.2-4.5.5-8.3 2.2-10.2 7-1.4-.3-2.8-.5-4.3-.7-.8-2 0-3.7 1.3-5.1a16 16 0 0114.9-4.8c4.3.9 7.3 5.7 6.4 10.7-.7 3.1-1.9 6.2-2.9 9.9z"/></g></g></g></svg>