<svg xmlns="http://www.w3.org/2000/svg" fill="currentColor" viewBox="0 0 178.02 101.02"><g data-name="Layer 2"><g data-name="Layer 1"><g data-name="Calque 2"><path d="M98.2 85.8c-.6 1.1-.5 2.4-1.5 3.2a1.53 1.53 0 01-1.6 0c-1-.8-.3-2.4-1.5-3.2-.9.6-1.2 2.1-3.4 2.3-.2 0-.5-.8-.8-1.5a13.42 13.42 0 01-.7-2.7c-.4-3.5-1-7.1-1.1-10.6-.2-7.9.6-15.8 1.3-23.7a104.58 104.58 0 00.8-15.8 12.87 12.87 0 00-1-4.8l-4.5-4.6c1.8-2.8 2.7-3.1 5.2-2.2a13.93 13.93 0 013.7 2.2 77.32 77.32 0 0116 15.8 6.67 6.67 0 002.5 2.5c.6-.1.8-.6.9-1.1 1.5-6.2 3.8-12.1 5.9-18.1a53.58 53.58 0 012.6-5.4c1-2 1.9-4.1 3-6.1 1.7-3.4 2-3.6 5.8-5.2l2.7.9a7.22 7.22 0 012.1 5.5c-.1 7.8 0 15.6-.2 23.4-.2 5.8-.9 11.6-1.1 17.3-.3 8.6-.9 17.2.1 25.8a19.27 19.27 0 01.1 2.4c0 3.7 0 7.4 1.1 11l-1.1 3.6a1.66 1.66 0 01-2 .5c-1.4-.7-.9-2.5-2.1-3.5-1 .2-.9 1.4-1.6 1.9a2.51 2.51 0 01-1.9.5 2 2 0 01-1.1-1.1 51.34 51.34 0 01-.6-5.5c-.3-7.2-.6-14.3-.4-21.4s.5-14.3.9-21.4c.3-3.8.5-7.6.6-11.5V31c-2 4.9-3.1 9.3-4.6 13.6-.9 2.6-1.5 5.4-3.1 7.5a4 4 0 01-2.5 1c-1.4 0-2-1.1-3-1.5l-1.9.2c-1.3-.8-2.8-1.4-3.8-2.7-1.6-2.1-3.3-4.2-4.9-6.2-2.2-2.8-4.5-5.5-6.8-8.3-.1-.2-.5-.1-.9-.2a4.31 4.31 0 000 1.6 41.38 41.38 0 01.8 9.9c0 7 .7 14 .6 21a189.54 189.54 0 003 18.9z"/><path d="M43.1 93c-1.2.9-1.8.9-2.8 0-.7-.6.3-2.2-.9-3.4-1.3.5-1.1 2.8-3.1 2.7-1.3-.4-1.3-1.6-1-2.8 1.1-4.4 2.2-8.7 3.4-13 .7-2.6 1.4-5.1 1.9-7.7.3-1.6.9-3.4-.3-4.9-1-.7-2.1.6-3-.3a2.54 2.54 0 01-.2-.7 12.62 12.62 0 01.7-1.6 7.48 7.48 0 014.6-1.7 14.85 14.85 0 001.7-4.4c1.2-4.6 2.6-9.2 3.8-13.7.2-.6.4-1.3.6-1.9 2.4-5.4 5-10.8 6.8-16.6 2.8-.4 4.5-2.9 7.1-3.5 4.2.2 5.2.8 6.4 4.5a43 43 0 011.6 6.9c.3 2.7 1 5.5 1.5 8.2.9 4.8 1.7 9.6 2.6 14.4.2.5.4 1 .6 1.4 1.9.7 3.7.4 5.6.3a15.4 15.4 0 014.3.6 3.35 3.35 0 011.8 1.5 3.28 3.28 0 01-.6 2.9 4.4 4.4 0 01-2.7 1.6 5.46 5.46 0 01-3.1.1 5 5 0 00-3.5.7c-.3 1.7.5 3.3.7 5 .7 4.2 1.5 8.3 2.4 12.4.7 3 1.7 5.8 2.6 8.7a3.5 3.5 0 00.9 1.7c2.1 1.7 2.7 4.1 3.5 6.7-.3.9-.7 1.9-1.1 2.8a2.7 2.7 0 01-.7.8 1.82 1.82 0 01-2.3-.2c-.7-.6-1.2-1.4-1.9-2.1-1.2.3-2.1 1.7-3.6.8a6.22 6.22 0 01-2.1-3.2 122 122 0 01-3.7-11.7c-1.4-6.4-2.3-12.7-3.3-19.1a6.36 6.36 0 00-.6-1.8 4.83 4.83 0 00-3.1-.8c-3.6.2-7.1.3-10.7.5a4.84 4.84 0 00-2.9 1C48.3 74 46.7 83.9 43.1 93zm18.8-62.4a32.21 32.21 0 00-3.4 6.2c-2.6 6-3.8 12.3-5.5 18.6a1.71 1.71 0 00.6 2 20.3 20.3 0 004.1-.3c1.5-.2 2.9-.3 4.3-.5s2.9.1 4.3-1.3c-.5-5.1-1.7-10.2-2.5-15.4-.5-3.1-1.1-6.2-1.9-9.3zM13.2 59.7a284.91 284.91 0 003 33l-.9 3a5.58 5.58 0 01-.8.5.91.91 0 01-1 0c-1.5-.7-1-2.4-2-3.4-1.1 1.1-1.2 3.4-3.5 2.6-1.2-1.2-1.2-2.8-1.4-4.4a157 157 0 01-.9-20.6c0-3.1-.3-6.3-.4-9.4a13.13 13.13 0 01.1-2.8 24.19 24.19 0 00.1-7.1 8.6 8.6 0 01-.1-1.6c.6-4.1.4-8.2.5-12.3.1-3.6.5-7.1 2.2-10.3a3.21 3.21 0 012.2-1 3.12 3.12 0 012.6 3.1 13.11 13.11 0 010 2.8c-.5 3.1 0 6.3 0 9.4 0 2.2-.2 4.5-.4 6.7 0 .7-.2 1.3.3 1.9h.8c6-2.7 12.1-5.3 17.6-9.1a48 48 0 008.4-7.8c2.8-3.1 2.7-5.9-.1-9.2a14 14 0 00-10-5.1 37.89 37.89 0 00-13.4 1.1 24.79 24.79 0 00-8.2 3.9c-2.2 1.8-4.5 3.7-4.8 7A4.19 4.19 0 010 26.5a6.4 6.4 0 011.3-3.7c2.2-2.8 4.8-5.3 8.3-6.5a64.57 64.57 0 0111.5-2.9 33.07 33.07 0 0115.6 1.7 23 23 0 019.3 6.4 13.2 13.2 0 012.4 5.4 6.47 6.47 0 01-.2 3.9 14.88 14.88 0 01-1.7 3.6 50.37 50.37 0 01-9.7 10.4c-4.9 4.1-10.7 6.8-16.2 9.9a53.62 53.62 0 00-7.4 5zM167.3 3.5l1.1-2.2 2.5-1.3 2.4.3 1.6 1.7a33.87 33.87 0 011.1 7.1c.4 8.2 1.1 16.3 1.4 24.5.1 3.7.5 7.4.4 11s-.1 7.4-.1 11.1.1 7.7.3 11.5a9.51 9.51 0 01-.9 5 1.6 1.6 0 01-2 1c-1.5-.9-.5-3.5-2.6-4.1-.8.5-.3 1.5-.7 1.9a2.44 2.44 0 01-2.5.6 3.59 3.59 0 01-.7-1 27.64 27.64 0 01-.6-7c0-4.5 0-9 .4-13.5a83.73 83.73 0 00-.2-16.6c-.2-2-.2-4-.2-6-.1-4.9-.1-9.8-.2-14.7 0-2.8-.3-5.9-.5-9.3zM167.7 96.5c-1.7-1.9-1.4-3.6-1.3-5.3a6.83 6.83 0 011.9-4.7c1.5-1.3 3.2-1.2 4.7-1.7 2.9.9 3.9 3.4 4 5.8a7.35 7.35 0 01-4.2 7.5c-1.9-.4-3.3-1.9-5.1-1.6z"/></g></g></g></svg>