<svg width="30" height="30" viewBox="0 0 57 41" fill="none" xmlns="http://www.w3.org/2000/svg">
<path d="M54.2506 35.9218C54.2506 35.1072 54.2706 34.7152 54.2506 34.3258C54.1293 32.3618 54.024 30.3938 53.86 28.4325C53.5786 25.0672 53.2493 21.7072 52.9546 18.3432C52.7853 16.3818 52.596 14.4205 52.4973 12.4538C52.3666 9.86984 52.3186 7.28317 52.2266 4.69784C52.2 4.44317 52.1573 4.18983 52.1013 3.9405C51.344 4.29383 50.824 4.78717 50.328 5.30984C47.7906 7.9565 45.1693 10.4885 42.2373 12.7005C41.5893 13.1898 40.864 13.6752 40.4533 14.5192C41.7506 16.2405 42.584 18.2285 43.992 19.8658C44.9093 20.9325 45.5253 22.2205 46.2226 23.4432C47.836 26.2792 49.4373 29.1272 51.1293 31.9165C51.9986 33.3765 53.048 34.7218 54.2506 35.9218ZM20.5106 14.7312C20.2226 14.4978 20.056 14.3472 19.8746 14.2232C18.488 13.2578 17.048 12.3712 15.5613 11.5672C13.6466 10.5005 11.8533 9.22184 9.97863 8.07784C7.57596 6.60984 5.27862 4.9685 2.78662 3.64184C2.51462 3.4965 2.25196 3.19517 1.89329 3.48183C1.73595 3.8765 1.84129 4.26717 1.91996 4.64584C2.25596 6.36184 2.43995 8.10183 2.46795 9.84983C2.55595 12.7792 2.60796 15.7058 2.79463 18.6325C3.02929 22.3418 3.03729 26.0658 3.13196 29.7832C3.19596 32.1525 3.25195 34.5205 3.31995 36.8898C3.33062 37.2125 3.30396 37.5792 3.76662 37.7272C5.28929 36.4098 6.60929 34.8778 7.84262 33.2605C9.18129 31.5032 10.1573 29.5258 11.3386 27.6765C12.7333 25.4925 14.216 23.3618 15.6333 21.1978C16.9653 19.1672 18.6493 17.4005 19.84 15.2765C19.9706 15.0485 20.252 14.9285 20.5106 14.7312ZM2.99329 2.0205L2.95329 2.3365C3.19196 2.47117 3.43196 2.6005 3.66662 2.74184C5.79729 4.00717 7.93329 5.26184 10.0533 6.54317C12.5533 8.05783 15.0066 9.65517 17.5533 11.1032C19.564 12.2525 21.5413 13.4538 23.376 14.8458C25.2106 16.2378 27.1893 17.4378 29.0693 18.7912C29.604 19.1778 30.244 19.4165 30.7346 19.6698C31.5 19.4365 31.9906 19.0485 32.476 18.6712C34.12 17.3925 35.7813 16.1338 37.3706 14.7805C39.992 12.5618 42.72 10.4658 45.1866 8.06984C47.0026 6.3045 48.8053 4.5165 50.6106 2.7445C50.7666 2.5925 50.9253 2.42583 50.7146 2.0885H48.7506C45.5986 2.0605 42.4466 1.98717 39.296 1.86983C33.724 1.6605 28.1466 1.58717 22.5706 1.75917C20.0946 1.8365 17.6266 2.04184 15.1426 1.99517C11.5893 1.9285 8.04662 2.00317 4.49862 2.0165C3.99596 2.02184 3.49329 2.0205 2.99329 2.0205ZM30.212 21.1752C29.0933 20.4992 28.0746 19.9005 27.084 19.2632C26.092 18.6272 25.1346 17.9205 24.1386 17.2805C23.144 16.6418 22.4173 15.6778 21.124 15.2618C20.6986 16.4978 20.0653 17.6512 19.2493 18.6712C18.1293 20.0258 17.2493 21.5325 16.2866 22.9885C14.8266 25.1965 13.296 27.3685 11.984 29.6645C10.2373 32.7205 8.24796 35.5618 5.72262 38.0285C5.46129 38.2858 5.07195 38.5125 5.17996 39.0032C5.57729 39.3032 6.04262 39.1925 6.47596 39.1992C8.55995 39.2312 10.6466 39.2112 12.736 39.2632C13.86 39.2925 14.9813 39.4992 16.1053 39.5072C21.12 39.5405 26.1373 39.4978 31.152 39.5458C37.5266 39.6085 43.884 39.2792 50.2373 38.8312C51.288 38.7565 52.3306 38.5738 53.452 38.4312C53.372 37.9232 53.1133 37.6272 52.872 37.3258C52.3773 36.7125 51.8746 36.1045 51.3973 35.4778C48.624 31.8218 46.632 27.7032 44.46 23.6898C43.7626 22.3952 43.064 21.1125 42.1746 19.9472C41.496 19.0485 40.8973 18.0912 40.388 17.0885C40.08 16.4925 39.796 15.8818 39.256 15.3605C36.208 17.2032 33.728 19.8658 30.212 21.1752ZM56.308 40.0005C55.024 40.0005 53.728 39.8952 52.4573 40.0272C50.9346 40.1845 49.42 40.1965 47.9066 40.3392C44.592 40.6472 41.2706 40.7205 37.948 40.7698C33.448 40.8378 28.9426 41.0152 24.448 40.8712C20.7386 40.7525 17.0133 40.8712 13.3133 40.3912C12.144 40.2405 10.9453 40.2872 9.75996 40.2538C7.68262 40.1912 5.60396 40.1352 3.52662 40.0845C2.74529 40.0658 2.07329 39.5605 1.19063 39.7125C1.15729 38.4885 1.10929 37.3738 1.09996 36.2565C1.06263 31.9205 1.04929 27.5818 1.00529 23.2458C0.99196 21.9512 0.874622 20.6565 0.865289 19.3618C0.835955 15.9258 0.835955 12.4885 0.829288 9.0525C0.829288 7.3605 0.803956 5.6685 0.511956 3.99917C0.365289 3.31384 0.371955 2.60583 0.531955 1.92317C1.34929 1.56583 2.22929 1.37517 3.12262 1.3645C4.69862 1.3245 6.27596 1.3125 7.85996 1.27917C12.7 1.17517 17.552 1.2285 22.3813 0.919167C28.304 0.539169 34.2026 0.9645 40.1133 0.988503C43.1 1.0005 46.084 1.03384 49.0706 1.05117C50.3293 1.0685 51.5813 0.861835 52.7666 0.437836C53.6973 0.575169 53.7613 1.22717 53.916 1.90984C53.4573 2.86583 53.6266 3.95117 53.7213 5.0005C53.9613 7.63784 53.912 10.2898 54.204 12.9272C54.6666 17.0698 55.024 21.2178 55.4173 25.3698C55.5413 26.6605 55.668 27.9498 55.756 29.2418C55.9253 31.9978 56.2066 34.7405 56.5773 37.4752C56.6733 38.2978 56.8 39.1485 56.308 40.0005Z" fill="black"/>
</svg>
