<svg width="41" height="35" viewBox="0 0 41 35" fill="none" xmlns="http://www.w3.org/2000/svg">
<path d="M34.334 5.01493C30.5207 6.04693 7.06868 17.1016 4.41668 19.0789C4.89268 19.6109 5.53401 19.9696 6.23801 20.0963C8.53001 20.6029 10.7713 21.3803 13.1647 21.5163C14.7033 19.7176 16.834 18.8936 18.606 17.5616C20.378 16.2309 22.2153 14.9723 23.982 13.6203C25.75 12.2696 27.49 10.8896 29.21 9.48026C30.93 8.07093 32.7847 6.92293 34.334 5.01493ZM38.3447 4.36693C37.3433 5.29759 36.494 6.37759 35.826 7.57093C35.126 8.82426 34.49 10.1416 33.6073 11.2576C30.5353 15.1429 28.2113 19.5496 24.7873 23.1816C23.7273 24.3096 22.8273 25.6349 22.6847 27.5203C26.1393 28.3589 28.994 30.5429 32.258 31.5336C32.7207 31.1776 32.742 30.8083 32.8127 30.4549C33.2447 28.2723 33.6607 26.0829 34.1313 23.9096C35.3913 18.0816 36.542 12.2389 38.082 6.48026C38.2647 5.79626 38.2513 5.06293 38.33 4.34959L38.4073 4.30693L38.3447 4.36693ZM31.9167 9.16293C31.0207 9.12293 30.4967 9.79226 29.9047 10.2749C28.0193 11.8189 26.134 13.3616 24.1153 14.7349C21.142 16.7576 18.5447 19.2323 15.8687 21.6136C15.5313 21.9469 15.2153 22.3016 14.9207 22.6749C15.094 24.5056 15.4073 26.1936 16.2913 27.9243C21.4207 21.4323 26.2847 14.9736 31.8873 9.13493L31.9487 9.02559L31.9167 9.16293ZM32.3113 10.8603C31.0367 11.7096 30.0887 12.9003 29.15 14.0683C27.3047 16.3643 25.402 18.6003 23.382 20.7589C21.1113 23.1669 19.2033 25.8696 17.0473 28.3723C16.8313 28.6136 16.49 28.8763 17.0167 29.2949C17.8807 28.7123 18.726 28.0496 19.6567 27.5336C20.5407 27.0456 21.242 26.2843 21.654 25.3629C22.3167 24.0056 23.2193 22.7789 24.3167 21.7403C25.2713 20.8656 26.0847 19.8456 26.7233 18.7189C27.5047 17.2509 28.5287 15.9669 29.5553 14.6669C30.5233 13.4429 31.79 12.4123 32.2873 10.8469L32.3113 10.8603ZM0.855348 19.5589C0.639348 18.9309 1.07001 18.6323 1.53401 18.4083C2.43535 17.9629 3.35401 17.5549 4.27401 17.1483C8.53801 15.2483 12.6313 12.9989 16.8313 10.9683C20.9633 8.96959 25.1607 7.10559 29.35 5.21493C32.2927 3.88559 35.254 2.60826 38.2127 1.31759C38.9927 0.976261 39.7847 0.554928 40.7513 1.20559C40.6967 3.46293 39.862 5.61226 39.426 7.83626C38.994 10.0176 38.5287 12.1923 38.086 14.3696C37.6287 16.6189 37.1833 18.8696 36.7327 21.1216C36.3007 23.3016 35.914 25.4923 35.4073 27.6549C34.89 29.8656 34.7833 32.1656 34.1593 34.2136C33.486 34.4629 33.0927 34.2136 32.5313 34.1523C32.2793 32.9869 31.314 32.3856 30.2727 31.9096C28.902 31.2829 27.522 30.6696 26.1153 30.1323C24.642 29.5709 23.0927 29.1843 22.1607 27.7456C20.102 28.5016 18.686 30.0856 16.7273 30.6989C16.2633 30.7283 15.802 30.6109 15.4073 30.3643C13.87 28.5309 14.1767 25.9216 12.918 23.6056C11.182 22.7763 9.35535 22.1536 7.47401 21.7496C6.06735 21.4323 4.68868 21.0629 3.43668 20.3243C2.87001 19.9923 2.32068 19.6963 1.61401 19.8936C1.31668 19.9429 1.01801 19.8123 0.855348 19.5589Z" fill="black"/>
</svg>
