<svg xmlns="http://www.w3.org/2000/svg" fill="currentColor" viewBox="0 0 259 173"><g data-name="Layer 2"><g data-name="Layer 1"><g data-name="Calque 2"><path d="M11.9 121.72c-.1.3-.3.8-.5 1.3a1.34 1.34 0 00.5 1.9c.9.6.8.9-.2 1.4-2.1.9-2.1 1-1.3 2.7.2.5.6 1 .8 1.5.1.2-.1.6-.3.9 0 .1-.4 0-.5 0a12.44 12.44 0 01-2-1 1.68 1.68 0 00-2.5.4c-.6.7-1.2 1.5-1.8 2.2a3.81 3.81 0 01-1.3.9 1.47 1.47 0 01-1.1-.2c-.2-.2-.5-.7-.3-.9a18.4 18.4 0 011.7-2.2c.6-.9 1.9-1.7 1.1-2.8-.3-.5-1.7-.3-2.6-.4a2 2 0 01-1.1-.3 2.18 2.18 0 01-.5-.8c0-.1.1-.4.2-.4a10.09 10.09 0 011.5-.7c1-.3 1.3-.7 1.2-2-.2-2.3.7-2.8 2.6-1.6 1.1.8 1.8 1.1 2.9 0a6.15 6.15 0 011.9-1.2c.6-.3 1.6.4 1.6 1.3zM168.9 129.32c-.4-.1-.8-.4-1.1-.3s-1 .7-1 1c.2 1.1.6 2.2.9 3.3.3.9.1 1.5-.8 1.8a1.62 1.62 0 01-1.9-.8c-.1-.2-.2-.3-.3-.5-.5-2-1.6-2.7-3.7-1.8a1 1 0 01-1.1-1.7c1.3-1.4.5-1.7-.6-2.2-.7-.3-1.3-1.3-.1-1.6 2-.4 2.5-1.4 1.9-3.2-.1-.2.3-.7.5-.9s.9-.1 1 .1c1.4 2.4 3.1 3.1 5.4 1.1.3-.3 1.1-.2 1.6 0 .8.4.7 1.2.3 1.9a1.7 1.7 0 00.4 2.5 5.17 5.17 0 01.6 1.3 8.75 8.75 0 01-1.6.2c0-.1-.2-.2-.4-.2zM257.5 160.72c-.6 1-1.2 2.1-1.8 3.2-.7 1.3-.4 1.8 1.3 2.2l1.6.3c.2 0 .3.3.4.4-.1.1-.2.3-.4.4a.76.76 0 01-.5.2c-.4.1-.8 0-1.1.1-1.9.5-2.1.9-1.7 2.7.1.5.4 1 .5 1.6a1.09 1.09 0 01-1.5 1 3.13 3.13 0 01-1-.5c-.9-1.3-1.7-1.7-3-.3-1 1-2 .3-2-1.2 0-.9.5-1.6-.7-2.4-1.4-.9-1.3-1.1.3-1.8 2-.9 2-.9 1.1-2.5a3.33 3.33 0 01-.6-1 1.67 1.67 0 010-1 2.54 2.54 0 011.5-.3c.5.1.9.6 1.4 1a1.05 1.05 0 001.8-.3 26.5 26.5 0 012.1-2.6c.3-.3 1 0 1.5 0 .3.08.4.3.8.8zM157.9 1a9.13 9.13 0 01-.8 1.3c-1.1 1.2-.7 1.9.7 2.4a3.57 3.57 0 011 1.1 4.05 4.05 0 01-.9.5 1.27 1.27 0 01-.6.1c-2.5.8-2.5.8-1.4 2.9.2.3.7.6.6.9s-.4 1-.8 1.1a2.4 2.4 0 01-1.6-.4c-1.1-.6-1.6-.1-2.4.6a2.36 2.36 0 01-1.9.8c-1.2-.3-1-1.4-.7-2.3a1.55 1.55 0 00-.1-1c-2-.9-3.1-1.7-.2-3 .2-.1.3-1 .1-1.4-.3-.9-.8-1.6-1.1-2.5-.1-.2.4-.6.7-.7a1.47 1.47 0 011.1.2c.9.6 1.8 1.8 2.6 1.7s1.6-1.4 2.5-2.1a7.61 7.61 0 011.9-1.2c.2-.1.7.2 1 .4s.2.32.3.6zM195.9 53.12a11.88 11.88 0 01-.8 1.6c-.5.7-1.7 1.3-1 2.3.4.5 1.3.6 1.9 1a2.41 2.41 0 01.6.8 10.37 10.37 0 01-1 .4c-.5.1-1.2 0-1.6.3-.8.6-.3 1.3.1 2s.7 1.3 1 2c.1.2-.2.7-.4.8s-.9.2-1.1 0a17 17 0 01-1.9-1.9c-.7-1-1.4-.9-2.3-.2-1.8 1.3-1.9 1.2-2.8-.4a10.92 10.92 0 00-1.3-1.7c-1-1-.5-1.6.4-2.2.6-.4 1.5-.6 1.8-1.1.5-.9-.9-2.4.6-2.9.9-.3 2.2.4 3.2.1a21.58 21.58 0 003.4-1.7c.2-.1.7.5 1.2.8zM223.7 31.92c.4 0 .6-.1.7 0 2.1 1.7 4.1 1.3 6.2 0 .3-.2.9.3 1.4.5.1.1-.1.7-.3 1a11.78 11.78 0 01-1.1 1.9c.7.3 1.4.6 2 .8.2.1.4.1.5.2a2.7 2.7 0 01.7.8c-.4.3-.7.8-1.1.8-1.5.1-2.6.3-2 2.3.1.4-.4 1.3-.6 1.3A5 5 0 01228 41c-.8-.4-.2-2-1.6-1.9-1 .1-5.4-.7-6.2-1.3a1.38 1.38 0 01-.4-.3 1.33 1.33 0 01-.3-.5 1.58 1.58 0 01.5-.8 8.58 8.58 0 011.7-.3c2-.4 1.9-.4 1.6-2.7 0-.28.3-.78.4-1.28zM77.7 108.12a18.16 18.16 0 00-3-1.1c-.9-.1-2.1.7-2.6.3a8.1 8.1 0 00-3.9-2c-.3 0-.7-.7-.7-.8a2 2 0 011-1 26.35 26.35 0 012.8-.2c2.1-.2 2.3-.6 1.3-3a2.7 2.7 0 01-.3-1.5c0-.2.7-.6.9-.5a5.39 5.39 0 011.6 1.4c.6.8 1.2.9 1.9.3s1-1.2 1.6-1.6a2.44 2.44 0 011.5-.5c.8.4.8 1.2.3 1.9-.9 1.4-.9 2.4.9 3 .4.1.6.8.9 1.2a1.91 1.91 0 01-1 .5c-1.8.2-2.9.9-2.3 2.9.1.1-.5.4-.9.7z"/></g></g></g></svg>