<svg xmlns="http://www.w3.org/2000/svg" fill="currentColor" viewBox="0 0 236 70"><g data-name="Layer 2"><g data-name="Layer 1"><g data-name="Calque 2"><path d="M183 38.93c-.3 1.7-.5 4-1 6.1a8.06 8.06 0 01-1.3 3c-2 2.8-4.8 3.4-7.8 1.6-.5-.3-1.1-1.1-1.5-1-.7.2-1.2.9-1.7 1.4-1.1 1.1-2.2 2.3-3.4 3.3a11.1 11.1 0 01-13.3.3 4.36 4.36 0 00-3.8-1.1 5.7 5.7 0 01-4.5-1.1c-1-.8-1.6-.4-2.4.2-1.1.9-2.3 1.5-3.5 2.3-2 1.3-4 .5-5.8-.4a2 2 0 01-1.1-2.4 14.91 14.91 0 011.7-3.9c2.1-2.9 4.4-5.8 6.7-8.6a5.26 5.26 0 011.4-1.2 2.55 2.55 0 013.1-.1c.7.4 1.3.9 2 1.3a2 2 0 011.1 1.9l-.6 5.7a13.13 13.13 0 00-.1 2.8 1.08 1.08 0 001.3 1 19.48 19.48 0 012.3-.6 3.19 3.19 0 002.7-2.9c1-8 4.8-15 7.2-22.6a3.55 3.55 0 01.4-.9 1.64 1.64 0 012-.9A1.38 1.38 0 01164 24c-1.1 3.3-2.2 6.6-3.4 9.8-.3.9-1.1 1.7-1.2 2.6-.1 1.2-1.3 2.3-.6 3.6.8-.8 1.5-1.6 2.3-2.3a22.56 22.56 0 014.2-2.9c3.2-1.5 6.1-.3 7.3 2.9.3.9.4 1.8.7 2.8.1.3.3.7.5.7s.6-.1.8-.4c1-1.3 1.8-2.6 2.8-3.8s1.9-2.5 3.6-2.9a1.57 1.57 0 012 1.4v3.43zm-13.2 1.8c-.1-.6-.1-1.1-.2-1.5-.4-2.3-2.4-3.2-4.1-1.5a70.25 70.25 0 00-5.7 6.4 1.52 1.52 0 00-.4.8c.6 1.9-.9 2.5-2.1 3.2a5.66 5.66 0 00-1.5 1.2 2.16 2.16 0 00-.4 2.6 2.79 2.79 0 001.8 1.2 7.6 7.6 0 005.9-1.1 13.55 13.55 0 006.67-11.3zM136 52.23a3.31 3.31 0 001.5-.4c2.3-1.7 4.5-3.5 5.3-6.4.5-1.6 1.6-3.1.9-5-2.1 0-2.5 2-3.6 3.2a20.56 20.56 0 00-2.9 3.7 25.9 25.9 0 00-1.7 3.8c-.23.2.27.7.5 1.1zM179.17 42c-.2-.3-.2-.4-.3-.5s-.3-.1-.3 0c-1.5 1.6-2.9 3.3-3.2 5.6a1.23 1.23 0 00.4.8.78.78 0 00.8-.1c1.9-1.47 2.3-3.67 2.6-5.8zM81.87 13.63c-1.2 5.1-2.1 10.2-3.8 15.1-2.5 7-5.4 13.9-9.7 20.1a58.09 58.09 0 01-23.9 20.3 9.64 9.64 0 01-7.8.3 4 4 0 01-2.5-2.6 9.67 9.67 0 01.1-6.5 29.31 29.31 0 017.6-11.9c4.4-4.4 9.3-8.2 15.4-9.9a7.37 7.37 0 011.4-.4 2.64 2.64 0 011.6.7c.5.7-.3 1.1-.8 1.4-2.9 1.6-6 3-8.8 4.7a33.48 33.48 0 00-12.6 14.5 12.08 12.08 0 00-1 6.5 2 2 0 002 1.7 11.34 11.34 0 005.1-1 43.21 43.21 0 0011.1-7.2c7.3-6.5 11.1-11.5 15.2-20.4a126 126 0 005.4-13.2A71 71 0 0078 15.63a19.41 19.41 0 01.2-2.4 4.64 4.64 0 011.9-3.6c.57-.5 1.67 1.9 1.77 4zM126.17 43.93c-.6 2.7-1.1 5.5-1.7 8.3a1.25 1.25 0 01-1.1.6 6.15 6.15 0 01-1.9-1.2c-.2-.2 0-.9.1-1.4a59.7 59.7 0 001.1-6.1 15.42 15.42 0 00-.3-3.7 1.13 1.13 0 00-1.8-.7 5.24 5.24 0 00-2.4 4.4 15 15 0 01-2.4 7.1 8.35 8.35 0 01-.8 1.2 2.23 2.23 0 01-2.6.3 1.54 1.54 0 01-.8-2 65.63 65.63 0 012.3-6.2 5.3 5.3 0 00.5-3.7c-.1-.3-.4-.6-.6-.6a.83.83 0 00-.8.3 12.54 12.54 0 00-1.2 3c-.7 3.8-2.3 7.2-3.8 10.7-.5 1.2-1.1 1.4-2.3 1-1.5-.5-1.9-1.1-1.5-2.4 1.3-3.6 2.6-7.1 3.9-10.7.4-1.1.9-2.1.4-3.2-.1-.2-.6-.4-.7-.3-.5.4-1.1.7-1.3 1.3-2.1 3.7-4.1 7.5-6.1 11.2a12.66 12.66 0 00-.6 2.8 1.16 1.16 0 01-1.4.9c-1.2-.2-2.1-.9-1.9-1.7a8.65 8.65 0 01.6-2.3c1.9-3.7 3.8-7.3 5.7-10.9a8.8 8.8 0 013.7-3.7 4.08 4.08 0 014-.4 36.87 36.87 0 006.7 1.9 2.4 2.4 0 001.4-.2c.8-.2 1.5-.6 2.2-.8a3.9 3.9 0 014.9 2.8c.2 1.4.33 2.9.5 4.4zM39.07 14.63c.3-2 .6-4 1-6a5 5 0 01.5-1.3c.4-.9.9-1.7 2-1.8a2.74 2.74 0 012.3 1.4 21.1 21.1 0 011.6 3.4 22.21 22.21 0 01.9 3.7A48.31 48.31 0 0050 24.63c.1.3 0 1.1-.2 1.2a2 2 0 01-1.7 0 2.94 2.94 0 01-1.3-1.8c-.7-2.6-1.2-5.2-1.9-7.8-.4-1.7-.8-3.4-1.3-5 0-.2-.5-.4-.7-.3a1.72 1.72 0 00-.6.6 19.27 19.27 0 00-.1 2.4c-.1 1.6-.1 3.2-.2 4.7-.1 2.4-1.1 3.8-4 3.2-1.9-.4-2-.2-1.9 1.8a26.16 26.16 0 010 2.8c0 .3-.6.7-1 .8a1.68 1.68 0 01-1.3-.4 1.58 1.58 0 01-.5-.8 75.35 75.35 0 00-3.6-12.3c-.5-1.3 0-1.9 1.6-2 .9-.1 1.8-.3 2.7-.4a1.61 1.61 0 011.8 1.7 7 7 0 01-.3 1.4 3.19 3.19 0 001.3 3.8 12.9 12.9 0 001.6.9 3.29 3.29 0 00.7-1.6 26.16 26.16 0 000-2.8c.17-.1.07-.1-.03-.1zM76.77 55.83c-1.1-.3-2.4-.5-3.5-.9-2.2-.8-3.2-2.2-2.8-4.4a25.1 25.1 0 012.2-6.7 59.25 59.25 0 015.7-7.5 9.46 9.46 0 013.6-2.2 2.89 2.89 0 013.8 3 8 8 0 01-.9 3.1c-1.8 3.1-4.2 5.5-7.9 6.3-2.5.6-3.3 2-3.3 4.4a2.26 2.26 0 002 2.2 9.73 9.73 0 005-1.2 32.51 32.51 0 014.3-1.8c.2-.1.7.2.8.3a5.63 5.63 0 010 1.3c0 .1-.2.2-.3.3-2.4 2.4-5.47 3.2-8.7 3.8zm.4-12.3a6.37 6.37 0 004.7-4 1.8 1.8 0 00-.3-1.2c0-.1-.6 0-.8.2-1.5 1.4-3.3 2.7-3.6 5 0 .2-.1.3-.2.3.1 0 .1-.2.2-.3zM214.47 41.73c-.3 3.2-.6 5.6.2 7.9.3.7-.6 1.3-1.5 1.2-2.1-.2-2.6-.6-2.6-2.5 0-2.4.3-4.7.5-7.1a4.12 4.12 0 00-.3-.8c-.3.1-.7.2-.8.4-.6 1.3-1.1 2.6-1.7 3.9a33.3 33.3 0 01-2.4 4.6c-.9 1.4-2.7 1.5-4.1.3a1.52 1.52 0 01-.4-.8 5.66 5.66 0 01.3-1.8c1.1-3.5 2.3-6.9 3.4-10.4.6-1.8 1.1-2.1 3.2-1.9a8.07 8.07 0 002.7-.1 2.67 2.67 0 013.1 2.2c.3 2 .3 3.9.4 4.9zM228.07 51.53a16.07 16.07 0 01-7.9-1.7c-3.3-1.7-4.2-4.7-2.4-8a13.46 13.46 0 016.7-6.4 9 9 0 015.6-.4 3.17 3.17 0 012.2 3.7 5.23 5.23 0 01-2.2 3.5c-2.5 1.7-5 3.4-8.2 3.2a4.28 4.28 0 00-1.3.5c.3.5.4 1.2.8 1.6a5.82 5.82 0 004.3 1.8 44.29 44.29 0 005.1-.6c1.2-.2 2.4-.7 3.7-.8a1.91 1.91 0 011.6.6c.5.7-.2 1.2-.7 1.4a17.52 17.52 0 01-7.3 1.6zm1-13.3c-.6-.4-1-1-1.4-1a2.62 2.62 0 00-1.7.5c-1.9 1.1-4 2-4.3 4.5a.45.45 0 00.3.3c2.5.7 4.1-1 5.8-2.2.5-.4.7-1.2 1.3-2.1zM198.37 40.43c-.7 2.9-1.4 5.6-2.2 8.4-.3 1.2-1 1.3-2.2.8-.9-.4-1.2-.8-.8-1.8a16.22 16.22 0 001.2-9.7 1.34 1.34 0 00-.2-.9c-.3-.2-.9-.5-1.1-.4a5.93 5.93 0 00-1.5 1.7c-1.1 2.3-2 4.6-3 7-.4 1-.8 2.1-1.3 3.1-.3.7-1.5.9-2.5.5a1.48 1.48 0 01-.9-1.9l2.7-9.6a2.4 2.4 0 01.7-1.2 33.78 33.78 0 015.1-2.4c2.3-.8 4.1 0 4.9 2.3a19.09 19.09 0 011.1 4.1zM3.67 11.23c1.9 1.5 4 .9 6 1 .3 0 .6.1.9.1 1.7.5 3.5 1 4.2 2.8.7 2-.9 3.2-2.1 4.4a41.17 41.17 0 01-4 3.3 2.9 2.9 0 00-1.2 3.3 31.48 31.48 0 01.9 4.2c.1.7-.1 1.4-.9 1.4a2.11 2.11 0 01-1.6-.6 7.16 7.16 0 01-.8-2.2c-.5-2.5-1-5-1.5-7.4-.3-1.4-.8-2.3-2.3-2.6s-1.6-1.6-.8-2.6a11.06 11.06 0 001.8-3.8c.1-.53.8-.8 1.4-1.3zm5.9 2.9c-3-.1-4.1 1.1-3.8 3.6.1.5.1.9.2 1.4.3 1.6 1.3 2 2.7.8a28.32 28.32 0 003-3 1.5 1.5 0 00-.6-2.3 8.57 8.57 0 00-1.5-.5zM16.07 25.13c.4-3.5.7-7.1 1.3-10.7a2.64 2.64 0 011.4-1.7 2.63 2.63 0 012.1.6 33.36 33.36 0 012.5 4 1.81 1.81 0 002 1c.9-.1 1.9-.3 2.8-.4.3 0 .8.3.8.4a3.38 3.38 0 01-.6 1.2c-.2.2-.6.2-.9.3-2.7 1.1-2.9 1.7-1.4 4a8.06 8.06 0 001.2 1.4c.5.6 1.1 1.3.2 2a2.11 2.11 0 01-2.6-.3c-.6-.9-1.2-1.9-1.7-2.8a22.64 22.64 0 00-1.3-2c-.3-.4-1.4-.1-1.6.4a18.1 18.1 0 00-.3 2.3c-.2 1.3-.3 2.5-.5 3.8a1.6 1.6 0 01-2 1.5 1.72 1.72 0 01-1.4-1.7zM52 0a2.7 2.7 0 011.1.9 15 15 0 011.1 3.6c.4 2.3.8 4.7 1 7a21 21 0 001.4 6c.1.3-.1 1.1-.3 1.1-.6 0-1.3.1-1.7-.2a2.26 2.26 0 01-1-1.5c-.5-2-.9-4-1.3-6-.7-3.2-.4-6.6-1.7-9.7-.33-.57.47-1.37 1.4-1.2zM132.77 34.63a13.18 13.18 0 01-1.6-1.2.94.94 0 01-.1-.9 35.55 35.55 0 015.7-10.7 2.94 2.94 0 011.7-.7 1.46 1.46 0 011.2.5c.2.1.1.6.1.9a.76.76 0 01-.2.4c-2.5 3.1-3.9 6.8-5.6 10.3a8.7 8.7 0 00-1.2 1.4zM58 23.13a7.09 7.09 0 011.3 1.9 1.38 1.38 0 01-1.4 1.5c-1 .1-2.3-.8-2-1.4a10.22 10.22 0 012.1-2z"/></g></g></g></svg>