<svg xmlns="http://www.w3.org/2000/svg" viewBox="0 0 536 365"><defs><style>.cls-1{fill:#7c5315}.cls-2{fill:#fff}</style></defs><g id="Layer_2" data-name="Layer 2"><g id="Layer_1-2" data-name="Layer 1"><g id="Calque_2" data-name="Calque 2"><path class="cls-1" d="M2.9 0h532.6v364.8H2.9z"/><path class="cls-2" d="M491.2 326.9a1.31 1.31 0 01.3-1c-.3-.3 0-.7 0-1.1a12.41 12.41 0 01.3-2.7c.2-1.9.7-3.7 1-5.6.2-1.4.4-2.7.5-4.1a16.9 16.9 0 011.2-4.4c-.5-1.3 0-2.5.2-3.7.1-.7.2-1.5.3-2.3-1.6-.9-3.4-1.2-5.1-1.9.4-.9-.2-1.7.3-2.6l3-.6a47.06 47.06 0 006.4-1.9 55.42 55.42 0 018.9-2.3h.5a4.28 4.28 0 001.6.5c1 .2 2 .5 3 .7 2.3.4 4.4 1.2 6.6 1.8a5.83 5.83 0 002.3.3 2.67 2.67 0 001.4.7 21.69 21.69 0 013.5.7c.5.1.9-.2 1.5 0a8.22 8.22 0 01.1 3.5 14.71 14.71 0 01-2.2 1c-.7.2-1.5.2-2.1.4a.77.77 0 00-.1.3 46.16 46.16 0 01.6 6.4 46.17 46.17 0 00.7 6.5v.4a38.84 38.84 0 00.4 4.8 33.53 33.53 0 00.7 4.4c.1.5.4.8.4 1.3a5.15 5.15 0 01-2.5 1.6c-1-.3-1.7-1.2-2.9-.8a39.33 39.33 0 01-.6-5.9c-.9.4-1.7.8-2.5 1.2s-1.8.8-2.7 1.1-1.7.6-2.5.9c-.3.3-.1.6-.1.9a17.82 17.82 0 01.3 4.6c0 .9.1 1.8.1 2.7 0 .4.3.7.4 1-.3.6-1.1.7-1.4 1s-.1.5-.2.6a1.53 1.53 0 00-.7.5c-.8.1-1.5-.3-2.3 0l-.4-.6c-.6-.2-.7.2-1 .3l-.4-.1-.2-.2a2.46 2.46 0 01-.1-1.2 26.71 26.71 0 000-4 15 15 0 010-3 10.9 10.9 0 00-.3-2.6 16.5 16.5 0 00-4.8-1.4 27.43 27.43 0 01-3.9-.9 1.65 1.65 0 00-1-.1 1.5 1.5 0 00-.4 1.1 17 17 0 01-.9 3.9 1.7 1.7 0 00.2 1.8 2.92 2.92 0 01-1.6 1.1v.3c-.3 0-.5.2-.7.1a8.16 8.16 0 01-3.4-1.2 5.35 5.35 0 01.3-2.2l.1.2.2-.2.1-.1v.2zm33.7 0zm-6.3-5.6a.76.76 0 00.5-.2c.2 0 .4 0 .5-.3l.6-.1c.3-.2.4-.6 1-.8l.8-.1a1.26 1.26 0 00.5-1.6c-.9.3-1.8.5-2.6.8a36.5 36.5 0 00-3.4 1.8c-.9.5-1.8 1-2.7 1.4-.2.1-.5.1-.6.4a2 2 0 00.1 1.1 21.1 21.1 0 003.4-1.6 6.72 6.72 0 011.2-.6c.1-.4.4-.5.8-.5l-.1.3zm4-19.2c.1 0 .2 0 .2-.1s-.1-.1-.2-.2a8.18 8.18 0 011.9-.9c.3.2-.1.5.2.6.4-.3 1-.3 1.4-.7a.55.55 0 00.5-.3c.5-.2 1.1.1 1.6-.2a.53.53 0 00-.6-.6c.1-.2.3-.3.3-.5s-.1-.3-.4-.5c-1.4.6-3 .9-4.5 1.4-.1 0-.2.1-.4.1a8.6 8.6 0 01-2.7.9v-.3h.3c-.2-.1-.2 0-.3.1v.3c-.4.2-.8.7-1.3.2l-.5.1-.1.4a2.62 2.62 0 01-1.9.5c-.2 0-.4.1-.6.1-1.2.4-2.3.7-3.4 1.1a1.46 1.46 0 00-.6.9 1.49 1.49 0 00.4.9c1.5-.5 3-1.1 4.5-1.7 1.3-.5 2.6-1.4 4.1-1.1.2-.8.8-.7 1.4-.7.4.4.6.4.7.2zm-.7-1.8c.2 0 .4 0 .5-.3a7796685.65 7796685.65 0 001.6-.6c.3 0 .6 0 .7-.3l.3-.1c-.2-.1-.2 0-.3.1-.3 0-.6 0-.7.3a7796685.65 7796685.65 0 01-1.6.6c-.2.1-.4.1-.5.3a.37.37 0 00-.3.1c.2.1.2 0 .3-.1zm-30.4-1.8c0 .1.1.2.3.1l-.3-.1c-.1 0-.1-.2-.3-.1.1.2.2.1.3.1zm22.8 16.7c.1.1.2.2.4.1l-.4-.1a1.91 1.91 0 00-1.7-.3 2.59 2.59 0 001.7.3zm-7.6 6.6l.2.1-.2-.1a2.74 2.74 0 00-2.3-.8c-.1-.2-.3-.2-.5-.3s-.6-.2-.7-.5a10.64 10.64 0 014.3 1.2.6.6 0 000-.7 2.1 2.1 0 00-1.1-.4 5 5 0 01-1.3-.3c-1.2-.4-2.5-.8-3.8-1.1a19.81 19.81 0 01-3.3-.8c-.1-.1-.3 0-.5-.1l-1 .4c-.2.3.2.4.1.6-.4.4-.7.8-.4 1.4.1.1.2.1.3.2.5.1 1.1 0 1.5.6a.75.75 0 00.5.1c1.5.4 2.9.8 4.4 1.1a17.42 17.42 0 012.2.5 16.55 16.55 0 012.1.6c.2-.1.2-.3.1-.6-1.5-.5-3-1.1-4.6-1.5a29.23 29.23 0 01-4.2-1.3c-.2-.1-.4-.1-.4-.4a.92.92 0 011-.1 5.45 5.45 0 012.2.5 5.71 5.71 0 003.1 1 6.15 6.15 0 002.3.7zm-7.6-4a.74.74 0 00.9.1c1.1-.5 2.2-.8 3.3-1.2.2-.1.5-.1.5-.4a12.13 12.13 0 00-3.7 1.1l-.4-.4c-.4.2-.9.2-1.3.6.1.1.2.2.3.2zm14.7-3.6a1.7 1.7 0 00-1.3-.4c.5.5.9.3 1.3.4.9.6 2.1.7 2.8 1.6 1.3.1 2.4.7 3.8.5a13.89 13.89 0 00-6.6-2.1zm3.8 3.3a4.42 4.42 0 01-2.5-.4c-.5-.2-1.1-.3-1.7-.5a.63.63 0 00-.8.1c-.2.4 0 .9 0 1.4s-.1 1.1.3 1.6c1.3-.5 2.5-1.1 3.7-1.6a1.44 1.44 0 001-.6c.4-.1 1-.1 1.3-.7-2.1-.4-4.1-.9-6.3-1.2a.8.8 0 00.8.6c1 .2 2 .5 2.9.7a3.93 3.93 0 011.3.6zm4.5-8.6l.1 1.3a1.78 1.78 0 00-.1-1.3c-.1-.3-.4-.3-.5-.5a6.93 6.93 0 01-.3-2c-.1-.8-.2-1.7-.3-2.5 0-.2-.2-.3-.3-.4a.67.67 0 00-.7.4 5.66 5.66 0 00.3 1.8 5.43 5.43 0 01.2 3.1c-.1.2 0 .5 0 .8a27.09 27.09 0 00.4 4 21.3 21.3 0 01.3 2.5 1.66 1.66 0 001.2.5c.2-.9-.2-1.7-.1-2.5a24.18 24.18 0 00-.3-2.5 5.24 5.24 0 01-.1-2.5zm-23.8 2.8l.2-.2.6-3.6a35 35 0 01.7-4.5.31.31 0 00-.1-.2 2.84 2.84 0 00-1.3-.4 2.26 2.26 0 00-.5 1.5 25.69 25.69 0 01-.6 4 66.46 66.46 0 00-.9 7.8c0 .4-.1.8-.1 1.2 0 .1.1.1.1.3a1.38 1.38 0 00.9-.5c.2-1.1.4-2.3.6-3.5a4.06 4.06 0 00.4-1.9zm5.8-17.2a1.91 1.91 0 01-1.4.7 15.67 15.67 0 00-2.9.8 41.79 41.79 0 01-5.8 1.6 14.62 14.62 0 00-2 .5 6.69 6.69 0 004.7.9 75.32 75.32 0 008.1-2.4c1.4-.5 2.8-1 4.3-1.5a6.35 6.35 0 012.3-.5c.2 0 .3 0 .4-.2a5.28 5.28 0 00-3.9-.2c.3-.6.8-.6 1.4-.7a.78.78 0 00-.8-.2 16.34 16.34 0 00-3.7.8 1.61 1.61 0 00-.7.4zm-4.8 4.3l-3 .6a73.53 73.53 0 0010.8 2.6l12.5-5.6c-.1-.1-.1-.1-.2-.1a50.1 50.1 0 00-5.2-1.4 2 2 0 00-1.1 0 53.63 53.63 0 00-5.4 1.4c-2.8.9-5.5 2-8.3 2.9l-.1-.4zm1.6 4.3c-.1-.1-.2-.2-.4-.1l.4.1v.4l-.5.3a5.28 5.28 0 00-.3 1.2 22.47 22.47 0 01-.7 5.2c-.3 1.8-.6 3.6-1 5.4a.66.66 0 00.1.6c-.1.2-.4.4-.2.7a.35.35 0 01.2.1c2.4-.6 4.9-1.2 7.3-1.9a2.22 2.22 0 001.1-.5.55.55 0 00-.2-.5c-.8.2-1.7.5-2.6.8-1.3.5-2.6.9-4 1.3a3.34 3.34 0 01-1.7.1c.2-.3.6-.3.9-.5 2-.7 4-1.4 6.1-2.1a3.27 3.27 0 001.6-.9c-.2-2.6-.3-5.2-.3-7.7a20 20 0 00-5.8-2zm19.3 12.1a6.2 6.2 0 00-.2-2.7 28.49 28.49 0 00-.3-2.9c-.1-.9-.2-1.8-.3-2.8a13.5 13.5 0 00-.4-2.8 21.73 21.73 0 00-2.4.7 16 16 0 00-2.3 1c-.7.3-1.6.2-2.2.7a4.11 4.11 0 000 2.2 6.73 6.73 0 01.1 2 5.69 5.69 0 00.4 2.6 11.49 11.49 0 001.7.6 31.46 31.46 0 014.4 1.1 6.63 6.63 0 001.5.3zm-24.5-13a1.18 1.18 0 00-.1.8 6.73 6.73 0 01-.1 2c-.2 1.6-.6 3.1-.9 4.7-.3 1.9-.6 3.7-1 5.6a19.21 19.21 0 00-.5 3.2 24.5 24.5 0 01-.4 3.8 5.28 5.28 0 00-.1 1.3 13.17 13.17 0 01-.4 3.4 5.28 5.28 0 00-.1 1.3c0 .1.1.1.1.2.3.1.4-.3.7-.1s.2.6.8.4a11.7 11.7 0 00.5-2c.1-.7.3-1.3.4-2l.3-2.1c.1-.7.1-1.3.2-2s.5-1.3.2-2c.1-.3.3-.5.3-.7.3-1.9.8-3.9 1-5.8s.6-4.1.6-6.1a4.44 4.44 0 01.8-3.3 4.17 4.17 0 00-2.3-.6zm12 3a3.8 3.8 0 00-.2 2.1c.1 1.5.3 2.9.4 4.4.2 2.1.4 4.3.4 6.4a2.69 2.69 0 01-.5 1.5c-.6-1.4-.2-2.9-.8-4.6a1 1 0 01-.6 1 13.16 13.16 0 01-3.9 1.5 3.36 3.36 0 00-1.7.8c.3.1.5.1.8.2a9.5 9.5 0 011.8.4 29.77 29.77 0 004 1.1c.3.1.5.1.7.4.1.7.1 1.4.2 2.2.1 1.2.3 2.4.3 3.6.1 1.5.1 2.9.1 4.4v2c0 .5-.1.9.3 1.3.3.2.6.4.9.3a.75.75 0 00.5-.7 6.6 6.6 0 00-.1-1.4c-.1-1.4-.2-2.9-.3-4.3v-1.2c-.2-2-.4-4-.5-6s0-4.2-.3-6.3a17 17 0 01-.1-2.3 13.13 13.13 0 00-.1-2.8 14.47 14.47 0 01-.4-3.5 1.35 1.35 0 00-.9-.5zm18.5-7.2c-.1-.1-.3-.1-.4-.2l-2.8-.6c-2.3-.5-2.3-.6-4.5.3s-4.3 2.1-6.5 3c-1.1.4-2 1-3.1 1.3-.2.1-.5.1-.6.5.9.3 1.9.5 2.8.8a1.7 1.7 0 001 0 21.61 21.61 0 004.3-1.4c2.6-1.1 5.2-2.2 7.9-3.1a14.47 14.47 0 011.9-.6zm-16.5 15.8a2.49 2.49 0 01.1.8 21 21 0 00.2 2.5 20.24 20.24 0 01.4 4.3 7.49 7.49 0 00.2 2.1 10.87 10.87 0 01.1 1.8c0 2.9.3 5.7.5 8.6 0 .1.1.1.2.2l1.2-.9c-.1-1.3.1-2.7-.1-4s.2-2.8-.3-4c-.3-.3-.8.2-.9-.4a1.16 1.16 0 00.8-.6c-.1-1.2-.1-2.5-.2-3.7a6.15 6.15 0 00-.1-1.3 24.49 24.49 0 01-.3-5.4 2.77 2.77 0 00-.1-.9 7.61 7.61 0 01-.3-2.1 13.55 13.55 0 00-.2-2 6.57 6.57 0 00-.6-2.5.72.72 0 00-.8-.2c-.2.8.3 1.5.2 2.3s.4 1.6.2 2.4a6.52 6.52 0 00.2 2.4zm12.4-10.6c0 1.1.2 2.3.1 3.5v.1a8.59 8.59 0 01.5 3.2c.1 1.4.4 2.8.4 4.3a27.1 27.1 0 00.4 4c0 .2.1.4.3.4s.7.1 1-.3c-.2-.6 0-1.2-.3-1.8a6.26 6.26 0 01-.3-2.7 7.49 7.49 0 00-.2-2.1 5.33 5.33 0 01-.2-2.5 4.64 4.64 0 00-.2-2.6 21.66 21.66 0 01-.4-2.5 2.77 2.77 0 00-.1-.9c0-.1-.1-.2-.2-.3s-.4-.2-.8.2zm-31-3.3c.4.1.8.2 1.1.3 2.2.8 4.5 1.2 6.7 1.8 1.6.5 3.3.8 5 1.3s3.2 1.4 4.9 1.4a2 2 0 001.1.3c-.7-.2 0-.8-.4-1.1-1.4-.4-2.8-.9-4.2-1.3a35.21 35.21 0 00-7.1-1.8c-.7-.1-1.3-.3-2-.4a42.28 42.28 0 01-5.1-1.3c-.1 0-.1.1-.2.1-.1.3 0 .4.2.7zm21.9 21.8a11.26 11.26 0 002.7-1.3 18.06 18.06 0 013.7-1.8 4.61 4.61 0 001.7-.9c.3 0 .6.1.7-.2a2.35 2.35 0 00-1.4-.7c-.1 0-.2.1-.3.2a7.62 7.62 0 01-3.2 1.7c-1.2.4-2.4 1-3.7 1.3-.2 0-.3.2-.4.2a2.51 2.51 0 00.2 1.5zm12.1 4c.1.2-.3.3-.1.6a1.38 1.38 0 00.9-.5c-.3-2-.6-4-.8-6.1a.1.1 0 00-.1-.1l-.1-.1a1.61 1.61 0 00-1.1.5c0 1.3.6 2.6.4 3.9l.6 1.6zm-1.8.4a25.17 25.17 0 00-.8-5.5c-.4 0-.7.1-.8.5.3 1.7.1 3.5.8 5.1.4.1.6.1.8-.1zm-27.4-4.9c-.1.3-.2.5-.3.8-.2 1.1-.3 2.1-.4 3.2s-.4 2.5-.6 3.7c.1.2.2.3.5.2.3-2.5 1.2-4.9 1.5-7.3-.1-.4-.3-.5-.7-.6zm10.4-18.8a10.42 10.42 0 004.3 1.1 20.88 20.88 0 00-4.3-1.1zm6.3 31.5c.2-.1.1-.1 0 0zm-2.2-29zm.9 1.8zM463.7 53.9l.1-.3c.3-.2.3.2.5.2.3-.3 0-.8.4-1.2.2-.1.4-.1.6.2.2 1.1.4 2.2.7 3.3a.86.86 0 00.6.3 7.41 7.41 0 012.1.1 27.19 27.19 0 005.7.2 19.52 19.52 0 003.4-.3c.8-.1 1.5-.1 2.3-.2a11.62 11.62 0 001.8-.4 57.36 57.36 0 018.2-1.9c.2 0 .3-.1.5-.1a45 45 0 004.9-1.4 3 3 0 011-.2 7.5 7.5 0 003-.9c1-.5 2.1-.9 3.1-1.4a1.16 1.16 0 00.7-.5c.4-1.1.1-2.4.7-3.5.4.2.3.5.3.8h.6c.6-.5.7-1.2 1.1-1.7l.5-.1c.3.2.2.5.3.7s.7.2.9.5 0 .4 0 .6c.5.5 1.3 0 1.8.4 0 .5-.5.3-.6.6s.4.2.4.5a15.14 15.14 0 00-3.6 2.2 2.79 2.79 0 01.1 1.8c.3 1.5 0 2.9.2 4.4a68.83 68.83 0 002 9c.2.8.4 1.6.6 2.5a11.34 11.34 0 002.6 1.6 5.12 5.12 0 012.9 2.7c-.8 0-1.6-.4-2.3-.4.2.3.7.4.8.9a2.81 2.81 0 00-1.1.4c-.4 0-.5-.5-.8-.4s-.1.4-.3.6c0 .4.5.5.4 1a.35.35 0 00-.2.1 1.53 1.53 0 01-1.1-1.1c-.1-.3-.2-.5-.5-.6-.2.2-.1.5-.4.6-1-.8 0-1.9-.5-2.8a18.25 18.25 0 00-3.3 1.1 40.51 40.51 0 01-5.7 1.6c-1.7.3-3.5.5-5.2.8-2.9.6-5.9 1-8.8 1.7-1.3.3-2.6.6-3.9.8a19.65 19.65 0 00-2.4.3c-2 .4-3.9.9-6 1.3-.3 1.7.3 3.4.1 5-.4-.2-.4-.2-.4-1a1.41 1.41 0 00-1.2.8c-.3-.3-.7-.3-1.1-.5a2.6 2.6 0 00-.9-1.6c-.6.3-.7.9-1.3 1.2-.2.1-.4.1-.6-.2l1.3-1.7c-.3-.4-.5-.3-.8-.2s-.6.6-1.1.6c.5-.9 1.2-1.4 4-2.5a36.83 36.83 0 00-.6-6.6 7.72 7.72 0 01-.2-1.5 3.81 3.81 0 01.1-1.5 40.43 40.43 0 01-1.8-5.6 5.09 5.09 0 00-.7-1.7c-.7-1-1-2.2-2-3.2a1.06 1.06 0 00-1.3.2 5.82 5.82 0 00-1.9-.3 1.79 1.79 0 01-1.4-.4c.1-.5.7-.5.9-.9-.1-.5-.7-.6-.8-1.1.2-.4.6 0 .8-.3.3-.5-.3-.8-.3-1.3a2.25 2.25 0 012.1-.1zm43.5 11.4a1.35 1.35 0 00-.5-1.2c-.1.8-.1.8.5 1.2a1.92 1.92 0 00-.1 1.8c.1.3.2.7.6.6 0-.1.1-.2.1-.3a7.28 7.28 0 00-.6-2.1zm-2.5-2.6c.2-.2.4-.3.5-.5s0-.4-.2-.6a1.4 1.4 0 00-.9.3.64.64 0 000 .6.73.73 0 00.6.2c-.1.2-.4.3-.4.5a1 1 0 00.2.7.8.8 0 00.9-.2.76.76 0 00-.1-.8.73.73 0 00-.6-.2zm0-7.8c.2-.5.9-.7.5-1.4a1.52 1.52 0 00-1.3.3 1.64 1.64 0 00.2 1c.2.1.4 0 .6.1-.1.2-.4.2-.5.7.1.4.3 1 .4 1.5.1.3.3.4.6.1l-.3-2.2zm-18 11.4c.2-.2.6-.2.6-.6s-.4-.3-.6-.4c.1-.3.4-.3.4-.7s0-.7-.4-1.1c-.4-.1-.7.1-1.1-.1.4-.1.7-.1.9-.4s0-.5.3-.6c.3.2.3.7.8.7-.1.2-.4.3-.4.7s0 1.1.7 1.3c-.1.2-.3.4-.2.7a.76.76 0 00.8 0 3 3 0 011.3-.2c-.6.5-1.5.3-2.1.8a1.1 1.1 0 00.3 1.2 10.26 10.26 0 002.4-.5 1.52 1.52 0 00-.3-1.3l-.4-.1c0-.2.5-.3.3-.7-.8-.2-1.5.3-2.3.2a12.92 12.92 0 012.1-.7 2.2 2.2 0 00-.6-1.5l-.6-.1c.1-.2.5-.2.5-.6a1.79 1.79 0 00-.6-1c-.8.1-1.5.4-2.3.5a6.87 6.87 0 00-2.4.5c.1.6.1 1.2.8 1.6a5.7 5.7 0 01-2.2.4c.3-.4.9-.1 1.2-.6a.82.82 0 00-.1-.7c-.1-.2-.1-.5-.5-.7a5.93 5.93 0 00-1.7.4 2.46 2.46 0 00.5 1.5l.6.1-.7.4c.5 1.3.5 2.7 1.2 3.8 1.3-.1 1.6-.2 1.7-.5a.66.66 0 00-.2-.7 1.73 1.73 0 00-1-.1c.2-.3.8-.1.9-.6a4.22 4.22 0 01-.3-2c.5.1.4.7 1 .8h1.2c-.4.4-1 .1-1.4.5 0 .4.1.8.6.8-.1.2-.4.3-.4.8 0 .1.1.3.4.5l1.4-.1a1.47 1.47 0 00-.1-1.3zm-1.9 7l-.4.5a1.3 1.3 0 00.2 1c.7-.2 1.4-.3 2.1-.5.1 0 .1-.1.2-.2a2.18 2.18 0 00-.5-.8h-1.6c.3-.5 1.1 0 1.5-.7a1.84 1.84 0 00-.5-1.5c-.5.3-1.1.1-1.6.5a1.83 1.83 0 00.6 1.7zm18.9-3.3l-.6-.5c-.7 0-1.4-.1-1.9.7l.3 1.5a5.87 5.87 0 002-.6c.3-.3.2-.7.2-1.1.3.2.1.7.6.9.4-.2.9-.2 1.2-.7a2.92 2.92 0 00-.7-1.2 1 1 0 00-1 .4zm-1.5-8.3c-.4-.5-.1-1.3-.7-1.7a2.38 2.38 0 00-1.8.5 4.64 4.64 0 00.4 1.9c.7-.3 1.5 0 2.1-.7.3.1.5.2.8-.1-.1-1.4-.1-1.4-.7-1.9a4.58 4.58 0 00-.1 2zm-32.7.7a1.37 1.37 0 00.4 1.1 1.37 1.37 0 00-.4-1.1 29.59 29.59 0 00-2.2-5.6c-.4 0-.6-.1-.9-.1s-.4 0-.5.3a4.52 4.52 0 011.6 2.2 19.49 19.49 0 002 3.2zM489 73.9a8.42 8.42 0 002.7-.4 1.13 1.13 0 00-.2-1.1l-4.2.8a.92.92 0 00.2 1 4 4 0 001.5-.3zm9.4-13.5c-.5.4-1.2.2-1.7.7l-.1.5c-.2-.1-.3-.4-.7-.5a5.81 5.81 0 00-1.6.5 2.46 2.46 0 00.9 1.9c-.2.3.2.6.1.8a1.39 1.39 0 000 .9.83.83 0 00.3.8 2.29 2.29 0 001.7-.4 4 4 0 00-.4-2.1l-.7-.2c.1-.3.5-.2.5-.5l-.1-1.2c.4.3.3.9.9 1.3.6-.2 1.5 0 2-.6.1-1-.5-1.9-.4-2.8a3.85 3.85 0 00-2.4.4c-.2.3-.2.5.1.7a7 7 0 011.6-.2zM488 68.3a2.33 2.33 0 00-2 .2 3.72 3.72 0 00.5 2c.7-.1 1.4 0 1.8-.7 1 .5 1.9 0 3-.2-.2-.7 0-1.4-.6-2l-2 .3a1.61 1.61 0 00-.7.4zm2.3-12.2a.54.54 0 00.3.4 6.81 6.81 0 011.5-.2c-.3.5-1.1.2-1.4.8.3.3.6.2.9.1a7.77 7.77 0 013-.4c-.3.4-.9.1-1.4.5l-.3.4c-.2-.1-.2-.4-.6-.4a3.54 3.54 0 01-.6.1c-.2.1-.5.1-.6.4-.2.5.4 1 .2 1.7-.5-.7-.4-1.6-1.3-1.8.1-.2.3-.4.1-.6-.8-.1-.8-.1-1.4.3-.1.4.5.3.5.4-.4 1.1.2 1.7.5 2.5l3.4-.5.2-.5a2.56 2.56 0 002.4-.1l.1-.6.5.7c.7-.4 1.6-.2 2.3-.6a1.13 1.13 0 00-.1-.8c0-.2-.2-.5 0-.8.4.4.2 1.1.8 1.4a20.07 20.07 0 002.9-.7c-.3-.7-.2-1.4-.5-1.9-.4-.3-.9 0-1.3-.4.9.1 1.5-.5 2.3-.3l-.4.5.5 1.9c.4 0 .7 0 .9-.3a5.73 5.73 0 00-.4-1.4.85.85 0 00-.7-.7l.4-.5c-.2-.3-.1-.8-.5-1-1.4.5-3 .6-4.3 1.3-.2.6.5 1 .1 1.5-.3 0-.5-.3-.7-.5.3-.4.3-.7-.2-1-1.2.2-2.4.8-3.6.6a.76.76 0 00-.5-.2c-.2.1-.1.5-.5.5-.1-.3-.6-.1-.7-.5 1.7-.5 3.5-.4 5.2-.9a1.92 1.92 0 00-.4-1.8c-1.3.3-2.5.7-3.8.9a28.45 28.45 0 00-4.7 1.5c-.2.1-.5.1-.6.5a6 6 0 00.6 1.1c.4 0 .8.1 1.1-.3-.2-.4-.7.1-.8-.3l1-.3zm-14.1 16.5c-.3.3-.8.1-1.2.5.3 1 0 2.1.3 3.2a6.38 6.38 0 00.7-.2l.6-.3a4.77 4.77 0 00-.2-3.1l-.2-.1c.4-.4.1-1 .3-1.4.3 0 .3.2.4.4s0 .5.4.7a1.25 1.25 0 001.3-.4 5.34 5.34 0 00-.3-2.2l-.4-.3.3-.5c-.1-1.4-.1-1.4-.5-2.1a1.09 1.09 0 00-.2-1.2h-.8l.7-.5a2.52 2.52 0 00-.6-1.7l-.6-.1.7-.8a1.24 1.24 0 001.4.3 3.33 3.33 0 011.7-.2c-.8.5-1.8.2-2.6.8.4.6.3 1.4.9 1.8-.1 2.2 1 4.2 1.1 6.3a.76.76 0 00.2.4c.3 0 .6.1.9-.3l-.3-2-.7-.3c.2-.3.7-.2.8-.8-.4-.5.2-1.5-.7-2 .3-.8.3-.8-.1-1.5v-.2l.2-.2h1.2c-.2.2-.5.2-.7.6a1.16 1.16 0 00.2 1 1 1 0 00.7.2l-.7.4a13.56 13.56 0 00.2 2c.8.2 1.4-.2 2.1-.3a5.92 5.92 0 00-.5-1.9c-.4-.3-.9-.1-1.3-.1.3-.4.9-.1 1.1-.7a11 11 0 00-1-3.4.75.75 0 00.1-.8 5 5 0 01-.2-1.2c.5.4.3 1.2.9 1.6a4.71 4.71 0 001.6-.4c.2-.5-.2-.9 0-1.3.5.3.2 1 .8 1.3a4.14 4.14 0 001.9-.5l.1-.7c.2.3.2.6.6.7a5.84 5.84 0 001.8-.4 3 3 0 00-.4-1.9l-.8-.1.6-.4a.37.37 0 00-.2-.5 16 16 0 00-2.1.5 20 20 0 00-2.4.4 3.81 3.81 0 01-1.5.1c0-.3.6-.2.4-.7-.3-.3-.8 0-1.4-.3a25.32 25.32 0 013.8-.3c-.3.3-.7.2-1.1.3s-.6 0-.7.4c.8.3 3.4-.2 5-.8-.1-.4 0-.8-.3-1.2-1.2.2-2.4.3-3.6.5s-2.5 0-3.7.6c-.1.3.1.5.2.7s.1.4-.2.5h-.1c-.5-.2-.1-.8-.7-1.1a27 27 0 00-4.1.6c-.2.5.3.6.2.8s-.2.4-.5.3a7.54 7.54 0 00-.6-1.3h-.4a11.37 11.37 0 01-3.7-.3 10.81 10.81 0 00-1.9-.3c-.2 0-.4 0-.5.2a3.13 3.13 0 01.5 1 3.58 3.58 0 01.4 1.1 1.18 1.18 0 001 1.1l-.4.5c.7 1.8 1.6 3.5 1.5 5.5-.3.2-.3-.3-.6-.1l.7 3.9c.1 1-.1 2.1.5 2.9a.6.6 0 00.8 0c.2-.3.1-.6.2-.8.3.2.2.6.3.7a1.3 1.3 0 001 .2l-.8.4c0 1.2 0 2.3.1 3.5a2.82 2.82 0 001.5-.4 8.39 8.39 0 00-.2-3.2c-.2-.3-.5-.2-.7-.3l.5-.5a4.68 4.68 0 00-.4-2.3c0-.3-.5-.1-.5-.5l.3-.2a3.4 3.4 0 00-.3-2c-.6-.4-1.2-.1-1.9-.4l1.5-.1c.1-.1.2-.1.2-.2s.2-.2.2-.3a2.17 2.17 0 001.4.5c-.2.2-.7.1-.9.5a4.66 4.66 0 00.6 2c.3.3.7-.1 1.1.2-.3.2-.7 0-1 .4a3.61 3.61 0 00.4 2.4 1.67 1.67 0 011.3-.3zm29-23.1a37.82 37.82 0 01-7.2 3.2 2.18 2.18 0 00.4 1.9 28 28 0 003.1-.8c.3-.4.1-.8.3-1.1.2.3.1.7.5.9a.37.37 0 00.5-.2c.2-.3 0-.7.1-1s.1-.4.3-.4c.5.2.2.9.7 1.2a1.92 1.92 0 001.2-.4zm-25.7 25.7c-.2-.4-.1-.9-.5-1.2.3-.5 0-.9-.2-1.4a2.57 2.57 0 00-1.5.1 8 8 0 00.3 2.7c.4.3.9 0 1.5.1-1.1.4-2 .5-3.1 1a21.66 21.66 0 004.7-1 8.52 8.52 0 00-.3-3.2.63.63 0 00-.8.2c.1.9.6 1.8.4 2.7a.33.33 0 01-.5 0zm3.9-3.6a5 5 0 00-2.4.6 3.31 3.31 0 00.4 1.5 2 2 0 00.1 1.7l2.3-.5a.87.87 0 000-1.1c-.4-.4-.7-.2-1.1-.4.4-.1.8 0 1.1-.4a2.5 2.5 0 00-.4-1.4zm-2.5 0c1-.3 2-.1 2.7-.8-.4-.6-.4-1.4-.9-2-.6.1-1.2.1-1.7.2a.76.76 0 00-.4.2zm11-10.8a1.14 1.14 0 00.3.8l.7.2c-.1.3-.5.3-.6.7.2.4.1 1 .6 1.4.4-.2 1 0 1.4-.4a2 2 0 00-.8-1.9c.3-.4.1-.7-.2-1.1a1.9 1.9 0 00-1.4.3zm12 5.6c0-.6 0-1.1-.3-1.4a.71.71 0 00-.6.3v.9c0 .1-.1.1-.2.1-.2-.3-.1-.7-.4-.9a2.38 2.38 0 00-1.8.5c.2.5-.1 1.1.5 1.6a13.58 13.58 0 002.8-1.1zm-5.1 4.2a4.23 4.23 0 00-2.5.6 2 2 0 00.3 1.5 7.22 7.22 0 002.8-.7 4.23 4.23 0 00-.6-1.4zm1-6.7l-.6-.3c.1-.2.5-.2.2-.6-.7-.2-1.3.2-1.9.3-.1.4.2.4.2.6-.4.6.1 1 .2 1.6a3.44 3.44 0 002-.4zm-3.8 4.8a6.63 6.63 0 002-.6 2.16 2.16 0 00-.5-1.7 2.62 2.62 0 00-1.9.5zm-7 3.6a7.05 7.05 0 002.5-.6 2 2 0 00-.3-1.5 18.44 18.44 0 00-2.3.4 2.54 2.54 0 00.1 1.7zm-4.8-1.3l1.5-.4a4 4 0 00-.4-2.1 2.46 2.46 0 00-1.7.2 4.93 4.93 0 00.6 2.3zm17.6-7.6c-.6.2-1.1.2-1.4.5.1.4-.1.8.2 1.1a2.62 2.62 0 001.9-.5l-.4-1.9a2.89 2.89 0 00-1.8.3c-.1.2-.1.4.1.5.4 0 .8-.3 1.4 0zm-1.7 2.5a3.28 3.28 0 00-1.9.4 5.09 5.09 0 00.7 1.7 5.73 5.73 0 001.4-.4 2 2 0 00-.2-1.7zm-28.3 7.3a.73.73 0 00-.2.6c.1.9.3 1.9.4 2.8a.1.1 0 00.1.1.1.1 0 01.1.1.37.37 0 00.5-.2 7.89 7.89 0 00-.3-3.4.64.64 0 00-.6 0zm21.5-5.9a9.51 9.51 0 00.6 1.8 1.8 1.8 0 001.2-.3 6.48 6.48 0 00-.2-1.9 1.71 1.71 0 00-1.6.4zm3 3.2l2.2-.5a.8.8 0 00-.2-1.1 5.85 5.85 0 00-2.2.5c-.2.3-.1.7.2 1.1zm-1.4-4.4c-.1-.5 0-1-.4-1.4a1.61 1.61 0 00-1.6.4 2.77 2.77 0 00.3 1.3 2.49 2.49 0 001.7-.3zm-6.7 4.8a1.87 1.87 0 00-1.6.2c.2.5 0 1.1.6 1.5a2.37 2.37 0 001.2-.3 1.76 1.76 0 00-.2-1.4zm3-6a.76.76 0 00.9-.2c-.2-.7 0-1.6-.5-2.3a1.5 1.5 0 00-1.1.4 2.36 2.36 0 00.7 1.6.45.45 0 000 .5zm11.9 4a2.9 2.9 0 00-.3-1.4 2.72 2.72 0 00-1.7.6.92.92 0 00.2 1c.5.2 1.1-.2 1.8-.2zm-11.1.5a1.31 1.31 0 001.3-.4c-.1-.3-.1-.6-.2-.9s0-.6-.3-.8a.91.91 0 00-1 .3 2.82 2.82 0 00.2 1.8zm13.1-8.4a2.94 2.94 0 00-.7-1.7 1 1 0 00-.9.3 3.29 3.29 0 00.4 1.7c.5.2.8 0 1.2-.3zM501 71.8a3.42 3.42 0 00-.2-1.5.66.66 0 00-.6-.1.82.82 0 00-.6.4l.2 1.4a1.64 1.64 0 001.2-.2zm4.4-3.6c.2-.1.5-.1.7-.2s.2-.1.3-.2a3.26 3.26 0 00-.4-1.4 1 1 0 00-1 .5 1.79 1.79 0 00.4 1.3zm-12.1 1.7a1.1 1.1 0 00-1.2.3 1.72 1.72 0 00.2 1.2 2.66 2.66 0 001.2-.3 1.32 1.32 0 00-.2-1.2zm-1.7-8.1c0-.3-.1-.5-.1-.8 0-.1-.1-.2-.2-.3-.6.1-1.1 0-1.4.4a4.87 4.87 0 00.3.7l.3.3a1.25 1.25 0 001.1-.3zm.8 10.4a.91.91 0 00.3 1 1.14 1.14 0 001.2-.3c-.1-.4 0-.8-.4-1.1a1.86 1.86 0 00-1.1.4zm3.4-12.2a12.08 12.08 0 00-1.8.5c0 .4.1.6.4.7a4.19 4.19 0 001.6-.4.65.65 0 00-.2-.8zm-4.3 6.8a1.43 1.43 0 001.1-.3 1.75 1.75 0 00-.4-1.2.76.76 0 00-.9.2 2.75 2.75 0 00.2 1.3zm9.1 2.6a1.31 1.31 0 00-.3-1c-.5 0-1-.1-1.2.6.2.3.2.7.6.8.3-.2.6-.2.9-.4zm-5.8 3.5a.63.63 0 00.8-.2 1.67 1.67 0 00-.1-1.2.71.71 0 00-1 .3.9.9 0 00.1.5.73.73 0 00.2.6zm10.9-8.4a1.39 1.39 0 00-1.1.2c0 .4-.1.7.1 1l.2.2c.4-.1.8-.2.9-.6a1.06 1.06 0 00-.1-.8zm-2.7-1.4a.93.93 0 00-.1 1.2.62.62 0 00.7-.2 3.39 3.39 0 00-.5-1.9c-.3 0-.5 0-.5.2-.1.4.1.5.4.7zm-8.8 6.7a1.13 1.13 0 00.3 1.1.83.83 0 00.8-.3 1.73 1.73 0 00-.1-1 .8.8 0 00-1 .2zm7.2-10.9a3.61 3.61 0 00-1.8.3c-.1.2-.2.4.1.6a4.67 4.67 0 001.7-.3.63.63 0 000-.6zm5.6 10.7c0-.4 0-.8-.4-1-.4 0-.7.1-.8.4.3 1 .3 1 .6 1s.4-.2.6-.4zm-2.4-1.3l-.4-1.1a.58.58 0 00-.8.3c.1.4 0 .8.4 1.2a2 2 0 00.8-.4zm2-4.9c.1-1.3 0-1.5-.5-2.1a.62.62 0 00-.1.7c.2.2.3.4.1.6a.66.66 0 00.2.7.37.37 0 00.3.1zm-3.5-4.9a.7.7 0 00.4.5.74.74 0 00.7-.3.52.52 0 00-.2-.4c-.3-.1-.5 0-.9.2zm2.9 2a2.1 2.1 0 00-.5-1.5 1.57 1.57 0 00.5 1.5zm-13 3.9c.5 0 1 .2 1.5-.4a1.53 1.53 0 00-1.5.4zm15.4 4.6a1.15 1.15 0 00-.6-.9.88.88 0 00.1 1.1.37.37 0 00.5-.2zm-6.2-9.6c.2-.1.4-.2.3-.5-.1-.1-.2-.2-.4-.1-.2.2-.1.4.1.6zm3.1-1.4c-.2 0-.3.2-.2.3a.22.22 0 00.2.2c.2-.2.2-.3 0-.5zm-1-9.7zM33.4 238.2a1.08 1.08 0 00-.2.8c.3 3.6.2 7.3.2 10.9a7.08 7.08 0 00.1 1.5 3.77 3.77 0 00.9 1.4 5.37 5.37 0 01-.8 3.5c.3.9.5 1.8.8 2.7l2.4 7.8c.3 1 .6 2 .9 2.9a1.13 1.13 0 01.1.8c-.2.2-.3 0-.5 0-.2-.2-.1-.5-.4-.6s-.3.3-.5.3a1.07 1.07 0 01-.6-.2c-.1-.1-.3-.2-.3-.3-.1-.3.1-.4.2-.5-.5-1.8-1.2-3.7-1.6-5.5a3 3 0 00-1-1.7 8.35 8.35 0 01-.8-1.2 2.87 2.87 0 00-2.4-1.7 23.41 23.41 0 01-2.4.9c-.1.2.2.2.2.4s-.1.4-.2.6a26.49 26.49 0 00-2 4.9 5.3 5.3 0 00-.1 2.5 9.64 9.64 0 010 2.4 11.33 11.33 0 00.1 2.6c.1 1.3.3 2.7.4 4 0 .1 0 .3-.2.3-.2-.3 0-.6-.2-1a3.54 3.54 0 01-.3 1.1c-.2.2-.4.4-.6.3a8.75 8.75 0 01-1.6-.2c-.2-.2-.1-.4-.1-.6s-.4-.2-.5-.5.4-.1.5-.3.1-.2.1-.3c0-1.5.2-3 .1-4.4a2 2 0 00-.2-1.1c-.1-.2 0-.4 0-.6a12.29 12.29 0 00-.2-2.7 15 15 0 01-.4-3.7 13.69 13.69 0 00-1.6-3.2c-.1-.2-.3-.3-.4-.5a4.13 4.13 0 01-1-1.3 12.75 12.75 0 01-1.7-1c-.3-.1-.5.2-.7.2l-.8-.1a2.88 2.88 0 00-1.4 1.5c-.9 4.6-1.3 9.1-2.1 13.4a.83.83 0 01-.7.3c-.3-.1-.3-.4-.6-.5s-.4.2-.6.2l-.5-.6c.4-2.7.7-5.4 1.3-8.1.1-.5.2-1 .3-1.6a14.16 14.16 0 01.4-2 17.56 17.56 0 00.6-4 2.16 2.16 0 00-.1-1.1 3 3 0 00-1-.7l-.5-.9a1.69 1.69 0 01.3-1c0-.2-.2-.4-.1-.7 0-.1.1-.1.1-.2a46.19 46.19 0 016.2-2.3 22.86 22.86 0 013.6-.7 21.74 21.74 0 013.6.2h.4c.3-.1.3-.4.3-.6.3-1.1.4-2.2.6-3.3.3-1.7.3-3.5.7-5.2a15.26 15.26 0 00.3-3 17.27 17.27 0 00-3.6-1.1c-.2 0-.2.3-.5.3a2.81 2.81 0 00-1.1-.5c-.3-.6-.7-1.1-1-1.7s-.5-1.1-.7-1.5c0-.3.3-.3.3-.6s.1-.3.4-.5a3.8 3.8 0 012.1.1 14.61 14.61 0 003.6.9c1.7.3 3.3.5 5 .8a14.43 14.43 0 014.5 1.7 4.59 4.59 0 001.4.7 2.85 2.85 0 01-.2 1.6c-.1.4-.3.8-.4 1.2a2 2 0 01-1.3 1.2 1.3 1.3 0 01-1.7-.4l-.6-.9a.22.22 0 00-.2-.2l-.3-.5a.66.66 0 01.4-.5 7.8 7.8 0 002.2-.3c.5-.1 1-.3 1.1-.8a.74.74 0 00-.6-.6 9.37 9.37 0 00-1.6-.4 3.18 3.18 0 01-.9-.3 9.78 9.78 0 00-2.9-.9c-1.5-.3-3-.8-4.5-1-.1 0-.1 0-.2-.1a20 20 0 00-3.5-.9 1.18 1.18 0 00-1 .1 3.67 3.67 0 00.9 2.1 2.84 2.84 0 002.3 1.5c.9.2 1.8.3 2.7.5a2.84 2.84 0 011.2.4c-.7.1-1.3-.2-2.3-.1a50.63 50.63 0 016.2 1.7c-1 .2-1.8-.5-2.7-.4a1.4 1.4 0 00-.3.9 9.26 9.26 0 01-.4 2.3 12.41 12.41 0 00-.3 2.7 2 2 0 01-.1.8c-.3 1.5-.3 3.1-.5 4.6 0 .3-.1.6.1.9l1.8.6h.2a27 27 0 00.4-2.8 56.51 56.51 0 00.4-5.8c0-1 .1-2 .2-3l.1-.1c.2.2 0 .5.2.7.2-.1.1-.5.4-.4a.75.75 0 01.1.5 21.31 21.31 0 01-.2 4.4c-.3 2.1-.3 4.3-.4 6.4v.7c.2.3.4.5.7.5a22.62 22.62 0 00.2-4.5c.1-1.4.1-2.9.1-4.3s0-3 .2-4.4l.3-.2c.3.1.4.2.5.2zM21.3 260l-.2-.2c0-.3-.1-.5-.4-.4a.66.66 0 00.5.4l.1.2zm8.2-1.9l.4-.2a.92.92 0 00.6-.4 1.52 1.52 0 001.1-.6 3.82 3.82 0 001.1-1.4c-.6.8-1.5 1.2-2.1 2a.92.92 0 00-.6.4c-.2 0-.3.1-.5.2zm-3.8 4.3a.73.73 0 00-.2.6.86.86 0 00-.4 1c-.1.1-.2.2-.1.3.1-.1.1-.2.1-.4a1 1 0 00.4-1c.3-.1.2-.3.2-.5zm-14.3 9.3a.75.75 0 000-.9c-.3.3-.2.6 0 .9zm2.9-14.9c.3-.1.5-.5.9-.4l.1.1-.1-.1a.72.72 0 00-.8-.2l-.1.6c-.1.1-.2.2-.1.4.2-.1.1-.2.1-.4zm18.4-23c-.1-.1-.2-.2-.4 0h.4a2.53 2.53 0 001.5.6c-.3-.3-.5-.4-.7-.4a1.88 1.88 0 00-.8-.2zm1.7 27.3v-.4a26.64 26.64 0 00-1-3.8.1.1 0 01-.1-.1.66.66 0 00-.5.4 7.28 7.28 0 00.7 2.4c.3.6.6 1 .9 1.5l.2 1.2-.2.5c.1.3.1.6.2.9.3 1 .7 2.1 1 3.1a7.94 7.94 0 01.6 2.2c0 .1.1.1.1.2.2.1.3 0 .5-.2v-.4c-.5-2.4-1.4-4.7-2-7.1-.2-.1-.2-.3-.4-.4zm-1.7-9.1l-.2.3a8.34 8.34 0 00-1.2-.8 6.85 6.85 0 00-3-1.1 12.66 12.66 0 01-2.8-.6 14 14 0 00-5-.2 31 31 0 00-6.6 1.9 3.55 3.55 0 00-.9.4c-.3.2-.7.2-.9.5a3.94 3.94 0 001.9 1.7 8.27 8.27 0 011.3.7 12.64 12.64 0 002.6 1.3 4.67 4.67 0 011 .5 6.5 6.5 0 002.3.9 14.16 14.16 0 012.2.7 5.66 5.66 0 002.6.3 8.46 8.46 0 006.1-3.4 5.58 5.58 0 00.9-2.1c.2-.5.1-.8-.3-1zm-9.5 8.1v2c.1 2 .3 4 .4 6 .1 1.2.1 2.4.2 3.6v.6a10.07 10.07 0 00-.1 3 1.27 1.27 0 00.5 1.1l.4-.1a48.74 48.74 0 00-.2-5.4c0-1.8-.1-3.6-.2-5.4s-.1-3.6-.2-5.4zm5.1-1.5a1.65 1.65 0 00-1 .1 5.45 5.45 0 01-2.2.1 25.49 25.49 0 01-5.4-1.5 45.39 45.39 0 01-4.5-2.1 18.34 18.34 0 01-3-1.8c-.1-.1-.2-.3-.5-.1a1.69 1.69 0 00.3 1c.4.3.8.3 1.1.5a1.45 1.45 0 001 .7 12.2 12.2 0 011.7.7c1.3.7 2.7 1.4 4 2.1a15.24 15.24 0 003.6 1.2 4.86 4.86 0 001.7 0c.9-.2 1.7-.3 2.6-.5.2-.1.5-.1.6-.4zm-1.5-9.3c.2-.7.3-1.4.5-2.1a35 35 0 00.7-6.5v-.5a12.59 12.59 0 01.4-2.7c.1-.2 0-.3-.1-.5s-.2-.1-.4 0a3.81 3.81 0 00-.1 1.5 7.49 7.49 0 01-.2 2.1l-.3 1.5c-.1 1.2-.3 2.3-.5 3.4s-.4 2.3-.6 3.4c0 .1 0 .1.1.2 0 .3.1.3.5.2zm7.1-11.9c.4 1 .6 1.5 1 1.7a.85.85 0 00.7 0l.8-1.1c0-.3.3-.7.2-1.1zM24.8 263a25.5 25.5 0 001.3-2.9 4.4 4.4 0 00-1.6.2 8.61 8.61 0 00.3 2.7zm-11.5.4c.2-1 .4-2 .6-2.9a2.22 2.22 0 00-.1-1.6 4.85 4.85 0 00-.5 2.6 1.27 1.27 0 01-.1.6 6.15 6.15 0 01.1 1.3zm17.3-4.6a3.69 3.69 0 011.4.7 15 15 0 011.1 1.3c-.2-1.1-.8-1.6-2.2-2.3-.2 0-.3 0-.3.3zm1-.6a2.38 2.38 0 001.1.6c-.1-.4-.1-.6-.2-.9a.35.35 0 00-.1-.2c-.4.1-.7.2-.8.5zm-2.8-18.8c.2-.7.4-1.2.5-1.7q.15-.3-.3-.3c-.3.6-.3.6-.2 2zm-16.3 28.5a4 4 0 00-.2 2.4c.1-.4.1-.7.2-1.1a2.85 2.85 0 000-1.3zm10-8c-.2-.2-.4-.3-.6-.1a1.14 1.14 0 00.3.8.31.31 0 01.2.1zm-8.6-4c-.1-.1-.4-.2-.5 0-.1.3.1.5.4.6.2-.2.1-.4.1-.6zm-2.2 13.2c-.2.7-.2.7-.1 1.1a1.45 1.45 0 00.1-1.1zm1-2.1c.1-.1.1-.2 0-.4-.1.2-.1.3 0 .4zm.9-8.7c0-.1-.1-.1 0 0zM12.1 271zM37 236.9zM234.1 329.2c.2.5.7.6 1.1.8l3 1.2c.4.2.9.3 1.3.5 1.4.7 2.9 1.3 4.4 1.9s2.8 1.3 4.2 1.8a3.19 3.19 0 002.7 0l8.4-3c3.9-1.3 7.8-2.8 11.8-4.1 1.2-.4 2.3-.8 3.5-1.1.1-.2-.2-.3-.2-.4l.5-.1a4.35 4.35 0 00-1.6-1c-1.5-.6-3.1-1.1-4.6-1.7-.4-.2-.9-.3-1.4-.5l-4 1.1-.1.4c-.4 0-.9-.2-1.2.2l-.1.1a3 3 0 00-1.3.2c-2.2.8-4.5 1.6-6.7 2.4a.88.88 0 01-.7.1c-.1-.2.1-.2.2-.3l.9-.3c1-.2 1.7-.9 2.7-1.1a28.45 28.45 0 002.7-.9c.3-.1.7-.3 1-.4 0-.3-.4-.4-.3-.7.4-.2.6.2 1 .3a.52.52 0 01.4-.2 23.61 23.61 0 004.4-1.1.1.1 0 01.1-.1 5 5 0 00-2-.8c-1 .2-2 .4-3.1.7s-2 .5-3 .7a.79.79 0 01.7-.5l3.7-.9c.2-.1.4-.1.6-.2a1.74 1.74 0 00-1.1-.6c-1 .2-2 .5-3 .7a77.62 77.62 0 01-9.6 1.9l-1.5.3c-2.2.6-4.3 1.1-6.5 1.7-1.5.4-3 1-4.6 1.3a17.53 17.53 0 01-6 .6c-.1 0-.1-.1-.2-.2 2-.6 4.1-.4 5.9-1.4 0-.2-.1-.2-.2-.2a1.34 1.34 0 01-.5-.1c2-.4 3.7-.8 5.4-1.2a8.32 8.32 0 001.5-.4c.6-.2 1.2-.4 1.9-.6 3-.8 6-1.7 9-2.5 1.5-.4 3.1-.8 4.6-1.3s3.2-1.1 4.7-1.6c.4-.1.8-.2 1.3-.3.2 0 .4 0 .5.3-1.2.4-2.4.9-3.6 1.2-.9.3-1.9.5-2.8.9a55.18 55.18 0 01-5.4 1.6c-1.4.4-2.8.7-4.2 1.1a4.79 4.79 0 00-2 .7 14.59 14.59 0 002.2-.3c2.9-.7 5.8-1.5 8.7-2.3a7.58 7.58 0 001.6-.6 40.49 40.49 0 014.7-1.2c1.1-.3 2.3-.5 3.4-.7a2.24 2.24 0 001.5-.8 3.32 3.32 0 002.2 0c.1 0 .1.2.2.1h-.2a2.06 2.06 0 011.7-.7c.3 0 .3.4.6.5h.8l-.2.4a2.46 2.46 0 002.2.2c.4 0 .5.3.7.3.4 0 .8-.3 1.3-.1.2.1.2.3.2.5l.6.5c.5 0 1-.3 1.4-.1s.2.3.3.5c.5.4 1 .2 1.5.2.2.3 0 .4 0 .6.8-.2 1.5.2 2.2.2.2.2 0 .4.1.6.3.1.7-.2.9 0a.65.65 0 01.2.5c-.1.1-.3-.1-.4.1.1 0 .3 0 .3-.1l.7.1.2.6c1.1-.4 2.1.3 3.2.2a.51.51 0 01-.6.4 11.63 11.63 0 01-1.8.4 1.45 1.45 0 00-1 .7 2.78 2.78 0 00-1.8.3c-.8.4-1.8.5-2.7.9-2.6 1.1-5.3 1.8-8 2.8a42.77 42.77 0 00-4.6 1.7l-.9.3c-1 .2-2 .7-3 1-.7.3-1.4.5-2 .7-1.4.4-2.8.8-4.1 1.3l-4.2 1.2c-.5.2-1 .3-1.5.5a36.64 36.64 0 00-3.5 1.2 10.1 10.1 0 01-2.2 1.8.45.45 0 01-.5 0c-.2-.3.2-.5.3-.7a.52.52 0 00.4-.2l.2-.2h.1l-.1.1-.2.2c-.2 0-.3 0-.4.2a8.1 8.1 0 00-1.8 1c-.4.2-.4.2-1 0a18.74 18.74 0 011.8-1.2 4.86 4.86 0 001.4-1.1 17.24 17.24 0 00-2.4 1c-.6.3-1.1.6-1.6.9a.8.8 0 01-.8-.1c1-.9 2.4-1.2 3.3-2.4a10.83 10.83 0 00-1.9.8 6.53 6.53 0 01-1.7.8.55.55 0 01-.5-.3 14.66 14.66 0 002.8-1.8c-.2-.3-.4-.2-.6-.1a12.81 12.81 0 00-2.4 1.1 11.73 11.73 0 01-1.1.5c-.1.1-.3 0-.4-.1s0-.3 0-.5a.55.55 0 00.5-.2 2235690.82 2235690.82 0 01.8-.4.76.76 0 00.8-.6.87.87 0 00-.8.6.52.52 0 00-.4.2c-.2 0-.3 0-.4.2-.2 0-.3.1-.5.2l-.7.2a.46.46 0 01-.5-.3c.1-.4.5-.4.8-.6a7.14 7.14 0 001.5-.8l.5-.2-.4.2a1.69 1.69 0 00-1 .3c-.6.3-1.3.6-1.9.9-.2 0-.4 0-.5-.2s0-.2.1-.2a3.88 3.88 0 011.1-.6 4.57 4.57 0 001.6-1.1 9 9 0 00-2.3.8c-.3.1-.5.3-.8.4a.4.4 0 01-.4-.2c.4-.5 1.1-.7 1.6-1.2a.35.35 0 01-.2-.1l-1.5.6c-.2.1-.5.2-.7.3s-.3 0-.4-.2c.3-.5 1.1-.5 1.4-1a.45.45 0 00-.5 0c-.3.2-.7.4-1 .6a.75.75 0 01-.9 0c.3-.6 1-.5 1.4-1 .2 0 .3 0 .4-.2h.1v.1c-.2 0-.4 0-.4.2a3 3 0 00-1.6.5 1.47 1.47 0 01-1.1.2c-.3-.1-.4-.3-.6-.5.1-.1.1-.2.2-.3 1-.4 2-.8 3-1.1.3-.1.6-.1.8-.3 0-.3-.3-.3-.5-.4a1.42 1.42 0 00-.6-.2c-.6.1-.9.7-1.5.7.1-.5.6-.4.8-.8-.2-.2-.5.1-.7-.1l.1-.3c-.5-.6-1.1-.2-1.7 0l-.4-.2c.2-.3.5-.3.7-.5v.1a.84.84 0 00-.7-.2c-.2.1-.4.1-.6.2l-.1-.3c-.2 0-.3 0-.4.2l.5.1a.76.76 0 00-.2.5c-.4.1-.8 0-1.1.3a1.55 1.55 0 001.1-.3h.9a1 1 0 01-.2.7 7.61 7.61 0 01-2.1.8c-.1 0-.2-.1-.3-.1v-.1a1.38 1.38 0 00.3-.4.84.84 0 00-.7-.2 5 5 0 00-1.3.5c-.2-.1-.2-.2-.2-.3s-.4 0-.5-.3c.2-.2.7 0 .8-.4-.5-.2-1 .2-1.5-.2a1.33 1.33 0 01.9-.6 1.33 1.33 0 001-.6 14.92 14.92 0 002.1.2 4.06 4.06 0 002.1-.5h.2a26.43 26.43 0 014 1.2l.3.3a14.16 14.16 0 01-2.2-.7 6.2 6.2 0 00-1.8-.5.73.73 0 00-.6-.2c.2.3.4.3.6.2zm5 4v-.2a1.43 1.43 0 001.1-.3c.2.2.1.5.2.8a1.38 1.38 0 011.1.1l-.1.6a2.54 2.54 0 011.2-.2l1 .9a2 2 0 001.1-.2c0-.3-.2-.3-.4-.4l-3.9-1.5h-.3a5.6 5.6 0 00-2.6-1.2c-.2.1-.3.3-.2.4a2.2 2.2 0 001.5.6l.2.4-.1.1c.2 0 .2 0 .2.1zm40.9-11.8c-.2 0-.5-.1-.6.2h-.1v-.1c.3.1.6.2.7-.1.1 0 .3.1.3-.1s-.2 0-.3.1zm-33.2 14.8a.83.83 0 00.8-.3c-.1-.2-.2-.3-.4-.2l-.4.5zm29.1-9.4c2.2-.6 4.3-1.3 6.4-2a3.55 3.55 0 00.9-.4l.1-.1v-.2c-.4 0-.7-.4-1.1-.5a51 51 0 01-5-1.9 3.11 3.11 0 00-2.5-.1c-1.9.7-3.9.9-5.8 1.5-.2.1-.4 0-.4.3a7.42 7.42 0 012.6 1h.6a5.8 5.8 0 002.1 1c.7.6 1.5.9 2.1 1.4zm-1-5.5a2.08 2.08 0 00-1.2-.5c-.4-.2-.7-.3-1.1-.5a9.58 9.58 0 00-3.7.9 17.73 17.73 0 00-3.7 1.2 8.36 8.36 0 002 .8zm-12.1.1a1.68 1.68 0 001.7.5c2.1-.6 4.2-1.1 6.3-1.6.2 0 .4 0 .5-.3a3 3 0 00-2.6-.4c-.4.1-.9.2-1.4.3a39.57 39.57 0 00-4.5 1.5zm14.2-.5c.6.3.7.3 1.5-.3zm5.7 2.4c-.5-.6-.5-.6-.8-.2a1.88 1.88 0 00.8.2zm-7.1-3.3c-.3 0-.7-.1-.9.3.4.1.6-.1.9-.3zm1.1.4a.81.81 0 00-.9.3.92.92 0 00.9-.3zm-30.9 14.7c-.1.1-.1.2 0 .4.2 0 .3 0 .3-.2s-.2-.3-.3-.2zm38-11.8a.76.76 0 00-.5.2c.2.1.3 0 .5-.2zm-.1-.7a.3.3 0 00-.4 0 .3.3 0 00.4 0zm-12-3.5a.19.19 0 00.3 0 .19.19 0 00-.3 0zm-41.2 10.7c.1.1.1.1.2 0zm51.3-7.6zM249 336.5zm31.6-13.9zM203.7 34.9a27.51 27.51 0 00-3-1.4c-.3 0-.7.3-1.1-.1a3.71 3.71 0 01-.2-1.9c3.8-.7 7.7-1.3 11.5-2s7.7-1.5 11.6-2.2 7.6-1.5 11.2-2.1c.5 0 .5.3.7.5a41 41 0 004.8 1 7.62 7.62 0 012 .6 7.26 7.26 0 003.9.9c.4.6 1.2.6 1.8 1 .3.2.2.6.3.8s.6 0 .8.3a.35.35 0 01-.1.2l-6.4 1.5a2.08 2.08 0 00-1.2.5 17.23 17.23 0 00.7 2.1c1 2.9 1.9 5.8 2.9 8.7.2.7.5 1.3.7 2a7.84 7.84 0 01.5 1.4 6.64 6.64 0 01.3 1.5l-2-.3c-.9-1.4-1.1-3.1-1.8-4.4a2.51 2.51 0 00-1.7-.7c-.6-.1-1-.5-1.7-.4-.4.8.2 1.6.1 2.4-.2.3-.5.3-.9.3l-.9-.5c-.1-.1-.2-.2-.2-.3a2 2 0 01-.2-1.3 15.94 15.94 0 00-.7-4.8 25.58 25.58 0 01-.5-2.7v-1a16.56 16.56 0 011.1 3.9c.3 1.2.4 2.5.7 3.7.3 0 .3-.2.3-.3a68.89 68.89 0 00-1.7-8.6c-.2-.1-.3 0-.5.1l-.2.6c-.2-.2-.1-.4-.6-.5a19.82 19.82 0 00-3.1.5c-2.6.5-5.1 1.2-7.6 1.7-1.5.3-3 .7-4.5 1.1a57.22 57.22 0 01-5.7 1.1 1.67 1.67 0 00-1.1.4c-.2.8-.2 1.7-.4 2.6a2.77 2.77 0 01-.1.9c-.7 2.1-.5 4.3-.7 6.5-.4 3-.5 6-1.2 9-.1.5-.1 1-.2 1.5-.1.3.1.7-.3 1-.5 0-1-.6-1.6-.6-.3 0-.3.5-.7.5a11.62 11.62 0 01-.4-1.8v-.2a.85.85 0 00.3-.5c.2-1.3.4-2.7.7-4a27.46 27.46 0 00-5.5-2.8 4.06 4.06 0 00-.8 1.9c0 .3-.1.6-.1.9a2.17 2.17 0 01-1.1 1.7c-.2.1-.2.4-.5.4l-.2-.5c-.3-.3-.7-.3-1-.7a1 1 0 010-.9c1.4-3.9 2.3-8 3.7-11.8.3-1.6 1.1-3.1 1.2-4.8.2-.8.5-1.2.6-1.6h.5c.1.2.2.2.4.2a1 1 0 01.6.5 1 1 0 00-.3.1 22.9 22.9 0 00-1.4 2.7c-1 3-1.9 6.1-2.9 9.1a.47.47 0 00.1.6 2.54 2.54 0 011.2-.2 1.8 1.8 0 00.4-.9c.3-1.2.6-2.4.8-3.6a21.72 21.72 0 01.7-2.4c.5-1.6 1.1-3.1 1.5-4.7a1.06 1.06 0 00-.1-.8c.3-.1.7.3 1.1 0a.43.43 0 00-.4-.4 4.67 4.67 0 00-1.7-.3.51.51 0 00-.5.1zm38.6 7.2a.6.6 0 00.1.4c.2-.2 0-.3-.1-.4a.91.91 0 00-.3-.7c-.1-.6 0-1.2-.5-1.7a23.69 23.69 0 00-.9-3.6c-.4-1.1-.3-2.4-1-3.5l-.4.1a.66.66 0 00.1.6 36.53 36.53 0 001.8 5.6c.1.3.1.7.5.8a2.62 2.62 0 00.5 1.7c.1.2 0 .5.2.7zm-6.4-14.2c-.4 0-.7-.1-1 .2-.4 0-.9-.1-1.2.2a6.6 6.6 0 00-1.4.1c-2 .5-3.9.9-5.9 1.3-2.3.5-4.6.8-6.9 1.3a12.31 12.31 0 01-2 .2 4.42 4.42 0 011.5-.5c4.7-.8 9.3-1.9 14-3a15.4 15.4 0 002.7-.7h-.5a23 23 0 01-4.5.5h-.2l-13.2 2.1c-3.8.6-7.7 1.2-11.5 2.1a4.33 4.33 0 01-1.6.1.76.76 0 01.4-.2c4.4-1 8.7-1.9 13.2-2.5l7.6-1.2c2.5-.4 4.9-.7 7.4-1.1a18.74 18.74 0 003.1-.6c-.2-.1-.3-.2-.4-.2l-1.6-.3a8.89 8.89 0 00-3.6.4c-2.3.5-4.6.9-7 1.3-3.9.7-7.8 1.3-11.6 2.2a55.85 55.85 0 01-5.9 1c-1.4.2-2.9.5-4.3.7a.35.35 0 00-.1.2l.6.4-.1.4c-.4.1-.6-.2-.9-.3a.37.37 0 00-.3.1c0 .2-.1.4.2.6a10.89 10.89 0 012.4.7 21.62 21.62 0 004.3 1.4 6.33 6.33 0 002.6 1.6c.2.1.4.1.5-.2a3.88 3.88 0 00-1.1-.6c-.4-.2-.9-.3-1.2-.8.4-.1.7.2 1.1.3a21.86 21.86 0 002.3.9l1.5-.4c2.7-.8 5.4-1.3 8.1-1.9l12.6-2.4c3.7-.7 7.4-1.3 11.1-1.9a.74.74 0 00.8-.4 1.94 1.94 0 00-1.8-.3c-1.5.4-3 .5-4.5.8-3 .6-6 1.1-9 1.7-3.2.6-6.4 1.3-9.6 2a5.08 5.08 0 01-1.7.3c.2-.3.6-.3.9-.4 1.7-.4 3.4-.7 5.1-1.1 1.5-.3 3.1-.6 4.6-1 1.8-.4 3.6-.8 5.3-1.1a4.59 4.59 0 002.5-1 2.53 2.53 0 001.7.2 20.82 20.82 0 012.3-.3c.5-.1 1-.2 1.4-.3-.1-.3-.3-.3-.5-.4-.6-.2-1.2-.3-1.8-.5a2 2 0 00-1.5 0c-1.2.3-2.5.7-3.7 1-3.3.8-6.7 1.5-10.1 2.2l-10.8 2.4a9.38 9.38 0 00-2.4.6c-.2.3.2.6-.2.7s-.7-.4-1.2-.5a10.16 10.16 0 00-2.5.6v.5h-.8c-.3-.4-.7-.4-1.1-.6a14.72 14.72 0 01-2.2-1c1.3 0 2.2.7 3.2.9 1.4-.3 2.9-.7 4.4-1 2.9-.7 5.7-1.4 8.6-2 3.6-.8 7.2-1.5 10.8-2.4a7.83 7.83 0 002.5-.7c.4 0 .9.1 1.2-.2a1.08 1.08 0 00.9-.2c.1-.1.4.1.4-.2-.2 0-.4.1-.4.2zm-14 6.5c-.4.1-.9 0-1.2.3a2 2 0 00-1.3.2c-.2.1-.6-.1-.8.2a.78.78 0 00.8-.2 3 3 0 001.3-.2c.4-.1.8 0 1.2-.3.3 0 .6.1.9-.1a.76.76 0 00-.9.1zm2.7-.5l-.9.1c.4.1.7.2.9-.1a3.75 3.75 0 001-.1.9.9 0 00-1 .1zm2.3.3a5.08 5.08 0 002-.4 2.82 2.82 0 00-2 .4 2 2 0 00-.7.1.82.82 0 00.7-.1zm-5.5 1.2a15.3 15.3 0 00-5.2 1.3l-.4.1c.2.1.3 0 .4-.1a5 5 0 001.7-.2c1-.3 2-.5 3-.8a2.19 2.19 0 00.5-.3 11.4 11.4 0 003-.6 8.88 8.88 0 00-3 .6zm-4.5 0a15 15 0 00-5 1.4c-.1.1-.3.2-.2.4.1 0 .2.1.3.1 1.3-.4 2.6-.6 3.9-1.1.3-.4.7-.5 1-.8l.5-.1c-.2-.1-.3.1-.5.1zm-16.2 14.2c0-.3-.1-.5-.4-.5a10.73 10.73 0 00-1.2 3.8.55.55 0 00.5.3c.6-.7.3-1.6.7-2.3l.4.3a20 20 0 001-2.1c0-.2.1-.4-.2-.5-.4.2-.4.7-.8 1zm9-11.5a29.22 29.22 0 01-.4 5.1c-.4 3-.7 5.9-.9 8.9a23.36 23.36 0 01-.4 2.6 6.1 6.1 0 00-.3 2.7c.3.1.5.4 1 .3a41 41 0 00.6-4.9c-.1-.4-.6-.6-.4-1.1l.5-.3.3-2.7c.1-1.1.2-2.1.4-3.2.3-1.8.6-3.7.9-5.5a2.23 2.23 0 000-1.4 2.11 2.11 0 00-1.3-.5 9.87 9.87 0 00-3.2-1.7 11 11 0 00-.9 1.4c-.3.5-.2 1.1-.4 1.7a2.84 2.84 0 01-.7 1.7 2.28 2.28 0 00-.5 2 1.41 1.41 0 01-.1.9c-.3 1-.6 2.1-1 3.1a3.54 3.54 0 00-.3 1.1 27.75 27.75 0 005.1 1.7c.2-.3.1-.6.2-1 .2-1.4.3-2.8.5-4.2a55.42 55.42 0 00.7-5.7 3.33 3.33 0 01.6-1zm28.7-5.5c-1.6.1-1.6.1-2.3.5a34.82 34.82 0 001.5 6.6 8.8 8.8 0 001.5.5c.5.1.9.5 1.5.4a72.72 72.72 0 00-2.2-8zm-36.3 17.1a9.3 9.3 0 002.7 1.2c1 .3 1.8 1 2.8 1.3a2.88 2.88 0 00.1-1.3c-1.7-.8-3.5-1.3-5.2-2a1.38 1.38 0 01-.3.4 1 1 0 01-.1.4zm35.6-9.3c-.1.6.1 1 .5 1.1.7.2 1.3.4 2 .6.3.1.7 0 .8-.6-1.1-.2-2-.9-3.3-1.1zm-30.9-4.6c-.1.1-.1.2 0 .4 1.2.4 2.4 1.1 3.9 1.6a11.41 11.41 0 00-3.9-2zm36.8 9.2a9.84 9.84 0 00.6 2.2c.1.1.1.3.4.1a6 6 0 00-1-2.3zm.8-14.5c.6-.1 1.1 0 1.6-.5-.7 0-1.2-.2-1.6.5zM237 42.4c0 .3-.2.5.1.7.3-.3.3-.4-.1-.7zm-9.3-9.1c.2.1.3.1.4 0zm-19.4 25.1c-.1-.2-.2-.3-.4-.1.1.1.2.2.4.1zm18.2-24.9a.3.3 0 00.4 0c-.2-.1-.3 0-.4 0zm3.5.1l-.3-.1zm-25.9 2.1l-.1-.1c-.1.1 0 .2.1.1zm32.7-8.6zm.5.4h-.1c-.1.1 0 .1.1 0zm-11.8 7.1zM214.7 37zM146.4 329.2l.4-.4c.4-.2.7.2 1.3 0a29.68 29.68 0 013.5-.9q.3.15.3.3v.3c.1 0 .1.1.2.1a7 7 0 013.5.3c2.3.6 4.6.9 6.9 1.4 3.1.6 6.3 1.2 9.4 1.9 1.8.4 3.6.9 5.5 1.2a.3.3 0 01-.3.4c-.3.1-.6 0-.8.3.2.3.5.1.7 0s.4-.1.5.2c-.3.5-.9.3-1.3.8a7.52 7.52 0 000 1.5c.2 1 .1 2.1.2 3.1.1 1.6.1 3.2.2 4.8a20.13 20.13 0 01-.2 4.9 5.63 5.63 0 000 1.3c0 1 .1 1.9.1 2.9 0 .1-.1.3-.1.4-.3.2-.5 0-.8-.1l-.3-.5h-.2c-.3.2-.7.4-1 .6a24.31 24.31 0 01-3.5 2c-1.8.9-3.6 1.7-5.3 2.6s-3.3 1.8-4.9 2.5c-.1 0-.1.1-.2.2 0 .4.6.4.6.9 0 .1-.1.2-.3.2a3.14 3.14 0 01-1.6-.6 12.81 12.81 0 00-2.4-1.1 56.85 56.85 0 01-5.6-2.6c-3.2-1.6-6.5-3.3-9.7-4.9a20.16 20.16 0 01-3.2-1.8 2.27 2.27 0 01-.9-.8c.1-.5.6-.1.9-.4a30.88 30.88 0 00-.1-4.3c-.2-3-.4-6-.3-9a12.25 12.25 0 01.2-1.9 7.44 7.44 0 00-.2-2.6c.3-.5.7-.2.9-.3s.1-.3 0-.4a1.64 1.64 0 00-1-.2 1.05 1.05 0 01.9-.5 3.94 3.94 0 001.4-.5 1.22 1.22 0 001.3 0l.5-.1c.2 0 .1-.1.1-.3l.2-.2 4.2-1.2a.62.62 0 00.3.5zm17.7 29.4a.76.76 0 00.5-.2.55.55 0 00.5-.3c.2-.1.4-.1.6-.2 2.8-1.5 5.6-2.9 8.4-4.4a2.33 2.33 0 001.1-.9c.3-2.2-.1-4.5.2-6.8-.4-2.3.3-4.7 0-7-.5-.1-.7.2-1 .3a11.06 11.06 0 01-2.7 1.2c-1.4.4-2.8.8-4.1 1.2a6.7 6.7 0 00-1.8.7 5.09 5.09 0 01-1.7.7l-2.1.6a3.15 3.15 0 00-1.5.8 48.65 48.65 0 00.5 6.5 2.78 2.78 0 010 1.8c-.2.1-.4 0-.6-.2a15.72 15.72 0 01-.4-2.3c-.1-1.6-.3-3.1-.3-4.7a.83.83 0 00-.3-.8 1.3 1.3 0 00-.2 1c.1 1.7.2 3.4.4 5.2.1 1.4.3 2.8.3 4.2a25.72 25.72 0 00.2 4.8 1.27 1.27 0 01-.1.6 2.36 2.36 0 01-.8-.2 4.87 4.87 0 01-.3-.7 9.76 9.76 0 01-.2-3.4 3.07 3.07 0 00-.2-2.1 1.7 1.7 0 01-.1-.7v-2.2c.1-1.9 0-3.8 0-5.7a1.68 1.68 0 00-.3-1.1c-2.5-.9-5-1.9-7.5-2.9-3.2-1.4-6.6-2.2-9.9-3.4-.4-.1-.8-.3-1.2-.1a1.8 1.8 0 00-.2 1.6 12.22 12.22 0 01.2 3.3c0 .2.1.4-.2.5a.83.83 0 01-.3-.8 26.2 26.2 0 00-.1-2.8 8.6 8.6 0 00-.1-1.6c0-.2 0-.3-.3-.4-.3.2-.2.4-.2.7.1 2.4.1 4.9.2 7.3 0 1.4.1 2.8.2 4.2a2.92 2.92 0 01-.2.9l-.4.2a9.8 9.8 0 002.7 1.8 92.21 92.21 0 009.1 3.9 68.48 68.48 0 018.7 4c.2.1.4.3.7.2s.4-.3.6-.5a3.09 3.09 0 001.4-.7 65.84 65.84 0 015.7-3.4h.2c.1.2-.1.3-.2.4-.4.3-.9.5-1.3.8s-.7.3-.8.7a.55.55 0 00-.5.3l-.3.1zm-14.4-1.5zm24.1-23.8c-.1-.1-.2-.2-.4-.1l.4.1a.59.59 0 00.7.1zm-31.4 4.3a3.38 3.38 0 001.6.7 3.29 3.29 0 00-1.6-.7zm8.1-1.3l1.5.2c.1.1.2.2.3.2a33.48 33.48 0 005.3 1.9 2.77 2.77 0 00.9.1c.2 0 .4 0 .4-.4-.1-.1-.2-.1-.3-.2-1.3-.4-2.7-.8-4-1.1a12.22 12.22 0 00-2.6-.6c-.3-.4-.9-.4-1.3-.8.4 0 .8.1 1-.3a.83.83 0 01.8.3 1.27 1.27 0 01.6.1c1.2.4 2.4.9 3.5 1.3s2 .7 3 1c.3.1.5.2.8 0-.1-.4-.6-.3-.8-.6a14.16 14.16 0 012 .4c.3-.2.8-.1 1-.5a12.65 12.65 0 00-1.8-.6 9.43 9.43 0 01-2.3-1 19.49 19.49 0 012.3.6c.8.2 1.5.5 2.3.7a2.75 2.75 0 002.4-.5c-1.6-.6-3.1-1.1-4.5-1.7a29.52 29.52 0 01-4.4-1.6c.2 0 .3-.1.4-.1 2 .6 4 1.2 6 2a18.45 18.45 0 004 1.2 15.33 15.33 0 002.7-1.1.74.74 0 00-.7-.3c-.6-.1-1.2-.2-1.7-.3-2.4-.5-4.8-1.1-7.3-1.6a2.57 2.57 0 01-1.5-.7c3.3.5 6.2 1.5 9.6 2a8.92 8.92 0 00-1.9-.7 20.94 20.94 0 01-3.5-1.3c.3.1.7.1 1 .2a54.58 54.58 0 016.6 1.9 3 3 0 002.9-.6c-.2-.3-.5-.3-.7-.4l-3.9-.9c-2.5-.7-5-1.2-7.5-1.8a41 41 0 00-8.4-1.4c-.2-.2-.2-.4-.8-.4-1.1.2-2.4.5-3.8.8s-2.9.3-4.3 1.1a1.7 1.7 0 01-.7.1 22.88 22.88 0 00-3.6.7l.5.5c-.3.1-.7-.1-.9.2s0 .4.2.4a6.37 6.37 0 002.7.7 2.92 2.92 0 01.9.2c1.8.8 3.7 1.1 5.5 1.7.2.1.5 0 .8 0a.83.83 0 00.8.3v.3c-.1 0-.2-.1-.2.1l.2-.1c0 .2.3.2.5.4l-.1.1zm.2 21.3a40.93 40.93 0 005.1 2.6 3.71 3.71 0 001.4.4c-.3-.5-.9-.7-1.4-1l-3.3-1.5a5.34 5.34 0 00-1.8-.5zm24.1-21.5c-.6.1-1.1-.2-1.7-.2-1.4.4-2.9.8-4.3 1.3a5.55 5.55 0 01-2.2.6c-.1-.1-.3-.3-.5 0h.5a1.74 1.74 0 01-1.5.5v-.4a7.52 7.52 0 00-1.8.7c0 .2 0 .3-.1.4l-.6-.1c-.6.8-1.7.5-2.5 1.1a4.55 4.55 0 00.4 2.5c5-1.3 9.9-2.8 14.8-4.6a3.79 3.79 0 000-1.5l-.5-.3a2.18 2.18 0 00.5-.3c.1-.1.2-.2.1-.3a.64.64 0 00-.9.1zm-35.4-.1l.6.3c3.1 1 6.1 2.3 9.1 3.6 2.7 1.2 5.5 2.3 8.3 3.3.3.1.5.3.9.1 0-1.1 0-2.3-.1-3.4a2.27 2.27 0 00-1.2-.6c-1.3-.4-2.5-.8-3.7-1.3a14.27 14.27 0 00-2.7-.9 23.55 23.55 0 01-3.5-1.1c-2.4-1-5-1.3-7.4-2.4a.56.56 0 00-.8.2zm20 6.7a1.27 1.27 0 000-1.2.91.91 0 000 1.2zm-20.9-9.1a1.8 1.8 0 00.2 1.6zm36.4 1.4c.3-.2.5-.1.5-.4-.1 0-.3 0-.5.4zm.6-1.4l-.1.1a.1.1 0 00.1.1c.1 0 .1-.1.2-.1zm-15.2 5.7c0-.1 0-.1-.1-.1h-.1c-.1.1-.1.1 0 .2a.35.35 0 00.2-.1zm-1 1.3a.14.14 0 000 .2c.1 0 .1-.1 0-.2zm-6.3-11.7c.1 0 .2.1.2-.1zm-7.6.8zm28.3 4.8zm-34 2c-.1-.1-.1 0-.2 0zm1.1.5zM92.4 231.3a17.42 17.42 0 00-2.2-.5c-.9-.1-1.8-.3-2.6-.4-1.9-.3-3.8-.7-5.7-1.1-2.6-.6-5.2-1.1-7.7-1.8-2.1-.6-4.2-1-6.3-1.8-.6-.2-1.3-.4-2-.6a35.75 35.75 0 01-3.5-1c-.4-.1-.8-.5-1.3-.5a14.16 14.16 0 00.4-2c.6-2.5 1.2-4.9 1.7-7.4.2-.7.3-1.5.5-2.2.5-2 .9-3.9 1.4-5.9a14.68 14.68 0 00.5-2.9 2.66 2.66 0 01.3-1.2 4.3 4.3 0 011.6 0l2.7.6c2.8.6 5.5 1.3 8.3 1.8 3.4.6 6.7 1.7 10.1 2.5 1.7.4 3.4.8 5.1 1.3a8.21 8.21 0 002.2.2c.5.2.5.6.5 1a3.37 3.37 0 00-.5 1.7c-.2 1.5-.6 3-.8 4.6-.3 2.4-.7 4.8-1 7.3-.1.8-.2 1.5-.3 2.3-.3 1.6-.5 3.2-.7 4.8a5.23 5.23 0 01-.7 1.2zM80.2 217l-1.5-1.5c-.5-.5-.9-1-1.4-1.5s-.8-1.2-1.4-1.6a8 8 0 01-1.5 1.7c-.8.6-1.5 1.4-2.3 2.1-1.1 1.1-2.3 2.1-3.4 3.2a22.18 22.18 0 01-4.7 3.9c-.2.1-.4.2-.4.5.2.2.5.2.7.3l3.6.9c.6.2 1.2.4 1.9.6l8.6 2.1c3.6.9 7.3 1.6 11 2.2.6.1 1.2.1 1.9.2a1.44 1.44 0 00-.2-.7c-.2-.4-.4-.8-.6-1.3a52.34 52.34 0 01-2.3-7.7 9.68 9.68 0 00-.8-2.4 6 6 0 01-.6-1.9 3.58 3.58 0 00-.4-1.1c-2.3.5-4.1 1.7-6.2 2zm-12.9-14.7l-.1.2a1.38 1.38 0 00.4.3c1 1 2.1 2 3.1 3 1.2 1.2 2.4 2.5 3.6 3.6a38.34 38.34 0 012.8 2.9l2.7 3c.3.3.6.5.8.7a2.9 2.9 0 001.1-.3l3.3-1.5c1.8-.9 3.6-1.7 5.4-2.7 1.3-.8 2.6-1.5 3.8-2.3.1-.1.2-.1.1-.4l-1.1-.3c-1.8-.5-3.6-.9-5.4-1.4-3.1-.9-6.3-1.7-9.5-2.4-1.4-.3-2.9-.5-4.3-.9-2-.5-4-1-6.1-1.5 0 .1-.3.1-.6 0zm8.2 9.7a1.38 1.38 0 00-.3-.4l-2.1-2.1c-.9-.9-1.8-1.8-2.7-2.8-1.2-1.2-2.2-2.4-3.5-3.5-.1-.1-.2-.3-.5-.2a1.48 1.48 0 00-.1.7 15.44 15.44 0 01-.4 3c-.4 1.7-.7 3.4-1 5-.4 2.1-.9 4.3-1.3 6.4-.3 1.4-.6 2.7-.9 4.1 0 .2-.1.4.1.5a13.67 13.67 0 002.9-2c1-.8 1.8-1.8 2.8-2.7 1.1-1.1 2.2-2.1 3.3-3.1s2.2-1.7 3.2-2.8c.2 0 .3-.1.5-.1zm16.3 16.7a8.14 8.14 0 00.2-.9c.2-1.1.4-2.3.6-3.4.3-2 .6-3.9.9-5.9.2-1.1.3-2.3.6-3.4l.9-4.5v-.4a4.33 4.33 0 00-1.2.5 44 44 0 01-5.6 3.1 4.58 4.58 0 00-1.3.8 36.16 36.16 0 001.3 3.5 20.94 20.94 0 01.8 2.3c.5 1.8 1 3.7 1.6 5.5a13.9 13.9 0 001.2 2.8zM67.9 331c-.2-.4-.7-.8-.7-1.2s.5-.5.7-.8c-.2-.4-.7-.3-.9-.7s.3-.4.3-.7c-.3-.5-1.1-.5-1.2-1.3.4-.6 1-.3 1.6-.5-.2-.4-.7-.5-.9-.8a.62.62 0 01.1-.7c.2-.3.5-.2.8-.2.1.4-.5.4-.3.8a2 2 0 001.5.5c2.7.3 5.5.1 8.2.2h6.6a17.71 17.71 0 002.3-.1c2.8-.3 5.6-.4 8.4-.8a1.33 1.33 0 00.8-.3 1.7 1.7 0 00-.6-.6h-.1a42 42 0 01-6.2.6 54.27 54.27 0 01-5.7.2c-1.3-.1-2.5 0-3.8 0H73a32.69 32.69 0 01-4.4-.4c-.8-.1-1.7-.3-2-1.3a1.49 1.49 0 01.3-.8 5 5 0 011.2-.2c-.2.3-.6.3-.7.6a.65.65 0 00.2.8 4.94 4.94 0 001.6.5 4.1 4.1 0 001.1.1c2.8 0 5.6.1 8.3.1 1.4 0 2.8.1 4.2.1 2.8-.1 5.6-.3 8.4-.5 1.1-.1 2.3-.3 3.4-.5a.74.74 0 00.8-.4 8.4 8.4 0 01-1.9-.7 18.58 18.58 0 01-3.3.4 56.18 56.18 0 01-5.6.6h-4.4a14.92 14.92 0 01-2.1-.2c-1.6-.1-3.2-.3-4.8-.4a22.06 22.06 0 01-5.1-.5 4.49 4.49 0 00-1.2-.6c-.5-.2-.8-.5-.7-1s.6-.4.9-.6c.1-.1.1-.2 0-.2-.4-.2-.9-.4-1-1a1.33 1.33 0 011-.6 70.46 70.46 0 0110.3-1c2.5 0 5.1-.1 7.6-.1a53.9 53.9 0 0110.6.6h.3c.5.1.9.3 1 .8a1 1 0 01-.5 1.1c-.1.1-.2.2-.3.2-.2.3.1.6 0 .9-.2.7-.8 1-1.5 1.4.9.2 1.8.2 2.2 1-.2.6-.7.6-1.1.8.4.3.9.3 1 .8s-.3.5-.5.6c.2.2.4.5.6.7s.2.5 0 1a6 6 0 01-3.5 1.3 32.54 32.54 0 01-4.4.3c-3.3 0-6.6.2-9.9.2-3 0-6-.1-9-.4a4.93 4.93 0 00-2.1 0 4 4 0 002.5 1 23.49 23.49 0 002.6.1 12.75 12.75 0 012 .1c2.4.4 4.9.1 7.3.3a29 29 0 005.9-.1 52 52 0 005.5-.8 5.63 5.63 0 001.2-.4c.3-.2.2-.6.5-.8s.9-.1 1.1.4c0 .4-.4.6-.5.9.1.4.3.8-.1 1.2l.9.7a2.09 2.09 0 01.2 1.3l.5.9-.1 1.6c-1 .7-2.1.7-3.2 1.1-1 .7-1.8 1.5-2.8 2.2a7 7 0 01-3.4 1.2c-3.3.3-6.6.3-9.9.3a7.76 7.76 0 01-3.9-1.2c-.7-.4-1.5-.8-2.2-1.2a6 6 0 00-1.9-.6 3.77 3.77 0 01-2.1-.7c-.3-1-.2-1 .9-1.3-.1.3-.5.5-.5.9a1.73 1.73 0 001.2.6c2.2.3 4.4.3 6.5.5a38.47 38.47 0 004.8-.1c3-.2 6-.2 9-.3.4 0 .7-.1 1.1-.1a32 32 0 004.2-1c.2 0 .3-.1.5-.2a.76.76 0 00-.4-.1c-.3 0-.5.1-.7.1l-2 .3c-2.1.1-4.2.2-6.3.5s-4 .2-5.9.4h-1.1a48.76 48.76 0 01-7.5-1.2 7.1 7.1 0 00-2.9-.1l.1-.3c-.4-.4-1.2-.4-1.4-1.1 0-.5.5-.5.7-.8-.1-.4-.7-.3-.7-.9-.6-.6-.1-.5.2-.4 0 .1-.2.3 0 .6a17.22 17.22 0 002.1.7 41.52 41.52 0 007 .7 82.54 82.54 0 0012.2-.3 44.63 44.63 0 005.1-.7 3.08 3.08 0 001.2-.5c-.3-.6-.8-.7-1.3-.9-2.1.9-4.3.9-6.5 1.2-1.9.2-3.9.2-5.8.3-2.4 0-4.7.1-7.1 0-1.1 0-2.1-.1-3.2-.2s-2.5-.6-3.7-.9zm-.3-11.2v.3c-.3.1-.7-.1-.9.3a4.64 4.64 0 002.8 1.1c1.2 0 2.3.1 3.5.2 2.1.1 4.2.3 6.3.5 1.8.1 3.5.1 5.3.1 1.6-.1 3.2-.3 4.8-.5a17.86 17.86 0 012.3-.2 7.06 7.06 0 002.4-.6c.4-.1.8-.4.6-.9a.62.62 0 00-.7-.1c-.7.1-1.3.3-2 .4a12.09 12.09 0 00-1.8.5c-1.3.3-2.6.8-3.9.4-.5.1-.8.7-1.4.5 0-.2.2-.4 0-.6a2.88 2.88 0 00-1.3-.1 24.63 24.63 0 01-2.6.2 18.59 18.59 0 01-4.7-.3 4.49 4.49 0 00-1.1-.1h-2.5c1.1.6 2.3.2 3.2.9a11.38 11.38 0 01-3.7-.4c-1-.3-2-.4-3-.6-.6-.1-1.2 0-1.7-.5l.3-.1zm27 5.4H94a85 85 0 01-8.7.7c-1.4.1-2.9 0-4.3.1-1.9.1-3.8.1-5.7.1-2.2 0-4.3 0-6.4-.2a4.42 4.42 0 00-2.2.5 3.25 3.25 0 001.8 1c1.3.2 2.6.2 3.9.3 3.1.1 6.2.3 9.3.1 2.1-.1 4.1-.1 6.2-.1 1.4 0 2.8-.1 4.2-.2a9.39 9.39 0 002.4-.6c.3-.1.7-.2.8-.7s-.3-.7-.7-1zm.6-7.1a1 1 0 00-1-.5 43.83 43.83 0 00-5.2-.4c-3.1-.1-6.2 0-9.4 0-1.6 0-3.2.2-4.8.2a46.72 46.72 0 00-7.4.9c-.3 0-.6 0-.7.4.4.7 1 .5 1.6.6 0 .5.4.6.7.8.5.1 1.1-.2 1.6.2a2.7 2.7 0 011.7-1 19.59 19.59 0 014.8-.5c2.2 0 4.4 0 6.6.1 1.7.1 3.4 0 5.2.1a3.51 3.51 0 012 .5 18 18 0 004.3-1.4zm-27.4 11.7a3.16 3.16 0 002.4 1.4 24.59 24.59 0 002.8.2h6.8c3.1 0 6.2-.2 9.3-.5a14.75 14.75 0 005.1-1.3c.1-.1.3-.1.2-.3a41.14 41.14 0 01-6 .8 29.93 29.93 0 01-5.2.1c-2.4-.1-4.7-.1-7.1-.3-1 0-2.1-.2-3.1-.3a34.4 34.4 0 01-4.5-.5c-.3.3-.6.4-.7.7zm28 3.3a1.19 1.19 0 00-1.4-.5c-1.2.2-2.4.4-3.6.5s-2.3.1-3.4.2c-3.2.3-6.5.1-9.7.1-.7 0-1.3-.2-2-.2a37.39 37.39 0 01-6.6-.9h-.4a1.33 1.33 0 00-.9.6 1 1 0 001 .5c1.6.2 3.2.5 4.7.7.3 0 .5.1.7.1 2 .7 4.1.5 6.1.6a40.44 40.44 0 004.9-.4c1.9-.2 3.8-.4 5.7-.5 1.4-.1 2.8-.4 4.2-.6a.62.62 0 00.7-.2zm-4.2 3h-.5a43.8 43.8 0 01-5.2.4 45.22 45.22 0 00-5.2.2 48.47 48.47 0 01-6.6 0 4.24 4.24 0 00-1.9.1 4.74 4.74 0 012 .6 6 6 0 003.5 1 1.27 1.27 0 01.6.1 5.9 5.9 0 001.4.2c.8.1 1.5-.3 2.3-.2a16.65 16.65 0 005-.3 10.25 10.25 0 004.6-2.1zM72 319.8a7.46 7.46 0 002.6.4c1.9 0 3.9-.1 5.8-.1q3.6 0 7.2-.3c.2 0 .5.1.5-.3a22.71 22.71 0 00-4.5-.3 13.36 13.36 0 00-2.8.1 54.39 54.39 0 00-5.7.3 4 4 0 01-1.1 0 2.75 2.75 0 00-2 .2zm5.7 18.8h-.5c-.1 0-.3-.1-.3.1a.76.76 0 00.8-.1zm12.2-19.4a.21.21 0 00-.4 0 .3.3 0 00.4 0zM462.2 265.1c-.8.4-1.5.7-2.3 1.1a31.41 31.41 0 01-3.7 1.8c-.2.1-.3.2-.5.3-.4 1.8.4 3.6 0 5.4a4.49 4.49 0 01-2.6.3c-.4-1.7 0-3.3-.2-5a.6.6 0 00-.4-.1 12.11 12.11 0 01-5.3-.9 19.57 19.57 0 01-4.7-2 1.21 1.21 0 00-1-.3 13.52 13.52 0 01-.5 2.9 3 3 0 01-2-.4 1 1 0 01-.2-.9c.2-1.6.5-3.2.6-4.7a5.71 5.71 0 000-2.6c.1-.1.2-.3.3-.4a7.61 7.61 0 00.3-2.1 1.64 1.64 0 00-.2-1c-.3-.4-.7-.4-1-.6-.8-1-1-1.5-.1-3a13.06 13.06 0 014-1c1.4-.2 2.8-.4 4.1-.7a2.73 2.73 0 001.2-.6 22.08 22.08 0 004.4-5.2 14.52 14.52 0 001.7-2.6 1.76 1.76 0 01.4-.5c1.4-1.1 2.5-2.5 4-3.5a1.75 1.75 0 00.5-.4c.6-.2 1.1-.4 1.7-.6s1-.3 1.4-.5a4.24 4.24 0 013.3.4 5.23 5.23 0 001.6.6c1.3 1.7 1.3 3.6 1.1 5.5a17.85 17.85 0 00-.2 2.3 5.46 5.46 0 01-.6 2.8c-.2.3-.1.7-.2 1a18.15 18.15 0 01-1.1 3 5.55 5.55 0 00-.6 2.2c-.1.6-.2 1.2-.3 1.9a6.75 6.75 0 00-.2 1.4 7.46 7.46 0 01-.4 2.6 3.4 3.4 0 000 2l-.7 1.7c.2 1.5 0 3.1 1 4.6-.2.6-.8.7-1.3.9a2.85 2.85 0 01-1.4-.6c0-1.5.1-3 .1-4.5a2 2 0 01.5 1.5v2.1c0 .2 0 .4.3.4a13.13 13.13 0 00.1-2.8 2.62 2.62 0 00-.2-1.5c0-.1-.1-.1-.2-.1a.66.66 0 00-.5.4zm-21.8 2.6zm6.4-5.1a7.1 7.1 0 01-2-.4 5.46 5.46 0 01-1.8-.6c-.5-.4-1.4-.1-1.7-.8-.2-.5 0-.8.1-1.2a11.13 11.13 0 00.2-1.7 11.26 11.26 0 00-.2-3.2 2.24 2.24 0 00-.8-1.5 1.65 1.65 0 00-1.2 1.1l.3 1.1c.4.3.9 0 1.2.4-.2 1.4-.1 2.9-.3 4.4a9.52 9.52 0 00.1 2.9 2.09 2.09 0 00.7 1.3c.3.2.6.5.9.7a5.26 5.26 0 011.4 1.2c1.4.6 2.8.9 4.2 1.5a8.08 8.08 0 003.1.5 11.07 11.07 0 003.6-.4q.15 0 .3-.3a4.76 4.76 0 01-.2-2.9c.1-1 .3-1.9.4-2.9a1.42 1.42 0 01.2-.6 3.2 3.2 0 00.5-1.9l1.2.3a3.91 3.91 0 001-.8 1.37 1.37 0 00-.6-1.8 2.63 2.63 0 00-2.1.6l-1.1 5.1c0 .5.5.7.2 1a1.68 1.68 0 01-1.2.3c-.2 0-.4-.1-.6-.1a29 29 0 01-4.1-.6 5.09 5.09 0 01-1.7-.7 6.89 6.89 0 012 .1c1.2.2 2.4.3 3.6.5.3 0 .6.1.8-.2.2-.9.3-1.9.5-2.8a15.05 15.05 0 00.5-2.8 1.12 1.12 0 01.8-.7l.9-.3a3.79 3.79 0 00-2.3-.3 17 17 0 00-3.1.6l-3 .9a16 16 0 00-4.7 1.9.68.68 0 00-.4.6c0 .3.3.4.6.6 1.2.5 2.4 1.4 3.8 1.9zm9.9-6.7a9.61 9.61 0 012.8-1.1 4.32 4.32 0 002.2-1.2 16.76 16.76 0 003-4c.4-.6.5-1.2 1.1-1.7a1.39 1.39 0 00.5-1c.3-1.1.5-2.1.7-3.2a1.7 1.7 0 000-1 28.64 28.64 0 00-.7-2.8 1.77 1.77 0 00-.7-1.1 3.33 3.33 0 00-3.2-.8c-.8.2-1.4.6-2.1.8a6.77 6.77 0 00-2.9 1.8c-1.2 1.3-2.6 2.4-3.2 4.1-.1.1-.1.2-.2.3-1.2 1.4-2.2 2.9-3.3 4.3a6.65 6.65 0 01-3.9 2.6 11.41 11.41 0 01-3.7.5 3.18 3.18 0 00-1.4.2v.3a5.79 5.79 0 01.7 4.3 2.23 2.23 0 000 1.4c1.1-.5 2.2-.9 3.3-1.3a32.08 32.08 0 015.3-1.5l2.1-.3a4.08 4.08 0 011.9.1c.7.1 1.2.2 1.7.3zm-1 11.6c4.3-1.7 6-2.5 7.2-4a11 11 0 01.2-1.8 11.62 11.62 0 00.4-1.8c.1-.7.2-1.3.3-2a5.54 5.54 0 00.2-1.8c-2.2 2-4.3 4-7.5 4.2-.1.4-.1.8-.2 1.2a12.59 12.59 0 00-.5 4.7v.8c0 .1-.3.2-.1.5zm3.3-8.8a8.79 8.79 0 003.6-2.4 13.55 13.55 0 002.8-4.6 7.58 7.58 0 01.9-1.8c.1-.2.3-.3 0-.5l-1.3 1.9c-.1.2-.2.5-.3.7a2.38 2.38 0 01-.6 1.1l-1 .8c-.8.4-1.5.9-2.2 1.3s-1.6.6-2.4 1c-.1.9.4 1.6.5 2.5zm-4.2 14.1c-.1-.6-.1-1.2-.2-1.8a13.4 13.4 0 00-.1-2 .65.65 0 00-.8.2c.1.6.1 1.3.2 1.9s-.3 1.3.3 1.9a.73.73 0 00.6-.2zm-14.2-7.7a1.78 1.78 0 00-.4 1c.5-.2.4-.6.4-1zM398.4 34.3a2.66 2.66 0 01-1-1.1c.1-.1.1-.3.2-.3a8 8 0 013-.9c2 .1 4-.1 6.1-.2a54.78 54.78 0 017 .1 31 31 0 014.2.8c.6.1 1.1.3 1.7.4a4 4 0 011.9-.2 3 3 0 011.3 1.4 2.12 2.12 0 01-.5 2.5 19.2 19.2 0 01-1.5 1.4 5.83 5.83 0 01-1.8.8c0 .4.3.3.5.4a.9.9 0 00.5.1 4.42 4.42 0 011.6.6 2.12 2.12 0 011.2 1.9 2.94 2.94 0 01-2 1.9 20 20 0 01-5.4 1.1 49.15 49.15 0 01-8.6.3 6.6 6.6 0 01-1.4-.1c-1.6-.3-3.2-.5-4.9-.7a9.3 9.3 0 01-4.6-1.8c-.1-.1-.3-.2-.4-.3a1.77 1.77 0 01.5-3.1 3.71 3.71 0 011.5-.4l2.1-.3a1.78 1.78 0 001-.4 11.12 11.12 0 00-1.4-3.4l-.3-.3-.3-.3-.2.1zm4.3 6.6l.3.3.5.3-.5-.2-.3-.4-.3-.2zm10.2-5.1l-.1.1.1-.1zm-6.9-.5l.2-.1c-.1-.1-.1.1-.2.1s-.2-.1-.2.1zm-6 7.8a.61.61 0 01.6-.1 15.94 15.94 0 003 .6 2.92 2.92 0 01.9.2 13 13 0 004.4.5 30.27 30.27 0 006-.4c.5-.1 1-.1 1.5-.2l1.5-.3 2.1-.9c.2-.1.3-.2.3-.6-1.2-.1-2.2-1.1-3.6-1-.3.2-.9.2-1.2.5a8.47 8.47 0 01-3 1.5 5 5 0 01-1.3.3h-1.8a14.66 14.66 0 01-4.2-.5 1.42 1.42 0 01-.6-.2 5.86 5.86 0 01-2.9-2.5 4.76 4.76 0 01-2.3.7c-.2 0-.3.1-.5.1a1.38 1.38 0 00-1 1.3zm13-1.3a4.3 4.3 0 001.9-2.1c.1-.2.3-.3.4-.5a3.88 3.88 0 001.1-2.6c-1.3.4-2.6.1-3.9.3s-2.6-.1-3.9 0a26.81 26.81 0 01-4-.2c-1.3-.1-2.5-.5-3.9-.6a10.87 10.87 0 00.5 1.4c.2.4.5.8.8 1.3a7.31 7.31 0 005.1 3.1c.5.1.9 0 1.4.1a4.65 4.65 0 003.3-.4c.4.1.7.1 1.2.2zm5.5-8.1a.32.32 0 00-.3-.3 18.48 18.48 0 00-5.2-.6 10.87 10.87 0 01-1.8-.1 15.14 15.14 0 00-3-.2 8.55 8.55 0 01-1.6 0 30.18 30.18 0 00-6.7.4c-.3 0-.7-.1-1 .2.4.4.9.4 1.3.6a8.15 8.15 0 003.1.6 28.06 28.06 0 012.9 0c1.9 0 3.8.1 5.7.1a2.77 2.77 0 00.9-.1 28.26 28.26 0 012.9-.2 5.48 5.48 0 002.8-.4zm-1.8 5.3c1-.5 1.8-.8 2.6-1.2a4.68 4.68 0 002.2-2.9c-.1-.1-.1-.3-.2-.5s-.2-.5-.5-.6h-.3c-.1 0-.2.1-.4.1a6.87 6.87 0 00-2.6 3c-.3.7-.5 1.3-.8 2.1zm-5.8-2.5c-.1-.1-.1-.1-.2 0zm-14.6 4.7c-.1-.1-.1 0-.2 0v.1c.1 0 .2 0 .2-.1zM342.9 304c-.2 0-.4-.2-.6-.4a3.21 3.21 0 01-.1-1.4c.2-.5.7-.6 1.1-.7a20.53 20.53 0 013.4-.7 48.87 48.87 0 015.4-.3 45.46 45.46 0 017.4.2c2.3.3 4.6.2 6.9.6a13.23 13.23 0 013.3.8c.5.7-.1 1.3.1 1.9a2.41 2.41 0 01-1.6 1.2c-.6.1-1.2.3-1.8.4a16.88 16.88 0 00-3.9.8c-.2.1-.5.1-.7.2a1.46 1.46 0 00-.9.6c-.3.3-.1.7-.3 1a2.84 2.84 0 01-1 .9 2.78 2.78 0 00-1.4 2.7v1.6a2.77 2.77 0 01-.1.9 4.59 4.59 0 00-.3 2.6c0 1.9.1 3.9.2 5.8a26.8 26.8 0 01-.2 4c0 .2-.1.4-.1.6a35.93 35.93 0 00.5 4.6 5 5 0 00.5 1.3 28.46 28.46 0 012.3 3.7 5.19 5.19 0 002.2 2.2c.2.1.4.3.6.4a.88.88 0 01.1.7c-.8 1.1-1.9.3-2.8.2-.8-.7-1-1.9-1.8-2.6a23 23 0 002.3 5.2l-.2 1.3a4.51 4.51 0 01-2.5-.7 5.08 5.08 0 00-.9-1.3 3.59 3.59 0 00-.2-1.8 21.05 21.05 0 01-.6-2.4 5.15 5.15 0 00-.9-2c-.5.4-.5.4-.8 1.2-.1.2-.3.1-.5.1a9.2 9.2 0 00-1.3 2.4c-1 .4-1.1 1.6-1.8 2.2a10.62 10.62 0 01-1.9.4 1.24 1.24 0 01-1.5-.8c.3-.9 1.2-.9 1.8-1.6a31.25 31.25 0 012.7-4 7.09 7.09 0 001.4-2.9 23.53 23.53 0 00.6-6.5 15.06 15.06 0 01-.1-3c.2-2.1 0-4.2.1-6.3a47 47 0 00-.2-5.3 9.64 9.64 0 00-1-3c-.4-.1-.8-.1-1.2-.2a1.52 1.52 0 01-1.3-1 3.45 3.45 0 00-2.3-2.1 31.65 31.65 0 00-4.4-1.2c-.8.1-1.4.1-1.7-.5.1-.1.2 0 .2-.2zm15.2 29.7a2.3 2.3 0 00.4 1.4c.4.6.8 1.3 1.2 1.9a13.38 13.38 0 011.3 2.3l.7.5.7-.1c.1.1.3.3.5 0h-.5a8.7 8.7 0 01-.9-1.1c-.8-1.2-1.6-2.5-2.4-3.7a10.61 10.61 0 01-1-1.2zM354 306a3.65 3.65 0 00-1.4.2l.8 1 2.6.9 1.4-.5a11.22 11.22 0 001.3-1.6 4.48 4.48 0 00-2.3 0 6.15 6.15 0 01-1.4.1c-.1 0-.2 0-.1-.1.2-.3.5.1.7-.3-.5.2-1.1 0-1.6.3zm6.1 37.3c-.2-.4.1-.8 0-1.1a10.72 10.72 0 01-1-2.2 21.33 21.33 0 01-1.3-4.5 2.07 2.07 0 00-.6-1 1.06 1.06 0 00.2-1.2 3.86 3.86 0 01-.3-2.1 50.45 50.45 0 010-5.5 84.31 84.31 0 00-.3-8.7 12.05 12.05 0 010-1.9 6.73 6.73 0 00-.1-2 2.85 2.85 0 01.4-2.2 10.91 10.91 0 00.6-1.1 2.42 2.42 0 01.8-1.1 6.37 6.37 0 01.7-.2 1.37 1.37 0 00.8-.5 12.25 12.25 0 00.2-1.9 2.8 2.8 0 00-1.6 1.8 5.37 5.37 0 01-1.6 1 3.8 3.8 0 01-2.1-.2 4.29 4.29 0 00.4 2.5 2.57 2.57 0 00-.1 1.5 21.86 21.86 0 01.3 3.6c.1 2.4-.1 4.8 0 7.2a17.7 17.7 0 01.1 2.3 15 15 0 000 3 15.21 15.21 0 01-.3 5.2 15.05 15.05 0 00-1 1.7 17.48 17.48 0 01-1.8 2.9c-.8 1-1.3 2.1-2 3.1.1.3.2.4.5.3a14.58 14.58 0 012.4-3.3c.9-1.1 1.4-2.5 2.5-3.4l.8.3a19.89 19.89 0 011.3 3.4c.1.3.2.7.3 1a30.9 30.9 0 011.4 3.2c-.1-.1.1.1.4.1zm9.1-40.9a.94.94 0 00-.9-.4l-4.4-.6c-3.4-.3-6.8-.7-10.3-.7a6.6 6.6 0 00-1.4.1c-1.4.2-2.8.3-4.3.4a30.07 30.07 0 00-4.2.5 1.59 1.59 0 00-1 .5 2.85 2.85 0 001.4.8 45.82 45.82 0 006.3 1 7.72 7.72 0 001.5.2 68.16 68.16 0 0010.1-.2c1.5-.2 2.9-.3 4.4-.6a4.78 4.78 0 002.8-1zm-6.8 2.4c-2.4 0-4.7.1-7.1 0s-4.8-.3-7.2-.5a10.32 10.32 0 003.4.7c2.8.1 5.7.4 8.5.3a17 17 0 002.4-.5zm-15.1-.6a6.61 6.61 0 00-2.2-.6c-.7-.1-1.3-.5-2-.4a9.63 9.63 0 004.2 1zm5.8 3.6c.4.7.8.9 1.4.8-.2-.7-.7-.6-1.4-.8zm-1.7-1.7c.1.3.1.6.5.6-.1-.2-.1-.6-.5-.6zm.6 1.9c.3.3.3.6.6.4 0-.2-.1-.4-.6-.4zm17-4.4c.1-.1-.1-.1 0 0zm-5.7 1h-.1v.1l.1-.1zm3.8-.2h-.1v.1c0-.1 0-.1.1-.1zM501.2 176.5c.5.4.4.9.5 1.4a28.26 28.26 0 01.2 2.9 2.93 2.93 0 001.6.4 4.42 4.42 0 012.4.7l.4 1.2a2.2 2.2 0 00-.1 1.4c.1 1.8.3 3.7.3 5.5v5c.1 2.3.1 4.5.3 6.8a9.08 9.08 0 00.3 2.3 1.19 1.19 0 01-.1.8 9.1 9.1 0 01-3.8 1.6 29 29 0 01-10.3-.6 3.12 3.12 0 01-2-1.4 17.76 17.76 0 01-.2-4.6c.1-1.1-.1-2.1 0-3.2v-3.1c-.1-2.8-.1-5.5-.2-8.3 0-.5-.1-1.1-.1-1.6a3.74 3.74 0 01.5-1.8 2.65 2.65 0 011.7-.6c-.6.4-1.2.5-1.4 1.1a.63.63 0 00.5.6 5.85 5.85 0 001.9.4 2.35 2.35 0 011.2.2 3.42 3.42 0 00-1.7.3 12.09 12.09 0 00-1.8-.5 2.46 2.46 0 00-.1 1.2 17.39 17.39 0 01.1 3.2c0 1.5.1 3.1.1 4.6 0 .7-.1 1.4-.1 2.1a22.57 22.57 0 01-.1 4.5v.6a9.65 9.65 0 010 1.7 17.71 17.71 0 00.1 2.3 20.43 20.43 0 014.6-1.1l.2-.7c.3.1.3.5.6.6a2.62 2.62 0 001.5-.2v-1.9a11 11 0 01-.2-1.8c.3-.1.1.3.4.2.1-.1-.1-.4.2-.5.2.7-.3 1.5.2 2 0 .7-.5 1.3 0 1.9a4 4 0 001.5.1c.2-.1.2-.3.4-.3.3.2.5.6 1 .2a15.53 15.53 0 00-.5-2.3 2.62 2.62 0 01-.2-1.5 3.14 3.14 0 01.6 1.6 11.7 11.7 0 00.7 2.5c1.3 0 2.6.6 3.9.7-.1-1.2-.3-2.2-.4-3.3 0-1.6-.1-3.2-.1-4.8-.1-2.3-.1-4.7 0-7a8.66 8.66 0 00-.2-3.2 1.72 1.72 0 01-.2-1.2c.3 0 .5-.1.4-.5a.51.51 0 00-.4.5l-1.5.3a12.76 12.76 0 01-3.4.6 3.61 3.61 0 00-1.7.3c0 .4.1.8.1 1.2.4 3 1.2 5.9 1.5 8.8a2.54 2.54 0 00.2.7 27 27 0 01.4 2.8c-.1-.1-.2-.1-.2-.2a32 32 0 01-.7-3.3 8.8 8.8 0 00-.2-1.7c-.2-1-.3-2-.5-3a2.08 2.08 0 00-.5-1.2 2.81 2.81 0 00-.4-2h-.3l-.1-2.1c-.2 0-.3.1-.3.2 0 .4-.1.8-.1 1.2 0 1.7-.1 3.5-.1 5.2 0 .2.1.4-.2.6a.93.93 0 01-.1-.7c.1-1.5 0-3.1 0-4.6 0-.3-.3-.4-.3-.7s.2-.8 0-1.2c-.4-.3-.9-.1-1.3 0-.2.2-.3.5-.6.5l.1-.7c-.1-.3-.5-.1-.5-.4.2-.2.5 0 .7-.2l-.7-.3h1c.4-.3.6-.5.6-.9-.4-.5-1-.4-1.4-.7s-.3-.9-.7-1.1l.3-.3-.2-3.5c.5-.9 1.5-.7 2.3-1.2a24.55 24.55 0 00-.8-2.9 26.82 26.82 0 01-.7-2.7 7.9 7.9 0 00-.7-4.4.46.46 0 01.5-.3c.2 1.1.5 2.3.7 3.4a29.81 29.81 0 001.4 5.9c.1-.1.1-.2.1-.4a39.83 39.83 0 00-1.2-7.7 3.27 3.27 0 010-1.7 17.19 17.19 0 011 3.9c.3 1.4.4 2.7.7 4.1v-7.1a6.72 6.72 0 00.3-2.8l.1-.1c0-.1 0-.1-.1-.2a8.5 8.5 0 00.4-2.2.78.78 0 01.4-.4c.2 0 .2.2.4.3h1.2c-.5.4-1 .1-1.6.4a19.34 19.34 0 00-.6 4.2c.3.3.6.2 1 .1l.4-4.1a5 5 0 01.2 2.1c.1.7-.4 1.3-.3 2.1a22.12 22.12 0 002.5.5 2.35 2.35 0 001.8 1c.3-.4.5-.7.8-1.1a2.19 2.19 0 01.9-1c0 .9-.7 1.5-1.2 2.2a1.16 1.16 0 00.8.6 3.05 3.05 0 011.9 1.6c-.2.4-.6.3-.9.3l.2-.4a2 2 0 00-.8-.8l-.1.4c-.6-.1-.7-.6-1.2-1-.4-.2-1 0-1.4-.4-.3-.1-.4-.5-.7-.5a5.17 5.17 0 01-1.3-.6 3.59 3.59 0 00-1.8.2.78.78 0 00-.4.4c-.2.1-.4-.2-.7.1a10.14 10.14 0 00-.2 2.5v.9c-.2 1.8.1 3.7-.1 5.5.2.2.3.2.5.1.1-.9.2-1.9.3-2.9a24.33 24.33 0 01.3-3.8 3.22 3.22 0 00-.1-1.7c-.1-.2 0-.5-.1-.7a3.55 3.55 0 001.1.3 3.72 3.72 0 012 .7c.3.2.7.3 1 .5l1.5.6a.59.59 0 01.2.5c-.5 0-1-.6-1.7-.3-1 2.2-2.3 4.4-3.5 6.7 1.2.6 1.9.2 2.3.6-.1.1-.4 0-.4.3l.1.1c.2-.1.2-.3.3-.4zm1.3-7.2v.3a1.08 1.08 0 00-.7.2 13.38 13.38 0 00-.9 2.6 11.23 11.23 0 001.6-2.8l.1-.1c-.1 0-.1-.1-.1-.2v-.2c.1-.1.3 0 .2-.3h-.2v.3c-.1.1-.2 0-.2.2zm-1.9-1.3c-.1-.4-.1-.4-.5-.2a.42.42 0 00-.5.2c0 1.1 0 2.4-.1 3.7 0 .3-.1.6-.1.9a12.31 12.31 0 00-.3 3.3h-.1a9.88 9.88 0 001.2-2.8c.4-1.2.7-2.3 1.2-3.5a4.18 4.18 0 00.4-1 .58.58 0 00-.8-.5s0 .3-.1.2zm-1.3 14.5c-.4.2-.4.6-.4 1a1 1 0 00.5.8c.7.2 1.3-.3 2-.6l1 .1c1-.5 2.2-.5 3.1-1.1.1-.3.2-.5 0-.8-1.4-.4-2.8-.8-4.1.3a12.1 12.1 0 01-1.9.1c.3-.3.6-.2 1-.3a2.22 2.22 0 001.1-.5 9.26 9.26 0 00-.2-3.7 3.33 3.33 0 00-2 .1c-.8.7-.9.8-1 1.4a5.4 5.4 0 00.3 2.5c.5-.1.5.4.8.5l-.2.2zm3.9 22c-.2.2-.3.2-.5 0a12.19 12.19 0 00-.7-1.7c-.2-.1-.4-.2-.6 0-.2.4 0 .9-.1 1.3 0 .2-.1.4-.4.3-.3-.5 0-1.2-.3-1.8a2.22 2.22 0 00-1.6-.1l-.5.4a3.67 3.67 0 00-1.8.1c-.4.4-.1 1-.5 1.3-.5-.2 0-.7-.3-1-.1-.2-.3-.2-.6-.2a7.59 7.59 0 01-1.8.6 4.6 4.6 0 00-1.6.7.37.37 0 00-.2.5 3.23 3.23 0 002.1.8c2.5.2 4.9.8 7.5.4.2 0 .1.3.5.3.2-.4.7-.2 1.2-.3l1.6-.3a3.7 3.7 0 001.4-.7.76.76 0 00.3-.9 5.24 5.24 0 00-3.8-1.1c.1.4.7.8.7 1.4zm-6.5-22.4a5.41 5.41 0 00.8-4.1c-.4-.3-.8-.2-1.2-.3l-1.3-.3a3.42 3.42 0 00-.1 2c.1.7-.1 1.4.2 2a3.29 3.29 0 001.6.7zm.6.6c-.4.3-.6.6-.5.9s.3.2.5.1a.75.75 0 00.1-.5 4.31 4.31 0 00-.1-.5zm3.1-5.8c-.3-.5-.6-.3-1-.2-.2.2-.4.3-.2.6a1.09 1.09 0 001.2-.4zm-5 .2a1.63 1.63 0 001.5.2 2.57 2.57 0 01-1.2-.5c-.1 0-.2 0-.3.3zm3.1-10.6l.9-.3v-.1a.75.75 0 00-.9 0c-.2.1-.1.2 0 .4zm-.3 17.3c.1-.3.2-.5-.1-.6-.2.1-.1.3.1.6zm.3-7c-.5.1-.3.3-.2.5zm-1.9 7.4c.2.2.4.2.5 0-.1-.1-.2-.1-.5 0zm1.4-5.8c.1 0 .1-.1.1-.2v-.1h-.1c0 .1-.1.2 0 .3zm7.9 5.6zM109.2 75.6v1.8c.1 1.6.2 3.1.2 4.7a3.33 3.33 0 01-.1 1.4 6.75 6.75 0 00-.2 1.4c-.8.9-2 .9-3 1.5a25.68 25.68 0 01-4.8-.1l-4.1-.6a13.75 13.75 0 01-4.9-1.8 8 8 0 00-1.6-.8 7.72 7.72 0 00-.2-1.5c1-2.3 1.7-4.6 2.5-6.9.7-2.1 1.3-4.2 1.9-6.3.2-.8.3-1.7.5-2.5a8.51 8.51 0 00-.5-2.6 5 5 0 01-.4-1.3c.9-.7 2.1-.6 2.8-1.4 4.8 0 7.6.3 11.4 1.8.7.5.3 1.3.5 1.9a13.36 13.36 0 011.8.7 4.89 4.89 0 011.8 1.4 2 2 0 01.4.8 5 5 0 01-.2 3.4 8.86 8.86 0 00-.8 1.7c-.2.6-.8 1-1.1 1.5-.1.5.6.6.4 1.3-.4.9-1.3.7-2.3.5zm1.9-9.2a.93.93 0 00-1.2-.8 2 2 0 001.2.8zm-1 7a1.21 1.21 0 001.1-.8c.4-.7.7-1.3 1.1-2a3.29 3.29 0 00.4-1.7c0-.2 0-.4-.3-.4a11.09 11.09 0 01-2.3 4.9 1.6 1.6 0 00-.7.9.88.88 0 00.8.9c0-.4-.4-.6-.4-1zm-2 10.6a18.85 18.85 0 01.2-3.3v-.6c-.1-2-.2-3.9-.2-5.9s.1-4.3.3-6.4c.1-1 .1-2 .1-3a.6.6 0 00-.3-.6 12.31 12.31 0 01-3.8.2c-1.2-.1-2.3-.3-3.5-.4a5.9 5.9 0 01-1.4-.2c-1-.6-2-.4-3-.7a.49.49 0 00-.6.3c-.1.4.2.8.3 1.2a4.25 4.25 0 01.2 1.1 25.9 25.9 0 01-1.3 5.5c-.4 1-.7 2.1-1 3.1a45.73 45.73 0 01-1.9 6.3 3.81 3.81 0 00-.3 1.8 6.1 6.1 0 003 1.5 24 24 0 005.3 1.2.9.9 0 01.5.1 5.7 5.7 0 002.2.4 9.81 9.81 0 004.5-.9c.2 0 .4-.2.7-.7zm-12-21.8c.3.1.4.2.5.2a9.46 9.46 0 013.7.8 1.27 1.27 0 00.6.1c1.3.3 2.6.2 3.9.5a4.31 4.31 0 001.6 0c.4 0 .8-.1.9-.6-.1-.2-.2-.4-.4-.4-.6-.2-1.3-.4-1.9-.6a23.32 23.32 0 00-5.9-.8 4.67 4.67 0 00-1.7.3c-.4.1-.7.3-1.3.5zm13 11a7.7 7.7 0 002.3-3.7 2.56 2.56 0 000-2.1 2.06 2.06 0 00-2.1-.8 35.58 35.58 0 00-.2 6.6zm-.7-10.1c-.1-.1-.1-.1-.2-.1v.1zm1 2.3zM434.1 130.3c-.1-.4.1-.6.5-.8.6-.3 1.2-.6 1.9-.9 2.9-1.3 5.7-2.8 8.6-4.2s5.7-2.6 8.6-3.9c2-.9 4-1.8 6.1-2.7a1.71 1.71 0 011.7-.1 23.92 23.92 0 01-.9 4.5l-.9 4.5c-.3 1.5-.6 3.1-.9 4.6l-.9 4.5c-.4 1.5-.4 3.1-.9 4.5-.5.2-.7 0-1.1 0a2.25 2.25 0 00-1.5-1.5c-.9-.4-1.9-.8-2.8-1.2s-2.1-.6-2.7-1.6c-1.4.5-2.4 1.6-3.7 2a2.92 2.92 0 01-.9-.2c-1-1.3-.8-3-1.7-4.6a16.28 16.28 0 00-3.7-1.3 9.38 9.38 0 01-2.8-1 1.8 1.8 0 00-1.2-.3c-.5 0-.7-.1-.8-.3zm21.5-5.9a11.46 11.46 0 00-2.2 2.2c-1.3 1.6-2.6 3.1-3.9 4.6-1.6 1.6-2.9 3.5-4.3 5.2-.1.2-.4.3 0 .6a18.74 18.74 0 011.8-1.2 3.39 3.39 0 001.4-1.5 11.38 11.38 0 011.8-2.5 6.52 6.52 0 001.6-2.1 17.26 17.26 0 011.9-2.8 9.2 9.2 0 001.9-2.5zm-.3-1.2a2 2 0 00-1.4.8 37.92 37.92 0 01-4 3 63.29 63.29 0 00-5.6 4.7c-.2.2-.4.5-.6.7a9.11 9.11 0 00.9 3.6c3.5-4.4 6.9-8.8 10.7-12.8zm4.4-3.3a7.23 7.23 0 00-1.7 2.2 15 15 0 01-1.5 2.5c-2.1 2.7-3.7 5.7-6 8.1a5 5 0 00-1.4 3c2.4.6 4.3 2.1 6.5 2.7.3-.2.3-.5.4-.7l.9-4.5c.9-4 1.6-8 2.7-11.9.1-.4 0-.9.1-1.4zm-2.7.5c-2.6.7-18.6 8.3-20.4 9.6a2.13 2.13 0 001.2.7 39.37 39.37 0 004.7 1 23.26 23.26 0 013.7-2.7c1.2-.9 2.5-1.8 3.7-2.7s2.4-1.9 3.6-2.8a32.46 32.46 0 003.5-3.1zM34.2 143.5a.91.91 0 01-.7.3 12.58 12.58 0 00-2.7.4c-2.1.4-4.1.8-6.2 1-.5.1-1.1.1-1.6.2a4.68 4.68 0 01-1.7.2 4.87 4.87 0 00-1.2.1c-1.6.4-3.2.5-4.8.9a23.25 23.25 0 01-3.7.4c-1 .1-2.1.3-3.1.5-.1.4-.1.8-.3 1 0 .8.4 1.5 0 2.2a3.89 3.89 0 01-1.5.2c-.3-.5-.2-1.2-.4-1.7s-.6-.4-.6-.7v-.6l.5-.1a.37.37 0 00-.5.2h-1c-.3-.2-.3-.4-.4-.6-.3-1.8-.7-3.6-1-5.4-.2-1.1-.4-2.3-.5-3.5 0-.1 0-.1.1-.2a3.37 3.37 0 01.5 1.7c.1 1.8.7 3.6.8 5.4a11.69 11.69 0 00.6 2c.3.3.6.2.9.2a44.63 44.63 0 005.1-.7 4.49 4.49 0 011.1-.1 43.36 43.36 0 005.2-.8 37 37 0 015.8-1c.9-.1 1.7-.3 2.6-.4 1.3-.1 2.6-.5 3.9-.6s2.4-.5 3.5-.7 2-.3 3-.4 2.1-.3 3.2-.5a21 21 0 014.3-.5c.2 0 .3-.1.5-.2a14.16 14.16 0 00-.4-2 13.51 13.51 0 01-.4-2.8c-.1-.7-.2-1.4-.3-2.2-.4-2-.8-4-1.1-6a5 5 0 01-.2-1.2c-.1-.6-.2-1.3-.3-1.9a10.86 10.86 0 00-.4-2.5c-.9-.1-1.7.2-2.6.1a10.14 10.14 0 01-2.5.2.55.55 0 01.6-.4c.7 0 1.3-.1 2-.1.9 0 1.7-.2 2.5-.2.2-.1.2-.3.2-.5.2-.3.6-.2.8-.5a14.15 14.15 0 00-4 .5 10.32 10.32 0 014.2-.7l.1.2c0 .1-.1.3-.2.3s-.2.2-.3.2v.5l-.5.5c.2.8.3 1.7.5 2.6.1.5.2 1 .3 1.6a4.71 4.71 0 00.4 1.7 2.77 2.77 0 01.3 1.3c.3 1.7.6 3.3.8 5 .2 1.3.4 2.6.5 3.9a3.53 3.53 0 00.3 1.4 1.58 1.58 0 01-.1 1.5.9.9 0 00-.1.5 1.5 1.5 0 01-.4 1.1 1.79 1.79 0 01.1 1.6c-.4.1-.7.5-1.3.3-.6-.4-.5-1.1-.7-1.8-.2-.3-.6-.6-.6-1.1a.93.93 0 00-.9 0 25.13 25.13 0 01-2.7.4 16.15 16.15 0 01-3.1.2.35.35 0 01-.2.1.64.64 0 00-.6 0 1.15 1.15 0 00.6 0zm7.8-.5c.1.3.4.4.6.6a3 3 0 00.4 1.1 3 3 0 00-.2-1.6 1.76 1.76 0 00.4-.5l-.2-.3c-.3.1-.6 0-.8.2s-.3.3-.2.5zm-34.7 6.9a1.54 1.54 0 00.2-1.1c-.1-.4.1-.7.1-1.1a2.77 2.77 0 00-1.3.3 8.71 8.71 0 011 1.9z"/><path class="cls-2" d="M32.1 124.9c.1-.3.4-.3.6-.3l1.6-.3a18.81 18.81 0 003.3-.5 3.66 3.66 0 012.3.2 3.07 3.07 0 00-.9 1.4.6.6 0 00.1.4 27.13 27.13 0 01.9 4.1c.2 1 .3 2 .5 3a6.75 6.75 0 01.2 1.4 1.27 1.27 0 00.1.6 29.79 29.79 0 01.9 4.3 1.15 1.15 0 00.6.9 1.18 1.18 0 00.1-.8 17.66 17.66 0 01-.4-2v-.2c.1-1.3-.6-2.5-.7-3.7-.2-1.9-.7-3.8-.8-5.7a15.72 15.72 0 00-.4-2.3c0-.1-.1-.3.1-.4s.2.1.3.2l.3 1.2c.2 1.5.4 3 .7 4.4a27.84 27.84 0 001.1 5c0 .1.1.2.1.4a17.73 17.73 0 00.5 3.2c.1.6.2 1.1.3 1.7a1.68 1.68 0 01-1.1.3 9.85 9.85 0 00-1.7.2c-1.1.2-2.2.4-3.4.6a3.75 3.75 0 01-1.5 0c1.2-.4 2.3-.4 3.4-.7s2.1-.3 3.2-.5c-.1-.4-.4-.4-.6-.6a8.6 8.6 0 00-1.6.1c-.9.3-1.9.3-2.9.7a2.75 2.75 0 01-1.2.2c-.4.3-.4.7-.8.8s-.4-.2-.5-.4a3.09 3.09 0 01-.2-.8c-.1-1-.2-1.9-.3-2.9a10 10 0 00-.8-3.8 1.7 1.7 0 01-.1-.7c-.2-1.9-.7-3.7-1-5.6l-.3-1.8a.85.85 0 010-.7c-.3-.6-.1-.6 0-.6l.2.2c.2.4.7.3 1.1.5.1.1.1.4.5.3 1.4-.7 3.1-.7 4.7-1.2a.55.55 0 00.2-.5c-.3-.1-.7.1-1 .1s-.6.1-.8.1a5.46 5.46 0 00-1.8.1 15.19 15.19 0 01-2.1.3 1.85 1.85 0 00-.7.2zm.1.7c.1.6.2 1.1.3 1.6a5.73 5.73 0 01.4 1.4c.2 1.1.4 2.2.7 3.4a.6.6 0 00.3.6 4.08 4.08 0 00-.1-1.9c-.3-1.3-.6-2.5-.8-3.8a2.51 2.51 0 01.6 1.4 17 17 0 00.4 2.2 6.46 6.46 0 01.4 1.9c0 .1.1.1.1.2h.9l.3.3a1 1 0 01-.2.9c-.2.2-.5 0-.6.2v.3a15.52 15.52 0 00.4 2.1 30.62 30.62 0 01.5 3.2c.1.3.1.7.2 1 1-.2 2-.4 2.9-.6a6.64 6.64 0 011.5-.3c.2 0 .5 0 .6-.2a1.41 1.41 0 00-.1-.9c-.2-1-.4-1.9-.6-2.9-.3-1.3-.5-2.7-.7-4-.1-.8-.2-1.6-.3-2.3a20 20 0 00-.4-2.4c-.1-.3-.1-.7-.2-1a.86.86 0 00-.3-.6 32.62 32.62 0 00-5.3.9l-.3.3c-.1-.4-.1-.9-.6-1zm2.7 15.1c.3 0 .4-.3.6-.5a.9.9 0 01-.1-.5 22.54 22.54 0 00-.6-3.6 4.14 4.14 0 01-.2-1.6c0-.2 0-.3-.3-.4-.2.2-.1.4-.1.7a20.69 20.69 0 01.4 2.2c0 .5.1 1.1.1 1.6a13.61 13.61 0 00.2 2.1zM11.8 130.2a.83.83 0 01.3.8 8.42 8.42 0 00.4 2.7c.1.6.2 1.1.3 1.7.1.4.5.3.7.6.3.5 0 .9-.3 1.3l.3 2.7a21.66 21.66 0 01.4 2.5 23.36 23.36 0 01.4 2.6c-1.2.2-2.3.5-3.4.7l-1.7.3a2.44 2.44 0 01-1.2 0c-.2-.1-.6 0-.8 0a7.72 7.72 0 01-1.5.2c-.4-.3-.4-.8-.5-1.2-.2-1.4-.5-2.8-.6-4.2a32.47 32.47 0 00-.8-4.3c-.2-1.2-.6-2.3-.8-3.5a24.75 24.75 0 00-.6-2.9 1 1 0 011.1-1 12.26 12.26 0 011.9-.2c.1 0 .1 0 .1.2a16 16 0 00-2.1.5c0 .3.3.5.5.6 2-.2 4-.7 6-.8a1 1 0 00.5-.8h-.3a12.28 12.28 0 01-2.7.2c-.4 0-.8.1-1.2.1a23.63 23.63 0 015.2-.9c.2.3-.1.5 0 .9a1.13 1.13 0 01.4 1.2zm-1.6-.3a2.2 2.2 0 00-1.4-.1 6.75 6.75 0 01-1.4.2 9.19 9.19 0 00-3.3.6c-.4 0-.5-.4-.9-.3v.4c.3 1.6.6 3.1.9 4.7.4 2.1.8 4.3 1.1 6.4.1 1.1.4 2.1.6 3.2.1.4.1.8.6.9.3 0 .5-.1.7-.1a7.61 7.61 0 012.1-.3 22.27 22.27 0 003.6-.5c.2 0 .4 0 .5-.2-.2-.4-.6-.4-1-.4l-1.7.3a5.46 5.46 0 01-1.8.1 4.57 4.57 0 00-2 .2 1.38 1.38 0 00-.3.4c-.1.1-.2.3-.4.1a2.34 2.34 0 00.3-1.8l-.3-1.8a22.31 22.31 0 01-.4-2.3c0-.2-.1-.4.1-.6.5 1.8.4 3.7 1 5.4.7.3 1.3 0 1.9 0a3.46 3.46 0 002-.2c.6-.3 1.3-.1 1.8-.4a4.4 4.4 0 00-.2-1.6 7.58 7.58 0 01-.3-1.6 7.77 7.77 0 00-.2-1.6 6.64 6.64 0 00-.3-1.5c-.3-.2-.6 0-.8-.3a.62.62 0 01.1-.7c.1-.2.4-.2.5-.6a9.29 9.29 0 00-.4-1.3 2 2 0 010-1.5 14.2 14.2 0 00.9 2.7c.3 0 .5.1.6-.2a21 21 0 01-.6-2.4l.2-.5a1.35 1.35 0 01-.5-.9 10.07 10.07 0 01-.3-2.5c0-.2 0-.4-.3-.5a1.44 1.44 0 01-.7 1.1zm1.9 7.5c.1.6.1 1.2.2 1.8a6.75 6.75 0 00.2 1.4 13.57 13.57 0 01.6 2.9c0 .1.1.2.1.3.2.1.3.4.7.4v-.5c-.3-2-.7-4-1-6a.52.52 0 00-.2-.4c0-.1-.1-.1-.1-.2a2.18 2.18 0 00-.5.3zM31.8 141.1c-.1-.8-.2-1.5-.3-2.2v-.2a15.53 15.53 0 01-.8-3.6c0-.1-.1-.2-.1-.3a1.11 1.11 0 01-.9-.7c-.1-.6.3-.6.6-.8.1-.6-.3-1.2 0-1.9.3 0 .3.3.4.5.1.4.1.9.4 1.2l.3-.1a7.43 7.43 0 00-.3-2.6 20 20 0 01-.4-2.4l-.3-1.5a1.7 1.7 0 01-.1-.7c0-.2 0-.2.3-.7a7.51 7.51 0 01.5 2.6 18.43 18.43 0 00.5 2.5 11.71 11.71 0 01.4 2.6c.1.2.4.3.6.5s.1.3.1.6l-.4.6v.3c.2 1.1.4 2.2.5 3.4a4.51 4.51 0 00.3 1.1 10.79 10.79 0 01.3 1.9 1.08 1.08 0 01-.2.8 7.46 7.46 0 01-2.6.4c-.8.2-1.7.3-2.5.5a11.78 11.78 0 01-2.5.4.91.91 0 01-.3-.8 16.35 16.35 0 00-.2-2.2c-.2-1-.2-2-.3-3a5.85 5.85 0 00-.2-1.3c-.3-1.6-.6-3.2-1-4.7a8.52 8.52 0 01-.3-2.3 8 8 0 00-.3-1.5 1.73 1.73 0 01-.1-1 .6.6 0 01.6-.3 18.46 18.46 0 012.3-.4 8.47 8.47 0 001.7-.4 5.85 5.85 0 011.3-.2.88.88 0 01.8.2 16 16 0 01-2.1.5 14.35 14.35 0 01-2.2.4 6.45 6.45 0 00-2 .3 1.06 1.06 0 00-.1.8 38.58 38.58 0 001.2 5.7 12.82 12.82 0 01.5 2.7 16.28 16.28 0 01.3 3.1v.4a10.68 10.68 0 01.3 2.5 1.85 1.85 0 00.2.7c.4-.1.5-.5.7-.7l-.3-2.3c.3-.1.3.1.3.3.1.4.1.8.2 1.2a1.8 1.8 0 00.4.9 5 5 0 002.1-.1 10.66 10.66 0 012.7-.7zm-5.7 1.9c2.1-.3 4.2-.9 6.4-1.2a1.74 1.74 0 00-1.4-.3 34.68 34.68 0 01-4.5.6c-.2.1-.3.4-.5.6a.19.19 0 010 .3zm5.6-8.4l-.5.1a59.81 59.81 0 001.2 6.1c.1-2.1-.6-4.1-.7-6.2zM23.3 142.7a1.49 1.49 0 00.9.4.76.76 0 01.2.4s-.1.2-.2.2a17.42 17.42 0 01-2.2.5c-1.8.3-3.6.5-5.4.8-.3 0-.6.1-.8 0s-.1-.3-.1-.4c-.2-.9-.3-1.9-.5-2.8a7.72 7.72 0 01-.2-1.5 18 18 0 00-.6-3.2l-.4-.4a1.39 1.39 0 010-.9 3.79 3.79 0 000-1.5 6.08 6.08 0 01-.3-2.3c0-.2-.1-.4-.1-.6-.2-.7-.3-1.4-.5-2.1a1.73 1.73 0 01.1-1l-.3-.3c0-.1.1-.1.1-.2a11.23 11.23 0 013.2-.4c.1.3-.1.3-.3.3l-2 .3c.4.4.9.5 1.1 1a1.45 1.45 0 00-.1 1.1 31.05 31.05 0 01.8 4.2 2.25 2.25 0 01.1.7c.2.5.6.4.7.6a1 1 0 01.2 1 .73.73 0 01-.6.2.31.31 0 00-.1.2 5 5 0 00.2 1.2 15.44 15.44 0 01.5 3.1 15.17 15.17 0 00.3 2.1 2 2 0 001.1-.1 12.76 12.76 0 013.4-.6 1.8 1.8 0 001-.2.75.75 0 00.1-.5c-.3-1.5-.5-3-.8-4.5-.4-1.9-.8-3.9-1.1-5.9a20 20 0 00-.4-2.4c.3-.1.3.1.4.2a7.51 7.51 0 01.5 2.6c0 .3.1.6.1.8a10.47 10.47 0 01.5 3c0 .3.1.5.1.7a28.17 28.17 0 01.7 3.1c.1.7.3 1.4.4 2a2.28 2.28 0 01.3 1.1zm-6.9-2a1.88 1.88 0 01-.2-.8c-.1-1.1-.5-2.1-.6-3.1a.38.38 0 00-.6 0 10 10 0 00.4 2.4l.3 2.4a21.66 21.66 0 00.4 2.5c.6-.4.6-.5.5-1.1a4.24 4.24 0 01-.2-2.3zm.4 3.8c.1 0 .2.1.3.1 2-.3 4-.7 6-1 .1 0 .2-.1.3-.2a1.2 1.2 0 00-.5-.5 18.93 18.93 0 00-5.6.8 1.58 1.58 0 00-.5.8zm-2.2-9.2c.4 0 .5 0 .7-.3a34.41 34.41 0 00-1-6.3c-.3-.1-.4-.3-.7-.3a.37.37 0 00-.1.3c.5 2.2.8 4.4 1.1 6.6zm.3.5c-.1-.1-.1 0 0 0zM58.4 42.4a2.2 2.2 0 00-.1-.8c-.3-1-.5-1.9-.8-2.9a2.23 2.23 0 00-1.4 0 23.49 23.49 0 01-5.3 0 21.36 21.36 0 01-3.5-.6c-.2-.1-.4-.1-.5-.3s.2-.3.4-.4a19.68 19.68 0 012.4-.3c1.3-.1 2.6-.2 3.9-.4a15.07 15.07 0 013 .1 1.14 1.14 0 01.8.3c.3.3.8.2 1.1.3a2.84 2.84 0 01-.4 1.2c1.4 3.1 1.9 6.5 3 9.8.1.3.4.3.6.5a.82.82 0 01-.1.7.19.19 0 00.3 0 8.65 8.65 0 001-.7c.3 0 .5.1.5.3s-.3.5-.5.7a9.43 9.43 0 01-2.3 1 41.73 41.73 0 01-6 1 19.27 19.27 0 01-2.4.1 3.46 3.46 0 00.2 2 15.06 15.06 0 01.2 3.7 17.75 17.75 0 00.2 3.3c0 .5-.5.5-.6.8s.2.6.2.9c-.2.3-.6.6-.6 1a.82.82 0 00.5.5 2.77 2.77 0 01.1.9l-.4.1c-.5-.4-.4-1.2-1-1.5.1-.6.5-.9.7-1.3.2-1.2.8-2.4.7-3.8a4.31 4.31 0 01-.4-2.3v-4.2c-.2-.3-.4-.4-.7-.3a6.47 6.47 0 00.1 2.4 9.79 9.79 0 01-.1 3.4c-.5.1-1 .2-1.2-.3 0-.5.5-.6.8-1a13.6 13.6 0 00-.1-4.5 1.68 1.68 0 00-1.1-.3c-1.1-.1-2.2-.2-3.3-.2a1.66 1.66 0 01-1.2-.5c-.3-.3-.7-.2-1-.3a.8.8 0 01.9-.2 31 31 0 006.8.2h.7l-.1.4c2.4.2 6.3-.6 8.1-1.9a1.8 1.8 0 00-.3-1.2c-.5-1.1-1-2.2-1.4-3.2a2.54 2.54 0 01-.3-1.5h.4c-.1 0-.3-.4-.5-.7zm-10.3-4.7c1.7.8 7.1.9 8 .3l.1-.4c.2-.2.6.1.8-.2a3.19 3.19 0 00-1.9-.3c-1.8 0-3.5.4-5.3.5-.4 0-.9.1-1.7.1zm.6 13.5h2.8a6.61 6.61 0 00-2.8 0zm10.4-7zM48.5 68.8c.4.4 1 .2 1.5.4a5.75 5.75 0 00-2.6.5.6.6 0 00.4.7 4.48 4.48 0 001.9.5 24.11 24.11 0 003.8 0c.1 0 .2-.1.3-.2a9.59 9.59 0 004.1-.7 2.43 2.43 0 001.4-1c-.3-.2-.4 0-.6.1-1-.5-2.1-.3-3.2-.7.1-.1.1-.2.2-.2a19.31 19.31 0 014.2.4c.5.2 1.1.3 1.3 1a6.58 6.58 0 00-.4 1.5 14.51 14.51 0 01-7.1 1.6 10.87 10.87 0 00-1.8.1 17 17 0 01-4.5-.2c-.2 0-.3-.1-.4-.3h2.4a44.79 44.79 0 007.3-.5 4.38 4.38 0 001.9-.7c-2 .1-3.7.3-5.4.4a43.42 43.42 0 01-5.1.1l1.2-.4c-1-.3-2-.1-2.8-.7-.3-.2-.6-.2-.9-.5s-.2-.6 0-.9a.83.83 0 01.8-.3c.1.4-.4.4-.3.6s.1.4.3.4l.9-1.2a1.09 1.09 0 001.2.2zm11.1 1.1c-.2.1-.5.2-.4.5.3.1.5.1.7-.3zm.9-.3c0-.1-.1-.1-.1-.2s-.1 0-.1.1v.1c.1.1.1.1.2 0zm-1.1 1.5z"/><path class="cls-2" d="M.5 128l.5.5.5.1a.37.37 0 01.1.3 14.87 14.87 0 00.5 3.6 5.66 5.66 0 01.3 1.8 4.53 4.53 0 00.3 1.6 3.55 3.55 0 01.2 1c-.3 0-.3-.2-.3-.3a5 5 0 01-.2-1.2c-.1-.4-.1-.8-.2-1.1a15.28 15.28 0 01-.7-3.6c-.1-.4 0-.9-.1-1.3-.2-.2-.5-.1-.8-.3-.1-.3-.2-.6-.6-.6a1.15 1.15 0 011-.8 10.86 10.86 0 012.5-.4c1.1-.1 2.1-.3 3.2-.5a14.69 14.69 0 012.9-.5 18.65 18.65 0 002.5-.4c2-.4 4.1-.6 6.1-.9l3-.6c.9-.2 1.9-.3 2.8-.5 2.3-.4 4.5-.8 6.8-1.1l4.1-.6c0 .3-.2.3-.4.4-1 .1-1.9.4-2.8.4-1.9.1-3.7.6-5.6.8-1.5.2-3.1.5-4.6.8a48.9 48.9 0 01-5.3.9 56.2 56.2 0 00-5.7.9c-.4.1-.8.1-1.2.2-.9.2-1.9.3-2.8.5-1.2.2-2.3.4-3.5.5a9 9 0 00-1.6.3.72.72 0 00-.9.1z"/><path class="cls-2" d="M23.6 140.1a16.55 16.55 0 01-.6-2.1l-.6-3c-.1-.7-.3-1.5-.4-2.3-.2-1.6-.5-3.3-.8-4.9 0-.1-.1-.2-.1-.3-.4.1-.6.5-.9.7a21.85 21.85 0 00-3.6.3 5.86 5.86 0 013-.6 2.18 2.18 0 00.4-.5.62.62 0 00.3-.5c-1.2-.1-2.4.4-3.7.2 0-.2.2-.2.3-.2 1.3-.3 2.7-.3 4-.6a.76.76 0 01.4.1 8.56 8.56 0 00.5 2.3 7.58 7.58 0 01.3 1.6c.1 1.2.4 2.4.5 3.7s.4 2.4.6 3.6a10.86 10.86 0 01.4 2.5zM506.9 160.4l-.5-.7a.66.66 0 00.6.1l.3-.3.3.3a12.64 12.64 0 012.6 1.3 1.91 1.91 0 001 .5 1.08 1.08 0 00-.2-.8c-.8-.2-1.3-1-2.2-1.5-.5.2-1-.2-1.5.1-.6-.3-.7-.3-.9.2l-.5.2c-.4-.3-1-.4-1.2-1a20.78 20.78 0 014.3.1 4.18 4.18 0 011.2.8l1 .4c.3.4.1.8.5 1.2l.7.4a1.49 1.49 0 01.3 1.4c-.7-.1-.9-.8-1.2-1-1.1-.6-2.2-.4-3.1-.7-.6.2-.6.8-1.1 1 0-.6.6-1 .7-1.5s-.4-.6-.4-.9a2.51 2.51 0 00-.7.4zM496.2 151.7h-2.1a2 2 0 011.5-.8c.4-.1.5.2.6.3a.91.91 0 001.1-.3 2.62 2.62 0 01.9-.5c.3-.1.5-.1.7.2a1.66 1.66 0 00-1.5.8c.8.1 1.6.3 2.2-.2a8.92 8.92 0 002.2.3c.2 0 .3 0 .4.1a4.31 4.31 0 002.2.4h-.1a1.78 1.78 0 00-.8-.7c-.3-.1-.6-.1-.7-.5l.1-.3a.86.86 0 00-.6-.3c-.5.1-1 .3-1.5.4a2.34 2.34 0 01-2-.1 2.85 2.85 0 011.3 0c.5-.2 1-.3 1.4-.5a1.76 1.76 0 011.9.5 4.63 4.63 0 001.8 1.3 2.84 2.84 0 011.1.8 3.06 3.06 0 01-1.9-.2 14.62 14.62 0 00-2.2-.3c-.2-.3-.6-.2-.9-.3-.2-.2-.5-.1-.7 0-.1.1-.2.2-.4.1a5.72 5.72 0 01-.7-.4c-.3.2.1.5-.1.7a3 3 0 01-1.5-.7 1.41 1.41 0 00-.9.1.47.47 0 01-.8.1c.1-.1.3.1.4-.1-.2-.2-.3 0-.4.1zm-.7-.3c-.1-.2-.2-.2-.4 0 .2.1.3.1.4 0zM494.9 159.3c.5-.2 1-.2 1.4-.6a1.49 1.49 0 011-.3 6.73 6.73 0 012 .1 1.13 1.13 0 00.8-.1c.5-1.7.3-3.6.8-5.6a1 1 0 01.1.9 7.84 7.84 0 00-.2 2.2 6.88 6.88 0 01-.2 1.3 4.87 4.87 0 00-.1 1.2l.8 1a5.08 5.08 0 012.6 1.9.45.45 0 01-.7.2c-.7-.2-1.6-.2-1.9-1.1-.9 0-1.7-.6-2.5-.7-.3-.1-.4.2-.6.2a.68.68 0 01-.6-.4.22.22 0 01.2-.2 14.19 14.19 0 012.2.5 2 2 0 001.1.1l-.8-.9a19 19 0 00-3.4-.1 3.48 3.48 0 01-1.7.6c-.1-.1-.2-.2-.3-.2zm7.2 1.4a3.93 3.93 0 00.6.2l.1-.1c-.1-.2-.3-.2-.7-.1zM46.3 40.2a11.32 11.32 0 01-.6 3.6c-.5 1.9-1.1 3.7-1.7 5.5-.2.4-.6.3-.6.6-.2.2.1.4 0 .6s-.4.2-.5.1c-.5-.9.2-1.7.2-2.6a6.52 6.52 0 01.8-2.6l.2.9a.75.75 0 00.4-.7l1.2-4a5.91 5.91 0 01.6-1.4zM53.9 70.8l-.4-.1a9.31 9.31 0 01-.1-2.9c0-1-.2-1.9-.3-3a13.92 13.92 0 01.6-1.3l-.6-1 .6-.5c.1-.5-.5-.8-.4-1.4.1-.4 0-.9.1-1.4.1.1.2.1.2.2a6 6 0 00.6 2.3c.2.3-.1.7 0 1s.6.5.7 1a4.81 4.81 0 01-1.2 1.6c0 .9.4 1.7.2 2.4.1.4.4.4.6.5l-.3.3-.3 2.3zM23.9 127.3c1.7-.4 3.4-.7 5.1-1 .1 0 .2 0 .2.2a1.8 1.8 0 01-1 .2c-1.1.1-2.1.3-3.2.5a.76.76 0 00-.5.2c-.2.2-.1.4 0 .6.2.7.3 1.4.5 2a12.61 12.61 0 01.5 2.8c-.4-1.8-1.1-3.6-1.6-5.5zM55.6 41.7a6.52 6.52 0 01.8 2.2 50.41 50.41 0 011.1 5.6v.3c-.1.2-.3.2-.5.1-.2-.9-.3-1.8-.5-2.8-.3-1.4-.5-2.8-.7-4.2-.1-.4-.1-.8-.2-1.2zM35.1 123.5a2.66 2.66 0 01-1.2.3c-.9 0-1.8.2-2.7.2a11.56 11.56 0 00-3.7.7.88.88 0 01-.7.1c0-.3.2-.3.4-.3a34.31 34.31 0 013.4-.6c1.3-.2 2.7-.2 4.1-.3.1-.3.3-.3.4-.1z"/><path class="cls-2" d="M494.9 159.3c-.2.2-.3.4-.2.6a14.34 14.34 0 01.7 2.8c0 .1.1.1.1.2l-.1.1a1 1 0 00-.9.2c-.2.1-.5.3-.7.2.2-.4.7-.5.9-.9a20.15 20.15 0 00-.7-2.3l-.6-2.4c.4-.3.5 0 .6.2a3.31 3.31 0 00.9 1.3zM58.8 49.6h-.4l-.2-.2-1.5-6.6c0-.1 0-.2.1-.2a1.37 1.37 0 01.5.8 40.1 40.1 0 011.5 6.2zM233.9 331a.62.62 0 01.2.7 5.75 5.75 0 01-3.4.6c0-.1 0-.3.2-.3a11.66 11.66 0 012.6-1c.1-.2.3-.1.4 0zm-1.1.4zM26.3 124.7a12.22 12.22 0 01-2.6.6h-.4c-1.1.1-2.2.3-3.3.4a2.85 2.85 0 01-1.3 0 .76.76 0 01.4-.2c.9-.1 1.8-.1 2.6-.2.3 0 .7-.1 1-.1 1-.2 2-.4 3-.5.2-.1.4-.2.6 0zM54.4 44.4a26.61 26.61 0 011.2 5.6.52.52 0 01-.2.4c-.1 0-.2 0-.2-.1a15.93 15.93 0 01-.8-5.9zM496.8 154.7a2.17 2.17 0 01-1.4 1.4v-.4c-.8.3-1.3.9-2.1 1.1a3.55 3.55 0 00-1 .2 1.39 1.39 0 01-1.1.2c.1-.3.4-.5.8-.8a3 3 0 002.6-1.1h1.1c.5-.1.6-.6 1.1-.6zM53.4 52.4c.5 1.5.7 5 .3 6-.1 0-.3-.1-.3-.2a1.27 1.27 0 01-.1-.6 25.49 25.49 0 00-.2-3.9 2.77 2.77 0 01.3-1.3zM250.9 326a1 1 0 01.5-.4l6-1.8h.2c.1.2-.1.3-.2.3-2.1.6-4.2 1.2-6.2 1.8a.37.37 0 01-.3.1zM495.5 164.4h-.4l-.1-.1a1.23 1.23 0 01.8-.4c.3-.1.6-.2.7-.5-.3-.2-.7 0-1-.3l.1-.1a7 7 0 012.5.1v.3a1.84 1.84 0 01-1.2.5c-.7.3-1 .9-1.5 1.3-.1-.4.1-.6.1-.8zM26 138.6c-.2-1.3-.4-2.7-.6-4a2.16 2.16 0 01.1-1.1l.2.2c0 .1.1.2.1.3a23.15 23.15 0 00.5 4.6zM52.1 66a6.79 6.79 0 01.7 3.9.6.6 0 01-.7 0 25.39 25.39 0 010-3.9zM263.9 326.4a20 20 0 014.5 2.5 16.63 16.63 0 01-4.5-2.5zM50.4 50.1a.35.35 0 01-.2-.1.9.9 0 01-.1-.5c0-1.1.2-2.3.3-3.4a.68.68 0 01.4-.6c-.1 1.5-.2 3-.2 4.4a.22.22 0 01-.2.2zM249.4 329a12.09 12.09 0 001.8-.5 4.19 4.19 0 011.6-.4c-.7.6-1.7.6-2.4 1.2-.7-.2-1.3.5-2.1.5.2-.5.8-.4 1.1-.8z"/><path class="cls-2" d="M491.2 157.2a8.51 8.51 0 00-1.7.6.64.64 0 01-.9-.1c-.1-.4.3-.4.5-.6l.1.1.1.3 1.1-.4c.2-.3 0-.4-.2-.6l.2-.7a.76.76 0 01.5-.2l-.1.4h.4c0 .3-.3.6-.2 1 0 .2.1.2.2.2zM490.9 166.2c-.2.2-.5.2-.8-.1a2.44 2.44 0 01.9-1.1 13.09 13.09 0 002.4-1.7c.2 0 .3 0 .3.2a8.62 8.62 0 01-2.4 1.7c-.2.1-.2.6-.6.7l.2.3zM494.3 154.7c.1-.4.5-.5.9-.7s.9-.3 1.4-.5a2.23 2.23 0 002.1 0c-.2.7-.2.7-.9.9a.37.37 0 01-.1-.3l-1.1-.2a6.19 6.19 0 00-1.9.7c-.1.1-.3 0-.4.1zM49 49.2c-.2.3-.3.6-.6.7a.22.22 0 01-.2-.2 15.29 15.29 0 01.7-2.9c.4 0 .3.3.3.4a15 15 0 00-.2 2zM46.8 44.7a2.77 2.77 0 01-.1.9c-.2 1.2-.5 2.5-.7 3.7-.1.3-.1.6-.5.6-.1-.1-.2-.2-.1-.4a26.81 26.81 0 00.7-2.7 5.79 5.79 0 01.7-2.1zM30.1 131.1a6.9 6.9 0 01-.5-3.2 1.31 1.31 0 01.3 1 3.4 3.4 0 00.1 1c.1.4.3.7.1 1.2zM52 45.6a23.56 23.56 0 010 4.6.35.35 0 01-.4-.4c.2-1.4.2-2.8.4-4.2zM243.3 332.5a2 2 0 01-.8-.1 18.61 18.61 0 01-2.5-1c-.3-.2-.7-.3-.8-.7a3.18 3.18 0 01.9.3 10.91 10.91 0 002.7 1.1c.1.2.3.2.5.4zM6.1 128c-1.3.4-2.7.2-4 .6a9.3 9.3 0 014-.6zM11.5 126.9a13.09 13.09 0 014.1-.6l-.1.1a1.48 1.48 0 01-.7.1c-1.1 0-2.2.3-3.3.4z"/><path class="cls-2" d="M494.3 154.7a7.22 7.22 0 00-2 .9c-.4.3-.9.1-1.3.4h-.1v-.4c.6-.4 1.5-.3 2.1-.9zM494.6 165.4c-.4.1-.6-.1-.8.1s.2.3.1.5h-.7c-.1-.3-.2-.6-.4-.7a1.46 1.46 0 01.9-.6c.1.3.5.4.9.7zM246.3 331.6a14.19 14.19 0 013.3 1.3.88.88 0 01-.7-.1c-.7-.3-1.4-.5-2.1-.8a.51.51 0 01-.5-.4zM53 48.1a3.51 3.51 0 01.5 2c-.6-.5-.4-1.3-.5-2zM250.7 333.4a6.64 6.64 0 012 .6 2.67 2.67 0 01-2-.6zM245.7 333.4c.7-.1 1.2.4 1.8.6a2.21 2.21 0 01-1.8-.6zM16.1 126.1a6.47 6.47 0 012-.4 3.44 3.44 0 01-2 .4zM35.4 122.2l1.9-.4a3.81 3.81 0 01-1.9.4zM10.7 127.1l-1.6.3v-.1l1.6-.2zM46.5 70.8l.1.9c-.6.2-.6.2-.7-.6.1-.4.4-.3.6-.3zM262 325.3a2.72 2.72 0 011.5.9 2.28 2.28 0 01-1.5-.9zM495.4 156.1a3.45 3.45 0 01-1.2 1.2c-.1 0-.2-.2-.2-.3a2.63 2.63 0 011.4-.9zM243.3 332.5a3.72 3.72 0 012 .7c-.8-.1-1.5-.1-2-.7zM23.8 141.1a3.19 3.19 0 01.3 1.4 1.74 1.74 0 01-.3-1.4zM497.5 160.2c-.4-.1-.7-.1-.9-.3.5-.3.5-.3.9.3zM506.7 163.6a2.07 2.07 0 01-1 1.4 3.31 3.31 0 011-1.4zM243.3 330.3a2.13 2.13 0 011.5.7 3 3 0 01-1.5-.7zM268.7 327.1a2.13 2.13 0 01-1.5-.7 2.63 2.63 0 011.5.7zM235 326.5a2.05 2.05 0 01-1.1 0c.2 0 .3-.1.5-.1a1.27 1.27 0 01.6.1zM253.7 330.3a2.6 2.6 0 011.5.4 2.15 2.15 0 01-1.5-.4zM248.9 334.5a1.68 1.68 0 01-1.1-.3c.5 0 .9 0 1.1.3zM490.9 166.2a5.22 5.22 0 011.1-.8 1.08 1.08 0 01-1.1.8zM139.6 330.8a1.78 1.78 0 011-.4c.2.1.2.3.3.4h-1.3zM249.6 332.9a1.5 1.5 0 011.1.4 1 1 0 01-1.1-.4zM253.3 334.1c-.3-.1-.3-.3-.3-.5.4 0 .4.2.3.5zM506.7 163.6a1.11 1.11 0 01.7-.9 1.32 1.32 0 01-.7.9zM49.3 44.7c-.1.4.1.8-.2 1.4a3 3 0 01.2-1.4zM7.9 127.6a.44.44 0 01.5-.1.75.75 0 01-.5.1zM244.8 331a.83.83 0 01.8.3c-.4.1-.7 0-.8-.3zM8 146.2c-.2.1-.4.2-.5.1.1-.2.2-.2.5-.1zM50.7 44.4a.64.64 0 010-.6.37.37 0 010 .6zM52.9 46.5a.63.63 0 01.1.7c-.2-.2-.1-.4-.1-.7zM489.1 157.1a.75.75 0 01.7-.6 1.06 1.06 0 01-.6.7zM49.9 68.7h-.5c.2-.3.4-.1.5 0zM257 331.4c.3.1.4.2.3.6l-.3-.6zM49.3 44.7V44c.2.3.2.5 0 .7zM267.2 326.4c-.2 0-.4 0-.5-.2a.37.37 0 01.5.2zM271.8 326.2h-.6a.37.37 0 01.6 0zM58.4 43.5a1.93 1.93 0 01-.3-1h.3v1zM274.4 326.8a.93.93 0 01-.7-.1.82.82 0 01.7.1zM46.8 44.7c0-.2-.1-.5.1-.7.2.3 0 .5-.1.7zM239.2 330.8a.66.66 0 01-.7-.2c.2 0 .5-.1.7.2zM56.5 41.5c.1 0 .1.1 0 0zM15.8 128.7c0-.1.1-.1.2-.1 0 .2-.1.2-.2.1zM256.3 331.1h-.2v-.1c.1 0 .2 0 .2.1zM269.4 327.3a1 1 0 01-.7-.2 1 1 0 01.7.2zM270.4 327.6c-.1.1-.2.1-.2 0a.14.14 0 01.2 0zM264.2 325.3l.4.1c-.3.1-.3 0-.4-.1zM269.8 325.7zM250.9 326c-.1.1-.2.2-.4.1.1-.2.3-.1.4-.1zM499.9 152.7c.2 0 .3 0 .4.2-.3.1-.4-.1-.4-.2zM253.7 330.3h-.4c.2-.2.3-.1.4 0zM247.4 330.1a.73.73 0 01-.6.2c.1-.2.4-.2.6-.2zM252.2 329.9h.5c-.3.3-.4.1-.5 0zM45 51.1c-.1.1-.2.3-.5.1a.51.51 0 01.5-.1zM502.4 152.2c-.1.2-.3.2-.5.2.2-.2.4-.1.5-.2zM55.6 41.7a.76.76 0 01-.2-.5c.3.1.2.3.2.5zM229.8 328.7h-.2c0-.1.1 0 .2 0zM494 157c-.2-.1-.5 0-.7-.2a.62.62 0 01.7.2zM46.3 40.2l.1-.3c.1.2-.1.2-.1.3zM494.6 164.7c.1-.2.2-.3.4-.3l.1.1c-.1.2-.3.2-.5.2zM268.3 325.3zM273.1 326.5c-.1.1-.1 0 0 0zM57.5 40.7v-.1h.1l-.1.1zM269.4 327.3h.2a.14.14 0 01-.2 0zM264.2 325.3h-.3c.2-.1.2 0 .3 0zM502.2 166.1c.1-.2.2-.2.3-.1s-.1.2-.3.1zM238.5 330.5c-.2 0-.3 0-.4-.2a.76.76 0 01.4.2zM255.2 330.8l.3.1c-.2 0-.2-.1-.3-.1zM29.5 127.3v-.1.1zM57.8 41.5v-.1.1zM242.9 330.1l.4.2a.52.52 0 01-.4-.2zM237.6 330.1c.2 0 .3 0 .4.2a.4.4 0 01-.4-.2zM47.2 43.2h-.1l.1-.1v.1zM246.3 331.6h-.3c.2-.2.2 0 .3 0zM506.4 169.6c-.1.3-.3.1-.5 0h.5zM247.4 330.1c.1-.1.1-.2.2-.1s-.1.1-.2.1zM252.2 329.9l-.3-.1c.2-.1.2 0 .3.1zM245.2 333.2c.2 0 .4.1.4.2a.4.4 0 01-.4-.2zM58.2 42.4l-.1-.2c.1 0 0 .2.1.2zM47.1 72.5a.37.37 0 01-.3-.1c.1 0 .2.1.3.1zM246.7 330.3v.1l.1-.1h-.1zM506.9 160.4a.22.22 0 01.2.2l-.2-.2zM248.9 334.5zM505.9 169.6a.22.22 0 01-.2-.2.21.21 0 01.2.2zM495.3 170.4h-.1v.1l.1-.1zM493.7 163.5zM398.4 34.5q-.3-.15 0-.3l.1.1c0 .1 0 .2-.1.2z"/><path class="cls-2" d="M398.7 34.8l-.3-.3h.3v.3zM398.9 35.1c-.1 0-.2-.1-.2-.3h.3l-.1.3zM399.2 35.1c-.1.1-.2.2-.3 0 .2-.1.2-.1.3 0zM48.6 68.8v-.1l-.1.1h.1zM490.8 155.6c.1-.1.1-.1.2 0h-.2zM499.9 152.7a.22.22 0 01-.2-.2l.2.2zM233.1 328.6l-.1-.1v.1h.1zM501.7 303.7l-.1.1v-.1h.1zM502.7 304h-.1l.1-.1v.1zM506.8 300.2a5 5 0 00-1.4-.8 1.06 1.06 0 010-1.4 17 17 0 012.4-.9c.8-.2 1.6-.3 2.5-.5a4.42 4.42 0 012 .2.75.75 0 01.6.7c-.8 1.2-3.3 2.3-6.1 2.7zm4.7-2.7c-1.4.4-2.8.7-4.2 1.1v.1c.7.5.7.5 1.2.4a7.89 7.89 0 003-1.2v-.4zm-4.5.7h.4a.3.3 0 00-.4 0zM498.9 299.3a.55.55 0 01.5-.3.91.91 0 01-.5.3zM506.4 294.2a3.37 3.37 0 01-1.7.5.76.76 0 01-.5-.2c.7 0 1.4-.3 2.2-.3zM506.4 294.2a.72.72 0 01.8-.2c-.2.5-.5.2-.8.2zM503.2 320.3a2.63 2.63 0 01-1.2-.1 1.26 1.26 0 011.2.1zM526.7 300.6c-.2 0-.4 0-.5.3-.1-.4-.1-.4.5-.5zM527.7 299.8l-.5.3zM527.2 300.1a.55.55 0 01-.5.3c0-.3.3-.3.5-.3zM522.6 302.1h-.5c.1-.2.3-.2.5-.3zM498.3 311.7c-.1-.1-.2-.2-.1-.4l.1.4zM519.6 320.8h-.5a.67.67 0 01.7-.4zM519.1 321.1h-.5c.1-.2.3-.2.5-.3zM472.6 61.2c-.4-.2-.2-1-.9-1 .5-.6-.1-1.1-.1-1.6.4 0 .4.3.5.5l.3.6c.5.4 1 .2 1.5.1a27.42 27.42 0 012.8-.5 7.57 7.57 0 011.5-.1c-.2.3-.4.2-.7.2-.5.1-.9.1-1.2.4-.1.5.3.6.8.7-.8.3-.2.8-.5 1.2a2.47 2.47 0 01-.8-1.6c-1.1-.3-2 .2-2.9.2-.4.3-.3.6-.3.9zM477.7 66.8c-.4.3-1 .2-1.5.4a4 4 0 00.4 2.4v1.1c-.4.1-.4-.2-.5-.4l-.3-2.1a1.4 1.4 0 00-.3-.9.84.84 0 00-.7-.2l.9-.5c.6.3 1.3.1 2 .2zM472.6 61.2c.3.2.3.5.4.8.2 1.2.5 2.4.6 3.7 0 .1-.1.1-.2.2-.4-.5-.1-1.3-.4-1.6s-.6-.2-.8-.3c.1-.3.5-.1.6-.4.2-.9-.4-1.6-.2-2.4zM482 58.4a.76.76 0 01-.5.2.75.75 0 00-.7.5 1.29 1.29 0 00-1.2-.1 2.2 2.2 0 01-1.4.1c.1-.1.1-.2.2-.2a13.61 13.61 0 013.6-.5zM476.1 63.2l-.7.4c-.3.4 0 .8-.1 1.3-.3-.5-.2-1.2-.7-1.4a.71.71 0 01.6-.3zM484.7 57.1a7 7 0 012.5-.5 4.51 4.51 0 01-2.5.5zM480.7 59.2c.3.3.6.6.3 1l-.7-.1c.1-.3.4-.6.4-.9zM471.8 69.9c.4-.4.6-.3.8-.2-.1.4-.4.3-.8.2zM476.9 58.2c.4-.4.9-.2 1.4-.1l-1.4.1zM477.7 60.3c.3-.2.5-.1.8-.1 0 .2-.2.2-.3.2s-.3.1-.5-.1zM475.9 65.6c-.2.2-.4.2-.5-.1.2-.1.4-.1.5.1zM470.7 60.2a.19.19 0 01.3 0v.1c-.1.1-.2 0-.3-.1zM480.7 64.5c.1-.1.2-.2.4-.1-.1.1-.3 0-.4.1zM474.6 63.5a.76.76 0 01-.4.2c0-.3.3-.2.4-.2zM471.3 64.1zM471.3 69.8zM471.3 69.8h-.3a.19.19 0 01.3 0zM494.6 56.9a4.9 4.9 0 012.3-.5 3.46 3.46 0 01-2.3.5zM492.1 56.4c.3-.4.7-.3 1-.3-.3.4-.7.3-1 .3zM495.9 58.7c-.1 0-.2-.2-.2-.3s0-.2.1-.2a.75.75 0 01.1.5zM502.2 54.8c0 .1-.1.1-.2.1v-.1a.1.1 0 01.1-.1c.1 0 .1 0 .1.1zM485.2 58.9a7.31 7.31 0 01-3.3.8 10 10 0 013.3-.8zM485.2 58.9c.1-.2.2-.2.4-.3a.37.37 0 01.3.1c-.2.3-.5.2-.7.2z"/><path class="cls-2" d="M482 59.7l-.2.1c0-.2.1-.1.2-.1zM489 62.7a1.94 1.94 0 01-1.3.3c.4-.4.9-.2 1.3-.3zM484 67l-.2.1c0-.1.1 0 .2-.1zM484 65.6l-.1.1v-.1h.1zM476.6 69.5c.2-.1.3-.3.5-.1-.1.2-.3.1-.5.1zM490.3 56.1c.3-.4.7-.2 1.1-.1l-1.1.1zM488.3 69.8c-.1-.1-.2-.2-.1-.4.1.1 0 .3.1.4zM496.7 64.1c-.3.1-.5.2-.6 0a.63.63 0 01.6 0zM486 66.5a1.14 1.14 0 01.8-.3.83.83 0 01-.8.3zM28.5 236.3a1.08 1.08 0 01.8.2c-.2 0-.6.1-.8-.2zM30.8 236.9c0-.2.1 0 0 0zM29.3 236.5h.2c-.1.2-.1 0-.2 0zM32.1 237.2l.3.1c-.2 0-.2-.1-.3-.1zM278.3 324.5c.7.1 1.5.1 2.2.2a.22.22 0 01.2.2c-.8 0-1.7.3-2.4-.4zM278.3 324.4a5.45 5.45 0 01-2.2-.5 14.21 14.21 0 012.2.5zM274.8 324.9c.4 0 .7.4 1.2.5-.2.4-.5.2-.7.2a1.45 1.45 0 01-.7-.2c.4-.1.2-.3.2-.5zM276.2 323.3a1.32 1.32 0 01-1.1-.3 1 1 0 011.1.3zM276.8 323.4l.8.3a.63.63 0 01-.8-.3zM273.7 325.1a1.49 1.49 0 01.9.2 1.49 1.49 0 01-.9-.2zM273.5 324.5c.2 0 .5 0 .6.2-.2-.1-.4-.1-.6-.2zM273.7 325.1h-.4c.2-.2.3-.1.4 0zM274.1 324.7a1 1 0 01.7.2 1.85 1.85 0 01-.7-.2zM273.5 324.4l-.2-.1a.35.35 0 01.2.1zM278.9 324.1zM278.3 323.9v.1-.1zM272.7 324.8h-.1.1zM272.2 324l-.2-.1c.1-.1.1.1.2.1zM216.5 36.5a1 1 0 01-1 .3 1.69 1.69 0 011-.3zM204 37.2a.82.82 0 01-.7.1l.7-.1zM207.6 37.5c-.1.2-.2.2-.4.1.1-.3.3-.3.4-.1zM217.4 36.4l-.2.1c0-.1.2 0 .2-.1zM203.8 38.5v.1l-.1-.1h.1zM218.9 38.7a1.08 1.08 0 01-.8.2.88.88 0 01.8-.2zM216.7 39.1l.2-.1c0 .2-.1.1-.2.1zM200.7 54.6v.5c-.2-.2 0-.4 0-.5zM216 41.1l-.2-.1c.1 0 .1.1.2.1zM139.5 344.2c.2.4.4.7.1 1.2a1.3 1.3 0 01-.1-1.2zM170.3 343c.4.1.6.2.7.5 0 .6-.6.6-.9 1 0 .1-.1.3-.1.4a1.53 1.53 0 01-1.3 1.6 18.23 18.23 0 01-2.5.7c-.4-.1-.7-.4-1.2-.3l-.4-.7a6.94 6.94 0 01-1.3-.5c.9-1.2 1.7-1.2 2.8.1a4.14 4.14 0 001.9-.5 2.33 2.33 0 012.3-2.3zM149.7 335.8c-.2-.3-.5-.2-.8-.3-.3-.3-.7-.3-1.1-.5a1.15 1.15 0 01-.9-.6 33.71 33.71 0 013.4 1c.1 0 .3.2.4.3z"/><path class="cls-2" d="M147 334.5a5.53 5.53 0 01-2.5-.7 5.9 5.9 0 012.5.7zM157.6 332.5a6 6 0 01-1.8-.7 6.68 6.68 0 011.9.5l.1.1c-.1 0-.1.1-.2.1zM146.9 333.8a6.4 6.4 0 01-1.7-.5 2 2 0 011.7.5zM157 336.6a2 2 0 011.5.6 3.17 3.17 0 01-1.5-.6zM139.8 332.3a3.09 3.09 0 011.8.5 2.38 2.38 0 01-1.8-.5zM160.8 332c-.4-.1-.8 0-1.3-.4a3.33 3.33 0 011.3.4z"/><path class="cls-2" d="M143.1 333.3a1.65 1.65 0 01-1.5-.5 2.69 2.69 0 011.5.5zM157.1 336.6a1.54 1.54 0 01-1.3-.5 2.11 2.11 0 011.3.5zM154.8 335.6a1 1 0 01-1-.4 1.1 1.1 0 011 .4zM150.5 335.1a1.38 1.38 0 011.3.5 1.43 1.43 0 01-1.3-.5zM149 334.6a1.35 1.35 0 01-1.2-.5 1.58 1.58 0 011.2.5zM149.7 333.6a2.11 2.11 0 011.3.5 3 3 0 01-1.3-.5zM153 334.9a.22.22 0 01-.2-.2c.1 0 .2 0 .2.2zM152.2 332c-.3 0-.6 0-.7-.3.3.1.5.1.7.3zM160.8 332.1h.5c-.2.2-.3 0-.5 0zM153.8 332.5h-.5c.2-.3.3-.1.5 0zM162.6 332.5h-.6c.4-.3.5-.1.6 0zM150.7 331.5a1.08 1.08 0 01.8.2.78.78 0 01-.8-.2zM153.7 332.6a.83.83 0 01.8.3 2.62 2.62 0 01-.8-.3zM155.8 333.2c0-.2.1-.1 0 0zM146.9 333.8a1.08 1.08 0 01.8.2 1.08 1.08 0 01-.8-.2zM151 334.1a1.08 1.08 0 01.8.2c-.4 0-.6 0-.8-.2zM155.5 334.8c-.3 0-.5 0-.7-.3.2.1.5 0 .7.3zM150.5 335.1h-.5c.2-.3.3-.2.5 0zM155.5 334.8l.5.1c-.2.1-.3 0-.5-.1zM154.8 331.5l-.5-.1c.2-.1.3 0 .5.1zM154.7 331.5l.3.1c-.1.1-.2 0-.3-.1zM154.5 332.8a.37.37 0 01.3.1c-.2.1-.2 0-.3-.1zM143.1 333.3l.4.1c-.2.2-.3 0-.4-.1zM144.4 333.8l-.3-.1c.2-.1.2 0 .3.1zM153.5 334.1l-.2-.1.2.1z"/><path class="cls-2" d="M151.7 334.3a.37.37 0 01.3.1c-.2.1-.2 0-.3-.1zM148.9 334.6h.3c-.1.2-.2.1-.3 0zM157.6 335.4c-.1.1-.1.1-.1 0zM154.8 335.6c.2 0 .4 0 .5.3-.2-.1-.4-.1-.5-.3zM158.6 335.8h-.2c.1-.2.1 0 .2 0zM155.8 336.1c-.2 0-.4 0-.5-.3a.55.55 0 01.5.3zM159.6 337.6l-.3-.1c.2-.1.2 0 .3.1zM153.2 331h.2c-.1.2-.1 0-.2 0zM149.7 333.5v.1-.1zM164.1 338.8c.2-.1.2 0 .1 0zM69.2 319l-.1-.1h.1v.1zM81.5 321.4h.9c-.1.2-.3.1-.4.1a.9.9 0 01-.5-.1zM84.8 321.6a.83.83 0 01-.8.2c.3-.3.6-.1.8-.2zM77.8 321.5c0-.1.1-.1 0 0zM84.1 321.2l.2-.1c0 .3-.1.1-.2.1zM459.2 250.4a6.8 6.8 0 012.4.8.55.55 0 01.4.6c-.9.4-1.4-.9-2.3-.6.1.4.7.2.7.7a1.47 1.47 0 01-1.1-.2 3.25 3.25 0 00-2.7-.6c-.3.1-.6 0-.7-.5a4.64 4.64 0 013.3-.2h-1.3a1.22 1.22 0 001.3 0zM354.3 298.6a11.7 11.7 0 00-2.6.4 3.55 3.55 0 01-1.5.1 26.25 26.25 0 015.7-1c0 .3-.3.4-.5.5-.5.3-1 .3-1.4.8l-.2.1c.2.1.2 0 .2-.1a3.81 3.81 0 001.5-.1 6.08 6.08 0 011.9-.1c.1.1.1.2 0 .2a12.58 12.58 0 00-2.7.4 2.25 2.25 0 01-1.6-.1c.2-.7.8-.7 1.2-1.1zM349.4 299.2a.1.1 0 01-.1.1v-.1zM354 302.6l.1.1zM496.3 201.7c-.3-.3-.1-.7 0-1a20.88 20.88 0 00.8-5c.1-1 .3-1.9.4-2.9a4.48 4.48 0 010 2.3c0 .5-.2 1-.2 1.5a26.38 26.38 0 01-.8 4.9.21.21 0 00-.2.2zM493.6 188.7a.91.91 0 01-.3.7 6.7 6.7 0 00-.7 1.8c0 .2-.1.4-.3.4l-.1-.1a5.33 5.33 0 011.4-2.8zM498.6 196.7a1.1 1.1 0 01-.4-1.1l-.3-.2v-.3c.2-.1.3 0 .5.1zM498.1 191.2a4.07 4.07 0 010 1.9zM493.6 188.7a2 2 0 01.8-1.4c-.1.6-.2 1.1-.8 1.4zM495.3 185.2a1.82 1.82 0 01-.6 1.4 2.51 2.51 0 01.6-1.4zM496.7 192.7l.1-1c.2.5.2.5-.1 1zM496.8 194.9a1.91 1.91 0 010-1.3 5.48 5.48 0 010 1.3zM497.2 188.9a.56.56 0 010-.9c.1.3 0 .5 0 .9zM496.7 196.5c-.2-.2-.1-.5-.1-.9a1.48 1.48 0 01.1.9zM497.2 189.9c-.2-.1-.3-.3 0-.4.1.1.1.2 0 .4zM497.2 186.9a.76.76 0 01.1.4c-.2-.1-.1-.2-.1-.4zM494.2 184q-.3.15-.3 0c0-.1.2-.1.3 0zM498.1 194.1v-.2c.1 0 0 .1 0 .2zM499.9 195.2v-.2c.1.1.1.2 0 .2zM498.1 197.1c.4.1.4.1.2.4l-.2-.4zM497.2 190.9v-.1.1zM498.2 197.1c-.1-.1-.2-.1-.1-.3l.1.3zM498.6 203.4a.67.67 0 01.3.8c-.5-.2-.4-.5-.3-.8zM498.8 178.9l-.1.5.1-.5zM500.1 167.7l.2.3zM105.6 80.8a.78.78 0 01-.1.8 4.86 4.86 0 00-1.4 1.1 1.16 1.16 0 01-1-.2 1.36 1.36 0 00-1-1.2c.6-.7 1.2-1.1 1.4-1.7a1 1 0 01.9-.1 5.12 5.12 0 001.2 1.3zm-1.4.2zM96.8 81.4a1.72 1.72 0 01-1.6-.4c-.2-.5.1-1-.2-1.5.6-.3.6-.8.8-1.2a.6.6 0 01.4-.1.91.91 0 01.7.3c.1.6.8 1 1.1 1.7-.3.4-1 .5-1.2 1.2zM107.6 74.1c-.3.7-.9.9-1.3 1.3a1.64 1.64 0 01-1-.2c-.3-.3.1-.6 0-.9s-.6-.4-.6-.9c.3-.5.9-.6 1.3-1a1.07 1.07 0 011.1.3 2.39 2.39 0 00.5 1.4zM95.7 71.9c.5-.6 1.3-.7 1.5-1.4.9 0 1.1.1 1.1.7a5.85 5.85 0 00.2 1.3c-.3.5-.8.5-1.1.8-1 .1-1.3-.6-1.7-1.4zM100.6 68.9c.6-.4.8-1.3 1.7-1.1l.8 1.5-1.5 1.4a1.4 1.4 0 01-.9-.3c-.3-.5.2-1-.1-1.5zM97.1 66.8c0-.5.1-1-.4-1.4l1.1-1c1-.1 1.1.9 1.7 1.3L98.2 67a1.47 1.47 0 01-1.1-.2zM100.7 77.7l-.7-.3-.6-1 .9-1.3a.75.75 0 01.9 0l.8.9a.75.75 0 01-.1.5 6.79 6.79 0 00-1.2 1.2zm.1-1.5zM106.6 68.5c-.1 0-.3-.1-.4-.1-.5-.3-.8-1-1.4-1.1.4-.8 1.2-.9 1.4-1.4 1 0 1 .8 1.4 1.3-.4.3-.5.9-1 1.3zM4.9 135.3a.44.44 0 01.3.1 18.29 18.29 0 01.6 2.5.4.4 0 01-.2.4 8.33 8.33 0 01-.4-1.5 3.34 3.34 0 00-.3-1.5zM10.2 129.9c.1.2.2.3.2.5a18.46 18.46 0 01.4 2.3c-.2 0-.2-.2-.2-.3-.1-.7-.3-1.4-.4-2.1-.1-.1 0-.3 0-.4zM4.4 132.2a14.19 14.19 0 01.5 2.2.76.76 0 01-.1.4 7.89 7.89 0 01-.3-1.3 2.77 2.77 0 01-.1-1.3zM55.3 37.5a1.65 1.65 0 01-1.2 0 2.44 2.44 0 011.2 0zM502.9 150.8h-.2c.1-.1.1 0 .2 0z"/><path fill="none" d="M147.4 101.2h326.3v78.5H147.4z"/><path class="cls-1" d="M151.5 103.2h4.7v32.7h15.7v4h-20.4zM191.6 139.8l-.4-3.3h-.2a9.73 9.73 0 01-8 3.9c-5.3 0-8-3.8-8-7.6 0-6.4 5.7-9.8 15.8-9.8v-.5c0-2.2-.6-6.1-6-6.1a13.56 13.56 0 00-6.9 2l-1.1-3.2a16.39 16.39 0 018.6-2.3c8 0 10 5.5 10 10.8v9.8a40.06 40.06 0 00.4 6.3zm-.7-13.4c-5.2-.1-11.1.8-11.1 5.9a4.27 4.27 0 004.5 4.6 6.7 6.7 0 006.4-4.4 4 4 0 00.3-1.5l-.1-4.6zM215 103.2h4.7v32.7h15.7v4H215zM242.4 127.5c.1 6.5 4.2 9.1 9 9.1a16.81 16.81 0 007.3-1.4l.8 3.4a21 21 0 01-8.8 1.6c-8.1 0-12.9-5.3-12.9-13.3s4.7-14.2 12.3-14.2c8.6 0 10.9 7.6 10.9 12.4a11 11 0 01-.2 2.2h-18.4v.2zm14-3.4c.1-3-1.3-7.8-6.6-7.8-4.8 0-7 4.5-7.3 7.8zM272.7 105.9v7.6h6.9v3.6h-6.9v14.2c0 3.3.9 5.1 3.6 5.1a14.71 14.71 0 002.8-.3l.2 3.6a11 11 0 01-4.2.7 6.85 6.85 0 01-5.2-2c-1.4-1.4-1.8-3.8-1.8-6.9v-14.4H264v-3.6h4.1v-6.3zM290.7 105.9v7.6h6.9v3.6h-6.9v14.2c0 3.3.9 5.1 3.6 5.1a14.71 14.71 0 002.8-.3l.2 3.6a11 11 0 01-4.2.7 6.85 6.85 0 01-5.2-2c-1.4-1.4-1.8-3.8-1.8-6.9v-14.4H282v-3.6h4.1v-6.3zM303 121.7c0-3.1-.1-5.8-.2-8.2h4.2l.2 5.2h.2c1.2-3.5 4.1-5.8 7.3-5.8a6.75 6.75 0 011.4.2v4.5a7.77 7.77 0 00-1.6-.2c-3.4 0-5.8 2.6-6.4 6.1a15 15 0 00-.2 2.2v14h-4.7v-18zM322.9 127.5c.1 6.5 4.2 9.1 9 9.1a16.81 16.81 0 007.3-1.4l.8 3.4a21 21 0 01-8.8 1.6c-8.1 0-12.9-5.3-12.9-13.3s4.7-14.2 12.3-14.2c8.6 0 10.9 7.6 10.9 12.4a11 11 0 01-.2 2.2h-18.4v.2zm14-3.4c.1-3-1.3-7.8-6.6-7.8-4.8 0-7 4.5-7.3 7.8zM358.1 137.1a3.21 3.21 0 013.2-3.4 3.1 3.1 0 013.2 3.4 3.21 3.21 0 01-3.2 3.4 3.27 3.27 0 01-3.2-3.4zm1.3-7.8l-.8-26.1h5.2l-.8 26.1z"/><path stroke="#fff" stroke-miterlimit="10" fill="none" d="M15.2 13.9h506.4v339.4H15.2z"/><path class="cls-2" d="M437 355.1a9.38 9.38 0 00-1.5.6c-.6.3-1.1.5-1.7.8-1.2.6-2.5 1.1-3.7 1.6-1.7.7-3.4 1.4-5.1 2a30.84 30.84 0 01-4.3 1.4 7.85 7.85 0 00-1.4.5 22.48 22.48 0 01-2.4.8c-.3.1-.6 0-.9.2a11.2 11.2 0 01-.5-1.3c-.6-1.7-1.3-3.3-1.9-5l-.6-1.5-1.5-3.9a8.17 8.17 0 00-.9-1.9 1.14 1.14 0 01-.3-.8 2.36 2.36 0 01.9-.6c.6-.2 1.2-.5 1.8-.7 1.8-.7 3.7-1.4 5.5-2.2 2.2-1 4.5-1.7 6.8-2.5 1.1-.4 2.3-.8 3.4-1.3a3.53 3.53 0 001.3-.8c.4-.1.5.2.7.4a2.84 2.84 0 00.4 1.2c.5 1 .8 2 1.3 3 .8 1.5 1.5 3.1 2.3 4.6.2.5.5.9.7 1.4l1.5 3c0 .3.2.6.1 1zm-12.7-3.5l-1.5-.3-1.4-.3c-.5-.1-.9-.4-1.4-.3a8.75 8.75 0 01-.2 1.6 16 16 0 00-.5 2.1c-.2 1.1-.5 2.1-.7 3.2a14.85 14.85 0 01-1.2 4.1.44.44 0 00-.1.5c.2.1.4-.1.5-.1l2.4-.9c.4-.2.9-.2 1.3-.4 1.9-.7 3.8-1.5 5.8-2.2q3.6-1.35 7.2-3l1.2-.6c-.1-.2-.2-.3-.4-.3a5.58 5.58 0 01-.8-.5 48.21 48.21 0 01-4.4-3.5 13.46 13.46 0 00-1.4-1.1 4.44 4.44 0 01-1.1-.8 1.8 1.8 0 00-.7-.5c-.9 1-1.4 2.3-2.6 3.3zm-13.1-3.3v.1a.37.37 0 01.3.1c1 .2 2 .3 3 .5 1.2.2 2.3.5 3.5.7a14 14 0 012.8.6c.9.3 1.8.4 2.7.7a2.2 2.2 0 00.8.1 1.33 1.33 0 00.5-.6c.4-.7.9-1.4 1.3-2.2.7-1.2 1.4-2.4 2-3.7.4-.9.9-1.9 1.3-2.8 0-.1.1-.2-.1-.3a6.91 6.91 0 01-.8.3c-1.2.4-2.4.9-3.6 1.3-2.2.7-4.3 1.5-6.4 2.4-.9.4-1.8.8-2.8 1.2-1.4.5-2.7 1-4.1 1.5-.1-.1-.3 0-.4.1zm8.5 2.3c-.1 0-.2-.1-.3-.1a14.14 14.14 0 00-2-.4c-.9-.1-1.8-.4-2.6-.5-1.1-.2-2.2-.5-3.4-.7-.1 0-.3-.1-.4.1a.52.52 0 00.2.4 11.4 11.4 0 011 1.9c.5 1.1.9 2.2 1.4 3.3.6 1.4 1.2 2.8 1.7 4.2.4.9.7 1.8 1.1 2.7.1.1.1.3.3.3a9.17 9.17 0 00.9-2.3c.3-.9.3-1.8.5-2.6.2-1 .5-2.1.7-3.1s.6-1.9.8-2.9c-.1-.1 0-.2.1-.3zm16 3.2a3.93 3.93 0 01-.2-.6c-.3-.7-.7-1.5-1-2.2-.6-1.2-1.2-2.5-1.8-3.7-.3-.7-.7-1.4-1-2.2-.4-1-.8-2-1.2-2.9 0-.1-.1-.2-.2-.3a2.18 2.18 0 00-.5.8 29.86 29.86 0 01-2 4 1.78 1.78 0 00-.4 1c.7.5 1.4 1.1 2.1 1.5.5.3.9.7 1.4 1 1 .9 2.1 1.7 3.1 2.5a4.18 4.18 0 001.7 1.1z"/></g></g></g></svg>