<svg xmlns="http://www.w3.org/2000/svg" fill="currentColor" viewBox="0 0 87 88"><g data-name="Layer 2"><g data-name="Layer 1"><g data-name="Calque 2"><path d="M37 47.11c-.1-1.1-1-1.9-1.5-2.7s-1.4-1.5-.6-2.5a2.24 2.24 0 013.2-.3c1.6 1 3.1 2.1 5.2 1a1 1 0 011.2 1.6c-1.6 1.8-1 3.2 0 5 .8 1.4-.3 2.5-1.9 2s-3-.6-4.3.5a2.45 2.45 0 01-2.3.5c-1.4-.4-1.7-1.1-.9-2.3.4-.91 1.6-1.5 1.9-2.8zM17.6 27.81c-2.5-.3-4-2-3.7-4.2a3.19 3.19 0 013.4-2.9c2.1.2 4 2.5 3.7 4.4a2.82 2.82 0 01-3.4 2.7zM67.4 54.21c-2.4 0-4.2-1.4-4.1-2.9.1-1.9 2-3.3 4.3-3.3a3.15 3.15 0 013.4 3.2c0 1.7-1.5 3-3.6 3zM57 14.41a3.15 3.15 0 01-3.4 2.8c-2-.1-3.3-1.4-3.2-3a3.75 3.75 0 013.5-3.4 3.59 3.59 0 013.1 3.6zM11.6 61.31a3.27 3.27 0 013.4-3.2A3.21 3.21 0 0118 61c.1 1.9-1 3.4-2.7 3.5a3.24 3.24 0 01-3.7-3.19zM21.8 78.41c1.8 0 3.5 1.3 3.6 2.7a3.66 3.66 0 01-3.4 3.4c-1.9 0-3.5-1.2-3.5-2.7a3.64 3.64 0 013.3-3.4zM76.4 74.91c-1.5-.1-2.5-.4-3.2-1.3-.3-.4-.6-.9-.5-1.2a6.11 6.11 0 013.4-3.3 2.63 2.63 0 013.2.7 2.21 2.21 0 01.5 2.9 4 4 0 01-3.4 2.2zM5.2 34.61c-2.2 0-4-1.3-3.9-2.7a4 4 0 013.6-3.3 3.36 3.36 0 013.2 3.2 2.65 2.65 0 01-2.9 2.8zM49.7 88.21a2.86 2.86 0 01-3.1-2.7 3.2 3.2 0 016.4-.3c.1 1.5-1.6 3-3.3 3zM31.1 2.61a3.06 3.06 0 01-2.9 3c-2 0-3.6-1.2-3.6-2.7a2.92 2.92 0 013-2.9c2-.1 3.5.99 3.5 2.6zM6.2 68.51a3.21 3.21 0 01-3 2.9 3.12 3.12 0 01-3.2-3c.1-1.4 2-2.8 3.6-2.7a2.75 2.75 0 012.6 2.8zM83.3 20.71c1.9 0 3.3 1.1 3.2 2.5s-2 2.8-3.6 2.8-3.1-1.4-3-2.8a3.31 3.31 0 013.4-2.5z"/></g></g></g></svg>