<svg xmlns="http://www.w3.org/2000/svg" fill="currentColor" viewBox="0 0 138 56"><g data-name="Layer 2"><g data-name="Layer 1"><g data-name="Calque 2"><path d="M53.2 35.8a44.72 44.72 0 00-1.8-8.8 4 4 0 00-.9 1.7 51.7 51.7 0 01-2.8 6.4 3.57 3.57 0 01-2 2c-.8-.2-1.6-.8-2.4-.7a3.58 3.58 0 01-1.1-2.5 8.24 8.24 0 01.4-3.5 25.51 25.51 0 013.5-7 8 8 0 012.3-2.2 3.44 3.44 0 012.6-.5 3.21 3.21 0 012 1.3 7.18 7.18 0 00.9 2.7 40.89 40.89 0 011.7 6.9 4.28 4.28 0 00.5 1.6.79.79 0 00.5-.8 16.14 16.14 0 000-2.2 42.11 42.11 0 01.4-5 2.57 2.57 0 012.1-2.5 2.13 2.13 0 012 1.7c.9 2.5.3 4.8-.8 7.1a5.67 5.67 0 01-.8 1.3c.4 2.1.4 2.1 1.2 3.2.7-.3.9-.9 1.2-1.5.8-1.8 1.4-3.7 2-5.5s1.3-3.9 1.9-5.8a2.38 2.38 0 01.9-1.3 1.69 1.69 0 011.8.1l.5.8a19.74 19.74 0 01-.7 2.6 16.28 16.28 0 00-.8 4.4 9.61 9.61 0 001.3 6.2 3.24 3.24 0 002.5 1.8 10.57 10.57 0 003.6-3.4c-.2-1.1-.6-2.2-.8-3.4a22.57 22.57 0 01.2-8.2A67 67 0 0177.5 12a62.1 62.1 0 012.6-5.9 37.81 37.81 0 012.6-4.3A4.3 4.3 0 0185.1 0a3.37 3.37 0 011.7.5 4.38 4.38 0 01.8 2.5 21.18 21.18 0 01-.5 4.4 134.08 134.08 0 01-3.4 13.9 59.81 59.81 0 01-3 8.4c-.7 1.6-1.6 3.1-2.4 4.7a6 6 0 001.9 2.3 4.23 4.23 0 003.8.1 9.74 9.74 0 002.4-1.5 14.25 14.25 0 002.9-3.1 6.38 6.38 0 00.8-1.4c.9-2.3 1.9-4.7 2.8-7 .1-.4.3-.7.5-1.4a9.23 9.23 0 01-.2 3c-.6 2.5-1 5-1.5 7.5a6.64 6.64 0 00.6 4.8c0 .4-.1.7-.4.8s-.7-.2-1-.2-.6.2-.9 0c-.5-.3-.5-1.1-1.1-1.4a14.39 14.39 0 01-4 2.3 8.22 8.22 0 01-4.4-.1 8.11 8.11 0 01-4-2.3c-1.3 1-2.2 2.2-3.7 2.8-.4.1-.8.3-1.2.4a11.62 11.62 0 00-1.8-.4 4.72 4.72 0 01-3.2-2.1 6.66 6.66 0 01-1.2-2 2.18 2.18 0 00-.5-.8c-.3.6-.6 1-.8 1.5a4.89 4.89 0 01-1.6 1.6 1.8 1.8 0 01-1.2.3c-1.6-.4-3.2-.6-3.9-2.4 0-.1-.2-.1-.3-.2-.4.1-.6.4-.8.8 0 1.3-.1 2.8-.1 4.2a38.23 38.23 0 01-.8 7.5 16.61 16.61 0 01-1.7 4.7 6 6 0 01-7.4 2.9 10.93 10.93 0 00-1.7-.5c-1.9-.5-2.9-2-3.5-3.8a1.7 1.7 0 01-.1-.7 12.22 12.22 0 011.7-5.6 21.12 21.12 0 014.8-5.1c1.7-1.4 3.5-2.7 5.2-4.1.3.3.4.1.5 0zm-8.7 15.3a3.56 3.56 0 001.1 1.9 3.69 3.69 0 005.6-.9 14.17 14.17 0 00.8-1.8 20.31 20.31 0 001-4.9 50.69 50.69 0 00.3-5.5c0-.3.1-.6-.3-.8-.7.5-1.4 1.1-2.1 1.6-1.3 1.1-2.7 2.2-3.9 3.4a11.1 11.1 0 00-2.5 7zM84.4 4.3l-.5.5a37.79 37.79 0 00-3.3 6.3 58.23 58.23 0 00-3 8.9 27.1 27.1 0 00-.8 10.6c.5-.3.6-.8.8-1.2a30.24 30.24 0 001.2-3.2 89.93 89.93 0 003-10.1c.7-3.1 1.5-6.1 2.2-9.2a6.77 6.77 0 00.4-2.6zM45 33.9a23.11 23.11 0 002.2-5.1 25 25 0 011.5-3.8 5.46 5.46 0 011.9-2.1v-.3a.45.45 0 00-.5 0 7.56 7.56 0 00-2.4 2.3 32 32 0 00-2.7 5.6 6.52 6.52 0 000 3.4zM107.8 35.5c.1-1.1.3-2.1.4-3.2.1-1.3.2-2.6.4-3.9a12.23 12.23 0 013.9-7.3 6.77 6.77 0 012.4-1.2 1.69 1.69 0 011.7.8 2.42 2.42 0 01.6 2 27.42 27.42 0 01-.5 2.8c-.4 1.4-.8 2.7-1.3 4.1a27.68 27.68 0 00-1.2 4.1 4.45 4.45 0 00.2 3 4.05 4.05 0 00.5.9 1.56 1.56 0 001.8.4 10.3 10.3 0 003.3-2.5 2.12 2.12 0 00-.4-1.4 6.92 6.92 0 01-.4-4.7 17.19 17.19 0 012.3-5.8 7.93 7.93 0 015.3-3.6l1.6.3a3.51 3.51 0 011.7 1.9 9.14 9.14 0 01-.6 4.9 25.28 25.28 0 01-1.8 3.7l-2.4 3.6a1.91 1.91 0 00-.5 1c.1.5.6.6 1 .7a7.55 7.55 0 004.2.3c1.5-.3 3-.6 4.5-1l1.4-.3a1.67 1.67 0 011.2.1c.7.7.7.9.5 1.5a2 2 0 01-1.1 1.1 6 6 0 01-1.9.6 18.39 18.39 0 01-10.4-.2 7.37 7.37 0 00-1.4-.4c-1 .7-2 1.3-3.1 2a9.49 9.49 0 01-2.1.9 3.08 3.08 0 01-2.3-.2 7.49 7.49 0 00-1.6-.5 6.53 6.53 0 01-1.6-1.3 5.12 5.12 0 01-.8-3.8 24.35 24.35 0 011.5-5.9 23.94 23.94 0 001.5-5.4 5.58 5.58 0 00-2 2.5 21.89 21.89 0 00-1.4 5c-.3 1.3-.5 2.7-.9 4a2.46 2.46 0 00-.1 1.2 2.73 2.73 0 01-.8 1.9 5.26 5.26 0 01-5 1.7 20.48 20.48 0 00-2.4-.5 10.63 10.63 0 01-3.8-1.6 7 7 0 01-3.1-5.2 12.57 12.57 0 01.7-5.8 14.28 14.28 0 014.4-6.6 4.84 4.84 0 013.4-1.3 2.94 2.94 0 012.3 1.2 5.39 5.39 0 011 3 16.14 16.14 0 01-.7 4.9 5.7 5.7 0 01-1.1 2.2 4.26 4.26 0 01-4.5 1.4 7.61 7.61 0 01-2.1-.8c-.5.3-.3.7-.3 1a5.86 5.86 0 004.5 5.2c2 .8 3.3.4 5.4-1.5zm-5.5-14a9.89 9.89 0 00-4.38 7l.29.74c.2.2.3.4.5.6a.75.75 0 00.5.1c1.8.1 2.3-.3 3-1.9a10.08 10.08 0 00.6-5.4 2.22 2.22 0 00-.5-1.1zm24.3 1.4a.82.82 0 00-.7.1 7.35 7.35 0 00-2.2 2.1 12 12 0 00-1.7 4.8 2.7 2.7 0 00.5 2.4 25.69 25.69 0 003.5-5.7 22.51 22.51 0 00.8-2.4 2.18 2.18 0 00-.2-1.3zM21.8 4.8a1.14 1.14 0 01-.8-.3 4.49 4.49 0 00-4.6-.4 13.22 13.22 0 00-4.8 3.6c-.3.4-.6.9-.9 1.3a3.05 3.05 0 00.6 4.3c.35.26.77.52 1.14.78l3.19 1.78a13.48 13.48 0 014.47 3.54 17.23 17.23 0 013.5 6 9.32 9.32 0 01.2 4.4c-.7 4.1-3 7.1-6.1 9.6a16.33 16.33 0 01-5.2 2.8 8.37 8.37 0 01-4.9.6c-1.8-.4-3.7-.6-5.3-1.9A5.64 5.64 0 010 36.3a5.06 5.06 0 012.5-4.5c.4-.2.9-.4 1.3.1.2.5-.1.9-.3 1.4a5.22 5.22 0 00.7 5.1 5 5 0 005 2.1 12.3 12.3 0 007.2-3.3A17.85 17.85 0 0020 33a10.2 10.2 0 001.3-6.4 7 7 0 00-.6-1.9 13.77 13.77 0 00-4.9-6.5c-1.1-.8-2.2-1.4-3.3-2.1a27.51 27.51 0 01-2.8-1.9 4.35 4.35 0 01-1.8-3.1 11.2 11.2 0 014.3-6.2 10.67 10.67 0 014.1-2.1 5 5 0 015.3 1.6.4.4 0 01.2.4z"/><path d="M31.5 23.3l.7.3c.4-.4.9-.8 1.3-1.2a4.35 4.35 0 01.7-.6c1.5-.9 2.2-.7 3.3.7.5 1.9.2 3.8.2 5.7a41.91 41.91 0 01-.3 5 12.29 12.29 0 00.4 5.4.63.63 0 00.9 0c.9-.5 1.8-1.1 2.8-1.7.3-.2.6-.5.9-.4s.2.2.2.4c-.6.9-1 2-1.7 2.9a4.35 4.35 0 01-2.1 1.4 18.29 18.29 0 00-2.5-.6 3 3 0 01-1.5-2.6 34.27 34.27 0 01.2-6.4 17.71 17.71 0 00.1-2.3v-4.5c-.4-.2-.5.2-.6.4a30.92 30.92 0 00-3.4 6.5 21.14 21.14 0 00-1.5 6.6 2.09 2.09 0 01-.8 1.9c-.6.1-.6-.6-1-.7a1 1 0 01-.8.4 1 1 0 01-.4-.5c-.3-1.5.2-2.8.4-4.2a28.64 28.64 0 01.7-2.8c.1-.4.3-.8.4-1.2 1-2.1 1.9-4.1 2.9-6.1a2.73 2.73 0 00.5-1.8zM24.6 39.3c-.4-.1-.3-.6-.7-.8-.4 0-.5.5-.9.4l-.3-.3a25 25 0 011.7-8.2c.4-1.2.7-2.5 1-3.8s.6-2.3.9-3.5l.3-.6c.2-.1.3-.1.5-.2s.3.1.5.1a1.79 1.79 0 01.3 1.7c-.6 2.4-.9 4.8-1.6 7.2a28.92 28.92 0 00-.8 5.8 6.75 6.75 0 01-.2 1.4c-.1.5-.3.8-.7.8zM107.5 14.2a1.5 1.5 0 01-.7.9c-2.4-.6-5-1-7.1-2.6-.1-.6.2-.7.6-.8s1 .4 1.5.5c1.1.3 2.2.6 3.3.8.9.3 1.8.4 2.4 1.2zM92.3 18.6l-1-1.1a1.69 1.69 0 01.3-1l1-.5a2.05 2.05 0 011.9 2 1.25 1.25 0 01-.6 1.1c-.4-.2-.9-.7-1.6-.5zM28.8 15a2.13 2.13 0 01.2 2.5c-.5.3-.6 0-.9-.2s-.7.2-1-.1a4.49 4.49 0 01-.6-1.2 1.05 1.05 0 01.5-.9c.6-.4.6-.4 1.8-.1zM21.8 4.8l.1.2h-.1c.1-.1 0-.1 0-.2z"/></g></g></g></svg>