<svg xmlns="http://www.w3.org/2000/svg" fill="currentColor" viewBox="0 0 8 256"><g data-name="Layer 2"><g data-name="Layer 1"><g data-name="Calque 2"><path d="M3.5 214.55a2.6 2.6 0 011.4-1c.8-.1.5 1.2 1.3.7a1.51 1.51 0 01-.2 1.5c0 .2-.1.4 0 .5.2.5.5.9.3 1.4-.4 1.11 0 2.22 0 3.44 0 1.06.11 2.12.2 3.17a11.29 11.29 0 01-.4 3.19c-.7.3-.7-.3-1-.4a3.58 3.58 0 00-1.1-.4 99.55 99.55 0 01-.5-12.1zM4 243.65a2.49 2.49 0 00.7-.5c.2 0 .4-.1.5 0a10.38 10.38 0 011 .4c.1.3.2.4.2.6a21.67 21.67 0 00-.1 3.6c.1 2.9 0 5.9 0 8.8-.7.5-.8-.4-1.3-.5a2.77 2.77 0 00-.9.1.76.76 0 01-.2-.4 16.16 16.16 0 01-.2-3.1c0-1.9-.1-3.7-.1-5.6.1-1.2.3-2.2.4-3.4zM3.1 196a1.89 1.89 0 012.5-.4c.3 2.1.6 4.3.8 6.5a25.42 25.42 0 00.1 3.9 1 1 0 01-.6 1c-.2-.2-.5-.4-.7-.6-.3.1-.6.1-.9.2-.1-.1-.3-.3-.3-.4a2.57 2.57 0 00-.8-2.4 17.1 17.1 0 000-3.2 11.92 11.92 0 01-.1-4.6zM.2 79.65c0-.3-.1-.7-.1-1 0-2-.1-3.9-.1-5.9 0-1.6.9-2.9 1.2-4.4a.63.63 0 01.9.3c.3.6.7 1.1 1.1 1.8-.8 2.6-.5 5.5-.4 8.3A1.8 1.8 0 012.5 80c-.5.2-.7-.2-1-.5a5.85 5.85 0 01-1.3.15zM2.2 62.65a6.37 6.37 0 01-.7.2H.9c-.1-1.5-.6-2.9-.6-4.5 0-.7-.2-1.4-.2-2.2a4.27 4.27 0 01.4-2.6c.7 0 1.3-.7 2.2-.1.4 3.1-.2 6.4.6 9.4-.2.4-.4.5-.7.5 0-.2-.1-.35-.4-.7zM1.9 88.35a2.86 2.86 0 013.1.9c-.1 2.2.3 4.4-.1 6.7-.2.2-.4.3-.6.5a4.35 4.35 0 00-.6-.7l-.9.3c-1.3-2.8-1.4-3.6-.9-7.7zM3.5 41.15c-.1.5-.2.8-.6.9s-.4-.4-.7-.6-.6.1-.9.1a1.42 1.42 0 01-.9-.8c-.1-1-.2-2.1-.3-3.1a6.16 6.16 0 01.8-4.5 1.88 1.88 0 01.8-.2 1.9 1.9 0 011.5.8c-1.4 2.5-.3 4.9.3 7.4zM5.2 162c-.3 0-.4 0-.4-.1a3.51 3.51 0 01-.5-.8c-.4 0-.5.7-1 .4-1-1.6-1.1-1.8-1.2-7.1.2-.4.5-.9.7-1.4a10.38 10.38 0 001-.4c1.2 2.1 1 4.6 1.6 6.9a3.16 3.16 0 01-.2 2.5zM5 181.15a1.44 1.44 0 01-2.1.9 4.82 4.82 0 01-1.1-3 15.07 15.07 0 01.2-5.2 1.83 1.83 0 011.3-.8 11.73 11.73 0 001.1.5c.4 2.6-.4 5.2.6 7.6zM2.2 121.35c.5-1.4.5-1.4 1.7-1.9.5.1.8.4 1.1 1.2-.5 2.3.8 4.7.4 7.1-.7.4-.9-.1-1.2-.3-.3 0-.6.1-.9.1-.1-.1-.3-.2-.4-.3a3.87 3.87 0 01-.5-2.4 10.18 10.18 0 00-.2-3.5zM3.2 111.35a15.4 15.4 0 00-1.2-1.3v-5.5a1.48 1.48 0 011.2-1 2.13 2.13 0 011.5.7c.5 1.1 0 2.1 0 3 .2 1.6.9 2.9.8 4.3-.6.5-.8-.1-1.1-.2s-.7-.1-1.2 0zM.1.35c1.4-.5 1.4-.5 2.7.2a1.94 1.94 0 01.5 1.6c-.4 2.2.1 4.6-1.1 6.7a1 1 0 01-1-.2 8.47 8.47 0 01-.7-3.9 9.91 9.91 0 00-.4-3.4 1.7 1.7 0 010-1zM3.6 145c-.3 0-.6.1-.9-.2 0-.2-.2-.3-.1-.5a9.61 9.61 0 00.2-3.4c-.1-1-.1-2.1-.2-3.1.2-.2.3-.5.5-.6a1.61 1.61 0 01.7-.4c.5.2 1 .5 1.5.7.9 2-.2 4.1.7 5.8-.2.6-.3.9-.7 1a1.21 1.21 0 01-.5-.5c-.8.05-.6.95-1.2 1.2zM3.6 24.55c-.7.3-1.2.5-1.7.7-.2.1-.4 0-.7-.1a40 40 0 010-6 2.15 2.15 0 011.2-.9 3.09 3.09 0 01.8.2l.8.4c0 .9-.5 1.8-.3 2.8 0 1-.1 1.9-.1 2.9zM5.4 233.25c.9-.2 1.4.3 1.9 1 .1 1.4.1 3 .2 4.6-.3.2-.5.4-.7.5a2.65 2.65 0 01-.5-.6.35.35 0 00-.2-.1 1.41 1.41 0 01-.9.1c-.8-.75-.7-3.75.2-5.5z"/></g></g></g></svg>