<svg xmlns="http://www.w3.org/2000/svg" fill="currentColor" viewBox="0 0 78.14 185.64"><g data-name="Layer 2"><g data-name="Layer 1"><g data-name="Calque 2"><path d="M72.91 79.24c2.1 2.9 1.8 5.7.5 8.7a57.14 57.14 0 01-11.1 16.8c-1 1.4 0 2.2-.5 3.4a19.57 19.57 0 00-8.7 6.2c-.1.4-.4 1.2-.7 2.1a52.47 52.47 0 01-10.4 8.4c-3.7 2-6.6 5.5-11.4 5.6a16.36 16.36 0 00-3.4 7c3.4 1.2 6.6-.5 9.8.2s6.4-.4 9.8 1.1c.4 1.5.9 3.2 1.4 4.7a3.1 3.1 0 01-2 2.5c-1.7.9-3.4 2-4.7 2.7-.9 1.6-.7 2.7.3 3.4 3.3 2.5 5.6 6 8 9 2.3 8.4 2.4 14.3.4 21.9a4.91 4.91 0 01-4.1 2.2c-2.5.2-5 .4-7.5.4-7.4.1-14.7 0-22.1.1a41.18 41.18 0 01-13.6-2.1c-4.8-11.3-3.2-21.1 1.4-27.3 2.1-1.3 4.9-1.8 6.8-3.8.8-1.2.6-2.4.3-3.8a3.78 3.78 0 00-1.2-.9 5 5 0 01-3.4-2.8c0-2.3-.9-5 .7-7.5 2.5-1.1 5-.4 7.5-.4h7.7a44.3 44.3 0 004.2-8.1c-.2-2.7-.6-5.6-.7-8.4-.1-5.3-.3-10.7-.1-16 .1-3.5.5-7.2 3-10.2.9-.3 1.9-.7 3.1-1.1a76.57 76.57 0 01.7-11.7c.6-3.9 3-7.3 2.8-11.5 2.7-2 3.4-5.1 4.2-8 1.1-4.1 2.8-8.1 3.4-12.4.8-5.5 2-10.9 2.9-16.4a55.46 55.46 0 012.6-9.9c.8-2.2 2.3-4 3.5-6a129.67 129.67 0 0111-14.6 27.59 27.59 0 012.3-2.4 3.7 3.7 0 013.1 0 3.53 3.53 0 01.8 1.3 23.09 23.09 0 01.3 3.7 56.19 56.19 0 002.6 15.8 126.33 126.33 0 014.7 19.3c.8 6.2 1.5 12.4.6 18.7-1.4 9.5-2 12.86-4.8 20.1zM40.81 79c1.2 1 1.2 2.6 1.8 3.8s.9 2.7 1.6 3.9.3 2.8 1.8 3.9c1.9-2.6 1.9-5.8 3.1-8.5-3-3.7-3.6-8.1-4.3-12.5-.8-1-1.5-2-2.4-3.1-3 3.8-3.9 7.7-1.8 12.1a.4.4 0 01.2.4 3.75 3.75 0 01-1.1.1 1.3 1.3 0 00-1.9-.6c-.2.3-.8.7-.8 1.2-.6 3.9-1.1 7.7-1.6 11.5a20.53 20.53 0 014.4 9.9c.2 1.1.4 2.1 1.8 2.6 2.9-4.5 3.9-9 1-14a50.77 50.77 0 01-3.9-9.3c.5-.6.8-1 1.1-1.4.2.2.3.5.5.7.2-.16.3-.46.5-.7zm5.4 33.4c2.5-1.7 5.6-2.1 8.1-4 3.3-3.9 7.8-7 10.7-11.6l-2.7-1.5c1.2-1.6 3.2-1.9 4.8-2.6 2.4-4 2.4-4 2.7-7.2l.4-.2-.3.3c-1.2-.1-2.5 0-3.7-.9a4.55 4.55 0 01.8-1.9c3.3-4.2 4.7-9.2 5.8-14.2a83 83 0 001.5-12.2c.8-9.4-.8-18.5-3.4-27.5-2-6.9-4-13.7-4.5-20.9-.1-.8-.3-1.8-1.8-1.8a57.54 57.54 0 00-11.1 16.3c-.4 2 .5 3.2-.3 4.3-.3.1-.7.1-1.1.2l-.6 1.5.1-.1c-1.5 1.1-1.4 2.8-1.9 4.5.7 1.5.4 3.4.7 5.1.6 3.3 2.2 6.4 3.5 9.5.1.2.2.3.2.5s-.2.3-.4.6c-1.1-.9-2.1-1.8-3.1-2.6a18.86 18.86 0 00-1-3.1c0-.1-.3-.1-.5-.1-1.5 2-1.5 2-1.6 3.8 2 7.1 3.7 13.4 5.7 20.7.8-4.9.3-8.9 1.4-12.7s.8-7.8 2.1-11.6.9-7.8 2.8-11.2a2.16 2.16 0 012.4.4c.2.8.4 1.8.7 2.8 1.7-1.8 2.5-4.4 4.9-5.3 1.3.9.9 1.7.4 2.5-1.3 2.1-2.7 4.2-4.2 6.5a3.7 3.7 0 00-2.4 1.6c-2.8 8.6-4.5 20-3.7 25.4 1.8-1.8 3.3-3.5 5-5 1.8-1.7 3.7-3.3 5.5-4.8.7.3 1.2.4 1.7.6l-.1-.1a124.32 124.32 0 01-14.2 14.9c-.6 1.7-1.2 3.7-1.8 5.8a2.9 2.9 0 002.5-1.2c3.3-3.6 7.5-6.1 11.2-9.1a1.25 1.25 0 011.9.2 3.78 3.78 0 01-2 3c-3.8 2.4-6.8 5.8-10.2 8.6a17.34 17.34 0 01-4.3 2.7c-.5 2.1-1 4-1.4 5.9-.1.3.2.6.4.9a3.94 3.94 0 013 .6l-.1-.1c-.8 1.7-2.5 1.5-3.9 2.1-3.6 6.8-4.4 9.4-3.9 11.7 3.2-.5 5.8-2.8 9-3.1a12.42 12.42 0 01-.4 1.6 61.21 61.21 0 01-11.4 4.9c-3 5-7.1 9.5-8.3 16.5 3-1.5 5.5-2.7 8-3.7 2.3-1 4.7-2.4 5.5-5.8a3.31 3.31 0 01-3.1-.36zm-10.7 35.7a6 6 0 012.6-2.8c.8-.4 1.7-.7 2.4-1.1s2.2-.3 2.2-1.8c-.3-.2-.5-.6-.8-.6-4.1-.4-8.1-.9-12.3-.4a23.69 23.69 0 01-7.5-.4c-3-.7-6.1-.1-9 .5a1.17 1.17 0 00-.9 1.3c.5 1.4 2.6.8 3.4 3a15 15 0 01-1.2 9.8c-3 2.3-6.6 3.7-9 7.1-1.3 5-2 10.2-.5 15.4 1.8 1 3.3 1.9 4.8 2.9a8.37 8.37 0 004 1.4 104.82 104.82 0 0011.2.4c3.2-.2 6.4-.3 9.6-.6 3.7-.4 7.5-.4 11-2.3 2.8-7.1 1.4-13.7-2.9-21a22.52 22.52 0 00-2.4-2.1c-1.3-.9-2.7-1.6-3.9-2.3-1.1-2.16-.7-4.36-.8-6.36zm.9-48.2c-1.9-.6-3.8-1.2-6.1-1.9a27.34 27.34 0 00-.4 3.8 115.62 115.62 0 01-.6 14.4 18.49 18.49 0 000 4.7c.1.8.4 1.8 1.6 1.7a7.63 7.63 0 002.5-4.5c.2-4.3-3.1-7.5-1.9-11.4a2.81 2.81 0 012.2 1.5c.8 1.5-.2 3.6 1.9 5.3a63 63 0 003.9-6.7c.1-1.8-1.8-1.9-2-3.3a5 5 0 00-1.1-3.56zm15.3-26.8a50.83 50.83 0 01-1.4-5.6c-.5-4.1-2-7.9-3.2-11.8-.1-.5-.4-1-1.4-.8a21.24 21.24 0 00-1.6 6.8c2.5 4.7 2.9 10.5 5.8 15.8.7-1.66 1.2-2.96 1.8-4.36zM35 123.34a4.87 4.87 0 00-2.4 3.4c2.6-.9 2.7-.9 4.5-2.9-.39-.6-.99-.7-2.1-.5z"/><path d="M12.11 176.24c1.8 2 4.1 2.2 6.2 2 .6.8.6 1.4 0 1.6-2.2.7-4.2-.4-6.1-1.3-1.6-.7-2.5-1.9-2.9-4.3.1-2.1 1.6-4.9-.3-7.7 1.1-.1 1.6-.2 2-.2a4.13 4.13 0 011.8 3.3c0 2.2-1.9 4.1-.7 6.6zM60.81 25a2.44 2.44 0 01-2.4-.7c1.2-3.8 1.6-8.1 3.7-11.6.4-.1.5-.3.7-.3a8.23 8.23 0 011.6.6c-.7 4.24-2.5 8-3.6 12zM71.81 46.14c-1.7 4.7-7 6.1-8.5 10.3-1.4.7-2.4 1.3-3.7.6a19.17 19.17 0 014.6-5.6 32.59 32.59 0 005.3-5.2c.4-.7 1.2-.9 2.3-.1zM51.51 28.54l2.2 1.1c1.3 1 .2 2.1.5 3a13.5 13.5 0 01.6 3.5c.1 1.1-.1 2.1-.1 3.2l.1-.1c-.5.2-1 .4-1.4.6-.3-.3-.7-.5-.7-.7-.4-3.5-.7-7.1-1.2-10.6zM54.91 88.84a2.11 2.11 0 011.1-2.7c3.4-1.2 5.9-3.8 9-5.3 1 .9.7 1.7-.1 2.2-3.3 1.9-6.3 4.6-10 5.8zM62.41 95.14a3.16 3.16 0 01-.8 3c-1.3 1.1-3.5 1.4-5.8 1.5a13.1 13.1 0 016.6-4.5zM70 56.54a1.86 1.86 0 01.3-.4 1.86 1.86 0 01-.4.3zM54.81 39.34c.5 0 .7.1.5.5 0 0-.3 0-.3-.1s-.1-.4-.2-.4zM46.21 112.44c-.7 2.6-2.8 1.8-4.5 2a4.63 4.63 0 014.5-2z"/></g></g></g></svg>