<svg xmlns="http://www.w3.org/2000/svg" viewBox="0 0 141.63 37.37"><g data-name="Layer 2"><g data-name="Layer 1"><g data-name="Calque 2"><path d="M122.41 28a1.72 1.72 0 00-.1 1.4 5 5 0 003.7 2.4 29.56 29.56 0 008.4.1c1.7-.2 3.4-.5 5.1-.7 1-.1 1.1-.1 2.1.7a.89.89 0 01-.6 1 11.92 11.92 0 01-2 .8 16.47 16.47 0 01-3.2.6 25.61 25.61 0 01-3.9.3 26.12 26.12 0 01-7.8-1 16 16 0 01-2.3-1 4.76 4.76 0 01-2.4-3.4 4.6 4.6 0 00-1 1.8 8.52 8.52 0 01-3.9 3.6 1.72 1.72 0 01-1.7 0c-.9-.5-2.4-.1-2.6-1.7a.63.63 0 00-.5-.6 4.36 4.36 0 00-1.4 1.3 9 9 0 01-5.6 2.5h-.4c-1.7-.4-3.5-.5-4.9-1.6a9.22 9.22 0 01-2.1-5.5 13.16 13.16 0 01.4-3.4c.5-2.2 1-4.3 1.4-6.5a.62.62 0 00-.1-.7c-.3-.1-.4.1-.5.3a20.6 20.6 0 00-2.8 5c-.8 2.1-1.6 4.2-2.2 6.4a5.86 5.86 0 01-1 2.4c-.1.1-.6-.1-1.1.2a8 8 0 01-2.4 2 3.49 3.49 0 01-1.7.6 9.78 9.78 0 01-5.6-.6 19.45 19.45 0 01-2.2-.8 7.15 7.15 0 01-2.9-3.3 10.12 10.12 0 01-.4-3.1c0-1.1.6-2.2.6-3.4a52.88 52.88 0 013.2-5c.5-.6.9-1.2 1.4-1.8a9.08 9.08 0 015.4-3.2.75.75 0 01.5.1c1.8.4 2.8 1.4 2.7 3.2-.2 3.4-1.2 6.5-4.6 8.1a8 8 0 01-5.9.8 4.77 4.77 0 003.5 6.4 7.13 7.13 0 006.9-2.3c1.1-4.3 3-8.4 4.5-12.4.4-.5.8-.3 1.3-.6a5.81 5.81 0 012.4-1.9c1.6-.8 2.1-.7 3.4.9l.4 1.6a57.24 57.24 0 01-1.4 7.2 12.86 12.86 0 00-.3 4.8 7.71 7.71 0 001 2.5 2.09 2.09 0 001.6 1.1 4.57 4.57 0 002.6-.2 11.4 11.4 0 001.9-1 24.44 24.44 0 003.6-3.6 54.21 54.21 0 01-.6-5.8c0-1.9.7-3.7.7-5.6-.7-.5-1.6-.4-2.2-.9-.1-.5.2-.6.6-.8a10.41 10.41 0 002.2-.6 15.43 15.43 0 01.5-1.7c.6-2 1.1-3.9 1.7-5.8a17.58 17.58 0 01.9-2c.5-1.3 1-2.6 1.4-3.9a3.36 3.36 0 011-1.6.65.65 0 01.8.2c-.7 2.3-1.6 4.6-2.3 7s-1.2 4.8-1.7 7.4a28.42 28.42 0 004.9-1.7 1.45 1.45 0 011.4.6c.2.8-.3 1.4-1 1.9a6.94 6.94 0 01-1.3.5 15.84 15.84 0 01-4.3 1c-1.5 3.6-.6 11.1 1.5 14.8.3.2.6 0 .8-.1a7.55 7.55 0 001.4-1.1 19 19 0 003.4-5.4 1 1 0 01.4-.5c.3 0 .4.3.4.5v1.1c.3-.1.3-.3.4-.5a28.65 28.65 0 015-8.2 11.91 11.91 0 013.4-2.9 4.18 4.18 0 013.3-.4 3.43 3.43 0 011.3 3.4 18 18 0 01-.8 3.9 8.69 8.69 0 01-6.3 6 7.6 7.6 0 01-3.4.4zm.1-.8a19.1 19.1 0 002.6-.9 8.21 8.21 0 003.8-3.1 12.63 12.63 0 001.4-5.7c0-.3-.2-.7-.5-.7a13.2 13.2 0 00-4.6 4.5c-1.09 1.7-2.4 3.36-2.69 5.86zm-44.2-2.3a7.39 7.39 0 004.4-1.7 5.83 5.83 0 002.1-3.8 3.11 3.11 0 000-2.5 2 2 0 00-.8.4c-.6.5-1.2 1-1.7 1.5a24.54 24.54 0 00-3.1 4.1 4.57 4.57 0 00-.9 1.96zM30 20.66c.4-.4.9-.8 1.3-1.2a5.7 5.7 0 012.8-1.6 2.13 2.13 0 011.5.7 2.16 2.16 0 01.5 1.7c-.1.6-.1 1.2-.2 1.8-.3 1.9-.6 3.9-.8 5.8-.1 1.2-.1 2.5-.1 3.8a4.4 4.4 0 00.7 2.2 1.72 1.72 0 002.1 1 7 7 0 001.9-.6c.9-.4 1.8-.9 2.7-1.4a3.71 3.71 0 012.5-3.8c.8-.3 1.7-.8 2.6.1-.9 1.1-1.7 2.2-1.3 3.7a1.76 1.76 0 00.9 1.3 3.17 3.17 0 002.5-.3 9.58 9.58 0 002.5-2 6.38 6.38 0 00.8-1.4c.9-1.9.5-3.4-1.2-4.9-2.2-.5-4.5.1-6.6.2l-2.3-.8a1.28 1.28 0 01-.5-.7v-.4a6 6 0 012-2.7 26 26 0 013.8-2.7 4.89 4.89 0 012.3-.8c.5.1.9.2 1.1.7-.4.4-.7-.1-1 0a13.57 13.57 0 00-5 4.2c-.3.4-.7.7-.5 1.3.5.3.9-.1 1.4-.1s.8-.1 1.2-.1a11 11 0 015.4.2 5.82 5.82 0 013.4 3.9l.7-1.4a37.9 37.9 0 016-8.4 3.23 3.23 0 011.7-1 2.46 2.46 0 011.7.1c.4.2.7.5.5 1-.4.4-.9-.1-1.6.3a4.34 4.34 0 00-.7.6 24.76 24.76 0 00-5.5 8.7 7.35 7.35 0 00-.2 3.9 3.56 3.56 0 003.4 1.6 10.25 10.25 0 006.7-2.9 22.45 22.45 0 012.5-6c.9-1.8 1.6-3.7 2.4-5.6.1-.2.1-.3.2-.4a.48.48 0 01.6.2 1.7 1.7 0 01.1.7 42.85 42.85 0 01-1.5 5.1 26.91 26.91 0 00-1.7 5.5 8.54 8.54 0 00.1 4.2 1.1 1.1 0 01-.6 1l-2-.4-.5-.8c-.2 0-.3.1-.5.2a9 9 0 01-5 1.6h-.9a17.29 17.29 0 01-3.1-.7 4.57 4.57 0 01-2.9-2.7c0-.1-.1-.2-.2-.3a.35.35 0 00-.2-.1 2.87 2.87 0 00-.8 1.3 9.56 9.56 0 01-5.2 4.1 5 5 0 01-3.2-.1 9.22 9.22 0 01-3.3-1.6c-.9.5-1.7 1-2.6 1.4a7.15 7.15 0 01-5.9-.3 2.21 2.21 0 01-1.2-1.3 5.12 5.12 0 01-.9-2.7A17.76 17.76 0 0133 28c.3-1.8.6-3.5.8-5.3a1.51 1.51 0 00-.1-1.3 9.58 9.58 0 00-2.6 4 55.44 55.44 0 00-1.8 6.7c-.3 1-.4 2.1-.8 3.1a3.45 3.45 0 01-1.6 2.1c-.7.1-.8-.3-1.1-.4l-.7.1c-.3-.2-.5-.4-.4-.7.3-1 .6-2.1.9-3.1a6.46 6.46 0 00.4-1.9c.4-.4.3-1 .4-1.5a2.1 2.1 0 00.7-1.4c.8-2.8 1.5-5.5 2.3-8.3.2-.7.2-1.5.9-2 .4 0 .5.2.5.5a3 3 0 01-.2 1c-.6.1-.7.6-.6 1.1l-.1.1zM25.72 30.66c-.4.7-.7 1.5-1.1 2.2a6.49 6.49 0 01-4.1 3.5 5.11 5.11 0 01-4.8-.3 2.54 2.54 0 01-1-.8c-.2-.3-.5-.7-.7-1a5.52 5.52 0 01-4.8 1.9A11.82 11.82 0 013 34.06a5.66 5.66 0 01-1.9-2.4 13.51 13.51 0 01-1.1-4.5 25.55 25.55 0 014.9-15.8 24 24 0 018.4-7.1 12.26 12.26 0 016.2-1.4 3.61 3.61 0 012 .6c1.5.8 1.8 1.7 1.1 3.6-.8-.8-1.3-1.9-2.4-2.5a9.22 9.22 0 00-5.6 1.2 22.11 22.11 0 00-7.3 5.9 6.06 6.06 0 00-.7 1 23.79 23.79 0 00-3.9 9.6 15.46 15.46 0 00.2 7.1 6.55 6.55 0 001.8 3 5.55 5.55 0 005.6 1.4 6.76 6.76 0 013.2-.5 25.8 25.8 0 01.3-2.9 22.38 22.38 0 015.2-10 6.58 6.58 0 012.3-1.7 2 2 0 012.7.6 5.44 5.44 0 011.4 3.4 36.49 36.49 0 01.3 6.6c-.1.4.1 1 0 1.4zm-5.2-8.8a21.26 21.26 0 00-4.1 7.7 10.2 10.2 0 00-.3 3 2.73 2.73 0 001.2 2.4 2.75 2.75 0 002-.2 5.69 5.69 0 002.8-3.3 17.28 17.28 0 000-9.3c0-.1-.2-.2-.2-.3a3.27 3.27 0 00-1.4 0zM73 12.36c.5-1.3 1.2-1.4 2.5-.2v.5a1.75 1.75 0 01-.4.5c-.69-.4-1.48-.3-2.1-.8z"/></g></g></g></svg>