<svg xmlns="http://www.w3.org/2000/svg" viewBox="0 0 99.08 59.31"><g data-name="Layer 2"><g data-name="Layer 1"><g data-name="Calque 2"><path d="M29 38.13a1.07 1.07 0 01-.35-.35l-1.19-1.88a1.76 1.76 0 00-.4.5 10.64 10.64 0 01-5.3 4.3 8.51 8.51 0 01-1.7.6 6.52 6.52 0 01-5.2-1.4 4.76 4.76 0 01-1.3-4.8 20.51 20.51 0 011.6-4.1 11.94 11.94 0 00.8-1.6c.2-.2.1-.5 0-.7-.8.1-1.6.7-2.4.8l-2.37.28a1.14 1.14 0 01-.26 0A14.73 14.73 0 018 28.91a1 1 0 00-1.27.65c-.1.31-.18.64-.28.95-.8 2.89-1.49 5.78-2.29 8.56v.07c-.16.86-.3 1.77-.5 2.56-.1.5-.3 1-.4 1.5a.76.76 0 01-.8.6.76.76 0 01-.6-.8c-.4.1-.6.6-1.1.3-.2-.2-.3-.4-.2-.6 1-4.1 2-8.1 3.3-12.1 1.4-4.5 2.9-9 4.5-13.4.4-1.1.8-2.1 1.2-3.2.2-.5.4-.9.9-1a1.37 1.37 0 011.1.4c0 .2.1.4.1.6l-.6 2.1c-.77 2.5-1.54 4.9-2.3 7.3a1.13 1.13 0 000 .6c.24 1-.09 2.19.91 3.1a2.94 2.94 0 002.6.3c.6-.2 1.2-.3 1.7-.5a21.92 21.92 0 007.4-4.6A9.84 9.84 0 0024 17.5a17.08 17.08 0 00-.5-8.1 18.67 18.67 0 00-.7-2.2 9.91 9.91 0 00-4.42-5.09A1.17 1.17 0 0018 2a7.1 7.1 0 00-5.2 1.24 19.52 19.52 0 00-6 5.8c-1.2 1.8-2.4 3.7-3.6 5.6a9.15 9.15 0 00-.7 1.4c-.3.7-.7 1.4-.9 2a1.19 1.19 0 01-1.3-.1.92.92 0 01-.2-1 16.08 16.08 0 011.7-4.3c1.4-2.1 2.6-4.4 4.2-6.4A16.7 16.7 0 0113.06.7a8.13 8.13 0 019 1.6 12.1 12.1 0 013.4 5.2 26.19 26.19 0 011.1 4 17 17 0 01-.3 7.1 11.37 11.37 0 01-1.9 4 3 3 0 00-.7 1.1c1.58 1 3.52 1.62 4.42 3.39a1.1 1.1 0 00.6.56l1.32.45a1.39 1.39 0 00.8-.7 14.35 14.35 0 013.3-3.2 9.34 9.34 0 014.4-1.6.6.6 0 01.4.1 3.63 3.63 0 012.8 4.9 4 4 0 01-1.4 2.2 12.59 12.59 0 01-5.1 2.4 14 14 0 01-3.46.49 1.06 1.06 0 00-1 .77c-.43 1.56 0 2.54 1.43 3.77a1.09 1.09 0 00.49.23 5.58 5.58 0 004.53-1.16 7.55 7.55 0 001.4-1.1 4.89 4.89 0 011.08-.68 1 1 0 011.33.58 3.32 3.32 0 01.13.6 6.46 6.46 0 01-5 4A9.94 9.94 0 0129 38.13zM25.76 31l-4.1.3c-1.16.08-2.19-.45-3.3-.58a1 1 0 00-1 .51c-1.19 2.06-2 4.14-1.44 6.53a1 1 0 00.21.43 5.83 5.83 0 01.55.61c.3.2.5.4.8.6 1.5.3 1.9 0 3.5-.8a8.15 8.15 0 004.8-7.6zm5.7.1a4.33 4.33 0 01.5.1c1.4-.5 2.7-.9 4-1.4a5.68 5.68 0 001.8-1.2 2.84 2.84 0 00.9-1.9 2.35 2.35 0 00-.08-1.15 1 1 0 00-1.14-.69 5 5 0 00-.88.34 14.73 14.73 0 00-5.1 5.9zm-6.1-2.7a3.34 3.34 0 00-1.48-2 1.07 1.07 0 00-.46-.14A4.82 4.82 0 0019.36 28a.78.78 0 00-.2.8 9.58 9.58 0 006.2-.4zM64.72 22.74a5 5 0 011.06.33 1 1 0 001-.1 2.28 2.28 0 011.28-.57 1.66 1.66 0 011.3 1 12.1 12.1 0 01-.5 4.2c-.9 3.8-1.9 7.6-2.8 11.5a126.13 126.13 0 00-2.8 14.9 25.62 25.62 0 00-.3 3.9 1.54 1.54 0 01-.6 1.4c-.6.1-.5-.6-1-.8-.4 0-.6.8-1.2.4a2.2 2.2 0 01-.2-1.4 31.92 31.92 0 01.6-5.2c.5-3.7 1.3-7.4 2.1-11.1.3-1.3.6-2.6 1-3.9-.6-.4-1 0-1.4.1l-1 .25a1 1 0 01-.4 0L59 37.4c-2.2-.3-3-2.1-2.9-4a11.38 11.38 0 011.08-3.56v-.09a19 19 0 013-4.36 8.32 8.32 0 014-2.63 1.08 1.08 0 01.54-.02zm-6.39 12.41a1 1 0 00.36.41 2.27 2.27 0 002.47-.06 4.52 4.52 0 002-2.3 23.16 23.16 0 001.3-3.7c.2-1.09.59-2.18.89-3.26v-.08c.1-.48.19-.87.29-1.36 0-.1-.1-.2-.1-.3a.72.72 0 00-.7-.4 6.06 6.06 0 00-2.8 1.6 15 15 0 00-3.8 6 4.46 4.46 0 00.09 3.45zM84.16 35.77a1.22 1.22 0 00.23.23 3.11 3.11 0 001.87.7 2.72 2.72 0 00.9 0A19.67 19.67 0 0096 34c.3-.2.7-.4 1-.6a1.81 1.81 0 011.82.5.94.94 0 01.25.46 2.45 2.45 0 01-.62 2 1.08 1.08 0 01-.37.31 19.79 19.79 0 01-9.79 2.69 14.64 14.64 0 01-5-1.2 4.58 4.58 0 01-2.7-5.1 16.92 16.92 0 013.5-7.7 12.87 12.87 0 016-4.3c.1 0 .3-.1.4-.1a2.22 2.22 0 012 1.13 1.17 1.17 0 01.14.35 5 5 0 01-.25 3 9.53 9.53 0 01-1.3 2.9 7 7 0 01-3.7 2.6 16.85 16.85 0 01-2.9.7 1 1 0 00-.85.85 8.22 8.22 0 01-.14 1 1.05 1.05 0 000 .55 4.71 4.71 0 00.67 1.73zM89.56 24a11.65 11.65 0 00-4.9 5.4c-.1.2-.2.4 0 .6a6.32 6.32 0 004.9-6zM46 22.7c.5.1.9-.3 1.3-.5a14.62 14.62 0 013.3-1.2 1 1 0 01.21 2 29 29 0 01-4.7 1.6c-.2.1-.4.1-.6.2-.3 1.3-.6 2.6-.8 3.9s-.5 2.6-.6 3.9a10.24 10.24 0 00.2 4.6 1.79 1.79 0 00.5.7.92.92 0 001-.1 10.81 10.81 0 003-1.6c.7-.6 1.4-1.1 2.1-1.7a3.59 3.59 0 01.34-.3l2-3a12.4 12.4 0 01.75-2.4c.5-1.5 1-2.9 1.4-4.4a7.84 7.84 0 01.5-1.4c.1-.2.2-.3.4-.3s.3.3.3.6a14.39 14.39 0 01-.5 4.1c-.6 2.4-1 4.9-1.5 7.3a10.89 10.89 0 00-.1 3.6 1 1 0 01-.3 1.1c-.4.2-.6-.3-1-.3a1.1 1.1 0 01-.9-.3l-.5-1c-1 .5-1.9 1.1-2.9 1.6a8.65 8.65 0 01-1.7.7 3 3 0 01-2.3 0 10.16 10.16 0 00-1.53-.35 1 1 0 01-.49-.22c-1.29-1.1-1.38-2.71-1.38-4.23a11.85 11.85 0 01.5-3.2c.4-2 .9-4.1 1.4-6.1a4.32 4.32 0 00.06-1.21 1.12 1.12 0 01.16-.72 4 4 0 00.68-1.57 53.47 53.47 0 012.1-6.8l2.4-6.9a4.37 4.37 0 01.9-1.8c.2-.2.4-.3.6-.2.4.3.2.6.1 1-.5 1.5-.9 3.1-1.5 4.6-1 2.9-1.8 5.9-2.6 8.9a3.19 3.19 0 00-.3 1.4c-.1 0-.2.1-.1.1a.1.1 0 00.1-.1zM72.26 23.4c.5-.1.7 0 .8.2s.1.2.1.3c-.3 1.4-.6 2.8-.8 4.2a12.22 12.22 0 00.2 5.7 2.4 2.4 0 001.5 1.6 1.14 1.14 0 00.8-.7 21.14 21.14 0 002.2-5.4 34.72 34.72 0 011.3-4.6c.3-1.1.7-1.4 2-1.8a1.52 1.52 0 011.2.7 2.19 2.19 0 01.2 1.6c-.2.7-.3 1.4-.5 2.1-.5 1.6-.9 3.2-1.4 4.8a13.83 13.83 0 01-2 3.8 4.42 4.42 0 01-1.71 1.59 1.11 1.11 0 01-.4.15 8 8 0 01-3.6-.78 1.08 1.08 0 01-.35-.19 4.68 4.68 0 01-1.54-3.47 14.54 14.54 0 01.5-5.1c.3-1.3.7-2.5 1.1-3.8a2.56 2.56 0 01.4-.9z"/><path d="M35.26 20.4c-.4-.2-.8-.1-.9-.6.1-.5.5-.6.9-.8a10.52 10.52 0 003.4-2.9A27.24 27.24 0 0141 13.6a2.14 2.14 0 011.7-.8 1.21 1.21 0 01.7.7 5.17 5.17 0 01-1.3 2.8 10.37 10.37 0 01-4.3 3.1 7.71 7.71 0 00-2.54 1zM53.66 21a1.55 1.55 0 011.4-1.6 1.43 1.43 0 011.2.6 1.28 1.28 0 010 1.2 2.11 2.11 0 01-1 .4c-.4-.6-1.1-.4-1.6-.6z"/></g></g></g></svg>