<svg xmlns="http://www.w3.org/2000/svg" viewBox="0 0 107.34 99.25"><g data-name="Layer 2"><g data-name="Layer 1"><g data-name="Calque 2"><path d="M95.84 60.9a56 56 0 01-1 10.2c-2.4 13.1-17 27.1-30.4 28-14.9 1-27.7-3-37.8-14.1C19 76.6 17 66.5 19.54 55.6c2.4-10.5 8.9-18.1 17.5-24.1a46.87 46.87 0 018.3-4.4c3.7-1.7 7.7-1.1 11.6-.8a59.79 59.79 0 0124.7 7.9c6.6 3.8 11.4 9.3 13.1 17 .7 3.3 1.4 6.6 1.1 9.7zm-37.1-18.6c.8-5.5-2.1-8.9-6.2-11.8a4.62 4.62 0 00-3.2-.9c-3.3.4-6.6.8-9.6 2.6a38.91 38.91 0 00-10.3 9.5 2.38 2.38 0 00-.7 2.4c.9 2.8 1.6 5.6 2.5 8.3a14.73 14.73 0 006.3 8c3.2 1.8 6.4 3.7 9.6 5.5 5.6 3.1 8.7 7.4 7.1 14.3A8.47 8.47 0 0058 89.8a8.52 8.52 0 013.2 3.8c1.2 3.1 1.2 3.1 4.4 2.5l2.6-.6a2.89 2.89 0 002.5-2.7c.6-3.3 1.4-6.6 1.2-9.9-.1-3.1 1.5-5 3.8-6.6a8.87 8.87 0 014.3-1.7c3.7-.3 6.6-2.5 9.9-3.8a1.29 1.29 0 00.8-1.3c.5-5.6 1.1-11.1-.5-16.6-.8-2.5-1.3-3.1-3.8-3.5-2.3-.3-4.4.4-6.6.8-3.9.9-7.8 1.9-11.8 2.7-4.9.9-8.3-1.6-9.1-6.5-.06-1.4-.06-2.8-.16-4.1zm-31.8 3.9a1.7 1.7 0 01-.7-.1c-5.1 9.6-6.6 19.4-2.1 29.7a33 33 0 0010.6 13.1c7 5.2 14.8 7.5 23.6 7.8-1.9-1.9-2.8-4.3-4.8-5.8-3.5-2.4-4.6-5.9-4.1-10 .1-1 .2-2 .4-3 .7-3.5-.1-6.4-3.4-8.4-3.9-2.4-7.7-4.9-11.6-7.3a9.42 9.42 0 01-3-2.6c-2-2.8-3.8-5.8-4.1-9.4-.2-1.2-.6-2.6-.8-4zm60.6 0a6 6 0 00-1.9-3.3c-5.1-6.4-12.4-9.2-19.9-11.6a29.74 29.74 0 00-9.6-1.3 7.9 7.9 0 00.8 1.1c3.6 2.9 5.8 6.4 5.5 11.2-.1.9.3 1.7.3 2.7.2 5 2.5 5.5 6.7 4.5.4-.1.8-.3 1.3-.4 5.6-.9 10.8-3.8 16.8-2.9zm2.3 27.4a22.32 22.32 0 01-8.3 3.8c-2.9.7-5.3 2.2-5.4 5.6-.1 3-.4 5.9-.8 9.4 7.1-5.1 12.3-10.7 14.5-18.8zM52.74 5.6a17.09 17.09 0 01.4-4.2c.3-.8.7-1.4 1.6-1.4a1.71 1.71 0 011.7 1.3 5 5 0 01.4 1.3c.3 2.6.5 5.1.7 7.7a2.12 2.12 0 01-1.3 2.5c-1.3.4-2-.6-2.4-1.7a15.7 15.7 0 01-1.1-5.5zM2.94 23.6c3.1.7 6.2 1.5 8.6 4 .6.6 1.3 1.4.7 2.4-.5.8-1.4.3-2.1.1-2.6-.9-5.2-1.8-7.9-2.7-1-.3-2.5-.5-2.2-2s1.6-1.6 2.9-1.8zM96.24 29.9c-.8-.1-1.4-.1-1.6-.7s.2-1 .7-1.3c2.9-1.8 5.8-3.7 8.7-5.4a3.77 3.77 0 011.6-.5 1.37 1.37 0 011.3 2.3 19.25 19.25 0 01-10.7 5.6z"/></g></g></g></svg>