<svg xmlns="http://www.w3.org/2000/svg" fill="currentColor" viewBox="0 0 200.64 47.88"><g data-name="Layer 2"><g data-name="Layer 1"><g data-name="Calque 2"><path d="M64 33.74c0-1.2-.1-2.4-.1-3.5 0-1.7.2-3.5.3-5.2a2.84 2.84 0 01.4-1.2 1.22 1.22 0 01.9-.8c.1 0 .2-.1.3-.1 1.2-.5 1.3-.8 1.1-2.1-.1-.6 0-.8.5-.9a1.41 1.41 0 01.9-.1 20.09 20.09 0 004.9.1c.3 0 .6-.1.9-.1.7 0 1.1.5 1.1 1.3s0 1 .9 1.3a.1.1 0 01.1.1c1.6.3 2 1.5 2.1 2.8.2 1.8.3 3.6.4 5.4.1 1 .1 1.9.2 2.9 0 .7.1 1.4.1 2.2 0 1.2 0 2.5.1 3.7a8.1 8.1 0 010 2.2 8.76 8.76 0 000 2.8 2.49 2.49 0 01-.1.8c-.1.8-.2.9-1 .7a8.68 8.68 0 00-2.8-.1 13.56 13.56 0 00-2 .2c-1.2.1-2.5.1-3.7.2a34.39 34.39 0 01-4.6-.3.47.47 0 01-.5-.5 9.55 9.55 0 01-.3-2.9 25.68 25.68 0 00-.1-4.8c-.1-1.3-.1-2.6-.2-3.8.1-.3.1-.3.2-.3zm1.4 11.4c-.1-.1-.2-.1-.3-.2L65 45l.1.1a.19.19 0 01.3.04zm12.1-4.5v-2.3c0-.2-.2-.4-.4-.3-1.3.2-2.6.3-3.8.5a16 16 0 01-4.9-.5c-.6-.1-1.1-.4-.8-1.2a.6.6 0 00-.1-.4 1.32 1.32 0 01-.2-1.2 10.45 10.45 0 000-2.5c-.1-1.5.4-1.9 1.9-1.8h.2a26.56 26.56 0 006.9 0 1.45 1.45 0 00.7-.2.55.55 0 00.3-.5 9.65 9.65 0 010-1.7 8.27 8.27 0 00-.4-3.8 1.92 1.92 0 00-1.5-1.6 1.34 1.34 0 01-1.2-1.5v-.5c-.1-.3-.2-.5-.5-.5s-.6-.1-.9-.1a8.58 8.58 0 01-2.3-.2 4.87 4.87 0 00-2.1.2.45.45 0 00-.3.3v1.1a.45.45 0 00.3.3 4.1 4.1 0 001.1.1 9.7 9.7 0 011.7.1c.1 0 .1.1.2.1-.1.1-.2.1-.2.2a6.87 6.87 0 01-2.4.5h-1.2a1.72 1.72 0 00-1.5.9 3.29 3.29 0 00-.6 1.9 1.94 1.94 0 01-.3 1.3 2.67 2.67 0 00-.2 1.8 2.2 2.2 0 01.1.8V34a2.12 2.12 0 00-.3.7c-.1.4.4.4.5.7a7.57 7.57 0 01.1 1.5 36.83 36.83 0 00.6 6.6.82.82 0 00.4.6 3.77 3.77 0 002.7.8 7.57 7.57 0 011.5-.1 14.08 14.08 0 012.9-.1c1.2 0 2.4.4 3.7.1.5-.1.5-.1.3-.7 0-.1-.1-.3-.1-.4a10.5 10.5 0 00.1-3.06zm-.1-5.8c.1-.7.1-1.3.2-2 0-.5-.1-.6-.7-.7-.2 0-.4-.1-.6-.1a13.41 13.41 0 00-4 0 10.29 10.29 0 01-3.5 0h-.5c-.1.4.3.3.5.4a1.16 1.16 0 01.5.7 9.7 9.7 0 00.1 1.7c.3 2.7-.1 2.6 2.8 2.5 1.1 0 2.2 0 3.2-.1a15.16 15.16 0 002.1-.3c.2-.6-.2-1.4-.1-2.1zm-8.9-.6zM94.2 39.84c0 1 .1 2.1.1 3.1a6.6 6.6 0 01-.1 1.4 2.08 2.08 0 01-2.1 1.9c-1.8.1-3.6.2-5.4.2a2.39 2.39 0 01-1.4-.5 2.56 2.56 0 01-1.3-1.6 11.27 11.27 0 01-.3-1.8.55.55 0 01.3-.54c.2-.3.3-.4 0-.7s-.1-.7-.1-1c0-1.4.1-2.8.1-4.1a4.05 4.05 0 000-1.1c-.4-1.1 0-2.3-.3-3.4a.71.71 0 01.3-.6 6.11 6.11 0 011.4-.7.67.67 0 00.5-.7 2.2 2.2 0 01.1-.8.64.64 0 00-.5-.7c-.6-.1-.7-.5-.6-1v-.3c.1-.6.1-.6.6-.7a17.71 17.71 0 014.6 0 13.36 13.36 0 002 0 1 1 0 01.9 1.3c0 .1-.2.3-.3.4a2.5 2.5 0 00-.7.4c-.1.1-.3.2-.3.3a5 5 0 00.2 1.2c.1.2.4.3.6.4a9.29 9.29 0 001 .5c.1.1.3.2.3.3a5.84 5.84 0 01.4 1.8 43.42 43.42 0 00.1 5.1 6.23 6.23 0 00-.1 1.9zm-5.5-4.5c.7-.1 1.6 0 2.5-.1.4-.1.7.2.7.7v.3a5.72 5.72 0 00-.1 2.6 2.77 2.77 0 01-.1.9c0 .2-.2.3-.4.4a.75.75 0 01-.5.1c-1.6 0-3.3.1-4.9.1-1 0-1 0-.9 1.1a4.1 4.1 0 00.1 1.1 5.56 5.56 0 00.6 2.1 1.21 1.21 0 00.5.5 2 2 0 002.1.1.66.66 0 01.6-.1c.9.5 1.9.2 2.9.2.6 0 .8-.3.9-.8v-.6c0-2.3 0-4.5.1-6.8 0-.8-.2-1.6-.2-2.4a19.27 19.27 0 00-.1-2.4.82.82 0 00-.4-.6c-.2-.1-.5-.2-.7-.3-1.3-.4-1.3-.4-1.2-1.7v-1.1a.75.75 0 01.5-.7 2 2 0 00.8-.4v-.2a8.13 8.13 0 00-3.8-.4c-.5.5-1.1.4-1.7.5a.22.22 0 00-.2.2.37.37 0 00.1.3l.1.1c1.5.5 1.2.8 1.2 2.1v.6c0 .4-.2.6-.5.6a1.56 1.56 0 00-1.5 1.6 10.87 10.87 0 00-.1 1.8c0 .5.2.8.8.8a11 11 0 012.8-.2zm-2.4.6h-.9c-.1 0-.2.1-.3.2a1.48 1.48 0 000 1.3 1.85 1.85 0 00.7.2 1.8 1.8 0 011.2.3c.2.1.4.1.5-.1.4-.5.7-.5 1.2-.1.2.1.3.2.5.3.4.1 1-.2 1-.6V36c0-.2-.2-.2-.3-.1a2.08 2.08 0 01-1.3.3zm1.6 3.8a14.12 14.12 0 002.2-.1 1 1 0 00.8-.5c.1-.2 0-.5-.1-.5a7.8 7.8 0 01-2.2-.3.76.76 0 00-.4.2 1.08 1.08 0 01-1.4.1 2 2 0 00-1.3-.2c-.3 0-.4.4-.4.7s.2.3.4.3c.9.1 1.8.2 2.4.3zm-3.6-.1h-.2c0 .1.1.1.2 0zM56.1 45.84h-2.3a2.2 2.2 0 01-.8-.1c-1.6-.4-1.9-.6-1.8-2.2.1-1 0-2.1 0-3.1a24.5 24.5 0 00.2-2.7c0-.6.1-1.2.1-1.9a3 3 0 011.5-2.7c.7-.4.8-.7.6-1.4-.1-.3-.3-.7-.4-1a1.05 1.05 0 011-1.5c1.5 0 3 .1 4.5.2a5.27 5.27 0 011.2.3.87.87 0 01.1 1.6c-.1.1-.3.1-.4.2s-.3.2-.2.4a2.66 2.66 0 00.3 1.2c.1.2.4.3.6.4 1.1.2 1.4 1 1.5 2l.3 3.9v4.5a1.27 1.27 0 00.1.6c.2.3.3.5 0 .8a1.05 1.05 0 01-.9.5zM60.7 38a4.1 4.1 0 00.1-1.1 2.85 2.85 0 00-.8-2.5 1.28 1.28 0 00-.6-.4c-1.3-.2-1.3-.3-1.3-1.4v-1.1c0-.4.1-.5.5-.6h.6a.22.22 0 00.2-.2.6.6 0 00-.1-.4.85.85 0 00-.5-.3l-3.7-.3c-.3 0-.5.1-.5.4a.42.42 0 00.3.6.62.62 0 01.5.8 6.6 6.6 0 01-.1 1.4.76.76 0 01-.6.8c-.2.1-.4.1-.6.2-1.5.6-1.6.7-1.6 2.2 0 .6.1.7.7.8.4 0 .7.1 1.1.1H60c.4 0 .6.2.6.5a6.6 6.6 0 01-.1 1.4 3.67 3.67 0 00.1 1.8c0 .1.2.1.3.2 0-.1.1-.2.1-.3-.1-.66-.2-1.6-.3-2.6zm-5.3 7.3c1.3-.1 2.7-.2 4.1-.4.3 0 .7-.3 1-.4a.75.75 0 00.5-.7v-.9c0-.2-.2-.4-.4-.3a27.2 27.2 0 01-5.7.2 6.6 6.6 0 01-1.4-.1c-.3-.1-.5-.3-.8-.4s-.3-.3-.4-.4a1.42 1.42 0 00-.2.6c0 .7.1 1.3.1 2 0 .4.2.5.6.6a7.82 7.82 0 012.6.24zm1-3.1c1-.1 1.8-.1 2.7-.2s.9-.2.5-1.1c-.1-.2-.1-.4-.2-.6a14.77 14.77 0 01-.1-2.1.56.56 0 00-.7-.6 6 6 0 00-2.2.6 1.85 1.85 0 01-.7.2 2.92 2.92 0 01-.9-.2c-1.1-.2-1.1-.2-1.1 1a2.2 2.2 0 00.1.8c0 .1.2.1.3.1s.1-.1.2-.2c.7-.7.7-.7 1.4 0 .2.2.3.2.5.1.4-.2.7-.4 1.1-.6a.91.91 0 011 0 1.47 1.47 0 01.5.6c0 .4-.3.3-.6.3a2.89 2.89 0 00-1.8.3 1.39 1.39 0 01-.9 0c-.5-.3-1 0-1.5 0-.3 0-.6.6-.6 1s.3.4.5.4c.9.14 1.8.14 2.5.24zm-4-2.8c-.1 0-.1.1 0 0a3.75 3.75 0 00-.1 1v.1l.1-.1a3.35 3.35 0 000-1z"/><path d="M67.3 26.74v.5c0 .2 0 .5-.1.5-.2.2-.5 0-.7-.2-.7-.5-.6-1.4.1-2.1a.45.45 0 01.5 0c.1 0 .2.2.2.4a2.72 2.72 0 010 .9zM73.3 35.74a1.49 1.49 0 00-.6-.1c-.4 0-.4-.7-.9-.4-.3.1-.4.4-.7.6-.1.1-.4.1-.6.1s-.4-.2-.3-.4a.76.76 0 01.2-.4 13 13 0 011.5-1c.2-.1.6.1.8.3s.1.8.6.8c.3 0 .6-.3.8-.4.5-.4 1-.2 1.5-.2.1 0 .2.1.3.1-.1.1-.2.2-.3.2-.5-.1-.8.3-1.2.5a2 2 0 00-1.1.3zM86.4 33.74a.35.35 0 01-.2-.1.77.77 0 01.4-1.2c.1 0 .3.1.4.1a1.29 1.29 0 01-.4 1.2zM58.7 35.64c-.1 0-.2.1-.3.1a.75.75 0 01-.7-.5c-.1-.2-.3-.3-.1-.5a.6.6 0 01.4-.1c.6.2.8.5.7 1zM133.6 45.84h-.2c-.5 0-.6-.2-.8-.8s-.2-.6-.6-.4c-.2.1-.5.1-.7.2s-.3.1-.3.2c-.1.6-.6.6-1.1.6-2.3 0-4.6-.1-6.9 0-.6 0-1.2-.1-1.8-.1-1-.1-2.1-.1-3.1-.1-.2 0-.3-.1-.2-.3a8.33 8.33 0 00.4-1.5 1.85 1.85 0 01.7-1.2 1 1 0 00.4-.5c.2-.5.3-.5.9-.5s.6.1.8-.4c.3-1 .7-2.1 1-3.1.1-.2.1-.4.2-.5a1.82 1.82 0 011-1.1 4.93 4.93 0 002.6-1.9c1.5-1.7 3.1-3.4 4.7-5.1.8-.9 1.5-1.9 2.3-2.8.5-.6 1-1.1 1.5-1.7.8-.9 1.6-1.7 2.3-2.6 1.2-1.3 2.4-2.7 3.5-4l.4-.4a.47.47 0 00.1-.6c-.1-.2-.2-.3-.3-.5a3.59 3.59 0 00-1.5-2.4c-1.5-1.3-2.9-2.7-4.3-4a5 5 0 00-2.3-1.4 1.61 1.61 0 01-.7-.4.45.45 0 00-.5 0c-.7.9-1.6 1.6-2.3 2.4a46.42 46.42 0 01-3.9 3.8 4.18 4.18 0 00-1.1 1.8 1.9 1.9 0 01-.5 1c-.7.7-1.1.6-1.7-.2-.7-1.1-1.5-2.3-2.3-3.4-.1-.2-.2-.3-.3-.5a61.68 61.68 0 00-4.8-6.6c-.3-.4-.3-.7.3-.9a1.4 1.4 0 011.1 0 1.1 1.1 0 001.1-.1c2.3-1 4.6-1.9 6.9-2.8 1.6-.7 3.1-1.5 4.7-2.2.7-.3 1.5-.5 2.2-.8.3-.1.5 0 .7.3a.83.83 0 001 .5c.4-.1.7.2 1 .5s.5.6.7.9.4.8 0 1.2a.48.48 0 000 .7c.1.1.2.2.2.3a.78.78 0 01-.2 1 .66.66 0 00-.4.5c0 .2.3.4.4.5s.2.2.2.3c.3 1.2 1.3 1.8 2.1 2.6 1.4 1.3 2.8 2.5 4.2 3.8a2.52 2.52 0 002 .9 1.88 1.88 0 011.7.8 1.75 1.75 0 01.3 1.7c-.2.5-.3.9.2 1.2a.22.22 0 01.2.2.31.31 0 01.1.2.35.35 0 00-.2.1 1.54 1.54 0 00-1.6.2 3.29 3.29 0 01-.6.3c-.8-.2-1.2.4-1.6.8-2.5 2.8-5 5.7-7.5 8.5-.7.8-1.3 1.6-1.9 2.4a26.72 26.72 0 01-3.1 3.6 23.08 23.08 0 00-1.4 1.9c-.1.1 0 .3 0 .4a6.08 6.08 0 01.8 2.7c.4 2.4.2 1.9 2.1 2.9a1.89 1.89 0 011.2 1.4c.1.4.3.4.6.4a2.35 2.35 0 00.8-.2.68.68 0 01.9.6.6.6 0 00.1.4c0 .3.2.4.5.4a7.57 7.57 0 011.5-.1 2 2 0 01.8.1l.1.1a.35.35 0 01-.1.2 6.26 6.26 0 01-2.7.6zm-13.2-39.2a3.18 3.18 0 01.3.9 4.05 4.05 0 010 1.1V9c.1-.1.2-.2.2-.3a16.21 16.21 0 00.1-2.2 1.42 1.42 0 01.2-.6c.1-.1.2-.2 0-.2s-.2 0-.2.1a1.56 1.56 0 00-.6.8c-.1-.1-.1-.2-.2-.3a.45.45 0 00-.6-.2.6.6 0 00-.3.6 16 16 0 01.1 3.8v.4c0 .1.1.2.1.3l.1.1a.35.35 0 00.2-.1c.1-1.2.1-2.3.1-3.5 0-.56.1-.86.5-1.06zm3.9.6c0 .8-.1 1.5-.1 2.3 0 .2-.1.3-.2.5v-.4a2.25 2.25 0 01-.2-1.8 10.87 10.87 0 01.4-2.6c0-.1.1-.2.1-.3s-.2-.7-.3-.7c-.3-.1-.8.3-.9.6v.6c0 1.1 0 2.2-.1 3.4a26.36 26.36 0 01-.2 2.8 15.07 15.07 0 00-.1 3 .35.35 0 00.1.2c.1-.1.1-.1.1-.2a28.83 28.83 0 01.4-2.9c.1-.6.2-1.1.3-1.6s.3-.1.5-.1a13.32 13.32 0 01-.3 2.8c-.1.2 0 .5 0 .7a.37.37 0 00.1.3c0 .1.2.1.2.1a5.5 5.5 0 00.9-.7c.2-.2.1-.5 0-.8a5.38 5.38 0 01.4-2.2 1.45 1.45 0 00.2-.7 8.13 8.13 0 01.1-2.2c0-.1.2-.3.4-.4a1 1 0 01.3.1c0 .2 0 .5-.1.5-.5.1-.5.3-.2.7a.76.76 0 01.1.8c-.1.9-.2 1.7-.3 2.6a.16.16 0 00.3.1 1.45 1.45 0 00.2-.7 9.35 9.35 0 01.4-1.6c0-.1.1-.2.2-.1s.3.1.3.2v.3c0 .2-.2.5.1.6.1 0 .3-.2.4-.3 1.2-1.2 2.3-2.4 3.5-3.5.5-.5.5-1.2.8-1.8.2-.4-.3-.7-.5-1.1-.1-.2-.2-.3-.3-.5a4.2 4.2 0 01-.9-1.4.53.53 0 00-.7-.4c-.2.1-.4 0-.5.1-1.3.7-2.6 1.3-3.9 2a1.31 1.31 0 00-.6 1.2 3.35 3.35 0 010 1c-.2.5 0 1.1-.4 1.5zm-3.2 6a2.77 2.77 0 00.1.9.45.45 0 00.3.4c.3.1.2-.2.2-.4s0-.4.2-.5c.3-.3.2-.4 0-.7-.1-.1 0-.3 0-.4 0-.6.1-1.1.1-1.7a19.42 19.42 0 01.2-2.4 5.37 5.37 0 00.1-2.2 4.1 4.1 0 00-.1-1.1.35.35 0 00-.2-.14.1.1 0 00-.1.1c-.1.4-.1.7-.2 1.1a14.77 14.77 0 00-.1 2.1c0 .5-.2 1-.2 1.5s-.3 1.1-.1 1.6a5.54 5.54 0 01-.2 1.84zm-.4-3.4c-.1.1-.2.2-.2.3a3.71 3.71 0 01-.4 1.5c-.3.4-.3.5 0 .7.1.1.2.2.3.2s.1-.3.1-.4c0-.7-.3-1.4.4-2l-.1-.2c.1 0 0 0-.1-.1zm11.8-7.7c-.1 0-.2.1 0 0 0 .2 0 .3.1.4l.1.1a.35.35 0 01.1-.2zm-15.7 5.2c.1.1.1 0 0 0z"/><path d="M118.3 19.24l-.3.3a35 35 0 01-3.1 5.3 6.89 6.89 0 01-1.1 1.3c-.1.1-.2 0-.4 0v-.2a.1.1 0 01.1-.1c1.1-1.1 1.6-2.7 2.6-4a18.65 18.65 0 002.2-3.9 4.34 4.34 0 01.4-.7.33.33 0 01.5 0 .3.3 0 010 .4 12.9 12.9 0 01-.9 1.6zM114.5 10.34a16.69 16.69 0 01-1.8.5c-.9.2-1.8.5-2.7.7a4.33 4.33 0 00-.5.1.35.35 0 01-.2-.1.35.35 0 01.1-.2l.9-.3a27 27 0 013.9-.8c.1 0 .2.1.3.1zM129.4 4.34a1.31 1.31 0 01-1.2.7c-.1 0-.3-.3-.3-.4.1-.4.8-.7 1.3-.6.1-.04.2.2.2.3zM127.4 3.64c-.2-.1-.3-.2-.4-.2s0-.3.1-.3a9.29 9.29 0 011-.5c.1 0 .3.1.3.2s0 .3-.1.3a4.05 4.05 0 00-.9.5zM130.9 5.84a1 1 0 01-.4.5c-.4.4-.8.4-1 .2s.1-.6.5-.8a1.48 1.48 0 01.7-.1c.1 0 .1.1.2.2zM179.5 46.64a13.13 13.13 0 00-2.8.1 15.43 15.43 0 01-6.4-.7c-1.8-.5-3.6-1-5.4-1.6a2.81 2.81 0 00-2.2.1c-1.8.7-3.7 1.3-5.5 2.1a5 5 0 01-2.7.3 38.07 38.07 0 00-4.7-.7c-1.3-.1-2.6-.1-3.9-.1a19.73 19.73 0 01-4.2-.2 3.54 3.54 0 00-3 .4 5.18 5.18 0 01-3 .5c-1.1-.1-2.2-.1-3.4-.2a32.17 32.17 0 00-6.2.2 42.27 42.27 0 01-12.3-.2 18.42 18.42 0 00-3.3-.3 104.8 104.8 0 00-11.2.4 104.8 104.8 0 01-11.2.4c-2.9 0-5.8.1-8.7-.1s-6-.6-8.9-1a8.78 8.78 0 00-3.6.2 23.28 23.28 0 01-5.3.6c-3.2 0-6.3-.2-9.5-.2s-6.4 0-9.6.1a53.69 53.69 0 01-10.6-.3 23.47 23.47 0 00-7 .1 2.28 2.28 0 00-1.1.3c-3.1 1.3-6.2 1.2-9.4.7-4.5-.7-8.9-1.2-13.4-.4a3.09 3.09 0 01-.8-.2.22.22 0 01-.2-.2 2.27 2.27 0 01.1-.4 56.71 56.71 0 0110.9-.1c1.4.2 2.8.5 4.2.7a16.18 16.18 0 006.9-.5 17.89 17.89 0 018.3-.8 62.9 62.9 0 0011.5.5c6-.2 12-.1 18 0a27.82 27.82 0 005.8-.5 14.66 14.66 0 015.9-.1c1.7.3 3.3.5 5 .7 1.1.1 2.2.1 3.4.1l3.6.3c.7 0 1.5.1 2.2.1 2 0 3.9-.1 5.9-.1a3.75 3.75 0 001.1-.1c6-.8 12-.7 17.9-.8a35.59 35.59 0 014.7.5 26 26 0 005.6.2 73.09 73.09 0 018.1-.3h4.8a10.87 10.87 0 004.4-.5 6.88 6.88 0 012.5-.2c1.7 0 3.4-.1 5.1 0a45.21 45.21 0 015.3.6 10.89 10.89 0 006.9-.5c1.2-.5 2.5-.9 3.7-1.4a5 5 0 013.6-.1c2.5.8 5 1.5 7.5 2.3a3.87 3.87 0 002.8.1 6.56 6.56 0 012.8-.1 43.42 43.42 0 005.1.1 7.29 7.29 0 004.2-1.4c1.5-1.1 3.1-2 4.7-3a6.7 6.7 0 011.8-.7 6 6 0 004.6-2.4 1.6 1.6 0 011-.5c.2 0 .6.1.7.3s0 .5-.1.6a17.39 17.39 0 01-1.5 1.3 4.59 4.59 0 01-2.2 1.1 14.48 14.48 0 00-7.3 3.4 8.87 8.87 0 01-5.4 1.9 37.28 37.28 0 00-4.6-.4z"/></g></g></g></svg>