<svg xmlns="http://www.w3.org/2000/svg" fill="currentColor" viewBox="0 0 116 142"><g data-name="Layer 2"><g data-name="Layer 1"><g data-name="Calque 2"><path d="M61.61 104.91c.1.4 0 .8.2 1 4.2 6.9 8.5 13.8 14 19.8 3.3 3.6 5.5 7.8 8.2 11.8.9 1.4 1.8 2.7 2.8 4 .2.2 1 0 1.4-.2a.83.83 0 00.3-.8c-.9-1.6-1.7-3.2-2.7-4.7-3.7-5.1-7.6-10-11.2-15.1-2.9-4-5.6-8.1-8.4-12.2-.9-1.4-1.5-3-3.1-3.7a8.09 8.09 0 00-1.5.1zM115.51 48.51c.4-.2.5-.2.6-.4a1.08 1.08 0 00.3-.7s-.3-.3-.4-.2c-3.4.3-6.9.6-10.3.8q-4.2.15-8.4 0a14.81 14.81 0 00-6.3.8.83.83 0 00-.3.8c0 .2.3.5.6.7s.7.3.9.2c2.6-.9 5.2-.3 7.8-.4 4.3-.2 8.5-.5 12.8-.9 1-.21 2-.6 2.7-.7z"/><path d="M74 56.91a13.36 13.36 0 002 0c7.4-.7 14 1.9 20.5 4.8 2.7 1.2 3.2 3.4 1.6 6-1.1 1.7-1.9 3.5-3.1 5-3.9 5.3-7.9 10.6-12 15.7a40 40 0 00-5.4 8.8c-.5 1-.9 2.1-1.5 3.1a2.11 2.11 0 01-2.6.9 5.49 5.49 0 01-2.1-1.2c-3.8-2.7-7.4-5.5-11.8-7.3a9 9 0 01-2.8-2.7c-2-2.4-3.8-5-5.7-7.4a1.48 1.48 0 00-2.2-.2c-.9.7-1.9 1.3-2.8 2a5.58 5.58 0 00-.5.8.76.76 0 00.4.2c1 .1 2 0 3 .2a3.15 3.15 0 012.9 3.4 12.86 12.86 0 01-.4 1.9c-.1 2.6-.4 5.3.5 7.8 1.6 4.2 2.8 8.5 5.5 12.1a7 7 0 011.1 2.7c.7 3-1.1 4.9-4 4.6a20.48 20.48 0 00-2.4-.5c-5.3.1-10.5.4-15.8.6-3.3.1-6.5.2-9.7 1.7-2.3 1.1-4.6-.7-4.8-3.3a56.51 56.51 0 00-.4-5.9 10.18 10.18 0 01.5-4.9c2.5-6.3 5-12.6 7.5-18.8.6-1.4.3-2.4-1.1-2.4-3.5 0-7-.1-10.4.2a12.62 12.62 0 00-4.6 1.6c-2.2 1.1-4.3 2.4-6.5 3.6a9.17 9.17 0 01-2.3.9c-.4.1-.9-.3-1.2-.6a1.34 1.34 0 01-.2-.9 5.39 5.39 0 01.7-1.3c2.9-3.6 5.7-7.2 8.6-10.8 2.3-2.8 2.3-4.8 0-7.4s-4.4-4.9-6.6-7.4c-1.2-1.4-2.5-2.7-3.6-4.1C-.09 55.31-.79 52 1 48.21c2.2-4.7 4.6-9.1 8.6-12.6 2.4-2 4.6-4.2 7.1-6.2a5 5 0 002.1-4.2c0-4.9 1.1-9.8.8-14.8a16.66 16.66 0 01.6-4.4 2 2 0 01.8-1.2c1.9-.8 3.7-2.3 6.1-1.1a6 6 0 001.9.6c1.3.2 2.6.2 3.9.3.3-1.1.7-2.1 1-3.2 0-.2.1-.3.2-.5a1.69 1.69 0 012.1-.8 2.19 2.19 0 011.2 1.3c.2 1.1.2 2.3.3 3.4a1.83 1.83 0 001.4 1.8 21.05 21.05 0 012.4.6c2.3.9 4.6 1.8 6.8 2.9a2.15 2.15 0 011 1.5c-.4 3.2.7 6.5-.1 9.7a6.08 6.08 0 00-.1 1.9c.5 2.8-.3 5.6-.1 8.4a33.74 33.74 0 01-.1 8.4 2.55 2.55 0 001.5 2.8c.6.4 1.5.5 1.7-.2.9-2.7 3.1-3.8 5.4-4.8a19.17 19.17 0 005.5-3.3 3.85 3.85 0 012.7-.9c1.5.1 3 .3 4.4.4 6.9.4 13.6 2.5 20.6 2.6a16.91 16.91 0 014.8 1.2c.4.1.6.7.9 1.1a2.41 2.41 0 01-.8.6 116.17 116.17 0 00-14 6.1 22.29 22.29 0 01-5.1 1.9c-4.4.9-7.5 4-10.8 6.6a1.19 1.19 0 00-.2 1.3 1.33 1.33 0 001 .8 32.25 32.25 0 007.5.7zm-45-27.3c4.2 2.6 8.3 5.4 12.5 8 .9.6 1.8.3 1.8-.6v-21.2a7.57 7.57 0 00-.1-1.5 1.92 1.92 0 00-1.4-1.8.9.9 0 00-.5-.1 46.19 46.19 0 00-6.3-1.1c-2-.3-3.8-1.7-5.7-2.6a3 3 0 00-1-.2c-1.5-.3-2.4.1-2.6 1.5-.4 3.1-.8 6.2-1.1 9.3a18.92 18.92 0 000 2.4c-.99 3.6 1.21 5.9 4.4 7.9zm22.6 26.6c-2.2-.3-3.8.9-5.1 2.5-.5.6-1 1.3-1.5 2-3.7 5.1-6.3 10.8-8.8 16.5-.7 1.5.3 4.4 1.6 5.2a2.38 2.38 0 001.4.3 9.7 9.7 0 003.3-1 32.2 32.2 0 005.1-3.8c3.5-3.1 5.7-7.2 8.1-11.1 1.8-2.9 1.9-6.3 1.6-9.6 0-.4-.8-1-1.3-1.1a14.31 14.31 0 00-2.9-.1v.2z"/></g></g></g></svg>