<svg xmlns="http://www.w3.org/2000/svg" fill="currentColor" viewBox="0 0 132 144"><g data-name="Layer 2"><g data-name="Layer 1"><g data-name="Calque 2"><path d="M57.6 56.21H65a1.37 1.37 0 001-.8 1.81 1.81 0 00-.2-1.3c-3.3-2.6-6.4-5.7-10.8-6.6a22.29 22.29 0 01-5.1-1.9 123.51 123.51 0 00-14-6.1c-.3-.1-.5-.4-.8-.6.3-.4.5-1 .9-1.1a21.1 21.1 0 014.8-1.2c7-.2 13.7-2.3 20.6-2.6 1.5-.1 3-.3 4.4-.4a3 3 0 012.7.9 19.17 19.17 0 005.5 3.3c2.2 1 4.5 2.1 5.4 4.8.2.7 1.1.6 1.7.2 1-.7 1.8-1.5 1.5-2.8a33.68 33.68 0 01-.1-8.4c.2-2.8-.6-5.6-.1-8.4a6.08 6.08 0 00-.1-1.9c-.8-3.2.4-6.5-.1-9.7a1.75 1.75 0 011-1.5c2.2-1 4.5-2 6.8-2.9a21 21 0 012.4-.6 1.92 1.92 0 001.4-1.8 18.7 18.7 0 01.3-3.4 2.19 2.19 0 011.2-1.3 1.69 1.69 0 012.1.8c.1.1.1.3.2.5.3 1.1.7 2.1 1 3.2l3.9-.3a7 7 0 001.9-.6c2.3-1.2 4.1.3 6.1 1.1.4.1.7.7.8 1.2a16.66 16.66 0 01.6 4.4c-.3 5 .8 9.9.8 14.8a5.12 5.12 0 002.1 4.2c2.4 1.9 4.7 4.1 7.1 6.2 4 3.4 6.4 7.9 8.6 12.6 1.8 3.8 1.1 7-1.3 10.2-1.1 1.4-2.4 2.8-3.6 4.1-2.2 2.5-4.4 4.9-6.6 7.4s-2.3 4.6 0 7.4c2.9 3.6 5.7 7.2 8.6 10.8a3.29 3.29 0 01.7 1.3 1 1 0 01-.2.9c-.3.3-.8.7-1.2.6a6.5 6.5 0 01-2.3-.9c-2.2-1.2-4.3-2.5-6.5-3.6a13.3 13.3 0 00-4.6-1.6c-3.5-.3-6.9-.2-10.4-.2-1.4 0-1.7.9-1.1 2.4 2.5 6.3 5 12.6 7.5 18.8a10.18 10.18 0 01.5 4.9c-.2 2-.3 3.9-.4 5.9-.2 2.7-2.4 4.4-4.8 3.3-3.1-1.5-6.4-1.6-9.7-1.7l-15.8-.6a20.49 20.49 0 00-2.4.5c-3 .3-4.7-1.6-4-4.6a6.44 6.44 0 011.1-2.7c2.7-3.7 3.9-8 5.5-12.1 1-2.6.7-5.2.5-7.8 0-.6-.4-1.3-.4-1.9a3.15 3.15 0 012.9-3.4c1-.1 2-.1 3-.2a.52.52 0 00.4-.2 5.58 5.58 0 00-.5-.8c-.9-.7-1.9-1.3-2.8-2a1.48 1.48 0 00-2.2.2c-1.9 2.4-3.8 5-5.7 7.4a9 9 0 01-2.8 2.7c-4.3 1.8-8 4.6-11.8 7.3a7.52 7.52 0 01-2.1 1.2 2.23 2.23 0 01-2.6-.9c-.5-1-1-2.1-1.5-3.1a49.44 49.44 0 00-5.4-8.8c-4.1-5.2-8-10.5-12-15.7-1.2-1.6-2-3.4-3.1-5-1.6-2.6-1.1-4.8 1.6-6 6.5-2.9 13.1-5.4 20.5-4.8a3.27 3.27 0 012.1-.7zm49.2-35.3a18.76 18.76 0 000-2.4c-.3-3.1-.6-6.2-1.1-9.3-.2-1.4-1.1-1.8-2.6-1.5-.3.1-.7.1-1 .2-1.9.9-3.7 2.3-5.7 2.6a46.19 46.19 0 00-6.3 1.1c-.2 0-.3.1-.5.1a2 2 0 00-1.4 1.8c0 .5-.1 1-.1 1.5v21.2c0 .9.9 1.2 1.8.6 4.2-2.7 8.3-5.4 12.5-8 3.4-1.81 5.6-4.2 4.4-7.9zm-28.2 34.6v-.2a13.84 13.84 0 00-2.9.1c-.5.1-1.3.7-1.3 1.1-.4 3.3-.2 6.7 1.6 9.6 2.4 3.9 4.7 8 8.1 11.1A37.51 37.51 0 0089.2 81a8.51 8.51 0 003.3 1 2.38 2.38 0 001.4-.3c1.3-.8 2.3-3.8 1.6-5.2-2.5-5.7-5.1-11.4-8.8-16.5-.5-.7-1-1.3-1.5-2-1.3-1.6-2.8-2.8-5.1-2.5a7.51 7.51 0 01-1.5.01zM83 141.91c.2-1.3.3-2.5.4-3.6a57.72 57.72 0 01.8-5.8 16.37 16.37 0 011-3.8 1.43 1.43 0 011.2-.6c.5.2.9.8 1.3 1.2a.45.45 0 010 .5c-1.6 3.4-1.5 7-1.9 10.6a13.52 13.52 0 01-.9 3.3 1 1 0 01-.8.4.94.94 0 01-.7-.5 13.64 13.64 0 01-.4-1.7z"/><path d="M0 45.21c.3.2.6.5.8.6 7.9 1.9 15.8 3.6 23.9 3.9 4.8.2 9.4 1.6 14.1 2.5 1.6.3 3.2.6 4.9.8.2 0 .6-.7.8-1.1a.83.83 0 00-.3-.8 45.81 45.81 0 00-5.3-1.4c-6.2-.9-12.4-1.6-18.6-2.6-4.9-.7-9.7-1.7-14.6-2.6-1.6-.3-3.2-1-4.8-.4-.4.2-.6.7-.9 1.1z"/></g></g></g></svg>