<svg xmlns="http://www.w3.org/2000/svg" fill="currentColor" viewBox="0 0 82.57 85.9"><g data-name="Layer 2"><g data-name="Layer 1"><g data-name="Calque 2"><path d="M.07 44.49a78.12 78.12 0 011.1-12.3c.5-4 1.8-7.7 2.9-11.5a8.47 8.47 0 011.5-3A52.15 52.15 0 0116.37 7 23.83 23.83 0 0125 3.19c4.5-1.2 9.1-2.1 13.7-3a5 5 0 012.1-.1c3.3.7 6.7.7 10 1.6a31.63 31.63 0 0112.4 6.6 15.28 15.28 0 012.7 3c1.9 2.8 4.5 4.9 6.5 7.5a42.13 42.13 0 017.6 14.9A77.18 77.18 0 0182 42a43.4 43.4 0 01-.8 18.3 32.17 32.17 0 01-5.9 11.1l-2.1 2.7a25.69 25.69 0 01-11.8 9 59.65 59.65 0 01-9.2 2.5 19.64 19.64 0 01-6.4.1c-2.6-.3-5.2-.3-7.8-.5a47.48 47.48 0 01-18.7-5.8c-.2-.1-.3-.2-.5-.3-5.4-2.2-8.7-6.5-11.8-11.2a73.88 73.88 0 01-3.8-7.4 38.11 38.11 0 01-2.5-7.9c-.23-2.81-.93-5.6-.63-8.11zm44.7 37.8a31.66 31.66 0 0014.3-2.2 22.16 22.16 0 009.4-6.5 55.72 55.72 0 006.4-8.9 15.57 15.57 0 001.9-4.9 44.81 44.81 0 001.1-13.2 59.61 59.61 0 00-3.5-15.7 41.56 41.56 0 00-7.5-12.4c-.8-1-1.8-1.7-2.6-2.6-1.5-1.8-3-3.7-4.6-5.4a24.19 24.19 0 00-4.5-3.4 1.4 1.4 0 00-1.4-.2 2.36 2.36 0 01-2-.5 10.38 10.38 0 00-3.7-1.7 58.49 58.49 0 00-8.3-.9 50.42 50.42 0 00-11.5 2c-2 .6-4 1.1-5.9 1.8-4.4 1.7-7.7 4.8-10.8 8.2-3.3 3.6-4.9 8.1-5.9 12.7A62.6 62.6 0 004 46.29 37.56 37.56 0 007.07 59a76.93 76.93 0 003.8 7.6 26.35 26.35 0 007 8.2 40.12 40.12 0 0017 6.8 58.29 58.29 0 009.9.69z"/><path d="M60.47 36.29a8.06 8.06 0 01-.7 5.3 25.43 25.43 0 00-1.4 4.7c-.1.4-.1.9-.4 1.2a39.74 39.74 0 01-4 5.8c-2 2.2-4.9 3-7.8 3.4a7 7 0 01-4.5-.7 4.89 4.89 0 00-.7-.3c-1.4-.5-1.6-.5-2 1a74.93 74.93 0 01-2.8 9.2c-1.1 2.8-3.4 3.7-6.1 2.5a1.14 1.14 0 01-.8-1.4c.3-1.3.4-2.6.8-3.8 1.7-5.2 2.6-10.7 3.9-16 .7-2.8.1-5.4-.2-8.1a9.35 9.35 0 01.9-5.7c1.4-2.6 5.5-3 7.2-.7a3.89 3.89 0 01.7 2.3 16 16 0 01-.6 5.3 74.48 74.48 0 00-1.7 8.2 4.3 4.3 0 002.2 4.6 2 2 0 002.3-.1c1.6-1.3 3.1-2.5 4.6-3.9a13.4 13.4 0 003.2-6.4A38.79 38.79 0 0054 35a9.49 9.49 0 00-1.2-5.5c-1.6-2.8-3.4-5.4-6.4-6.9-3.9-2-7.8-1.9-11.3.7a20.88 20.88 0 00-5.8 6.4c-1.8 3-2.6 6.2-.9 9.6a26.38 26.38 0 011 3 3.45 3.45 0 001.2 2.1 1.35 1.35 0 01.3 1.6 2.93 2.93 0 01-4.2 1.7 6.48 6.48 0 01-3.9-5.5c-.4-3.2-1-6.3-.4-9.5a31.56 31.56 0 013.6-9.4 10.37 10.37 0 014.7-4.1 38.82 38.82 0 014.6-2.2 13 13 0 018.7-.5 10.93 10.93 0 001.7.5 23.8 23.8 0 017.4 2.9 10.35 10.35 0 013.5 3.7 15.12 15.12 0 012 4.5c1.07 2.79 2.17 5.39 1.87 8.19z"/></g></g></g></svg>