<svg xmlns="http://www.w3.org/2000/svg" fill="currentColor" viewBox="0 0 89.83 88.06"><g data-name="Layer 2"><g data-name="Layer 1"><g data-name="Calque 2"><path d="M0 43a18.69 18.69 0 01.4-4.6c.9-4.2 1-8.6 2.5-12.7.6-1.8 1.3-3.6 2-5.3A23.88 23.88 0 018 15.65a31 31 0 0112-9.8A53.26 53.26 0 0134.63 1 21.83 21.83 0 0139 .65a39.05 39.05 0 004.8-.5 3.75 3.75 0 012.1 0 14.12 14.12 0 004.6.4 18.16 18.16 0 014.6.6c3.3 1 6.7 1.7 9.6 3.5 1 .6 2.2.9 3.2 1.5a16.85 16.85 0 015.2 4c1.7 2 3.5 3.8 5.3 5.8 2.1 2.2 3.4 5 4.9 7.6A46.18 46.18 0 0188.63 39a53.8 53.8 0 011.2 10.6c0 5.1.2 10.4-1.6 15.3s-4.3 9.7-8.5 13.3c-5.4 4.7-11.8 7-18.5 8.6a36.36 36.36 0 01-9.9 1.3c-4.7-.1-9.5-.4-14-1.9-2.1-.7-4.3-.9-6.3-1.7-4-1.6-8.1-3.1-11.7-5.5C13 74.85 8 69.65 5.13 62.55c-1.4-3.4-2.8-6.9-3.9-10.5A43.49 43.49 0 010 43zm50.1 42.3a42.36 42.36 0 0011.3-1.8c2.3-.7 4.3-2 6.5-2.7a26.71 26.71 0 0010.6-6.9c4.7-4.5 6.5-10.2 7.1-16.4-.7-2.4.1-4.8.1-7.2.1-2.2-.5-4.4-.7-6.5a47.26 47.26 0 00-6.1-19.7c-1.9-3.2-3.6-6.4-6.5-8.8a2.69 2.69 0 01-.7-.8c-2.5-3.2-5.4-6-9.4-7.4a11.08 11.08 0 01-1.9-.9 28.24 28.24 0 00-8.5-2.3c-2.2-.1-4.5-.1-6.8-.1a30.11 30.11 0 01-6.7-.3 5.33 5.33 0 00-2.8.1c-2.8.8-5.7 1.1-8.3 2.4-2.8 1.3-5.7 2.4-8.5 4a26.72 26.72 0 00-9.2 9.7 33.81 33.81 0 00-4.4 13.2c-.5 4.9-1.2 9.7-.6 14.7A20 20 0 005.83 53a53.77 53.77 0 012 5.1 15.74 15.74 0 003.4 5.7 9.72 9.72 0 012.2 3.8 4.35 4.35 0 001 1.6c1.3 1.6 2.8 3 4.2 4.6a11.78 11.78 0 002.6 2.4c2.1 1.2 4.3 2.3 6.3 3.6 2.3 1.5 5 2 7.6 2.8a50.35 50.35 0 0015 2.65z"/><path d="M39 19.45c4.9.3 9.8-.5 14.7-.3 2.5.1 5.1.3 7.6.6a5.25 5.25 0 014.5 3.3c.1.3.4.7.3 1-.2 1.6.4 3 .8 4.5.5 2.2.5 4.5.8 6.7.4 3.5.8 7.1 1 10.6a69.52 69.52 0 01-.2 12.9 10.27 10.27 0 01-.7 2.5 4.57 4.57 0 01-2.6 2.5 18.2 18.2 0 01-6.9 1.5c-3.5 0-7-.1-10.5.1-4.3.3-8.6.2-13 .2a19.55 19.55 0 01-11.4-3.4 4.35 4.35 0 01-1.6-2.2c-1-2.9-.7-5.9-.9-8.8a38.09 38.09 0 00-.7-6.7c-.4-1.4-.1-2.8-.2-4.2-.2-3.1 0-6.2-.1-9.2a28.44 28.44 0 01.4-4.1c.6-3.3 3.2-6.7 7.2-7.1 1.9-.2 3.8-.4 5.7-.5 2.03.1 3.93.1 5.8.1zm10.9 42.4h3.9a22.41 22.41 0 006.3-1c1.8-.5 2.4-1.3 2.5-3.2.1-.6.1-1.3.2-1.9a44.34 44.34 0 00.2-12.6c-.4-3-.9-6-1-9a39.83 39.83 0 00-1.2-7.7c-.9-2.9-.9-2.9-3.8-3h-.2c-6.8 0-13.6-.1-20.4.1a45.25 45.25 0 00-7.4.7c-1.9.4-2.5 1-2.6 3-.1 1.8.1 3.6-.5 5.3a2.44 2.44 0 000 1.2 33.15 33.15 0 010 6.3c0 2.3.1 4.7.1 7.1 0 3.5.5 7.1.8 10.6a3.63 3.63 0 003 3.5c.5.1 1 .2 1.6.3 6.13 1 12.43.3 18.53.3z"/><path d="M44.63 56.55a11.37 11.37 0 01-6-1.2A12.5 12.5 0 0132 48a10.39 10.39 0 01-.1-5.8 12.46 12.46 0 018-9.6 5.64 5.64 0 011.2-.4c3.5-1.6 7-1.1 10.3.4 4.6 2 6.8 5.8 7.3 10.7a10.93 10.93 0 01-2.6 8 13.21 13.21 0 01-8.4 5.2 10.72 10.72 0 01-3.07.05zm-7.1-11.8v1.4c-.2 4.5 4.3 7.1 7.8 6.2a19.87 19.87 0 004.3-1.5 4.55 4.55 0 002.4-2.7 17.5 17.5 0 001.2-5.5 6 6 0 00-2.8-5.3 10.69 10.69 0 00-9.2-1.1 2.49 2.49 0 00-1.5 1.1 12.37 12.37 0 00-2.2 7.4zM56.23 29.85c-1.3 0-2.7-1.2-2.6-2.2a3.21 3.21 0 012.8-2.4 2.2 2.2 0 012.2 2.1 3 3 0 01-2.4 2.5z"/></g></g></g></svg>