<svg xmlns="http://www.w3.org/2000/svg" fill="currentColor" viewBox="0 0 87.99 87.62"><g data-name="Layer 2"><g data-name="Layer 1"><g data-name="Calque 2"><path d="M44.53 87.62a62.35 62.35 0 01-16-2.2c-6.2-1.5-11.4-4.6-16.3-8.3A28 28 0 015.43 69a48.2 48.2 0 01-4.3-11.1 38.89 38.89 0 01-1.1-9 38.59 38.59 0 01.5-8.3 49.61 49.61 0 014.2-11.7c1.3-2.8 2.8-5.5 4.3-8.2a16.63 16.63 0 014.3-5.2 21.31 21.31 0 003.1-2.9c1.8-2.2 4.3-3.3 6.6-4.7 2.5-1.4 4.8-3 7.6-3.8a1.28 1.28 0 00.7-.5 5.3 5.3 0 013.1-1.9A28.86 28.86 0 0149.83.52c2.5.4 5 .9 7.5 1.4A18.4 18.4 0 0162.83 4c1.6.9 3.1 1.9 4.7 2.9l.9.6c3.5 4.1 7.9 7.3 11.3 11.5a22.35 22.35 0 012 3 56.43 56.43 0 014.5 12.7 74.24 74.24 0 011.7 12.3c.2 3.2-.2 6.5-.3 9.7-1.9 5.8-3.1 12-7.8 16.5a50 50 0 01-6.1 5.1c-1.5 1-2.9 2.3-4.5 3.2a39.51 39.51 0 01-6.9 3.2 94.8 94.8 0 01-11.7 2.8c-2.2.22-4.1.02-6.1.12zm1-84.2c.9 1 1 1.2.9 1.4-.4.5-1 .2-1.5.3H44A27.46 27.46 0 0029.63 8a67 67 0 00-8.8 5.4 9.27 9.27 0 00-1.4 1.4 9.92 9.92 0 01-2.6 2.4 12.36 12.36 0 00-3.9 4.3c-1.8 3-3.3 6.2-4.9 9.3-2.5 5.2-4.4 10.5-3.9 16.4.1.8-.1 1.5 0 2.3.2 2.6.2 5.4 1 7.9.7 2.1 1.4 4.1 2.1 6.2a30.32 30.32 0 007.5 11.1c1.8 1.8 4.1 2.8 6.1 4.2 3.9 2.8 8.5 3.9 13.1 4.8a44.73 44.73 0 0017.1.2 37.94 37.94 0 0016.2-6c1.4-.9 2.8-1.8 4.1-2.8 2.8-2.3 5.6-4.7 7.4-7.8a36.94 36.94 0 003.8-10.7 36.89 36.89 0 00.3-8.8 73.84 73.84 0 00-2.5-15.4 50.93 50.93 0 00-4-10 4.7 4.7 0 00-.6-.9c-2.5-2.6-4.7-5.4-7.5-7.8-1.2-1.1-2.4-2.3-3.6-3.4a19.14 19.14 0 00-10-5.3 52.35 52.35 0 00-9.1-1.58z"/><path d="M34.73 31.22a55.42 55.42 0 01.3-7 3.26 3.26 0 011.8-2.8c1.5-.8 2.9-1.6 4.4-2.4a8.89 8.89 0 013.6-.7c2.2-.2 4.4.3 6.6.1a1.66 1.66 0 011.5.8 3.66 3.66 0 01-4.1 5.6 12.11 12.11 0 00-1.9-.1c-1.8-.3-2.7.9-3.6 2a1.59 1.59 0 00-.2 1.5 20.12 20.12 0 01.1 6c-.2 1.4.1 1.8 1.5 1.7 2.1-.1 4.1.2 6.2-.2 1.2-.3 1.6.2 1.6 1.4a5.71 5.71 0 01-1 3.1c-.2.3-.5.7-.7 1a2.61 2.61 0 01-3.2 1.8 13.2 13.2 0 00-2.8-.2c-1.4.1-1.5.1-1.7 1.5a27 27 0 00.3 8.5 33.12 33.12 0 01.4 5.5c.1 2.5.3 5 .5 7.6a8.6 8.6 0 00.1 1.6c.4 2-1.1 2.6-2.5 3.3a17.74 17.74 0 01-4.4-1.1 2.22 2.22 0 01-.5-1.1 22.17 22.17 0 01-.6-4.4c-.1-2.7-.6-5.3-.7-7.9-.1-3.1-.9-6.2-.5-9.4a26.16 26.16 0 000-2.8c0-.9-.5-1.3-1.4-1.3h-2.5c-1.3-.1-1.6-.4-1.9-1.7a10.21 10.21 0 01-.3-3 1.26 1.26 0 011.1-1.2 8.19 8.19 0 013.1-.3c1.3.1 1.5-.1 1.5-1.4s-.1-2.6-.1-4z"/></g></g></g></svg>