<svg xmlns="http://www.w3.org/2000/svg" fill="CurrentColor" viewBox="0 0 202.43 38.15"><g data-name="Layer 2"><g data-name="Layer 1"><g data-name="Calque 2"><path d="M133.5 37.25c-1.6 0-3.1-.1-4.7-.1a2.77 2.77 0 01-.9-.1 1.18 1.18 0 01-1-1.8 1.21 1.21 0 01.5-.5 2.63 2.63 0 001.4-.9 5.3 5.3 0 011.2-1 2.13 2.13 0 001-1.1 10.08 10.08 0 011.2-2.3.3.3 0 000-.4 11.32 11.32 0 00-1-1.3 2.22 2.22 0 01-.6-2.3 6.46 6.46 0 01.4-1.3c.6-1.7.8-3.4 1.3-5.2a.35.35 0 00-.3-.5 6.87 6.87 0 01-.8-.3.2.2 0 110-.4c.2-.1.4-.1.6-.2.5-.1.5-.1.4-.2a.76.76 0 00-.4-.2c-.8 0-1.6.4-2.5 0a.22.22 0 00-.2.2c-.1.3-.4.7-.3 1 .2 1.3-.1 2.5 0 3.8a1.94 1.94 0 00.5 1.6c.3.2.2.5-.1.8a1.1 1.1 0 01-.9.3.68.68 0 01-.6-.9c0-.1.1-.2.1-.3.6-.8.1-1.8.6-2.6-.4-1-.1-2-.2-3.1 0-.5-.1-.6-.6-.6a3.46 3.46 0 00-2.6.7.45.45 0 01-.7-.4c0-.4-.1-.5-.4-.6a3.58 3.58 0 01-1.1-.4c-.1 0-.2-.2-.2-.3a.85.85 0 000-.7.37.37 0 01.2-.5 8 8 0 011.6-.8c.3-.1.4-.4.5-.7.2-.9.5-1.8.7-2.7a4.49 4.49 0 01.7-1.8 1.69 1.69 0 00.2-.5 17 17 0 01.9-3.9 6.15 6.15 0 00.3-1.1c0-.7.1-1.4-.6-1.8a1.21 1.21 0 01-.5-.5.3.3 0 010-.4c.4-.5.8-1.1 1.6-.8.5.2.9-.3 1.4-.1a4.33 4.33 0 001.6.1h6.1c1 0 2 .1 2.9.1a1.8 1.8 0 01.9.4.45.45 0 01.2.6 6.46 6.46 0 01-.4 1.3c-.1.2-.2.4-.3.4-.7.2-.6.6-.4 1.1.4 1.3.7 2.6 1 3.9a35.09 35.09 0 001.5 5.3c.1.1.1.3.2.4.1.3 0 .7.2.9s.6.2 1 .3c1.3.5 1.4.5.4 1.6a2.47 2.47 0 01-2.3.8 6.08 6.08 0 00-1.9-.1c-1.5 0-3.1.1-4.6.1a.37.37 0 00-.3.1.35.35 0 01.2.1c.4.1.8.2 1.1.3.1 0 .1.1.2.2-.1 0-.2.1-.3.1a1.27 1.27 0 00-.6.1 6.87 6.87 0 00-.8.3c-.3.3.1.5.1.8.1 2.2.6 4.3.9 6.4a2.16 2.16 0 01-.5 1.9c-.2.3-.4.5-.6.8a.61.61 0 000 .8c.3.6.6 1.1.9 1.7a5.06 5.06 0 002 2.1 2.18 2.18 0 01.5.3 2.06 2.06 0 001.9 1c.3 0 .4.2.5.5v.1c.1 1.8.3 1.7-1.4 1.8a47 47 0 01-5.3.2c-.5.4-.6.3-.7.4zM128.8 6c-.3.2-.3.6-.3.9l-.3.3A27.78 27.78 0 00127 11c-.2.9-.5 1.7-.7 2.6 0 .1-.1.3-.1.4a.22.22 0 00.2.2.6.6 0 00.4-.1c.1 0 .1-.2.1-.3a37.44 37.44 0 011.2-4.8 14.62 14.62 0 00.3-2.2c.5-.1.4-.5.4-.8h.2c.1 0 .1-.1.1-.2h-.2a.35.35 0 00-.1.2zm5.9 26.1a4.87 4.87 0 00-.4-1.1c-.1-.2-.1-.4-.3-.5a.6.6 0 00-.4-.1c-.1 0-.2.2-.2.3v1c0 .4.1.5.5.3a1.06 1.06 0 01.8.1v1c0 .5-.1 1 .7.9a.22.22 0 01.2.2c.2.4.6.4 1 .4.1 0 .2-.1.3-.1a.37.37 0 00-.1-.3 5.3 5.3 0 00-2.1-2.05zm-.9-6l.3.6s.2.1.2 0a.76.76 0 00.3-.8 8.88 8.88 0 01-.3-1.4 20.26 20.26 0 00-.6-4.2.76.76 0 00-.2-.4c0 .1-.1.3-.1.4a15.06 15.06 0 00-.6 3.6c0 .5 0 .5.6.6s.7.3.6.8a1.55 1.55 0 01-.2.8zm-2.9-23c-.4.3-.7.6-.4 1.1a.3.3 0 010 .4 18.92 18.92 0 01-.5 2.3c-.1.4 0 .9-.4 1.2s0 .8-.1 1.3c-.2.8-.4 1.5-.6 2.4a21.05 21.05 0 01-.6 2.4c-.1.2-.2.5.1.7a.55.55 0 00.7-.3 1.69 1.69 0 00.2-.5c.1-.6.2-1.3.3-1.9s.3-1.3.4-2c.7-.5 0-1.2.2-1.7v-.1c.1-.1.2-.3.4-.4s.3.1.4.3.1.2.1.3c.1-.1.1-.1.1-.2a.92.92 0 01.6-1 15.3 15.3 0 01-.9 5.6c-.1.4-.4.1-.6.1a.1.1 0 01-.1-.1h.1c0 .2-.1.5 0 .5.5.1.6.4.5.9-.1.3.2.4.5.4s.5-.1.5-.4c.1-.6.3-1.3.4-1.9a4.79 4.79 0 01.5-1.7c.4-.7-.1-1.2.1-1.9v-.4a20.75 20.75 0 00.2-5c0-.1-.2-.2-.3-.3l-.2.1a1.43 1.43 0 00-.3 1.1 14.77 14.77 0 01-.1 2.1c0 .3.1.6-.3.8a.6.6 0 00-.1-.4c-.1-.1-.2-.3-.3-.3s-.3.2-.3.4-.1.2-.2.3c-.1-.1-.3-.2-.4-.4s0-.3 0-.4c.1-.9.2-1.8.3-2.6a2.81 2.81 0 00.1-.8zm4.7 4.1c-.1-.3-.2-.7-.3-1.1-.1-1-.2-1.9-.3-2.9 0-.1-.1-.2-.1-.3 0 .1-.1.2-.1.3v5.9c0 1.6-.3 3.1-.4 4.7a3 3 0 00.2 1.6c0 .1.1.1.2.1a.1.1 0 00.1-.1c.1-.2.2-.3.2-.5a4.87 4.87 0 00.1-1.2.45.45 0 01.3-.3.76.76 0 01.4.2c.1.1.1.3.2.4.1.3.2.4.5.4s.4-.2.4-.6v-1.9c0-1.6-.5-3.2-.1-4.8V7c-.1-.1-.2-.3-.3-.3a1 1 0 00-.3.1c-.5.05-.6.2-.7.45zm1.9 4.6a1.27 1.27 0 01.1.6c-.3.8.1 1.5.1 2.3a.76.76 0 00.2.4 1.48 1.48 0 001.3 0c.1 0 .2-.2.2-.3a1.27 1.27 0 00-.1-.6c-.5-2.2-1-4.4-1.6-6.6.3-.7-.4-1.1-.5-1.7a.35.35 0 00-.2-.1l-.1.1c0 .6.1 1.3.1 1.9a5 5 0 00.2 1.2 24 24 0 01.3 2.85zm2.9 2.3c-.1-.5-.2-1-.3-1.4s-.3-1-.4-1.6c-.3-2.7-1.4-5.3-1.9-8 0-.1-.2-.2-.2-.3s-.1-.1-.1 0l-.1.1c.1.5.1 1 .2 1.4.4 1.7.8 3.3 1.2 5 .4 1.3.6 2.7.9 4 .1.5.3.9.4 1.4l.1.1a.35.35 0 00.2-.1 1.14 1.14 0 000-.55zm-2.8 21.1a8.6 8.6 0 00-1.6-.1c-.2 0-.3.2-.3.4.3.7.4.7 1.1.7a16.21 16.21 0 002.2-.1q.6 0 .3-.6a.53.53 0 00-.7-.4 3.4 3.4 0 01-1 .15zm-4.7-21.5c.1.2.1.4.2.4s.3-.1.3-.2c.2-.3.3-.7.5-1s-.1-.8-.1-1.2v-.6c0-.1-.1-.2-.1-.3a.52.52 0 00-.2.4c-.2.8-.4 1.65-.6 2.55zm0 19.5v-.7a.35.35 0 00-.2-.1l-.1.1a3.21 3.21 0 00-.2 1.7l.2.1a.22.22 0 00.2-.2 2.77 2.77 0 00.1-.85zm1.9 2.2a.77.77 0 01-.3.1c-.1.2-.2.3-.3.5a.6.6 0 00.1.4h.7a1 1 0 00.1-.4zm-1.5-33.8c-.2-.1-.3-.2-.4-.2s-.2.2-.2.3.1.2.2.3a.78.78 0 01.4-.35zM134 7c-.1-.1-.2-.3-.3-.4 0 .1-.1.2-.1.3s.2.2.2.3c.1-.05.1-.2.2-.2zm2-1.3c0-.1.1-.2.1-.3a.6.6 0 00-.1-.4.35.35 0 01-.1.2 1.09 1.09 0 01.1.55zm-.7-4.1a.35.35 0 00.1.2l.1-.1a.35.35 0 00-.2-.05zm2.5-.8c-.3 0-.3.1-.1.2h.1zm-5 30.8zm.4-15.9c-.1-.05 0-.05 0 .05zm10-.2a.35.35 0 00-.2.1.1.1 0 01.1.1c.1-.05.1-.05.1-.15zm-12.1-6.2c-.1-.1-.2-.1-.2 0s.1.1.1.2c0-.05 0-.15.1-.15z"/><path d="M135.6 7.25a2.05 2.05 0 01.5 1.7c-.1 1.2-.1 2.3-.2 3.5 0 .1-.2.2-.3.2s-.2-.1-.3-.2v-4.1c0-.4-.1-.8.3-1.1zM94.7 29.65c.4-.4 1.2-.2 1.5-.9a.9.9 0 00-.6-.6c-.2-.1-.5-.1-.7-.2l-.1-.1a.32.32 0 01.3-.3 4.89 4.89 0 01.7-.3c.1-.1.3-.2.2-.4s-.3-.2-.5-.4-.5-.1-.6-.3c.4-.2 1-.3.9-.9-.2-.4-.7-.3-.9-.6.2-.3.4-.3.6-.4s.3-.2.3-.4c-.2-.3-.6-.4-1-.6-.1-.1-.2-.1-.3-.3a2.18 2.18 0 00.5-.3.45.45 0 00.2-.6c-.2-.2-.5-.2-.7-.5.4-.2.9-.2 1.1-.7a2.59 2.59 0 00-1.1-.7c.1-.2.3-.1.4-.3s-.2-.1 0-.3.6-.1.9-.5c.1-.1.1-.3-.1-.5l-.3-.2c-.3-.1-.6 0-.9-.2a6.87 6.87 0 00.8-.3.68.68 0 00.4-.6 1.55 1.55 0 00-.8-.6.9.9 0 01-.5-.1c-.1 0-.1-.1-.1-.2a1.87 1.87 0 001.4-.5v-.2a2.28 2.28 0 00-1.6-.4v-.5c.5-.3 1-.1 1.2-.6a1.52 1.52 0 00-.8-.4c-.3 0-.7-.1-1.1-.1.7-.2 1.3-.2 1.7-.7-.1-.3.3-.5.3-.7s-.2-.2-.3-.3-.2-.2-.4-.1.1.3-.1.3l-.3-.2h-.7c-.1 0-.2-.1-.3-.1-.4 0-.8-.1-1.2-.1a15.81 15.81 0 00-3.1-.1h-.2a2.77 2.77 0 00-.9-.1c-1 0-2-.1-3-.1-1.2-.1-2.5.1-3.7 0a5.46 5.46 0 01-1.8.1 11 11 0 00-1.8.2 2.22 2.22 0 00-1.1.5l-.1.5.8.3.2-.1c.2 0 .4.1.6.1s.1 0 .1.1l-.4.1a.52.52 0 00.4.2 2.35 2.35 0 01.8.2 1.9 1.9 0 011.1.7 5.29 5.29 0 00-1.2-.1A1.88 1.88 0 0178 14c.1-.2.4 0 .6-.3-.6.1-1.1-.2-1.6.2.1.5.5.5.8.7 0 .2.1.3 0 .4s-.6.1-.8.4c.1.3.4.3.7.5s.6.2.8.5a2 2 0 00-.8.4c-.2.2-.6-.1-.8.3.5.3.9.8 1.5.8a.22.22 0 01.2.2 2.73 2.73 0 00-1.3.7c.1.1.2.2 0 .3.2.3.5.3.7.4s.4 0 .5.3c-.5.3-1.1.3-1.5.7l.2.2c.1.4.4.5.8.6a.52.52 0 01.2.4.75.75 0 00-.7.5c-.2-.1-.1-.3-.2-.5s-.1-.1-.1 0c-.2.1-.1.3-.1.4s.2.3.3.4.3.2.4.3.4 0 .4.3c-.8.3-.8.3-1 1.1.1.2.2.2.4.3a.22.22 0 01.2.2c-.1.1-.2.2-.3.2h-1.7c-.3 0-.7-.1-1-.1a56.14 56.14 0 00-5.8.1c-1 .1-2 0-3 .2h-.9a8.6 8.6 0 01-1.6.1 6.07 6.07 0 00-2.4.6c-.1 0-.1.1-.1.2.1.4.1.4.6.4-.1-.2-.3-.2-.4-.4a.52.52 0 01.4-.2c.1.1.1.2.2.3s.2.1.3.2c-.2.3-.5.4-.7.7v.4a4.71 4.71 0 001.7.4c-.2.2-.3.1-.4.1a1.88 1.88 0 00-.8.2c-.1 0-.2.2-.2.3a3.59 3.59 0 001 .7c.1.1.2.1.2.3a4.13 4.13 0 00-1.5.7c0 .2.1.3.2.3l.1-.2a3.74 3.74 0 011.1.4h-.9c.1.1.2.1.3.2.4.1.7.1 1.1.2-.2.1-.5.2-.7.3s-.4.4-.2.7a3.55 3.55 0 001.1.3c-.2.2-.5.2-.8.3s-.4.2-.4.4c.2.2.5.3.7.6a1.74 1.74 0 00-1.1.6.52.52 0 00.2.4c.3.2.8.2 1.1.5a.1.1 0 01-.1.1 1 1 0 01.7.2c.1.1.2.1.3.2a1.21 1.21 0 01.5.5h-.1a1.42 1.42 0 01.2.6 1.27 1.27 0 01.6.1 17 17 0 003.9.2.6.6 0 00.4-.1 2.05 2.05 0 011.1 0 5.7 5.7 0 001.3.1h2a10.87 10.87 0 001.8-.1h3.9c.1-.1.1-.2.2-.3s.2-.2.3-.2H80a1.79 1.79 0 01.5-.7c.4 0 .7-.4 1.1-.5a5.63 5.63 0 001.2-.4 3.08 3.08 0 001 .1 21.06 21.06 0 012.5.2 2.72 2.72 0 00.9 0 4.1 4.1 0 011.1-.1 9.15 9.15 0 001.6-.1 4.31 4.31 0 011.6 0 9.15 9.15 0 001.6-.1c.2 0 .3-.1.5 0-.2.2-.6.4-.6.7-.5.4-1.2.3-1.7.6l.1.2a5 5 0 01-1.2.2H84a1.61 1.61 0 00-.9-.3c-.3-.2-.2-.4-.4-.6a1.73 1.73 0 00-1-.1c.2.2.5 0 .6.3a6.87 6.87 0 00-.8.3.76.76 0 01.4.2.78.78 0 01.4.4 16.36 16.36 0 002.2.2h.3a3.4 3.4 0 011.4.2 7.41 7.41 0 002.1.1c.1 0 .2-.1.3-.1a1.27 1.27 0 00.6.1 2.46 2.46 0 011.2-.1 5.64 5.64 0 001.3 0l1.3-.6c.5-.8 1.3-1.2 1.9-1.9.3-.1.5-.1.8-.2s.4-.1.5-.3L96 34l.2-.1c.1-.2.2-.3.1-.5s-.4-.2-.6-.4v-.1l.5-.3c0-.2.2-.4.1-.6s-.2-.2-.3-.2-.3-.1-.5-.1a.37.37 0 01-.3-.1c.5-.2 1.1-.2 1.4-.8a2.41 2.41 0 01-.8-.6c-.8-.35-1-.35-1.1-.55zm-16.9-15.5a.14.14 0 01.2 0zm8.8 22.7c.1-.2.2-.1.3-.1 0 .2-.2 0-.3.1zm1.3-.1v.2c-.1 0-.2 0 0-.2zm3.4-.6a1.45 1.45 0 01.7-.2.84.84 0 01-.7.2zm4.3-7.6c0 .2-.1.3-.2.3a5.37 5.37 0 01-2.1.5c-.1-.4.3-.3.4-.6s.3-.4.4-.6a2.41 2.41 0 011.5.4zm-1 1.9a1.05 1.05 0 01-1.2.3 1.17 1.17 0 01.6-.6.75.75 0 01.5-.1zm-1.7-1.3a.66.66 0 01-.5.4 2.92 2.92 0 00-.9.2c-.3 0-.5.1-.8-.1a1.05 1.05 0 00-1.2 0 .1.1 0 00-.1.1 12.21 12.21 0 00-2.7.1 2.44 2.44 0 01-1.2 0 5.28 5.28 0 00-1.3-.1 9.15 9.15 0 01-1.7-.1c-.3.1-.4-.2-.7-.2s-.5.2-.8.1c.2-.4.2-.4.8-.7l.4-.4c1.1 0 2.1.1 3.1.1h4.3a23.25 23.25 0 003.7-.4h.2l-.7.8zm-19.4 6.2a2 2 0 00-1.1-.2c.1.2.4.1.5.2l-.1.1h-1c0-.1.2-.1.2-.3h-1.2a12.75 12.75 0 01-2-.1 3.35 3.35 0 00-1 0 21.06 21.06 0 01-2.5-.2c-.3-.3-.4-.8-.9-.9l.2-.1a12.9 12.9 0 002.8.1 3.4 3.4 0 011 .1 10.87 10.87 0 001.8.1 6.15 6.15 0 011.3.1 4.05 4.05 0 001.1 0 8.08 8.08 0 011.6-.1 16.21 16.21 0 002.2-.1 2.86 2.86 0 011.3 0 5.7 5.7 0 001.3-.1c.1 0 .2-.1.4 0 0 .4 0 .4-.6 1a2 2 0 01-1.1.2h-1.4a.9.9 0 00-.5.1 1.39 1.39 0 01-.9 0c-.2.1-.3.3-.5.2v-.2c-.5-.1-.7-.1-.9.1zM64.4 33c.3.1.3.1.4.3-.2.05-.3-.05-.4-.3zm13 .5H75a9.15 9.15 0 00-1.6.1 10.29 10.29 0 01-1.7.1h-2.6a.75.75 0 00-.5-.1H67a5.46 5.46 0 00-1.8-.1c-.1 0-.3 0-.3-.1h.1c.2-.1 0-.2.1-.3a1.38 1.38 0 01.3-.4 4.82 4.82 0 011.2 0 3.4 3.4 0 001 .1 2.77 2.77 0 01.9.1 1.1 1.1 0 00.8 0l.7.2.3-.1a6.7 6.7 0 002 0h3a4.1 4.1 0 001.1-.1c.2-.1.5 0 .8 0a5.7 5.7 0 001.3-.1.85.85 0 01.7 0 1.85 1.85 0 01-.2.7c-.4-.15-1 .05-1.6.05zm1.7-1.3c-1 0-2 .2-3 .2a7.57 7.57 0 01-1.5.1h-1.8a4.87 4.87 0 01-1.2-.1c-.2 0-.4-.1-.6 0a16.16 16.16 0 01-2.2 0h-2.2a11.08 11.08 0 01-1.9-.2l-.8-.9a7.72 7.72 0 011.5.2 2.54 2.54 0 011.2-.2h2.1a6.15 6.15 0 011.3.1c.2.1.4 0 .6 0h4.5c.4 0 .8-.1 1.2-.1a16.36 16.36 0 002.2-.2 1.18 1.18 0 011 .1c.2.2-.1.3 0 .5s.2.2.1.3a.65.65 0 01-.5.25zm-.8-1.4c-.3 0-.3-.2-.5-.3a7.72 7.72 0 01-1.5.2.52.52 0 00-.4.2c-.8-.1-1.5 0-2.2-.1l-.4.3h-.4c.1-.1.2-.1.3-.2a.94.94 0 00-.9.1c-.5-.3-1.1-.1-1.6-.2l-.4.3a4.87 4.87 0 01-1.2-.1l1.2-.1c-.2-.2-.5-.1-.7-.1a12.75 12.75 0 01-2-.1 1 1 0 00-.9.1c-.7-.4-1.6 0-2.4-.4l-.1-.5.2-.3.1-.1c.4.1.7-.1 1.1 0a8.08 8.08 0 001.6.1h3.7a8.54 8.54 0 011.6 0h.8l.4-.3h1c-.2.2-.5 0-.7.2a.37.37 0 00.3.1c1.4 0 2.8-.1 4.2-.2h.4c.2 0 .3.1.4-.1-.1-.1-.3 0-.4-.1l.1-.1h.5l.1.2c.2.2.3-.1.5.1l-.5 1zM64 26.95c.3-.2.5.1.8.2a6.15 6.15 0 012.7 0 2.21 2.21 0 011.6 0 2.86 2.86 0 001.3 0 1.39 1.39 0 01.9 0 6.7 6.7 0 002 0 3.31 3.31 0 011.4 0 1.39 1.39 0 00.9 0c.9-.1 1.8-.3 2.7-.4h1.2a1.72 1.72 0 01-.4.7c-.3.1-.5.1-.8.2a1.41 1.41 0 01-.9.1h-.2a12.9 12.9 0 01-2.8.1c-1.1 0-2.1.1-3.2 0a5.7 5.7 0 00-1.3.1h-.4c-.3 0-.7-.1-1-.1h-1c-.7-.1-1.4 0-2.1-.1h-1.3c-.2-.1-.3-.2-.3-.4l.2-.1zm.1 1.2h.4c.8.1 1.6.1 2.4.2a2.72 2.72 0 00.9 0c.3-.1.6.1.9 0H70a12.75 12.75 0 002-.1 14.72 14.72 0 012.1 0h3.5c.3 0 .6-.1.9-.1s.6-.1.8-.1a.56.56 0 01.5.6c-.2.2-.5.1-.7.2-.6.1-1.2.2-1.9.3a25.42 25.42 0 01-3.9.1h-3.2a24.32 24.32 0 01-2.7 0h-2.9c-.2-.2-.2-.3-.1-.5-.1-.2-.4-.3-.3-.6-.1.1-.1 0 0 0zM86.3 18h-3.4a10.85 10.85 0 01-2.5-.4c-.3-.3-.3-.9-.9-1 .1-.2.2-.2.3-.2a4 4 0 001.9.1h.5l1.5.3h.2a18.22 18.22 0 003.3-.1h3.7a7.57 7.57 0 001.5-.1 4.05 4.05 0 011.1 0c-.1.3-.4.5-.5.7v.5l-2.7.1v.2a1.38 1.38 0 00.4.3 3.81 3.81 0 011.5-.1 1.7 1.7 0 00.7-.1 4.33 4.33 0 00.5-.1c.1 0 .3.1.3.2l-.3.6c-.3-.1-.5.2-.7.3a4.86 4.86 0 01-1.7 0 2.77 2.77 0 00-.9.1 5.28 5.28 0 01-1.3.1h-6.9a5.64 5.64 0 00-1.3 0c-.2-.4-.6-.6-.6-1.1l.2-.2h.5a28.48 28.48 0 012.9.3 2.51 2.51 0 001.5-.2c.5-.1 1 0 1.5-.1 0-.15-.1-.1-.3-.1zm-3.1-1.5c.3-.1.5-.2.6 0zm.6.1h.2c-.1.15-.1.05-.2.05zm.8 0h.8c-.4.15-.4.25-.8.05zm7.3 3a.3.3 0 01-.4 0c.2-.05.3.05.4.05zm-1 0l-.7.2-.1-.2zm-1.3.1c-.2 0-.4.1-.6.1a.85.85 0 01-.7 0c-.3 0-.6-.1-.9-.1-.5 0-1.1.1-1.6.1h-.3a6.89 6.89 0 00-2-.1.37.37 0 01-.3-.1c2.1.05 4.3.05 6.4.15zm-9.2.1a2.92 2.92 0 01.9.2c-.1.2-.4 0-.5.2h4.9a6.15 6.15 0 001.3-.1c.2-.1.5 0 .7 0h4.5c.1 0 .1-.2.2-.3a4.86 4.86 0 011.7 0 .6.6 0 01-.4.1 3.4 3.4 0 00-1 .1c.3.2.7 0 1 .2.1.3-.2.5-.3.8.1.2.2 0 .3.1v.1c-.1 0-.3.1-.4.1a7.57 7.57 0 00-1.5.1h-1.5a4.1 4.1 0 00-1.1.1h-.5a19.22 19.22 0 01-2.4 0 19.22 19.22 0 00-2.4 0 7.57 7.57 0 01-1.5-.1c-.2-.1-.5 0-.8 0a6.75 6.75 0 01-1.4-.2c-.2-.2-.1-.4-.2-.7l-.5-.4c0-.2 0-.3.2-.3a.85.85 0 01.7.05zm14.2 2.5a1 1 0 01-.9.2c0-.3.2-.4.4-.6a1 1 0 00.5.45zm-.5-.4c.1-.2.3-.2.6-.1-.3.2-.4.15-.6.15zm-12.9-.2c.4 0 .8.1 1.2.1a9.65 9.65 0 001.7 0h5c.4 0 .9-.1 1.3-.1h1.3a10.87 10.87 0 011.8-.1c-.1.3-.3.3-.5.5s-.1.4-.2.6c-.3.1-.6 0-.8.1a2.77 2.77 0 01-.9.1h-.9c-.7 0-1.4.1-2 .1h-5a8.08 8.08 0 01-1.6-.1 7.09 7.09 0 00-1.4-.1c-.5-.3-.5-.9-.9-1.2a10.89 10.89 0 011.9.15zm-1.6.8a1.8 1.8 0 01-1-.2.66.66 0 01.7-.2c.1.15.3.25.3.45zm1.6.7a17.39 17.39 0 003.2.1 3.4 3.4 0 011 .1 4.05 4.05 0 001.1 0c.1 0 .3-.1.4 0a21.67 21.67 0 003.6-.1 25.8 25.8 0 002.9-.3h.3c.1.2-.1.4-.2.5s-.4.3-.4.6l-.3.3c-.2.1-.5 0-.8.1-.1.1-.1.2-.2.3a1.42 1.42 0 00-.6-.2h-1.1c-.7.1-1.4 0-2 .1a5.64 5.64 0 01-1.3 0h-1.7a14.27 14.27 0 01-2.9-.3 3.4 3.4 0 00-1-.1 1.7 1.7 0 01-.7-.1.85.85 0 01-.7-.7c0-.2-.3-.3-.3-.5a11.14 11.14 0 001.7.25zm12.2 1.1c-.2 0-.2-.1-.2-.2.1.15.2.15.2.25zm-12.1.6a10.87 10.87 0 011.8.1c.6 0 1.3.1 1.9.1h3.2c1.1-.1 2.2-.1 3.3-.1.1 0 .3 0 .3-.2a4.87 4.87 0 001.2-.1.85.85 0 01.7 0c-.3.4-.8.7-.9 1.1a10.62 10.62 0 01-1.9.4 25.42 25.42 0 01-3.9.1h-1.3a10.87 10.87 0 01-1.8-.1c-.5-.1-1-.1-1.6-.2-.2-.1-.1-.3-.3-.5a1.08 1.08 0 00-.7-.3 2.92 2.92 0 01-.9-.2c-.1 0-.2-.1-.2-.3.6.25.8.3 1.1.25zm.5 2.5c-.2-.2.1-.4 0-.5-.1-.3-.4-.2-.5-.4l.1-.1h.6a4.19 4.19 0 001.5.4l.2-.1.4.2a2.72 2.72 0 01.9 0 2.72 2.72 0 00.9 0h3.3a9.85 9.85 0 011.7-.2c.8-.1 1.6-.1 2.4-.2.1.1 0 .2 0 .3a1.23 1.23 0 00-.4.8 2.66 2.66 0 01-1.2.3 10 10 0 00-1.6.2 13.34 13.34 0 01-2 0 9.7 9.7 0 00-1.7.1H86a4.87 4.87 0 00-1.2-.1c.1-.3.4-.1.6-.3-1.4-.15-2.5.05-3.6-.35zm.5.5a1.65 1.65 0 01-1.4-.1c.5-.25.9-.05 1.4.15zm-1.4-2.5l.8.2c-.6.4-.6.4-1.1.4.1-.15.4-.25.3-.55zm.5 2.9a2.23 2.23 0 01-1.3.3l.3-.3zm-1 .8a2.49 2.49 0 01-.8.1 1.72 1.72 0 01.8-.05zm-.5 2.7a6.37 6.37 0 01.7-.2h.2a.35.35 0 01.1.2c-.4.1-.7.3-1.1.2 0-.05 0-.15.1-.15zm.3.9a1.14 1.14 0 01.8.3c-.4.3-.7.2-1.1.3a.71.71 0 01.3-.55zm-.1-2.3c-.1-.3.2-.4.3-.5h1v.3a2.75 2.75 0 01-1.3.25zm15.2-3.5a5.91 5.91 0 01-1.4.6.85.85 0 01-.7 0c-.1-.2-.1-.3.1-.4l.1.2c.3-.2.5-.5.8-.7.7-.05.8-.05 1.1.35zm-.2-1.4c-.2.2-.4.1-.6.1a1.31 1.31 0 01-1.1.2c.1-.3.4-.5.6-.7.3 0 .5-.1.7 0a.37.37 0 01.1.3zm.2-1.6a3.32 3.32 0 01-1.6.5c0-.1-.1-.1-.1-.2a.76.76 0 01.2-.5.55.55 0 01.5-.3c.3.25.7.25 1 .55zm-.5-3a1.88 1.88 0 01-.8.2.48.48 0 01.1-.7c.5-.05.6.25.7.55zm.2-2.4c.2-.1.4.1.6.2a.51.51 0 01-.5.1.37.37 0 01-.1-.3zm0 .3a2 2 0 01-1.1.3v-.2c.1-.1.2-.3.3-.4h.2c.2.15.4.35.6.35zm.2-1.5a.22.22 0 01-.2.2 4.68 4.68 0 01-1.7.2.73.73 0 01.7-.6 1.55 1.55 0 011.2.25zm-.3-1.5c0 .2-.1.2-.2.3a2.05 2.05 0 01-1.1 0c0-.3.3-.3.3-.5a3 3 0 011 .25zm-1.2-.2a.14.14 0 01.2 0zm.9-2.6c-.1.2-.2.3-.4.2.1-.2.2-.25.4-.2zm-11.8-.8c.2-.1.4.1.7 0a1.27 1.27 0 01.6-.1A30.1 30.1 0 0081 12a6.28 6.28 0 011.9-.3h1.7a6.6 6.6 0 011.4.1c.2.1.5 0 .7 0a1.7 1.7 0 011 0 3.4 3.4 0 001 .1 9.66 9.66 0 012.4.1h.3c.7 0 1.3.2 2 .2.1 0 .3.1.4.1 0 .2-.1.2-.1.3a1.45 1.45 0 01-.7.2h-.8c-.1.2-.3.1-.5.1l-2.8.3h-.3c-.2 0-.3-.1-.5-.1h-.9c-.2 0-.3.2-.4.3s-.4.1-.6-.1c.1-.2.4 0 .5-.2s-.1-.1-.2-.1h-.7a4.1 4.1 0 01-1.1-.1c-.2-.1-.4 0-.6 0H82a7.72 7.72 0 01-1.5-.2 8.1 8.1 0 012.2 0c.3-.25.1-.35.1-.45zm10.3 1.2a6.38 6.38 0 01-2-.1h1.3c.2.05.4-.3.7.15zm-7.1-.3c-.2.2-.4.3-.5.2a4.87 4.87 0 00-1.2-.1 10.87 10.87 0 01-1.8-.1c-.1 0-.2-.1-.3-.1a7.52 7.52 0 011.5 0 2.77 2.77 0 00.9.1zM80.4 12c-.1.1-.2.2-.3.1s.1-.1.3-.1zm-2.8.5c-.1-.2 0-.3.2-.3s.3-.1.5-.1a6.6 6.6 0 001.4-.1c.2.2-.2.3-.1.4.1.3.4.2.6.5a9.47 9.47 0 01-2.6-.35zm1.9.7c-.1.1-.1.1-.2 0a.14.14 0 01.2 0zm.4.2c.2 0 .5-.1.6-.1a19.42 19.42 0 012.4.2 8.55 8.55 0 001.6 0H89a1.39 1.39 0 00.9 0 2.85 2.85 0 011.3 0 2.77 2.77 0 00.9.1c.1.1-.1.2 0 .4a4.5 4.5 0 012.3.1c0 .1-.2.2-.3.2-.4 0-.7.1-1.1.1a6.6 6.6 0 00-1.4.1 2.44 2.44 0 01-1.2 0 10.29 10.29 0 00-1.7-.1h-3.5a19.52 19.52 0 01-3.4-.3H81c-.6.15-.6-.35-1.1-.65zm-.1 1.4h2a1.27 1.27 0 01.6.1 4.1 4.1 0 001.1.1h1.1c1 0 2 0 3.1.1a8.11 8.11 0 002.2 0c1.2-.1 2.4-.1 3.6-.2a1 1 0 01-.8.8h-.5a12.29 12.29 0 00-2.7.2l-.1.1a2.15 2.15 0 00.8 0 1.27 1.27 0 00.6-.1 9.7 9.7 0 011.7-.1q.15 0 .3.3a5.66 5.66 0 01-1.8.3 6.6 6.6 0 00-1.4.1 13.1 13.1 0 01-2.8 0 13.34 13.34 0 00-2 0c-.1 0-.1.1-.2.1s-.1-.1-.1-.2a3.4 3.4 0 011-.1h2.1c.3 0 .6-.2 1-.1a2.55 2.55 0 00-1.2-.1 1.27 1.27 0 01-.6.1h-4.3A21.06 21.06 0 0180 16c-.2-.2-.5-.3-.6-.6.1 0 .3.1.4.1a1.38 1.38 0 00.4.3c.2-.1.1-.2.1-.3a1.38 1.38 0 00-.4-.3 1.45 1.45 0 00-.7-.2 1 1 0 01.6-.15zm-.3.5h-.3c.1-.05.2-.15.3.05zm-1-1c-.2.1-.4.1-.5-.1a.51.51 0 01.5.15zm-.5 1.4a1.7 1.7 0 00.6-.6c.3 0 .4.2.6.2.1.2.4.4.5.6a11.11 11.11 0 01-1.7-.15zm.3 1.9c-.1-.2 0-.3.1-.4.3-.3.7-.2 1.1-.3.2.2.4.3.5.6zm.6 1.2l-.1-.2c.6-.1.7 0 1.2.6-.2.1-.3 0-.4-.1s-.3-.1-.4-.1c-.1.2-.2.1-.3 0h-.3c.1-.15.2-.15.3-.15zm-.6.1h.3c-.2.25-.2.25-.3.05zm.1 1.7l.5-.3c.2 0 .4.2.4.6-.2.1-.4 0-.5 0h-.4zm-.7 3.4a.51.51 0 01.5-.4 1.38 1.38 0 011.1.1c.1.1.2.2.2.3l-.6.2a4.3 4.3 0 00-1.2-.2zm1.6.9a2 2 0 01-1.1 0 .74.74 0 01.7-.3c.2.15.3.15.4.35zm-17.2.9a13.81 13.81 0 012-.3c.4 0 .8-.1 1.2-.1a8.6 8.6 0 001.6-.1c.5-.1 1.1 0 1.6-.1a36.17 36.17 0 015.7-.1 1.27 1.27 0 01.6.1c.1 0 .2.1.3 0a10.87 10.87 0 001.8-.1 24.53 24.53 0 002.7.2 1.22 1.22 0 00.9.3c-.4.4-.9.3-1.3.5a4 4 0 00-2.6-.6l-.1.3.1.1a2 2 0 00.8-.1 2.77 2.77 0 001.3.1 4.43 4.43 0 01-1.9.3 9.7 9.7 0 01-1.7.1 4.85 4.85 0 01-1.7 0c-.3 0-.3.2-.5.2a2.43 2.43 0 01-1.2 0c.3-.2.7 0 1-.2-.1-.2-.3-.1-.5-.1h-.5l-.3.2-.3-.1c-.1 0-.2.1-.3.1l-.4-.2c-.3.2-.7 0-1 0a4.87 4.87 0 01-1.2-.1 1.27 1.27 0 01-.6-.1c-.2-.1-.5 0-.7 0a4.1 4.1 0 01-1.1-.1c-.2 0-.3-.1-.5-.4.5-.1 1 0 1.6-.1a3.75 3.75 0 00-1-.1h-.8l-.7.2a.19.19 0 000 .3c.1.2.4 0 .6.2h-.9a5 5 0 01-1.2-.2c-.3-.3-.7 0-1-.4 0 .55.1.45.2.45zm-.1 1.6a1.33 1.33 0 01.6-.5 1.69 1.69 0 011 .7c-.6.05-1.1-.15-1.6-.15zm0 1.3a3.71 3.71 0 011.4-.4.35.35 0 01.2.1c.2.1.3.3.5.5a5 5 0 01-2.1-.15zm1.2 1.2a.55.55 0 01.3.5.82.82 0 01-.7-.1c0-.35 0-.35.4-.35zm-.3.8a.19.19 0 01.3 0 .19.19 0 01-.3.05zm.1 1.1c0-.3.1-.3.3-.4a1.37 1.37 0 01.8.5l-.1.2zm.7 1.1c.2 0 .3.1.4.4a1.91 1.91 0 01-1.3-.2.8.8 0 01.9-.15zm-.7 1.6c-.1 0-.2-.1-.4-.2a2.93 2.93 0 001-.3 3.13 3.13 0 001 .5.31.31 0 01-.2.1 3.44 3.44 0 01-1.4-.05zm16.3 1.2c-.2.2-.1.4-.2.6a8.08 8.08 0 01-1.6.1 24.32 24.32 0 00-2.7 0 28.26 28.26 0 00-2.9.2h-3.1a4.33 4.33 0 01-1.6-.1c-.2-.1-.4.1-.6.1a6.64 6.64 0 00-1.5-.3c-.1 0-.3-.1-.4-.1-.3-.3-.3-.7-.6-1 .1-.2.2-.1.4-.1s.4.1.6 0h.4a4.1 4.1 0 001.1.1 12.41 12.41 0 012.7.3H72a1.7 1.7 0 01.7.1 1.39 1.39 0 00.9 0 1.7 1.7 0 011 0 .64.64 0 00.6 0 5.7 5.7 0 011.3-.1 9.15 9.15 0 001.6-.1 2.44 2.44 0 011.2 0c.1.25 0 .35 0 .35zm0-1c0-.1.1-.1.2-.1s-.1.15-.2.15zm.9.1c-.1.1-.2.1-.2 0s.1 0 .2 0zm-.6-.2l.2-.2a2 2 0 01.8-.1c.1.1 0 .2 0 .3zm1.5.1c-.2 0-.4.1-.6-.1.2 0 .5-.2.7-.1 0 .25-.1.25-.1.25zm5.2-2c-.5.4-1.3.2-1.9.3 0 .2 0 .2.1.2h.9a1.7 1.7 0 011 0 9.4 9.4 0 002.9 0 17 17 0 012.3-.1.9.9 0 00.5-.1 1.1 1.1 0 01.8 0c.1.3-.3.3-.3.5s-.2.3-.3.5c-.6 0-1.1.2-1.7.2a17.66 17.66 0 01-2.3 0 6.6 6.6 0 00-1.4.1.6.6 0 00-.4.1c-.3-.2-.6-.3-.9 0h-.1c-.3-.3-.6-.1-.8-.2s-.2.2-.3.2-.2-.1-.3-.2c-.3.1-.7-.1-1 0l-.9-.4c-.3-.1-.4.1-.6.1l-1-.2c.2-.3.6-.3.8-.4a2.5 2.5 0 00.7-.4 1.1 1.1 0 00.8 0c.2.1.3.2.5.1l.2-.3 1.5-.1a15.19 15.19 0 00-2.1-.3c-.2 0-.3.2-.4.3s-.5.1-.7-.1h-.4c-.1-.1 0-.1 0-.2l-.3-.1c0-.2.3-.1.4-.3a.78.78 0 00-.1-.8c.1-.2.3-.1.4-.1.3 0 .5.1.8.1.8.1 1.5.1 2.3.2 2.4.2 4.9.1 7.3.1.2 0 .5-.1.7.1-.1.4-.5.6-.5 1-.2.2-.4.1-.6.1h-3.3c-.1 0-.2.1-.4.2-.4-.1-.9 0-1.3-.1.2-.2.5 0 .7-.2h-1.3v.2zm.3-1.6c.2-.1.3-.1.4 0-.1.15-.2.05-.4.05zm5.9 0a2.78 2.78 0 00-1.8 0h-2.4v-.3a.56.56 0 00-.6.2c-.1 0-.1-.2-.2-.2a4.49 4.49 0 00-1.1.1c-.1 0-.3.1-.4 0-1.2 0-2.4-.1-3.5-.1a.76.76 0 01-.4-.1c-.1-.3.2-.2.3-.4s0-.4 0-.6c.2 0 .3.1.5.1.6 0 1.2.1 1.8.1.2 0 .3 0 .4-.1h1.2l.4.3a6.15 6.15 0 011.4-.1 9.66 9.66 0 002.4-.1h.7a8.6 8.6 0 001.6-.1 1.39 1.39 0 01.9 0c-.2.4-.6.6-.7 1zm2.3 2.5a1.42 1.42 0 01-.6.2 4.25 4.25 0 01-1.1.2c.1-.5.6-.6.8-1 .3.1.7 0 1 .3a.77.77 0 00-.1.35zm.6-1.8a.89.89 0 01-.6.6 2.22 2.22 0 01-1.6.3c-.1-.1 0-.2 0-.3a1.79 1.79 0 00.5-.7c.3 0 .6.1.8.1.4.05.7.15.9.05zm-.8-.9c.4-.2.6-.4 1-.4a1.53 1.53 0 01-1 .45z"/><path d="M95.4 12c-.1.15-.1 0 0 0zM72.9 31.15c-.1.1-.1 0 0 0zM92.7 27.55c.1.1 0 .1 0 0zM78.6 21.65c-.1-.1-.1 0 0 0zM71.9 31.15c0-.1-.1-.1 0 0zM93.6 11.85a.59.59 0 01.7-.1c-.2.2-.5.1-.7.1zM77.3 19.15c-.1 0-.3 0-.2-.2s.1-.1.2-.1v.3zM95.7 33.85l.3.1-.3.1v-.2zM61.5 30.85l-.2-.2.2.2zM87.3 18.15c.1-.1.2-.2.3-.2h2.1c.1.1.1.1.1.2a10.46 10.46 0 01-2.5 0zM90.3 18.35a1.73 1.73 0 01-1.2.1c.1 0 .2 0 .2-.1zM87 18.45a.45.45 0 01.5 0c-.1.2-.1.2-.5 0zM84.1 33.25a.37.37 0 01-.3.1c.1-.35.1-.35.3-.1zM81.9 32.55a.6.6 0 01.4.1c-.1.1-.2.1-.4.1v-.2zM76.4 25.75l-1.6.1v.1l.5.1c-.1.2-.3.1-.5.1h-.5l-.8-.5a13.59 13.59 0 012.9.1z"/><path d="M75.7 26c.2-.1.3 0 .5 0zM79.8 20c.1-.1.2-.1.4 0-.1 0-.2.15-.4 0zM81.9 22.75a2 2 0 01-1.1 0 1.4 1.4 0 011.1 0zM92.4 12.85h-.2a4.67 4.67 0 00-1.7-.3h-1.1c0-.1 0-.2.1-.2a17.71 17.71 0 002.3.1h.5c.1 0 .2.1.3.1s-.2.1-.2.3zM83.5 12.65a1.1 1.1 0 01.8 0zM64 27.35a.6.6 0 01.6.3.49.49 0 01-.6-.3zM79.2 18.95h-.3v-.2c.1.1.3.1.3.2zM0 36.65c.6-.1 1.2-.3 1.8-.4l13.8-.9a30.89 30.89 0 014.3.1 196.66 196.66 0 0021.8.9c3.7 0 7.4.2 11.2.2 2.8 0 5.5-.1 8.3-.1 2 0 4.1 0 6.1.1 2.6.1 5.2.1 7.9 0a111.07 111.07 0 0112.9.1c3.1.2 6.2.2 9.3.1 8.2-.3 16.5-.4 24.8-.3 4.9.1 9.8-.1 14.8-.1 1.8 0 3.6 0 5.4.1a41.43 41.43 0 009.4-.5c1.8-.4 3.7-.6 5.5-.9a11.36 11.36 0 014.5 0c1.3.3 2.6.5 3.9.7a35.37 35.37 0 008.7.6 28 28 0 012.9 0l5.3.3c4.6.4 9.3.3 14 .3 1.4 0 2.8.1 4.3.2.9.1 1.7.2 1.5.6s-1.1.4-2 .4c-2.8 0-5.5-.1-8.3-.1-5.1 0-10-.3-15-.6-1-.1-2.2 0-3.2 0a41 41 0 01-10.7-1l-1.6-.3a7.8 7.8 0 00-3.4 0c-1.7.3-3.6.5-5.2.9a45.42 45.42 0 01-9.1.6q-7.2-.15-14.4 0c-2.9.1-5.8.1-8.6 0-8.5-.2-17 0-25.5.2-3.7.1-7.2-.2-10.8-.3-2-.1-4.1-.1-6.1 0-3.2.1-6.4.2-9.7.1-4.1-.1-8.2-.1-12.2-.1-2.2 0-4.3-.1-6.5-.2-2.6-.1-5.3-.3-7.9-.2-7.7 0-15.3-.3-22.9-1a53.75 53.75 0 00-5.7-.1c-3.7.1-7.4.4-11 .5-1 .1-1.8 0-2.6.1z"/></g></g></g></svg>