<svg id="Calque_5" data-name="Calque 5" xmlns="http://www.w3.org/2000/svg" viewBox="0 0 451.47 450.46"><defs><style>.cls-1{fill:#b57b4f;}.cls-2{fill:#b67b50;}</style></defs><title>Logo</title><path class="cls-1" d="M319.51,93.78q6.4-.41,6.72,4.57a13.12,13.12,0,0,1-.48,4,14.78,14.78,0,0,1,1.52,5.11q.33,5.25-6.77,5.69a23.55,23.55,0,0,1-2.4,0,3.54,3.54,0,0,1-1.65-1,35.3,35.3,0,0,1-.64-5.56l-.62-9.87.1-.73.1-.58a4.09,4.09,0,0,1,1.51-1.24A21.2,21.2,0,0,1,319.51,93.78Zm-1.37,5.49a4.31,4.31,0,0,0,.48,1.64,3.71,3.71,0,0,0,2.14.59,4,4,0,0,0,2.42-1.16,4.42,4.42,0,0,0,.22-1.68c0-.21,0-.42-.08-.63a3.53,3.53,0,0,0-3.19-1.41,4.5,4.5,0,0,0-.63.07A2.85,2.85,0,0,0,318.14,99.27Zm.39,8.22a4.89,4.89,0,0,0,.94,2.42,7.27,7.27,0,0,0,2.43.35c1.62-.1,2.37-1.17,2.24-3.19a9.4,9.4,0,0,0-.2-1.46,4.43,4.43,0,0,0-3.35-1.12,6.43,6.43,0,0,0-.74.08A3.66,3.66,0,0,0,318.53,107.49Z" transform="translate(-110.53 -93.75)"/><path class="cls-1" d="M346,94.09c4.59.24,6.78,2.1,6.6,5.57a14.66,14.66,0,0,1-1.3,4.78l-.06,1.15a9.45,9.45,0,0,1,.55,3.74,10.61,10.61,0,0,1-.8,3.42,2,2,0,0,1-.59.06,2.17,2.17,0,0,1-1.14-.44l-.36-1.31a3.6,3.6,0,0,0,.19-1,4.19,4.19,0,0,0-1.92-3.7,5.12,5.12,0,0,0-.83-.11c-2-.11-3,1.23-3.18,4,0,.43,0,.89,0,1.37a1.45,1.45,0,0,1-1.37.72,2.23,2.23,0,0,1-.53-.1,4.81,4.81,0,0,1-.62-1.76l.73-13.76.19-.71.19-.85a3.89,3.89,0,0,1,1.63-1.06A23.12,23.12,0,0,1,346,94.09ZM343.79,100a5.75,5.75,0,0,0,.45,2.36,3.45,3.45,0,0,0,2.15,1,3.82,3.82,0,0,0,2.74-1.2,7.89,7.89,0,0,0,.36-2,9,9,0,0,0,0-1.46A3.65,3.65,0,0,0,346.34,97h-.66A3.79,3.79,0,0,0,343.79,100Z" transform="translate(-110.53 -93.75)"/><path class="cls-1" d="M379,103.43a15.32,15.32,0,0,1-.43,1.82,24.59,24.59,0,0,1-.34,3.34q-1.17,6.78-6.06,6.76a11,11,0,0,1-1.69-.15c-3-.52-4.54-2.53-4.66-6l1.59-9.18.93-2,.6-.92a6.73,6.73,0,0,1,4.3-1.29Q380.14,96.69,379,103.43Zm-8.4-3.35a39.65,39.65,0,0,0-1.43,5.51q-1.08,6.21,2.18,6.78a5,5,0,0,0,1.79-.06,8.3,8.3,0,0,0,1.22-1.1L375,109l1.15-6.64q.12-3.18-3.14-3.74A4,4,0,0,0,370.57,100.08Z" transform="translate(-110.53 -93.75)"/><path class="cls-1" d="M400.28,101.9q4.86,1.45,3.39,6.36c-.07.24-.16.48-.26.73a2.61,2.61,0,0,1-1.81.05c-.51-2.59-1.35-4.07-2.53-4.42a2.9,2.9,0,0,0-2.26.44,39.26,39.26,0,0,0-2.81,6.56q-1.58,5.26,1.38,6.15a4.67,4.67,0,0,0,1.46.18,8.06,8.06,0,0,0,2.15-2.2l.9-.48a2.07,2.07,0,0,1,1.36,1.45q-1.86,5.46-6.39,4.09a12.5,12.5,0,0,1-3.2-1.57,4.68,4.68,0,0,1-1.44-2.68,24.55,24.55,0,0,1,1.19-5.48l1.61-5.35.46-1.06a11,11,0,0,1,1.74-2.32,5.66,5.66,0,0,1,4.38-.64Z" transform="translate(-110.53 -93.75)"/><path class="cls-1" d="M426.3,113.84l-.19,2.58-.26,1-.36,3-.21.85-.53,4.46-.1.58a13.25,13.25,0,0,0-.39,2.33l-.37,1.56a3.09,3.09,0,0,1-1,1,2.89,2.89,0,0,1-.62-.19,6.05,6.05,0,0,1-.69-.38c-.31-2.54-1.11-4.08-2.4-4.64s-3.08-.14-5.36,1.26l-.27-.1a1.81,1.81,0,0,1-.95-1,11.44,11.44,0,0,1,2.92-4.21l.18-.39,2.78-3.17a11.78,11.78,0,0,1,1.63-1.95l.48-.73,1-1.14.42-.6a5.26,5.26,0,0,0,.91-1,7.79,7.79,0,0,1,1.7-.67A3.78,3.78,0,0,1,426.3,113.84ZM419.16,122a1.73,1.73,0,0,0,1,1.36,2.39,2.39,0,0,0,1.54.05,5.17,5.17,0,0,0,.55-1,3.78,3.78,0,0,0-.28-3.62A7.88,7.88,0,0,0,419.16,122Z" transform="translate(-110.53 -93.75)"/><path class="cls-1" d="M446.05,129.65c-.43,2.77-.4,4.3.09,4.58s1.25-.61,2.42-2.61l2.53-4.34q1.49-.75,2-.48,1,.58-3.41,8.1l-2.17,3.71a3.8,3.8,0,0,1-.46,1.07l-.94,1.6c-.26.07-.54.36-.83.85a3.33,3.33,0,0,1-2.61-.36,5.82,5.82,0,0,1-.66-2.55,7.72,7.72,0,0,0,.32-2l0-.64a4.4,4.4,0,0,0,.25-1.85l.5-3.7a5,5,0,0,0-.36-1.37,7.17,7.17,0,0,0-1.49,1.12l-3.74,6.12a1.52,1.52,0,0,1-1.46.15,1.68,1.68,0,0,1-.67-1.06,21.26,21.26,0,0,1,1.93-3.86l5.64-9.65.49-.55a4.12,4.12,0,0,1,1.77-.46Q447.78,123,446.05,129.65Z" transform="translate(-110.53 -93.75)"/><path class="cls-1" d="M471.62,139.23a5.16,5.16,0,0,1,1.09,1.17l.12.8-.6.81a1.54,1.54,0,0,0-.8.12,4.7,4.7,0,0,0-2.9-.19l-7.21,9.47c-.09.15-.18.3-.27.42a1.77,1.77,0,0,1-2.68.42,3.52,3.52,0,0,1,.25-1.78l7.5-10.33A7.34,7.34,0,0,0,465,137l-.06-.4.51-.69a3,3,0,0,1,1.87.14Z" transform="translate(-110.53 -93.75)"/><path class="cls-1" d="M489.7,153.42a5,5,0,0,1,.37,1.51,2.77,2.77,0,0,1-1.29.77q-4.09-3.19-5.63-1.51l-.21.25q-1.6,2.42,1.56,5.31A1.89,1.89,0,0,1,484,161a1.39,1.39,0,0,1-.25.23,10.12,10.12,0,0,1-3.64-2,3.93,3.93,0,0,0-2.88,1.45q-2,2.3,1.78,5.71a2.37,2.37,0,0,1-.65,1.35,7.66,7.66,0,0,1-3.56-1.79,8.86,8.86,0,0,1-2.26-3.53l.55-1.24,9.86-10.8.59-.44a4.05,4.05,0,0,1,2.34,0Z" transform="translate(-110.53 -93.75)"/><path class="cls-1" d="M522.36,192.11c1.86,2.78,2.11,5.18.76,7.18a11.67,11.67,0,0,1-1.87,1.55,14.08,14.08,0,0,1-4.29,1.87,10.27,10.27,0,0,1-5.45-4.29l-1.11-.12a8.85,8.85,0,0,0-2.31,1.15,8.68,8.68,0,0,0-.82.61l-1,.32a1.76,1.76,0,0,1-.8-.16,2.91,2.91,0,0,1-.44-1.44,20.84,20.84,0,0,1,3.94-3.15l8.47-5.64a4.76,4.76,0,0,1,1.47-.64,3.93,3.93,0,0,1,1.83.68A18.74,18.74,0,0,1,522.36,192.11Zm-4.09.94a15.92,15.92,0,0,0-2.37,1.26q-2.46,1.63-1.4,3.23a6.37,6.37,0,0,0,2.5,1.87,8.23,8.23,0,0,0,2.66-1.21c.23-.15.45-.32.68-.5a3.15,3.15,0,0,0-.15-3.65,5.15,5.15,0,0,0-.37-.48A5,5,0,0,0,518.27,193.05Z" transform="translate(-110.53 -93.75)"/><path class="cls-1" d="M534.48,224q-.78.39-1.71.75a27.55,27.55,0,0,1-2.88,1.72q-6.15,3.12-9-.82a10.44,10.44,0,0,1-.89-1.44q-2.06-4.06,2.06-7.35l8.31-4.22,2.18-.46,1.09-.07a6.73,6.73,0,0,1,3.6,2.67Q540.59,220.92,534.48,224Zm-2.34-8.74a40.16,40.16,0,0,0-5.26,2.15q-5.62,2.85-4.13,5.8a5.08,5.08,0,0,0,1.11,1.41,9.19,9.19,0,0,0,1.61.31l2.17-.78,6-3c1.74-1.21,2.11-2.79,1.12-4.76A4,4,0,0,0,532.14,215.28Z" transform="translate(-110.53 -93.75)"/><path class="cls-1" d="M548.22,241.24a4.73,4.73,0,0,1-.35,1.51,2.65,2.65,0,0,1-1.49.1q-2.21-4.69-4.34-3.9l-.29.13q-2.54,1.42-1,5.44a2,2,0,0,1-1,.87l-.33.08a10.27,10.27,0,0,1-2.35-3.4,3.91,3.91,0,0,0-3.23,0c-1.85.76-2.19,2.72-1,5.89a2.36,2.36,0,0,1-1.19.9,7.55,7.55,0,0,1-2.36-3.21,8.74,8.74,0,0,1-.41-4.17l1-.86,13.7-5.13.72-.12a4,4,0,0,1,2.08,1.06Z" transform="translate(-110.53 -93.75)"/><path class="cls-1" d="M554.26,263.17a4.79,4.79,0,0,1,.13,1.6l-.41.7-1,.26a1.64,1.64,0,0,0-.7-.41,4.66,4.66,0,0,0-2.15-2l-11.55,2.88a3.27,3.27,0,0,1-.47.16,1.77,1.77,0,0,1-2.36-1.35,3.72,3.72,0,0,1,1.31-1.23l12.31-3.37a7.23,7.23,0,0,0,1.11-3.11l.21-.35.83-.22a3,3,0,0,1,1.37,1.27Z" transform="translate(-110.53 -93.75)"/><path class="cls-1" d="M556.66,281.44l-13.4,2.49-1,0a9.5,9.5,0,0,1-1.44.09,2,2,0,0,1-1-.57,2.14,2.14,0,0,1,.45-1.67l13.39-2.49,1,0a9.32,9.32,0,0,1,1.44-.09,1.19,1.19,0,0,1,.51,2.24Z" transform="translate(-110.53 -93.75)"/><path class="cls-1" d="M555.8,310c-.5,0-1,0-1.6,0l-5,.31a11.62,11.62,0,0,1-2,.26l-.84.34-1.29.08a6,6,0,0,1-2.26-4,10.24,10.24,0,0,1-.51-2.48c-.18-2.93,1.44-4.92,4.88-6l9.3-.57,2.18.44,1,.36a6.72,6.72,0,0,1,2.25,3.89Q562.62,309.59,555.8,310Zm2.34-8.42-1-.51a8.24,8.24,0,0,1-1.88-.17l-8.28.79-1,.64a7.12,7.12,0,0,0-.75,1.77c.31.91.73,1.35,1.27,1.32s1.15-.49,1.89-1.37l1.14-.07a3.62,3.62,0,0,1,.48,1.69,6.89,6.89,0,0,1,0,1l.75.53a21.59,21.59,0,0,0,3.42.11q5.18-.31,4.94-4.22A8.76,8.76,0,0,0,558.14,301.59Z" transform="translate(-110.53 -93.75)"/><path class="cls-1" d="M560.85,326.73a20.6,20.6,0,0,1-4.31,0l-7.31-.41a4.84,4.84,0,0,0-2.77.57,3.06,3.06,0,0,0-.86,1.93,4.24,4.24,0,0,0,.5,2.07,5.88,5.88,0,0,0,2.53,1l10.45.58,1,.2c.65.65,1,1.16.94,1.54,0,.73-1.36,1-3.94.88l-10.46-.58a8.79,8.79,0,0,1-2.25-.84,5.94,5.94,0,0,1-1.67-3.54,7.62,7.62,0,0,1,0-1.26,8,8,0,0,1,1.49-4.12l-.13-.29,1.91-.76,1.6-.2,12.46.69a3.62,3.62,0,0,1,1.53.95A2.43,2.43,0,0,1,560.85,326.73Z" transform="translate(-110.53 -93.75)"/><path class="cls-1" d="M558.58,357.75a4.9,4.9,0,0,1-1.06,1.13,2.6,2.6,0,0,1-1.34-.66q.44-5.18-1.8-5.55l-.32,0q-2.91,0-3.61,4.19a1.91,1.91,0,0,1-1.3.26l-.33-.09a10.44,10.44,0,0,1-.33-4.13,3.89,3.89,0,0,0-2.78-1.62q-3-.4-3.82,4.6a2.27,2.27,0,0,1-1.48.18,7.46,7.46,0,0,1-.43-4,8.72,8.72,0,0,1,1.72-3.81l1.35-.22,14.42,2.41.69.25a4,4,0,0,1,1.27,2Z" transform="translate(-110.53 -93.75)"/><path class="cls-1" d="M543.81,406.22c-1.34,3.07-3.21,4.58-5.63,4.53a11.59,11.59,0,0,1-2.32-.74,14.19,14.19,0,0,1-3.89-2.59,10.23,10.23,0,0,1,.66-6.91l-.5-1a9.57,9.57,0,0,0-2.22-1.32c-.3-.12-.62-.24-1-.35l-.81-.67a1.7,1.7,0,0,1-.29-.76,2.77,2.77,0,0,1,1-1.15,21.21,21.21,0,0,1,4.77,1.61l9.34,4.06a5.23,5.23,0,0,1,1.33.89,4.09,4.09,0,0,1,.42,1.9A20.74,20.74,0,0,1,543.81,406.22Zm-3-2.93a15.25,15.25,0,0,0-2.34-1.31q-2.7-1.19-3.48.58a6.33,6.33,0,0,0-.21,3.11,8.26,8.26,0,0,0,2.46,1.57c.25.11.51.21.78.31a3.15,3.15,0,0,0,3-2.1c.07-.18.14-.37.21-.58A5.19,5.19,0,0,0,540.8,403.29Z" transform="translate(-110.53 -93.75)"/><path class="cls-1" d="M523.54,433.7a16.25,16.25,0,0,1-1.56-1,27.25,27.25,0,0,1-3-1.49q-5.94-3.48-4.2-8a9.9,9.9,0,0,1,.73-1.53q2.29-3.93,7.29-2.25l8.05,4.71,1.56,1.58.65.88a6.67,6.67,0,0,1-.29,4.47Q529.44,437.16,523.54,433.7Zm6.08-6.7a41.35,41.35,0,0,0-4.66-3.27q-5.44-3.18-7.11-.33a5.07,5.07,0,0,0-.58,1.7,8.34,8.34,0,0,0,.6,1.52l1.84,1.41,5.81,3.4c2,.82,3.5.27,4.62-1.63A4.08,4.08,0,0,0,529.62,427Z" transform="translate(-110.53 -93.75)"/><path class="cls-1" d="M518.42,450.41a21.25,21.25,0,0,1-3.61-2.38L509,443.62a4.79,4.79,0,0,0-2.61-1.08,3.13,3.13,0,0,0-1.79,1.12,4.21,4.21,0,0,0-.74,2,5.9,5.9,0,0,0,1.53,2.24l8.35,6.32.72.72a2.48,2.48,0,0,1-.09,1.8q-.66.87-3.76-1.47L502.23,449a8.77,8.77,0,0,1-1.39-2,5.83,5.83,0,0,1,.59-3.87,7.28,7.28,0,0,1,.67-1.06,7.92,7.92,0,0,1,3.53-2.59l.06-.31,2,.44,1.43.72,10,7.53a3.85,3.85,0,0,1,.74,1.64A2.54,2.54,0,0,1,518.42,450.41Z" transform="translate(-110.53 -93.75)"/><path class="cls-1" d="M500.47,472.76q-4.77,5-8.53,1.34a14.28,14.28,0,0,1-2.77-4.1l-.83-.8a9.63,9.63,0,0,1-3.19-2,10.56,10.56,0,0,1-2.07-2.85,2,2,0,0,1,1.42-1.05l1.23.58a3.87,3.87,0,0,0,.62.8,4.2,4.2,0,0,0,4,1,6.1,6.1,0,0,0,.64-.56c1.36-1.42,1-3.1-1-5a13.54,13.54,0,0,0-1-.9,1.41,1.41,0,0,1,.35-1.5,1.83,1.83,0,0,1,.42-.34,4.88,4.88,0,0,1,1.74.68l9.93,9.54.42.6.52.7a4.07,4.07,0,0,1-.26,1.94C501.59,471.51,501,472.18,500.47,472.76Zm-3-5.53a5.71,5.71,0,0,0-2.08-1.21,3.51,3.51,0,0,0-2.19,1,3.9,3.9,0,0,0-.88,2.86,7.7,7.7,0,0,0,1.26,1.56,11.76,11.76,0,0,0,1.12.93,3.66,3.66,0,0,0,3.39-1.2c.15-.16.29-.32.43-.5A3.76,3.76,0,0,0,497.46,467.23Z" transform="translate(-110.53 -93.75)"/><path class="cls-1" d="M457.8,506.34,450.2,495l-.42-.92a8.49,8.49,0,0,1-.65-1.29,1.19,1.19,0,0,1,1.85-1.36l7.6,11.31.42.92a8.41,8.41,0,0,1,.66,1.29,2.33,2.33,0,0,1-.14,1.11A2.23,2.23,0,0,1,457.8,506.34Z" transform="translate(-110.53 -93.75)"/><path class="cls-1" d="M435.78,513.6c-2.09-1.86-3.39-2.67-3.89-2.41s-.16,1.38.89,3.45l2.27,4.48c-.12,1.1-.33,1.73-.65,1.89q-1,.53-5-7.25l-1.95-3.84a4,4,0,0,1-.65-.95L426,507.3a1.61,1.61,0,0,0-.26-1.15,3.31,3.31,0,0,1,1.72-2,5.73,5.73,0,0,1,2.5.82,7.53,7.53,0,0,0,1.49,1.34l.51.38a4.48,4.48,0,0,0,1.42,1.21l2.83,2.42a5.12,5.12,0,0,0,1.35.45,7.2,7.2,0,0,0-.13-1.86l-3.12-6.46c.07-.68.29-1.12.67-1.3a1.58,1.58,0,0,1,1.25,0,21.46,21.46,0,0,1,2.2,3.71l5.06,10,.19.7a4.14,4.14,0,0,1-.57,1.74Q440.42,518.63,435.78,513.6Z" transform="translate(-110.53 -93.75)"/><path class="cls-1" d="M413.87,529.9a5.12,5.12,0,0,1-1.57.28l-.74-.33-.35-1a1.66,1.66,0,0,0,.33-.73,4.63,4.63,0,0,0,1.73-2.34l-4-11.19a2.65,2.65,0,0,1-.21-.46,1.77,1.77,0,0,1,1.1-2.48,3.7,3.7,0,0,1,1.36,1.18l4.61,11.9a7.3,7.3,0,0,0,3.2.79l.37.17.31.8a3.07,3.07,0,0,1-1.13,1.5Z" transform="translate(-110.53 -93.75)"/><path class="cls-1" d="M392.1,537.39a4.79,4.79,0,0,1-1.47-.51,2.72,2.72,0,0,1,.06-1.49c3.27-1.15,4.71-2.45,4.32-3.92,0-.1-.06-.2-.09-.3-.78-1.78-2.54-2.3-5.31-1.58a1.89,1.89,0,0,1-.76-1.08,1.16,1.16,0,0,1-.05-.34,10.34,10.34,0,0,1,3.63-2,3.93,3.93,0,0,0,.34-3.21q-.84-2.9-5.75-1.6a2.29,2.29,0,0,1-.78-1.28,7.5,7.5,0,0,1,3.44-2,8.72,8.72,0,0,1,4.19,0l.74,1.14,3.7,14.15.05.73a3.91,3.91,0,0,1-1.27,2Z" transform="translate(-110.53 -93.75)"/><path class="cls-1" d="M372,541q-6.81,1-7.57-4.16a14.37,14.37,0,0,1,.33-4.94l-.17-1.13a9.59,9.59,0,0,1-1.28-3.57,10.45,10.45,0,0,1,.11-3.51,2.26,2.26,0,0,1,.56-.17,2.1,2.1,0,0,1,1.2.2l.62,1.22a3.78,3.78,0,0,0,0,1,4.2,4.2,0,0,0,2.61,3.24,4.52,4.52,0,0,0,.84,0c1.95-.28,2.73-1.8,2.32-4.55-.06-.43-.15-.88-.26-1.35a1.41,1.41,0,0,1,1.19-1,2.49,2.49,0,0,1,.55,0,5.09,5.09,0,0,1,1,1.6l2,13.63,0,.74v.87a4,4,0,0,1-1.4,1.36A20.32,20.32,0,0,1,372,541Zm1-6.21a5.82,5.82,0,0,0-.91-2.23,3.45,3.45,0,0,0-2.31-.58,3.86,3.86,0,0,0-2.45,1.72,7.91,7.91,0,0,0,0,2,9.6,9.6,0,0,0,.32,1.42,3.62,3.62,0,0,0,3.4,1.13,5.13,5.13,0,0,0,.66-.13A3.79,3.79,0,0,0,373,534.76Z" transform="translate(-110.53 -93.75)"/><path class="cls-1" d="M347.53,541.89l-.89-13.6.1-1a8.72,8.72,0,0,1,.08-1.44,1.19,1.19,0,0,1,2.28-.24l.89,13.59-.1,1a8.56,8.56,0,0,1-.07,1.44,2.26,2.26,0,0,1-.68.89A2.19,2.19,0,0,1,347.53,541.89Z" transform="translate(-110.53 -93.75)"/><path class="cls-1" d="M324,544a4.87,4.87,0,0,1-1.25-.92,2.71,2.71,0,0,1,.5-1.41c3.46-.11,5.23-.93,5.3-2.44,0-.11,0-.22,0-.33q-.3-2.88-4.59-3.08a1.89,1.89,0,0,1-.4-1.26,1.4,1.4,0,0,1,.05-.34,10.22,10.22,0,0,1,4.05-.81,3.9,3.9,0,0,0,1.29-3c0-2-1.63-3.09-5-3.25a2.28,2.28,0,0,1-.36-1.45,7.54,7.54,0,0,1,3.88-.89,8.76,8.76,0,0,1,4,1.26l.37,1.31L331.13,542l-.17.71a3.92,3.92,0,0,1-1.8,1.49Z" transform="translate(-110.53 -93.75)"/><path class="cls-1" d="M305.81,541.29a21,21,0,0,1,.39-4.3l1.14-7.23a4.81,4.81,0,0,0-.28-2.8,3,3,0,0,0-1.83-1.06,4.23,4.23,0,0,0-2.12.29,6,6,0,0,0-1.25,2.41l-1.63,10.34-.3,1c-.71.58-1.25.84-1.63.78-.72-.12-.88-1.46-.47-4l1.63-10.34a9.1,9.1,0,0,1,1.07-2.15,5.82,5.82,0,0,1,3.69-1.3,6.52,6.52,0,0,1,1.25.09,8,8,0,0,1,3.95,1.89l.31-.1.55,2,0,1.61-1.95,12.33a3.68,3.68,0,0,1-1.09,1.42A2.41,2.41,0,0,1,305.81,541.29Z" transform="translate(-110.53 -93.75)"/><path class="cls-1" d="M277.62,536q-6.63-1.87-5.2-6.89a14.43,14.43,0,0,1,2.32-4.38l.31-1.1a9.41,9.41,0,0,1,.29-3.78,10.34,10.34,0,0,1,1.53-3.16,2,2,0,0,1,.59.08,2.09,2.09,0,0,1,1,.67l.07,1.36a3.78,3.78,0,0,0-.41.93,4.19,4.19,0,0,0,1.06,4,5.43,5.43,0,0,0,.79.29q2.83.81,4-3.2c.11-.42.22-.86.3-1.34a1.44,1.44,0,0,1,1.49-.39,1.91,1.91,0,0,1,.5.21,4.84,4.84,0,0,1,.22,1.85l-3.75,13.26-.34.65-.37.79a4,4,0,0,1-1.83.68A24.08,24.08,0,0,1,277.62,536Zm3.46-5.26a5.43,5.43,0,0,0,.08-2.4,3.4,3.4,0,0,0-1.87-1.48,3.84,3.84,0,0,0-2.93.57,7.57,7.57,0,0,0-.79,1.84,12,12,0,0,0-.29,1.43,3.65,3.65,0,0,0,2.65,2.42,6.19,6.19,0,0,0,.65.15A3.76,3.76,0,0,0,281.08,530.73Z" transform="translate(-110.53 -93.75)"/><path class="cls-1" d="M249.2,527.48c-3-1.24-3.9-3.13-2.83-5.69a8.34,8.34,0,0,1,.47-.95l.83-.12a2.66,2.66,0,0,1,1,.89,3.33,3.33,0,0,0,2,3.15,5,5,0,0,0,1.51.34,4.78,4.78,0,0,0,1.63-1.86q.94-2.26-3.16-4.53-2.56-2.84-1.27-5.94a11,11,0,0,1,2.79-3.67,7.27,7.27,0,0,1,1.9-.45,14.23,14.23,0,0,1,3.55.89q4.69,2,2.4,7.18a2.31,2.31,0,0,1-1.78.19l-.44-.81c.1-2.22-.39-3.55-1.46-4a4.25,4.25,0,0,0-3.28.47c-.11.2-.21.4-.29.58-.94,2.26,0,4,2.81,5.29l1.31,1.33a5,5,0,0,1,.53,2.08,11.25,11.25,0,0,1-.73,3c-1.1,2.63-3.24,3.63-6.44,3Q249.71,527.69,249.2,527.48Z" transform="translate(-110.53 -93.75)"/><path class="cls-1" d="M199.87,499q-3.83-2.9-1.32-6.22c.21-.26.44-.53.7-.8l.83.09a2.56,2.56,0,0,1,.77,1.13,3.31,3.31,0,0,0,1.16,3.55,5,5,0,0,0,1.37.7,4.84,4.84,0,0,0,2.05-1.4c1-1.3.34-3-1.93-5.17-1.18-2.25-1.1-4.28.26-6.07a11,11,0,0,1,3.62-2.86,7.64,7.64,0,0,1,2,0,14.81,14.81,0,0,1,3.21,1.76q4.07,3.07.54,7.55a2.36,2.36,0,0,1-1.78-.27l-.23-.89c.66-2.13.52-3.54-.4-4.24a4.31,4.31,0,0,0-3.31-.36c-.15.17-.29.33-.41.49q-2.22,2.93,1.39,5.82l.94,1.61a5,5,0,0,1,0,2.15,11.48,11.48,0,0,1-1.46,2.74q-2.58,3.41-7,1.3C200.49,499.48,200.17,499.26,199.87,499Z" transform="translate(-110.53 -93.75)"/><path class="cls-1" d="M185.16,483.1l9.06-10.17.79-.64a9.48,9.48,0,0,1,1.08-1,2.11,2.11,0,0,1,1.11-.14,2.21,2.21,0,0,1,.67,1.6L188.8,483l-.78.64a8.1,8.1,0,0,1-1.09.95,2.1,2.1,0,0,1-1.11.14A2.16,2.16,0,0,1,185.16,483.1Z" transform="translate(-110.53 -93.75)"/><path class="cls-1" d="M172.65,463.58c1.28-2.49,1.73-3.94,1.36-4.37s-1.38.19-3.12,1.72l-3.77,3.31c-1.1.17-1.76.12-2-.15q-.75-.87,5.79-6.61l3.23-2.84a3.8,3.8,0,0,1,.77-.87l1.4-1.23a1.63,1.63,0,0,0,1.05-.54,3.31,3.31,0,0,1,2.36,1.17,5.79,5.79,0,0,1-.17,2.63,7.6,7.6,0,0,0-.93,1.77l-.24.59a4.4,4.4,0,0,0-.82,1.68l-1.64,3.35a5.32,5.32,0,0,0-.09,1.41,7.5,7.5,0,0,0,1.77-.59l5.48-4.63a1.54,1.54,0,0,1,1.43.32,1.67,1.67,0,0,1,.3,1.21,21,21,0,0,1-3,3.06l-8.4,7.38-.64.37a4.12,4.12,0,0,1-1.82-.12Q168.93,469.33,172.65,463.58Z" transform="translate(-110.53 -93.75)"/><path class="cls-1" d="M150.27,447.06q-2.55-3.71,1.12-6.23a9.56,9.56,0,0,1,.85-.52,2.15,2.15,0,0,1,1.36,1,3.32,3.32,0,0,1-.22,1.19,6.06,6.06,0,0,0-.8,2.12,4.5,4.5,0,0,0,.64,1.56q1.77,2.59,7-1a43.15,43.15,0,0,0,4.63-3.77,3.69,3.69,0,0,0,.24-2.43q-2.2-3-3.75-2a4.63,4.63,0,0,0-1.45,2.26,3.7,3.7,0,0,1-.93,2.25c-.45.3-1,0-1.65-1a14.72,14.72,0,0,1-1.25-2.29,5.81,5.81,0,0,1,.45-1.36,20.26,20.26,0,0,1,1.87-1.49c3.46-2.37,6.23-2.05,8.32,1a15.35,15.35,0,0,1,1.79,3.74,5.65,5.65,0,0,1-.8,2.64,25,25,0,0,1-4.36,3.52l-4.25,2.93a10.52,10.52,0,0,1-2.05,1.06,10,10,0,0,1-2,.35,6.14,6.14,0,0,1-3.81-2.25Z" transform="translate(-110.53 -93.75)"/><path class="cls-1" d="M139.85,427.4a21,21,0,0,1,3.68-2.26l6.48-3.41a4.75,4.75,0,0,0,2.08-1.91,3,3,0,0,0-.25-2.09,4.23,4.23,0,0,0-1.49-1.53,6.05,6.05,0,0,0-2.69.44l-9.26,4.88-1,.34c-.89-.22-1.42-.5-1.6-.84-.34-.65.64-1.57,2.93-2.78l9.27-4.88a9,9,0,0,1,2.36-.43,5.85,5.85,0,0,1,3.25,2.18,6.58,6.58,0,0,1,.68,1.06,8,8,0,0,1,.84,4.29l.27.19-1.26,1.63-1.26,1-11.05,5.81a3.77,3.77,0,0,1-1.8,0A2.48,2.48,0,0,1,139.85,427.4Z" transform="translate(-110.53 -93.75)"/><path class="cls-1" d="M128.84,402.85l11-4.48a9,9,0,0,0,1.63-.95,3.12,3.12,0,0,0,.43-1.24c-.11-.22-.2-.42-.28-.62-.58-1.48-.33-2.57.76-3.27a5.52,5.52,0,0,1,2.42,2.75,7,7,0,0,1,.28,3.74,9.87,9.87,0,0,1-2.88,1.69,14.66,14.66,0,0,1-1.5.49L131,404.78l-1.12.29a2.55,2.55,0,0,1-1.25-.44A1.79,1.79,0,0,1,128.84,402.85Z" transform="translate(-110.53 -93.75)"/><path class="cls-1" d="M122.06,381.57l13-4,1-.14a8.92,8.92,0,0,1,1.42-.26,2.26,2.26,0,0,1,1,.45,2.2,2.2,0,0,1-.26,1.72l-13,4-1,.14a7.92,7.92,0,0,1-1.42.26,2.26,2.26,0,0,1-1-.45A2.21,2.21,0,0,1,122.06,381.57Z" transform="translate(-110.53 -93.75)"/><path class="cls-1" d="M114.56,359.16a5.13,5.13,0,0,1,.61-1.43,2.79,2.79,0,0,1,1.49.16q1.36,5,3.6,4.59a1.57,1.57,0,0,0,.31-.08c1.83-.64,2.47-2.37,2-5.18a1.93,1.93,0,0,1,1.13-.68,1.72,1.72,0,0,1,.34,0,10.45,10.45,0,0,1,1.73,3.76,3.89,3.89,0,0,0,3.17.57q2.94-.64,2-5.63a2.31,2.31,0,0,1,1.33-.69,7.61,7.61,0,0,1,1.77,3.57,8.81,8.81,0,0,1-.31,4.18l-1.19.66-14.37,2.71h-.73a4,4,0,0,1-1.87-1.4Z" transform="translate(-110.53 -93.75)"/><path class="cls-1" d="M112.39,338.87q-.52-6.87,4.68-7.26a14.1,14.1,0,0,1,4.9.66l1.15-.09a9.61,9.61,0,0,1,3.64-1,10.61,10.61,0,0,1,3.49.35,2,2,0,0,1,.14.58,2.11,2.11,0,0,1-.29,1.18l-1.25.54a3.54,3.54,0,0,0-1-.07,4.2,4.2,0,0,0-3.42,2.38,6,6,0,0,0,0,.85q.22,2.94,4.38,2.63a11.85,11.85,0,0,0,1.36-.18,1.44,1.44,0,0,1,.88,1.26,1.74,1.74,0,0,1,0,.55,4.89,4.89,0,0,1-1.66.84l-13.74,1.05-.72-.09L114,343a4,4,0,0,1-1.27-1.49A22.86,22.86,0,0,1,112.39,338.87Zm6.13,1.43a5.46,5.46,0,0,0,2.28-.75,3.44,3.44,0,0,0,.75-2.27,3.9,3.9,0,0,0-1.55-2.56,7.79,7.79,0,0,0-2-.1,11,11,0,0,0-1.44.22,3.64,3.64,0,0,0-1.36,3.33,5,5,0,0,0,.08.65A3.77,3.77,0,0,0,118.52,340.3Z" transform="translate(-110.53 -93.75)"/><path class="cls-1" d="M110.54,309.22c.13-3.19,1.58-4.74,4.35-4.63a10.43,10.43,0,0,1,1.06.12l.4.73a2.65,2.65,0,0,1-.48,1.27,3.32,3.32,0,0,0-2.26,3,4.77,4.77,0,0,0,.21,1.53,4.85,4.85,0,0,0,2.31.89c1.64.06,2.68-1.45,3.14-4.54q1.78-3.39,5.14-3.25a10.9,10.9,0,0,1,4.41,1.34,7.69,7.69,0,0,1,1.09,1.62,14.82,14.82,0,0,1,.39,3.64c-.14,3.39-2.11,5-5.9,4.75a2.38,2.38,0,0,1-.8-1.61l.6-.69c2.13-.68,3.21-1.6,3.26-2.76a4.31,4.31,0,0,0-1.59-2.92l-.64-.06q-3.67-.15-4,4.47l-.78,1.69a5.15,5.15,0,0,1-1.77,1.22,11.94,11.94,0,0,1-3.09.36c-2.84-.12-4.52-1.78-5-5C110.53,310,110.53,309.6,110.54,309.22Z" transform="translate(-110.53 -93.75)"/><path class="cls-2" d="M277.58,254v.56a14.54,14.54,0,0,1,.66,2.57,22,22,0,0,0,.58,2.64v2.65q.56,2.82,1,5.38c.32,1.71.67,3.34,1.05,4.9.32,2,.74,4,1.28,6.22s1,4.21,1.28,6.14a8.39,8.39,0,0,0,.4,2.68c.27.78.57,1.65.89,2.61V291a12.26,12.26,0,0,0,.08,1.25,1.86,1.86,0,0,0,.64,1.32,5,5,0,0,1,.12,2.57,8.57,8.57,0,0,1-.84,2c-.32.32-.65.61-1,.88a1.49,1.49,0,0,1-1,.4,5.7,5.7,0,0,1-3.37-1,4.88,4.88,0,0,1-1.85-2.89c0-1,0-2-.08-3a11,11,0,0,0-.56-2.93,5.41,5.41,0,0,0-2.14-2.53,7.1,7.1,0,0,0-3.2-.6,5.34,5.34,0,0,0-2.47.52,6.33,6.33,0,0,0-2.06,2v.64a2.1,2.1,0,0,1-.08.72,3.94,3.94,0,0,1-.48.64c-.38.27-.47.71-.28,1.33a6.3,6.3,0,0,1,.28,1.88,1.71,1.71,0,0,1-.36,1,1.5,1.5,0,0,0-.36.88,3.15,3.15,0,0,1-.93,1.6,4.63,4.63,0,0,1-1.52,1,5,5,0,0,1-1.77.32,5.19,5.19,0,0,1-1.64-.24,11.18,11.18,0,0,1-.88-1,1.49,1.49,0,0,1-.4-1c0-1,0-1.94.08-2.93a11.08,11.08,0,0,1,.56-2.93,6.49,6.49,0,0,1,.32-2,8.27,8.27,0,0,0,.32-2.45,9.1,9.1,0,0,0,.64-2.49,14.49,14.49,0,0,1,.64-2.81,12,12,0,0,0,.32-2.12c.06-.78.1-1.58.13-2.41a20.79,20.79,0,0,1,.2-2.41,6.77,6.77,0,0,1,.64-2.13c.32-1,.62-2,.92-3.21a13.75,13.75,0,0,0,.44-3.29v-1.36c.32-1.28.64-2.66,1-4.13s.65-2.88,1-4.22a11.27,11.27,0,0,1,.08-1.32,2.12,2.12,0,0,1,.64-1.33v-1.92c0-.64,0-1.4.08-2.29a7,7,0,0,1,.48-2.29.55.55,0,0,0,.56-.32.61.61,0,0,0,.08-.32,3,3,0,0,1,.36-2.73,4.35,4.35,0,0,1,2.29-1.76c.32-.38.6-.56.85-.56s.35.18.35.56a13.56,13.56,0,0,1,1.69.08,1.5,1.5,0,0,1,1,.56.71.71,0,0,1,.72.36,3.86,3.86,0,0,0,.64.92,10.48,10.48,0,0,0,.28,2.57,10.54,10.54,0,0,1,.28,2.57c0,.27,0,.7.08,1.29a2,2,0,0,0,.66,1.36,1.75,1.75,0,0,1,.58,1A10.92,10.92,0,0,1,277.58,254ZM262,294.22a.33.33,0,0,0-.24.08c-.17.16-.09.38.24.65Zm.56-7.7a.85.85,0,0,1-.08.48.9.9,0,0,1-.48.08h.56Zm1.36-.64a1,1,0,0,1-.4-.08.74.74,0,0,1-.32-.72v.8h-.64c0,.26.1.35.32.24a1.67,1.67,0,0,0,.32-.24Zm.08,7.86c-.05,0-.08.16-.08.48h.64C264.21,293.9,264,293.74,264,293.74Zm.56-19.66v.64h.65c0-.32,0-.51-.09-.56A1.09,1.09,0,0,0,264.53,274.08Zm0,4.57h.65q-.4-.39-.57-.24A.36.36,0,0,0,264.53,278.65Zm0,1.29h0Zm2,6.58a.85.85,0,0,0,.48-.08,1.09,1.09,0,0,0,.08-.56h-.56v.64a6.22,6.22,0,0,0-.08-1c0-.32-.27-.48-.64-.48s-.4.13-.24.4a1,1,0,0,0,.24.4h-1.29v.64a1.09,1.09,0,0,0,.56-.08c.06-.05.09-.24.09-.56a.57.57,0,0,0,.32.56.72.72,0,0,0,.32.08v.56a.72.72,0,0,0,.64-.24A.76.76,0,0,0,266.54,286.52Zm-.72-18.86a.57.57,0,0,0-.56.32.54.54,0,0,0-.08.24h.64Zm.72-4a1.34,1.34,0,0,0-.64.08c-.06,0-.08.24-.08.56h.72Zm-.72,9.79h.72v-.72Zm.72,6.5c0-.16-.13-.32-.4-.48a.66.66,0,0,0-.32-.08v.56Zm0-3.29v-1.29h-.7c0,.33,0,.51.08.56s.26.09.64.09c-.39,0-.58.1-.58.32s.18.32.56.32c0,.32,0,.4.08.24s.21-.24.48-.24Zm.56-15.57a.52.52,0,0,0-.48.32.76.76,0,0,0-.08.32.33.33,0,0,0,.08.24.21.21,0,0,0,.16.08c.05,0,.16-.1.32-.32Zm0,3.93v-.72l-.56.72Zm0,16.93v-.72a.85.85,0,0,0-.48.08,1.4,1.4,0,0,0-.08.64Zm.64-23.35a.59.59,0,0,0-.56.32.72.72,0,0,0-.08.24v-.56Zm-.64,1.93v0Zm0,2.57v-.65a1.17,1.17,0,0,0,.08.57,1.09,1.09,0,0,0,.56.08Zm0,4.57h0Zm.64-6.58v.64a.67.67,0,0,0,.65-.32.76.76,0,0,0,.08-.32Zm0,5.14h0Zm1.93,15a2.72,2.72,0,0,0-.56-.56,1.75,1.75,0,0,0-.64-.08h0a3.4,3.4,0,0,0,.64.56A1.24,1.24,0,0,0,269.67,281.22Zm-1.2-26.64h.64l-.64-.56Zm5.13,14.36v-.72c-.3-1-.6-2.11-.91-3.29a13.08,13.08,0,0,1-.45-3.21H271v4.5c-.32,1.39-.65,2.86-1,4.41s-.65,3.13-.92,4.73a5.67,5.67,0,0,0,.16,1.53,2.18,2.18,0,0,0,1.1,1.12c.32.7.73,1.07,1.22,1.13a1.74,1.74,0,0,0,1.39-.49,5.08,5.08,0,0,0,1.39-1.08,2.33,2.33,0,0,0,.52-1.56,4.41,4.41,0,0,1-.64-1.85q-.09-.89-.09-1.44a5.44,5.44,0,0,1-.48-1.85C273.63,270.23,273.6,269.59,273.6,268.94Zm-3.93,14.21c-.27.32-.21.53.16.64a1.89,1.89,0,0,0,.56.08,4,4,0,0,0-.08-.88C270.26,282.78,270,282.83,269.67,283.15Zm0-37.64v1.28a.64.64,0,0,0,.64-.32.72.72,0,0,0,.08-.32.67.67,0,0,0-.4-.56A.76.76,0,0,0,269.67,245.51Zm.72,3.21a.76.76,0,0,0-.08-.32.65.65,0,0,0-.64-.32v.64Zm-.72.56v0Zm0,7.23h.72v0Zm.72-1.93a.76.76,0,0,0,.08.32.59.59,0,0,0,.56.32v-.64Zm1.13-9.15a1.44,1.44,0,0,0,.07-.64H271v.72A.92.92,0,0,0,271.52,245.43Zm.07,39a5.09,5.09,0,0,0-.07-.84.47.47,0,0,0-.49-.44c0,.37.08.59.25.64a.71.71,0,0,0,.31.08Zm.65-37.07h0a.85.85,0,0,0-.08-.48c-.06-.06-.24-.09-.57-.09v.57q.33.48.57.24A.36.36,0,0,0,272.24,247.36Zm0,4.65v-1.28h-.65c.33,0,.51.13.57.4A4.79,4.79,0,0,1,272.24,252Zm0-5.86,0-.64,0,.64h0Zm1.44,13H273c-.43,0-.67-.06-.72-.2s-.08-.06-.08.2h1.44Zm.57-3.93h-.65c0-.32,0-.48-.07-.48s-.21.16-.49.48ZM273,280.58h0Zm.56-31.86.08,1.36a7.1,7.1,0,0,0,.48-1,1.17,1.17,0,0,0,.09-.4Zm.56,3.93a.45.45,0,0,0-.48.4,5.34,5.34,0,0,0-.08,1,.46.46,0,0,0,.48-.44A4.73,4.73,0,0,0,274.16,252.65Zm-.56,7.87.08,1.2a.66.66,0,0,1,.21-.56.56.56,0,0,1,.27-.08l.09-.56Zm.65,2.57h0Zm.72-3.94a.29.29,0,0,0,.08.24c.1.11.29,0,.56-.24Zm0,5.14h.64a1.09,1.09,0,0,0-.08-.56,1.12,1.12,0,0,0-.56-.08Zm.64,18.22v.64H275v0h.64Zm0-22.72v.73q-.48,0-.24.36a1.48,1.48,0,0,1,.24.84v-1.93Zm0-2v0Zm0,0v.8h.56a1.41,1.41,0,0,0-.08-.4C275.93,257.92,275.77,257.79,275.61,257.79Zm.56,4.65v.65a.8.8,0,0,0-.08-.33.52.52,0,0,0-.48-.32Zm-.48,5.54a.61.61,0,0,1-.08-.32v.56h.56Q275.77,268.22,275.69,268Zm-.08,1.61v.64a.85.85,0,0,0,.48-.08,1.12,1.12,0,0,0,.08-.56Zm.57,9.06c-.27.38-.44.5-.49.37s-.08,0-.08.36v-.73Zm0-5.93H277l-.16.72.16-.72Zm.79,6.66h-.79a3,3,0,0,0,.56.4c.05,0,.07-.14.07-.4Zm0-5.3-.16.64.16-.64h0Zm0,4.57-.16-.64.16.64-.16-.64Zm1.85.73a.87.87,0,0,1-.08.48.9.9,0,0,1-.48.08c0-.27-.14-.34-.4-.2a2,2,0,0,1-.89.2l-.16.64.16-.64a.64.64,0,0,1,.64.32.67.67,0,0,0,.65.32v-.64a.72.72,0,0,0,.24-.08A.52.52,0,0,0,278.82,279.38Zm-.72-8.19a.79.79,0,0,1,.08.32.79.79,0,0,0-.08-.32.67.67,0,0,0-.57-.4A.67.67,0,0,1,278.1,271.19Zm-.52-1.6v0Zm0,15.49v0Zm.66-7.79h0Zm0,11.15h.58c0-.37,0-.46-.08-.28S278.52,288.44,278.24,288.44Zm.58-11.79V276a.29.29,0,0,0-.24.08C278.47,276.19,278.55,276.38,278.82,276.65Zm0,9.23h.72a1.41,1.41,0,0,0-.08-.4.71.71,0,0,0-.64-.4Zm1.28-5.94v0Zm.73,5.94h0v-1.45c-.33.22-.41.4-.25.56a.33.33,0,0,0,.25.09Zm.64,3.13a.33.33,0,0,0-.08-.24c-.06-.06-.24,0-.56.24Zm-.64,2.57h0Zm1.92-.57v-.64a1.46,1.46,0,0,1-.88-.28c-.27-.19-.4-.09-.4.28.32.32.53.4.64.24a.71.71,0,0,1,.64-.24Zm-.64,3.21V295h.64Z" transform="translate(-110.53 -93.75)"/><path class="cls-2" d="M304.57,232.27a1.83,1.83,0,0,1,.77,1,7.58,7.58,0,0,1,.12,1.57,4.3,4.3,0,0,1-.12,1,1.54,1.54,0,0,1-.77.88,4.25,4.25,0,0,1-1,1,2.68,2.68,0,0,1-1.54.4,4,4,0,0,0-1.66.28,3.76,3.76,0,0,1-1.58.28,8.34,8.34,0,0,0-1.06,1.08,6.26,6.26,0,0,0-.89,1.65V293.9c0,.65,0,1.42-.12,2.33a4.4,4.4,0,0,1-.76,2.25,3.36,3.36,0,0,1-2.49.88,3.66,3.66,0,0,1-2.57-.88,2.18,2.18,0,0,1-.68-2,14.19,14.19,0,0,0,.2-2.57,7.14,7.14,0,0,1-.36-3.33,10.27,10.27,0,0,0-.36-3.89c0-.59,0-1.23.08-1.93a9,9,0,0,1,.64-2.48,1.89,1.89,0,0,0-.08-.73,4.55,4.55,0,0,0-.64-.72,3.11,3.11,0,0,1-.24-2.45,11.86,11.86,0,0,1,1-1.88v-.8a1.74,1.74,0,0,1-.64-.93,2.21,2.21,0,0,1,.08-1c.11-.37.23-.76.36-1.16a4.32,4.32,0,0,0,.2-1.41,1.72,1.72,0,0,1-.64-1.32c-.05-.62-.08-1.25-.08-1.89a7.66,7.66,0,0,0,.28-3.53,20.29,20.29,0,0,1-.28-3.53,2.21,2.21,0,0,1,.36-1.09,2.8,2.8,0,0,0,.36-1.48,18.26,18.26,0,0,1-.4-3.25c-.11-1.63-.19-3.38-.24-5.26s-.08-3.62-.08-5.25v-3.17a2.37,2.37,0,0,0-.88-2.17,4.69,4.69,0,0,0-2.49-.56,3.38,3.38,0,0,1-1.52-.28,3.66,3.66,0,0,0-1.61-.28.56.56,0,0,1-.24-.24,1,1,0,0,0-.24-.32,16.37,16.37,0,0,1-3.69-1.69,17.4,17.4,0,0,1-2.65-.24,7,7,0,0,0-1.77-1.08,5.13,5.13,0,0,1-1.68-1.17c-.59-.16-1.13-.29-1.61-.4l-1.44-.32a1.64,1.64,0,0,0-.52-.24,1.15,1.15,0,0,1-.52-.32h-.24V232a3.1,3.1,0,0,1-.57-.36,2.25,2.25,0,0,0-.56-.36,3.33,3.33,0,0,1-1.76-.73l-.81-.16-.8-.16a10,10,0,0,1-1.77-.44,10.36,10.36,0,0,0-1.84-.44,3.89,3.89,0,0,1-.72-.28,3,3,0,0,0-.81-.28,3.93,3.93,0,0,1-2,.8l-.4.64a1.59,1.59,0,0,1-.85,1.29l-1.56.72a1.12,1.12,0,0,1-.32.24.57.57,0,0,1-.64-.08,9.6,9.6,0,0,0-1.77-1,3.09,3.09,0,0,1-1.44-1.53c0-.43,0-.84,0-1.24a1.24,1.24,0,0,1,.36-1,5.53,5.53,0,0,1,.6-.88c.19-.21.36-.4.52-.56l.92-1.08a2.29,2.29,0,0,1,1.33-.77,2.61,2.61,0,0,1,1-.84,7.17,7.17,0,0,0,1.16-.68c0-.05,0-.08-.08-.08a5.13,5.13,0,0,1,.53-.24,1,1,0,0,1,.44-.08l2-.6a7.3,7.3,0,0,1,2.13-.36,13.61,13.61,0,0,1,2.69.08,10.94,10.94,0,0,1,2.29.56,10.1,10.1,0,0,1,3.85,1.92l1,.48a2.25,2.25,0,0,1,1.28.08,1.51,1.51,0,0,1,1.13,1.13,5,5,0,0,1,1.48.36,12.52,12.52,0,0,1,1.33.64l1.32.76a6.38,6.38,0,0,0,1.57.65l1,.32a10.07,10.07,0,0,1,1.56.64,6.68,6.68,0,0,0,.89.24,1.08,1.08,0,0,1,.56.24l1.52.36c.54.13,1.07.26,1.61.36h2.57a3.26,3.26,0,0,0,1.81.28,3.86,3.86,0,0,1,1.81.2h.57l.84-.32a2.7,2.7,0,0,1,.85-.16,2.91,2.91,0,0,1,1.29.24,3.44,3.44,0,0,0,.89.32h.64q.64-.15,1.29-.36a3.85,3.85,0,0,1,1.05-.2,7.47,7.47,0,0,1,1.9.28,7.21,7.21,0,0,0,2,.28,2.81,2.81,0,0,0,.85.73Q304.57,231.7,304.57,232.27ZM253,227.37a.69.69,0,0,1,.48-.24l-.16-.4Zm.72,2c-.16.16-.11.29.16.4a.82.82,0,0,0,.4.08Zm3.69-3a2.1,2.1,0,0,1-.6.24c-.08,0-.2-.13-.36-.4l.32.48-.4.4.08.24v.08l.16.16.16-.72v-.16Zm2.17-1.69a.72.72,0,0,1,.32-.08.69.69,0,0,1,.56.41,5.92,5.92,0,0,0-.68-.89c-.08,0-.23,0-.44.16l-.41.24a1.54,1.54,0,0,0,.33.53C259.29,225.11,259.4,225,259.56,224.72ZM268,229.3q.16-.17.24-.12t-.24-.36a.24.24,0,0,0-.08.16v.16Zm1.37-2.57a.52.52,0,0,0-.48.4l.08.08.4-.08Zm4.89,2.09-.24-.24v-.16h-.08v-.08c-.21.48-.4.75-.56.8h.16Zm1.93,2a.43.43,0,0,0,.16.32.62.62,0,0,0,.72.17Zm2.89,2.65-.24-.72-.48.32.08.56Zm4-3c.11,0,.13,0,.08-.08a1.09,1.09,0,0,0-.24-.16v.24Zm1.53,4.34a.32.32,0,0,0,.08.24.23.23,0,0,0,.16.08c.05,0,.13-.11.24-.32Zm1.76-1.37a.87.87,0,0,0-.08-.48.85.85,0,0,0-.48-.08v.56Zm.64,2.09h-.64a.76.76,0,0,1,.32.08.58.58,0,0,1,.32.56Zm1.93-1.37c.43,0,.67,0,.72-.08a1.34,1.34,0,0,0,.08-.64,1.65,1.65,0,0,0-.72.08A1.4,1.4,0,0,0,288.93,234.19Zm.8,1.37c-.32,0-.43.11-.32.32a.88.88,0,0,0,.32.32Zm0-.72a3.22,3.22,0,0,0,.64.56c.06,0,.08-.19.08-.56a2.76,2.76,0,0,0-.64-.48C289.76,234.36,289.73,234.52,289.73,234.84Zm1.18,0h.72a1.07,1.07,0,0,0-.12-.48,1.64,1.64,0,0,0-.28-.41l-.32-.48Zm0,2.65a1.09,1.09,0,0,0,.23-.41.81.81,0,0,0-.23-.88Zm1.23,48.71a.33.33,0,0,1-.08.24.55.55,0,0,1-.48.24h1.36a.72.72,0,0,0-.08-.24,1,1,0,0,0-.72-.24,1.65,1.65,0,0,0,.72-.08,1.4,1.4,0,0,0,.08-.64,1,1,0,0,1-.08.4A.74.74,0,0,1,292.14,286.2Zm.82-43.58a2.78,2.78,0,0,0-.4-.24c-.27-.11-.4,0-.4.24-.26,0-.35,0-.28-.08s0-.27-.27-.64v1.44a3.59,3.59,0,0,0,.79-.08c.27,0,.19-.26-.24-.64Zm-1.35,20.22c.26.33.42.49.47.49s.08-.16.08-.49Zm.55,14.13a2.1,2.1,0,0,1-.08.72,2.6,2.6,0,0,1-.47.56h.55l.78-.56V277Zm-.5-42.78c.26,0,.42,0,.48-.08a1.34,1.34,0,0,0,.08-.64h-.56Zm1.28,48.72a.85.85,0,0,0,.48-.08c.06-.05.08-.24.08-.56l-1.36.64v.64a.56.56,0,0,1,.4-.56A1,1,0,0,1,292.94,282.91Zm1.93,5h-.51a1.84,1.84,0,0,0-.3.48.48.48,0,0,0,0,.29.71.71,0,0,0,.17.24.45.45,0,0,1,.13.36H293a.85.85,0,0,0-.38.48,3.88,3.88,0,0,0,0,.48,2.59,2.59,0,0,1,0,.48.85.85,0,0,1-.38.48h.78c.27,0,.33-.14.2-.44a2.06,2.06,0,0,1-.2-.84h.61a.72.72,0,0,0,.7-.32.65.65,0,0,0,.09-.32h.53V288Zm-.81-33.3a.54.54,0,0,0-.08-.24.5.5,0,0,0-.48-.32A.85.85,0,0,0,294,254c.06-.06.08-.24.08-.56a.66.66,0,0,1-.08.32.5.5,0,0,1-.48.32.63.63,0,0,1-.08.32.62.62,0,0,1-.56.24Zm-1.12-16a.52.52,0,0,1,.25-.48.76.76,0,0,1,.32-.08h-.57Zm1.45,5.13v-.48a1.16,1.16,0,0,1-1,.24c-.27-.1-.41,0-.41.24h1.45Zm-1.45,2.65q.4.57.48.57c.06,0,.08-.19.08-.57Zm0,20.87a.52.52,0,0,1,.48.32.66.66,0,0,1,.08.32v-.64Zm.56,16.21a.52.52,0,0,0-.48.32.79.79,0,0,0-.08.32,1.34,1.34,0,0,0,.08.64c.05.06.21.08.48.08v-1.36Zm-.08-25.44a2.35,2.35,0,0,0,0,.56c0,.05.19.08.46.08v-1.36c-.16,0-.3.13-.41.4A.65.65,0,0,0,293.42,258.11Zm1-23.92c0,.33-.15.43-.45.33s-.44,0-.44.32a1.19,1.19,0,0,0,.4-.08c.32-.11.49-.3.49-.57.26,0,.41,0,.44-.08a2.89,2.89,0,0,0,0-.64c-.16,0-.3.14-.4.4A.66.66,0,0,0,294.39,234.19Zm-.81,15a.72.72,0,0,0,.08.32c.11.22.24.32.4.32a.77.77,0,0,0-.24-.56A.6.6,0,0,0,293.58,249.2Zm1.29-12.12c.1,0,.16,0,.16-.12a.26.26,0,0,1,.08-.2h-.24a.72.72,0,0,0-.08-.24c-.11-.21-.24-.32-.4-.32v.56h.48Zm0,4.1a2,2,0,0,0,0-.49c0-.05-.18-.08-.44-.08v.57l.35.64Zm-.48,14.52c.1,0,.24.14.4.4a.79.79,0,0,1,.08.32v-.72Zm.48,19.42a.77.77,0,0,0-.24-.56.72.72,0,0,0-.24-.08v.64Zm-.48.57a.84.84,0,0,0,.08.4c.1.27.24.4.4.4a1,1,0,0,0-.24-.72A.54.54,0,0,0,294.39,275.69Zm.48,2.56a1.92,1.92,0,0,0,0-.48s-.18-.08-.44-.08v.56l.35.65Zm0,14.37a.77.77,0,0,0-.24-.56.54.54,0,0,0-.24-.08v.64Zm.8-55.3a.6.6,0,0,0,.08-.24c0,.06,0,.08,0,.08S295.67,237.22,295.67,237.32Zm1.2.17a.7.7,0,0,1,.57-.73c.37-.1.4-.29.07-.56h.57a.76.76,0,0,0-.08-.32.59.59,0,0,0-.56-.32v.64a.45.45,0,0,0-.49.36A4.65,4.65,0,0,0,296.87,237.49Zm3.29-2.65a.57.57,0,0,0-.56.4.76.76,0,0,0-.08.32h.64Zm.57-1.93a.92.92,0,0,0-.49.08.87.87,0,0,0-.08.48h.57Zm.88,2.65a.76.76,0,0,1-.08.32c-.11.21-.38.32-.8.32h.88Z" transform="translate(-110.53 -93.75)"/><path class="cls-2" d="M315.7,241.18h7.11a4.24,4.24,0,0,1,3,.92,3,3,0,0,1,1,2.29,4.43,4.43,0,0,1-.88,3.05,2.93,2.93,0,0,1-2.25,1,16.48,16.48,0,0,1-3.61.48,10.06,10.06,0,0,1-3.05-.48,2.68,2.68,0,0,0-1.6.4,5.92,5.92,0,0,0-1.05,1,4.25,4.25,0,0,0-1.48,1,2.34,2.34,0,0,0-.44,1.56v9.87a3.76,3.76,0,0,0,1.2,2.73,3.69,3.69,0,0,0,2.65,1.21c.69,0,1.38,0,2-.08a4.11,4.11,0,0,0,1.89-.65,3.09,3.09,0,0,1,1.93.69,2.66,2.66,0,0,0,1.52.68.52.52,0,0,1,.48.32.63.63,0,0,1,.08.32,10.27,10.27,0,0,1,.73,2.33,2.24,2.24,0,0,1-.73,2.16,3.54,3.54,0,0,1-1,1.53,1.79,1.79,0,0,1-1,.48H316.3a5.63,5.63,0,0,0-2.13.48,1.6,1.6,0,0,0-1.16,1.52,14.38,14.38,0,0,0-.48,2.61c-.06.73-.08,1.57-.08,2.53v4c0,.64,0,1.29.08,2a7.16,7.16,0,0,0,.48,2,3.14,3.14,0,0,0,2.12,1.92,4.28,4.28,0,0,0,3.17-.08c1,0,1.94,0,2.93.08a9.07,9.07,0,0,1,3,.73c1.34,0,2,.59,2,1.76a3.2,3.2,0,0,1,.48,1.41c0,.5.08,1,.08,1.4A2.55,2.55,0,0,1,326,298a2.39,2.39,0,0,1-1.76.84,76.16,76.16,0,0,1-7.79.56q-3.88.07-7.32.08-3.84,0-3.84-4v-9.79a2.76,2.76,0,0,0,.24-2,12.69,12.69,0,0,1-.24-2.69v-5.78a3.45,3.45,0,0,0,.32-2,3.18,3.18,0,0,1,.33-2,9.49,9.49,0,0,1-.57-2.45c-.05-.72-.08-1.61-.08-2.68v-2.57a15.12,15.12,0,0,0,.24-4.58,35.14,35.14,0,0,1-.24-4v-8.51a2.1,2.1,0,0,0,.56-1.36c.05-.59.08-1,.08-1.37a2.22,2.22,0,0,1,.84-2,3,3,0,0,1,1.72-.56Zm-7.84,25.6-.56.64ZM307.3,249c.27.38.46.47.57.28a.67.67,0,0,1,.64-.28.76.76,0,0,0-.32.08.65.65,0,0,0-.32.64h.64V249Zm0,4v0Zm1.85,25.44a1.55,1.55,0,0,1-.64-.08,3.94,3.94,0,0,1-.64-.48l-.56.56h.56a1.35,1.35,0,0,1,.39.08,2.3,2.3,0,0,1,.88.57Zm0-24.87a.86.86,0,0,0,.33-.41c.1-.26,0-.56-.33-.88,0,.38,0,.59-.08.64s-.24.08-.56.08h-.64c-.27,0-.35.11-.24.32a.53.53,0,0,0,.24.25v0l.64.8h.64Zm-.65,5.29h.64a.79.79,0,0,0-.08-.32.69.69,0,0,0-.56-.4v0a.69.69,0,0,1,.56.4.79.79,0,0,1,.08.32Zm-.64,1.93h0Zm.65-14.37a1.09,1.09,0,0,0-.56.08,1.43,1.43,0,0,0-.08.65v-.73Zm-.64,9.79h0V257h.64v-.73h-.64v0Zm0,13.81v.64h.64a.76.76,0,0,0-.08-.32A.58.58,0,0,0,307.87,270.07Zm.64,5.85h-.64v.65a1.09,1.09,0,0,0,.56-.08A1.14,1.14,0,0,0,308.51,275.92Zm-.64,9.8v0Zm1.27-41.33-.64.72a.58.58,0,0,0,.56-.32A1,1,0,0,0,309.14,244.39Zm0,1.44v0Zm0,2.57v0Zm0,45.1a.48.48,0,0,0,.08.32c.11.16.34.06.7-.32h0v-.56h-.81Zm1.37-29.93a.61.61,0,0,0-.32.08.62.62,0,0,0-.24.56.62.62,0,0,1,.24-.56.61.61,0,0,1,.32-.08.85.85,0,0,1-.48-.08c-.06-.06-.08-.27-.08-.65h-.81a1.43,1.43,0,0,0,.08.65,1.75,1.75,0,0,0,.73.08Zm-.56,7.14h-.81a.85.85,0,0,0,.08.48,1.75,1.75,0,0,0,.73.08Zm-.81,11.8H310v-.73a.7.7,0,0,0-.73.41A.72.72,0,0,0,309.15,282.51Zm.71,2.32a.71.71,0,0,0,.07-.32,1,1,0,0,0,.24-.32c.11-.26,0-.4-.24-.4l-.78.72v.57A.81.81,0,0,0,309.86,284.83Zm.62-36.43h0Zm-.56,13.16v.64a.61.61,0,0,0,.08.32.49.49,0,0,0,.48.32v-.64a1.09,1.09,0,0,0-.08-.56A.9.9,0,0,0,309.92,261.56Zm0-14.36.55.56v-.56Zm1.15,45.1v-.56h-.64a.52.52,0,0,0,.32.48A.76.76,0,0,0,311.08,292.3Zm-.6-48.56v0a1.14,1.14,0,0,0,.08.57,1.09,1.09,0,0,0,.56.08c-.32,0-.43-.11-.32-.32S310.8,243.74,310.48,243.74Zm.6,28.82v.72h0Zm.72-1.29v0Zm.65,23.59a.52.52,0,0,0-.09-.23.56.56,0,0,0-.56-.33l.65.56a1.44,1.44,0,0,0-.25.33c-.1.21,0,.32.25.32Zm.59-26.64q0,.4.09.48c.06.06.25.08.6.08v1.29H313c0-.32,0-.48-.08-.48s-.23.16-.51.48h1.28a1,1,0,0,0,.24-.4.81.81,0,0,0-.24-.89c-.35,0-.54,0-.6-.08S313,268.49,313,268.22Zm-.59,24.72v0Zm1.28-48.55c-.27.32-.35.53-.24.64a.33.33,0,0,0,.24.08l-.08.72.08-.72Zm.68,49.91.6-.8h-.6c0-.27-.12-.4-.34-.4s-.34.13-.34.4a1.74,1.74,0,0,0,.07.72C313.85,294.28,314.05,294.3,314.41,294.3Zm.6-26.08h-.64l.64.56Zm.08-23.83h.64a1.79,1.79,0,0,1-.64-.08,4,4,0,0,1-.64-.57,4.16,4.16,0,0,0,.08.85C314.58,244.83,314.77,244.76,315.09,244.39Zm.56,53.12.65-.56.72-.64v0a1.65,1.65,0,0,0-.08-.72c-.06-.06-.27-.08-.64-.08v.8a.33.33,0,0,1-.08.24q-.17.17-.57-.24H315v0a.64.64,0,0,1,.64.32.65.65,0,0,0,.65.32Zm.65-2.65h0Zm1.36-48.39v-.64l-.64.64Zm.64-2.73a.54.54,0,0,0-.08-.24.58.58,0,0,0-.56-.32v.56Zm1.37,25.69v0Zm.08-26.25v.56h.56v-.56Zm1.84,50.32h.65a.85.85,0,0,0-.08-.48,1.14,1.14,0,0,0-.57-.08v.56h0Zm.08-49.11a1.38,1.38,0,0,0,.33.24c.21.11.32,0,.32-.24Zm.57,51.12h0v0Z" transform="translate(-110.53 -93.75)"/><path class="cls-2" d="M348.08,299.6h-2.57a8.2,8.2,0,0,0-3.61-.28,20.84,20.84,0,0,1-3.61.28,3.37,3.37,0,0,1-1.21-.36,3.44,3.44,0,0,0-1.36-.36,3.65,3.65,0,0,1-1.37-1.05,1.45,1.45,0,0,1,.08-1.52v-6.42c0-1.34,0-2.61-.08-3.81a13.82,13.82,0,0,0-.56-3.41,6.2,6.2,0,0,1,.32-1.93,5.66,5.66,0,0,0,.32-1.84,9,9,0,0,1-.32-3.37,7.85,7.85,0,0,0-.32-3.22v-.64a.77.77,0,0,1,.2-.48l.4-.48a1,1,0,0,0,.25-.48.55.55,0,0,0-.21-.48,1.54,1.54,0,0,0-.32-.93,1.68,1.68,0,0,1-.32-1,8,8,0,0,0,.56-2.53,16.77,16.77,0,0,0,0-2.65c-.08-.88-.18-1.76-.32-2.64a17.53,17.53,0,0,1-.2-2.53,13.86,13.86,0,0,1,.32-3,12.93,12.93,0,0,0,.32-2.89V251a8.72,8.72,0,0,1-.24-3.45,19.69,19.69,0,0,0,.24-3.05,2.78,2.78,0,0,1,1.18-2.33,3.72,3.72,0,0,1,2.15-.88,5.27,5.27,0,0,1,2.6,1.2,4,4,0,0,1,.66,2.65,18,18,0,0,0,.24,3A6,6,0,0,1,341,251a15.06,15.06,0,0,1,.24,4.57A39.46,39.46,0,0,0,341,260a4.2,4.2,0,0,1,.48,1.88,1.91,1.91,0,0,1-.48,1.41v5.77a7.76,7.76,0,0,0,.24,2,2.89,2.89,0,0,1-.24,2c-.33,0-.41.13-.25.4a1.56,1.56,0,0,1,.25.8c0,1.66,0,3.3.07,4.94a32.8,32.8,0,0,0,.49,4.85,8,8,0,0,1-.24,1.93,2.71,2.71,0,0,0,.24,1.92,3.11,3.11,0,0,0,1,2.41,4.27,4.27,0,0,0,3,.88h5.14c.32,0,.74,0,1.28.08a2.35,2.35,0,0,1,1.28.49h.64c.33.64.71,1.32,1.17,2a2.87,2.87,0,0,1,.2,2.53,11.22,11.22,0,0,1-1.77,2.61,3.06,3.06,0,0,1-2.16.68Zm-12.36-22.79c.37,0,.59.09.64.28s.08.09.08-.28h-.72v0Zm1-31a.33.33,0,0,0-.24-.08v.72C336.71,246.15,336.79,245.94,336.68,245.83Zm-.24,3.21H337v0Zm.56,5.78v0a.72.72,0,0,0-.08-.24.51.51,0,0,0-.48-.32q0,.41.24.48A.76.76,0,0,0,337,254.82Zm-.56,3.29v0Zm.56,9.07a1.37,1.37,0,0,0-.08-.64c-.05-.06-.21-.08-.48-.08,0-.27.07-.43.2-.48s.07-.09-.2-.09v.57c.27,0,.43,0,.48.08A1.37,1.37,0,0,1,337,267.18Zm-.56,12.92a.42.42,0,0,0,.56-.56h-.56ZM337,284c-.27-.32-.36-.51-.28-.56s0-.08-.28-.08V284Zm-.56,11.08a.85.85,0,0,0,.48-.08,1.43,1.43,0,0,0,.08-.65v.73Zm.56-4.66a.35.35,0,0,0-.24.08c-.16.16-.08.38.24.64v-.72a.71.71,0,0,0,.64-.24.63.63,0,0,0,.08-.32H337ZM337,262a1.06,1.06,0,0,0-.2,1.05,2.36,2.36,0,0,1,.2.88h.64a1.56,1.56,0,0,0-.32-.88A1.9,1.9,0,0,1,337,262v0Zm.64-14.84v1.28c-.33,0-.52-.09-.57-.28s-.07-.09-.07.28h.64Zm0,12.27a1.17,1.17,0,0,0,.08.57.92.92,0,0,0,.49.08v-.65h-.57a1.17,1.17,0,0,0-.07-.56c0-.05-.23-.08-.57-.08v.64q.36.48.57.24A.33.33,0,0,0,337.64,259.39ZM337,270.47v-.72c.34,0,.53,0,.57-.08a1.2,1.2,0,0,0,.07-.57v-.56c-.23,0-.3.11-.21.32a.5.5,0,0,0,.21.24.72.72,0,0,0-.35.08.61.61,0,0,0-.29.57v.72h.64c0-.38,0-.47-.07-.28S337.34,270.47,337,270.47Zm0,17.41v0Zm.64,3.86c-.32,0-.4.13-.24.4a1.67,1.67,0,0,0,.24.32V293l.57-.56a.53.53,0,0,1-.49-.32A1,1,0,0,1,337.64,291.74Zm.57-37.48a1.34,1.34,0,0,0-.08-.64c-.06-.06-.22-.08-.49-.08.27,0,.43,0,.49.08A1.34,1.34,0,0,1,338.21,254.26Zm-.57,26.56h.57v-.72a.8.8,0,0,0-.33.08A.72.72,0,0,0,337.64,280.82ZM339,271a.76.76,0,0,0-.72.32.66.66,0,0,0-.08.32v.64c.29,0,.38-.1.26-.32a1.41,1.41,0,0,0-.26-.32,1.53,1.53,0,0,0,.71-.08C339,271.54,339,271.35,339,271Zm-.8,18.86v.56h.72a.79.79,0,0,1-.4-.08A.51.51,0,0,1,338.21,289.89Zm.8,4.49v0a.63.63,0,0,1-.45.65.89.89,0,0,1-.35.08l.08.56-.08-.56a.89.89,0,0,0,.35-.08A.63.63,0,0,0,339,294.38Zm-.72-42h0Zm.72,9v0l.67-.64H339ZM339,286v0Zm3.21,8.42h-.64c0,.38,0,.57.08.57S341.9,294.76,342.22,294.38Zm-.64,1.29h0Zm1.28,1.28v-.64l-.64.64Zm0-3.21h.64V293c-.32,0-.43.12-.32.36s0,.36-.32.36v.64c.32,0,.4,0,.24-.08S342.86,294.06,342.86,293.74Zm1.29,2.57a.76.76,0,0,0-.08-.32.59.59,0,0,0-.57-.32h.65v0h-.65a.59.59,0,0,1,.57.32A.76.76,0,0,1,344.15,296.31Zm1.36-1.93v-.64h0Zm3.13,1.93h-.56a2.66,2.66,0,0,1,.12-.84c.08-.24-.2-.36-.85-.36.38,0,.59.12.65.36a4.13,4.13,0,0,1,.08.84v0Z" transform="translate(-110.53 -93.75)"/><path class="cls-2" d="M363.32,286.68V273c.33-.32.49-.54.49-.65s-.16-.32-.49-.64v-4.57a7.8,7.8,0,0,1,.25-2,2.43,2.43,0,0,0-.25-1.84V256.1a10.62,10.62,0,0,1-.24-3.89,31.43,31.43,0,0,0,.24-3.81v-2.65a2.67,2.67,0,0,1-.07-2.13,3.19,3.19,0,0,1,1.38-1.16,1.66,1.66,0,0,1,.53-.36l.45-.2a1.46,1.46,0,0,1,.41-.08,1.24,1.24,0,0,1,2,0,1.46,1.46,0,0,1,.41.08,2.3,2.3,0,0,1,.91.56,4.2,4.2,0,0,1,.95,1.08,3,3,0,0,1,.38,1.57,4.16,4.16,0,0,0-.2,2.29,15.62,15.62,0,0,1,.2,2.2,19,19,0,0,1-.16,2.21,2.09,2.09,0,0,1-1.13,1.73,1.12,1.12,0,0,0,.08.56,1.43,1.43,0,0,0,.65.08,2.42,2.42,0,0,1,.48,1.28c.05.54.08,1,.08,1.29a11.83,11.83,0,0,0,.16,2,2.32,2.32,0,0,1-.72,1.93v.64a2.91,2.91,0,0,1,.48,1.36c.05.54.08.94.08,1.21a5.54,5.54,0,0,0-.2,2.53,11.53,11.53,0,0,1,.2,2,14.23,14.23,0,0,1-.08,1.61,8.3,8.3,0,0,1-.48,1.68c0,1,0,1.82.08,2.57a14.29,14.29,0,0,0,.48,2.65c0,.59,0,1.2-.08,1.84a7.71,7.71,0,0,1-.48,2c0,.32,0,.78.08,1.37a6,6,0,0,0,.48,1.84v4.58a1.9,1.9,0,0,0-.4,1.12,4.21,4.21,0,0,0,.4,1.52v5.14q-.42,1-.66,1.56a2.32,2.32,0,0,1-1.31,1.09,2.69,2.69,0,0,0-1,.2,7.46,7.46,0,0,1-1,.32,2.73,2.73,0,0,1-1,0,1.87,1.87,0,0,1-1-.56,2.48,2.48,0,0,1-.66-1,2.45,2.45,0,0,0-.66-1,6.35,6.35,0,0,1-.24-3,22.52,22.52,0,0,0,.24-3.41ZM366,250.89c0-.32,0-.51-.08-.56s-.24-.09-.56-.09v.65Zm0,5.21v-.64a.59.59,0,0,0-.56.32.79.79,0,0,0-.08.32Zm.65,23.36a5.07,5.07,0,0,1,.64.88c.1.21.32.16.64-.16a3.49,3.49,0,0,0-.64-.64,1.55,1.55,0,0,0-.64-.08,2.35,2.35,0,0,0-.17-.89c-.1-.26-.48-.4-1.12-.4.64.64,1,1.05,1,1.21s-.32.43-1,.8c.32.32.54.37.64.16A4.73,4.73,0,0,1,366.62,279.46ZM366,253.54h0v0Zm0,22.15V277a.61.61,0,0,1,.59.32.76.76,0,0,1,.08.32V277l-.67-.64a3.75,3.75,0,0,0,.83-.08c.21-.06.16-.24-.16-.56H366a1.22,1.22,0,0,0,.59-.08,1.43,1.43,0,0,0,.08-.65,1.25,1.25,0,0,0-.59.08A1.43,1.43,0,0,0,366,275.69Zm0,5.77v.65q.4-.41.24-.57A.33.33,0,0,0,366,281.46Zm0,11.64c0,.27.11.35.32.24a1.15,1.15,0,0,0,.33-.24v-.56a.76.76,0,0,1-.08.32A.64.64,0,0,1,366,293.1Zm0-18.78a4.06,4.06,0,0,0,.88-.08c.27-.05.4-.24.4-.56a.47.47,0,0,0-.64.64Zm0-16.21h0Zm1.23,13.64a1.09,1.09,0,0,0-.56.08c-.06.06-.08.24-.08.56h.64v-.64c-.27-.26-.35-.45-.24-.56a.33.33,0,0,1,.24-.08c-.32,0-.49,0-.49.08A2.44,2.44,0,0,0,367.26,271.75Zm0-20.86h-.64c.27.27.46.35.56.24A.36.36,0,0,0,367.28,250.89Zm-.64,5.21v.65l.67.72v-.72Zm0,5.22.67.72v0a.88.88,0,0,1,.34.08.58.58,0,0,1,.33.56l-.08-.64c0-.37,0-.59-.16-.64a4,4,0,0,0-1.1-.08v0Zm.67,3.21h-.67v0Zm.69,22.15h-1.36c.34.32.57.48.68.48S367.66,287,368,286.68Zm-.69-38.28h0Zm0,42.21h-.64a.72.72,0,0,0,.08.32.56.56,0,0,0,.56.32Zm.64-44.22c-.32,0-.51,0-.56-.08a1.09,1.09,0,0,1-.08-.56v.64Zm-.64,2h0Zm0,5.78v0c.32,0,.4,0,.24-.08s-.24-.24-.24-.56Zm0,33.78H368l-.08.65L368,288Zm0-29.21a.61.61,0,0,0,.08.32.55.55,0,0,0,.56.32.47.47,0,0,0-.64-.64ZM368,293.1l-.08.72c.32,0,.43-.11.32-.32A3.47,3.47,0,0,0,368,293.1Z" transform="translate(-110.53 -93.75)"/><path class="cls-2" d="M388,241.18h7.12a4.25,4.25,0,0,1,3,.92,3,3,0,0,1,1,2.29,4.43,4.43,0,0,1-.89,3.05,2.91,2.91,0,0,1-2.24,1,16.56,16.56,0,0,1-3.62.48,10.16,10.16,0,0,1-3.05-.48,2.7,2.7,0,0,0-1.6.4,6.24,6.24,0,0,0-1,1,4.31,4.31,0,0,0-1.49,1,2.4,2.4,0,0,0-.44,1.56v9.87a3.73,3.73,0,0,0,1.21,2.73,3.68,3.68,0,0,0,2.64,1.21c.7,0,1.38,0,2-.08a4.11,4.11,0,0,0,1.89-.65,3.06,3.06,0,0,1,1.92.69,2.71,2.71,0,0,0,1.53.68.52.52,0,0,1,.48.32.76.76,0,0,1,.08.32,9.79,9.79,0,0,1,.72,2.33,2.21,2.21,0,0,1-.72,2.16,3.46,3.46,0,0,1-1,1.53,1.76,1.76,0,0,1-1,.48H388.6a5.59,5.59,0,0,0-2.12.48,1.61,1.61,0,0,0-1.17,1.52,14.38,14.38,0,0,0-.48,2.61c-.05.73-.08,1.57-.08,2.53v4c0,.64,0,1.29.08,2a7.16,7.16,0,0,0,.48,2,3.13,3.13,0,0,0,2.13,1.92,4.28,4.28,0,0,0,3.17-.08c1,0,1.94,0,2.93.08a9.13,9.13,0,0,1,3,.73c1.34,0,2,.59,2,1.76a3.48,3.48,0,0,1,.48,1.41c0,.5.08,1,.08,1.4a2.55,2.55,0,0,1-.8,1.73,2.41,2.41,0,0,1-1.76.84,76.15,76.15,0,0,1-7.8.56c-2.59.05-5,.08-7.31.08q-3.84,0-3.84-4v-9.79a2.76,2.76,0,0,0,.24-2,12.69,12.69,0,0,1-.24-2.69v-5.78a3.45,3.45,0,0,0,.32-2,3.17,3.17,0,0,1,.32-2,9.43,9.43,0,0,1-.56-2.45c-.05-.72-.08-1.61-.08-2.68v-2.57a15.12,15.12,0,0,0,.24-4.58,35.14,35.14,0,0,1-.24-4v-8.51a2.1,2.1,0,0,0,.56-1.36c.05-.59.08-1,.08-1.37a2.22,2.22,0,0,1,.84-2,3,3,0,0,1,1.72-.56Zm-7.83,25.6-.57.64ZM379.61,249c.27.38.46.47.57.28a.66.66,0,0,1,.64-.28.72.72,0,0,0-.32.08.64.64,0,0,0-.32.64h.64V249Zm0,4v0Zm1.85,25.44a1.52,1.52,0,0,1-.64-.08,3.94,3.94,0,0,1-.64-.48l-.56.56h.55a1.41,1.41,0,0,1,.4.08,2.3,2.3,0,0,1,.88.57Zm0-24.87a.79.79,0,0,0,.32-.41c.11-.26,0-.56-.32-.88a1.34,1.34,0,0,1-.08.64c-.05.06-.24.08-.56.08h-.64c-.27,0-.35.11-.24.32a.53.53,0,0,0,.24.25v0l.64.8h.64Zm-.65,5.29h.64a.79.79,0,0,0-.08-.32.69.69,0,0,0-.56-.4v0a.69.69,0,0,1,.56.4.79.79,0,0,1,.08.32Zm-.64,1.93h0Zm.65-14.37a1.09,1.09,0,0,0-.56.08c-.06.06-.08.27-.08.65v-.73Zm-.64,9.79h0V257h.64v-.73h-.64v0Zm0,13.81v.64h.64a.76.76,0,0,0-.08-.32A.59.59,0,0,0,380.18,270.07Zm.64,5.85h-.64v.65a1.12,1.12,0,0,0,.56-.08A1.14,1.14,0,0,0,380.82,275.92Zm-.64,9.8v0Zm1.27-41.33-.64.72a.59.59,0,0,0,.56-.32A1,1,0,0,0,381.45,244.39Zm0,1.44v0Zm0,2.57v0Zm0,45.1a.48.48,0,0,0,.08.32c.1.16.34.06.7-.32h0v-.56h-.8Zm1.36-29.93a.66.66,0,0,0-.32.08.62.62,0,0,0-.24.56.62.62,0,0,1,.24-.56.66.66,0,0,1,.32-.08.9.9,0,0,1-.48-.08,1.43,1.43,0,0,1-.08-.65h-.8a1.43,1.43,0,0,0,.08.65,1.65,1.65,0,0,0,.72.08Zm-.56,7.14h-.8a.85.85,0,0,0,.08.48,1.65,1.65,0,0,0,.72.08Zm-.8,11.8h.8v-.73a.69.69,0,0,0-.72.41A.72.72,0,0,0,381.46,282.51Zm.7,2.32a.72.72,0,0,0,.08-.32,1,1,0,0,0,.24-.32c.11-.26,0-.4-.24-.4l-.78.72v.57C381.82,285.08,382.06,285,382.16,284.83Zm.62-36.43h0Zm-.56,13.16v.64a.72.72,0,0,0,.08.32.51.51,0,0,0,.48.32v-.64c0-.32,0-.51-.08-.56A.85.85,0,0,0,382.22,261.56Zm0-14.36.54.56v-.56Zm1.15,45.1v-.56h-.65a.52.52,0,0,0,.33.48A.72.72,0,0,0,383.39,292.3Zm-.61-48.56v0a1.14,1.14,0,0,0,.08.57,1.17,1.17,0,0,0,.57.08c-.32,0-.43-.11-.32-.32S383.11,243.74,382.78,243.74Zm.61,28.82v.72h0Zm.72-1.29v0Zm.64,23.59a.62.62,0,0,0-.08-.23.57.57,0,0,0-.56-.33l.64.56a1.15,1.15,0,0,0-.24.33c-.11.21,0,.32.24.32Zm.6-26.64q0,.4.09.48c.05.06.25.08.6.08v1.29h-.69q0-.48-.09-.48t-.51.48H386a1.22,1.22,0,0,0,.24-.4.85.85,0,0,0-.24-.89c-.35,0-.55,0-.6-.08S385.35,268.49,385.35,268.22Zm-.6,24.72v0ZM386,244.39c-.27.32-.35.53-.25.64a.37.37,0,0,0,.25.08l-.08.72.08-.72Zm.67,49.91.61-.8h-.61c0-.27-.11-.4-.34-.4s-.33.13-.33.4a1.74,1.74,0,0,0,.07.72C386.16,294.28,386.36,294.3,386.71,294.3Zm.61-26.08h-.64l.64.56Zm.08-23.83H388a1.75,1.75,0,0,1-.64-.08,3.62,3.62,0,0,1-.64-.57,3.56,3.56,0,0,0,.08.85C386.89,244.83,387.08,244.76,387.4,244.39Zm.56,53.12.64-.56.72-.64v0a1.74,1.74,0,0,0-.07-.72c-.06-.06-.27-.08-.65-.08v.8a.29.29,0,0,1-.08.24c-.1.11-.29,0-.56-.24h-.64v0a.65.65,0,0,1,.64.32.64.64,0,0,0,.64.32Zm.64-2.65h0ZM390,246.47v-.64l-.65.64Zm.64-2.73a.72.72,0,0,0-.08-.24.58.58,0,0,0-.56-.32v.56ZM392,269.43v0Zm.08-26.25v.56h.57v-.56Zm1.85,50.32h.64a.85.85,0,0,0-.08-.48,1.09,1.09,0,0,0-.56-.08v.56h0Zm.08-49.11a1.34,1.34,0,0,0,.32.24c.21.11.32,0,.32-.24Zm.56,51.12h0v0Z" transform="translate(-110.53 -93.75)"/><path class="cls-2" d="M406.1,290.21V248.32a1.52,1.52,0,0,0,.2-1.36,8.6,8.6,0,0,1-.2-1.85c0-.37,0-.83.08-1.37a2.27,2.27,0,0,1,.48-1.28,14.26,14.26,0,0,0,1.65-.92,1.86,1.86,0,0,1,1.08-.36h7.14a18.32,18.32,0,0,1,4.54.52,11.54,11.54,0,0,1,4.05,2,17.32,17.32,0,0,1,2.37,2.17A7.08,7.08,0,0,1,429,249a7.84,7.84,0,0,1,.64,2.45,11.39,11.39,0,0,0,.73,2.85v2.56a4.83,4.83,0,0,0-.65.73,1.43,1.43,0,0,0-.08.56,1.22,1.22,0,0,1,0,2V262c-.32,1-.64,2.16-1,3.41s-.64,2.56-1,3.89H427a1.91,1.91,0,0,0-1.21,1.29,19.71,19.71,0,0,1-.64,1.93c-.38,0-.56.13-.56.4a1.25,1.25,0,0,0,.56.88c.27,1.66.6,3.32,1,5a35.79,35.79,0,0,0,1.57,4.9,11.78,11.78,0,0,0,.4,3.05c.27,1,.56,2.17.88,3.45.32,1,.66,2,1,3s.65,1.95.92,3a1.57,1.57,0,0,1-.16,1.89,4.1,4.1,0,0,1-1.77,1.32,8.94,8.94,0,0,1-3.13-.6,3.38,3.38,0,0,1-2.08-2.61,2.39,2.39,0,0,1-.57-1.37c-.05-.53-.08-.93-.08-1.2a4.53,4.53,0,0,0-.08-1c0-.27-.24-.4-.56-.4s-.59-.14-.64-.4a4.15,4.15,0,0,1-.08-.89,6.3,6.3,0,0,0-.28-1.88,5.25,5.25,0,0,1-.28-1.41,11.21,11.21,0,0,1-.72-2.52,6.82,6.82,0,0,0-.65-2.05,2.28,2.28,0,0,1-.56-1,6.08,6.08,0,0,1-.08-1,8.68,8.68,0,0,0-.48-2.89,6.19,6.19,0,0,0-1.44-2.33c0-.85-.67-1.28-2-1.28-.7,0-1.13.15-1.29.44a15.64,15.64,0,0,0-.64,1.57,3.92,3.92,0,0,1-.28,1.6,1.79,1.79,0,0,0,.28,1.61,3,3,0,0,1-.36,1.56,2.09,2.09,0,0,0-.36,1A17.17,17.17,0,0,0,413,286a17,17,0,0,1,.36,3.65v1.93a1.76,1.76,0,0,0-.56,1.4,3.73,3.73,0,0,0,.56,1.88v1.29a4.93,4.93,0,0,1-1.68,2.81c-.75.53-1.93.48-3.53-.16-.38,0-.81-.28-1.29-.85a2.72,2.72,0,0,1-.72-1.8Zm2-31.38v0Zm0,5.86h0Zm1.28,26.89v-.65c0-.26-.13-.34-.4-.24a1.67,1.67,0,0,0-.32.24v-1.28h0v1.28h.72Zm-.72,3.28a1.4,1.4,0,0,0-.08-.64.9.9,0,0,0-.48-.08v.72Zm0-48.47v-.72h0c-.27,0-.4.12-.4.36S408.4,246.39,408.67,246.39Zm.72,1.93h-.72c0-.32.09-.51.28-.56s.09-.08-.28-.08v.64a.63.63,0,0,0,.72.64c.27,0,.35-.1.24-.32a1.12,1.12,0,0,0-.24-.32h0Zm0,1.28a.61.61,0,0,1-.4.64.65.65,0,0,1-.32.09h.72Zm-.72,8h.72a1.37,1.37,0,0,0-.08-.64c-.05-.06-.27-.09-.64-.09Zm.72,1.28h0v.65h0Zm.32,2.57a.79.79,0,0,0,.32.08v-.72h-.64A.65.65,0,0,0,409.71,261.4Zm-1,13.16a5.47,5.47,0,0,0,.08.93,2.08,2.08,0,0,0,.64,1.08h-.72a5.3,5.3,0,0,1,1,.08.44.44,0,0,1,.4.48h.56v-.56a9,9,0,0,0-.88-1.08A7,7,0,0,0,408.67,274.56Zm0,4.5h.72a1.4,1.4,0,0,0,.08.64,1.09,1.09,0,0,0,.56.08v-.72h-1.36Zm0,4.65c0-.32.09-.51.28-.56s.09-.08-.28-.08v.64h.72c0-.32,0-.4-.08-.24S409,283.71,408.67,283.71Zm2.65-33.38a2.73,2.73,0,0,0-1.25.36,1.07,1.07,0,0,0-.68.92,1.12,1.12,0,0,0,.32.24c.22.11.32,0,.32-.24a1.86,1.86,0,0,1,.85-.72A.59.59,0,0,0,411.32,250.33Zm-1.93,15.08V266a.65.65,0,0,0,.32-.09.49.49,0,0,0,.32-.48c.27,0,.35-.1.24-.32a3.47,3.47,0,0,0-.24-.4.58.58,0,0,0-.56.4A.79.79,0,0,0,409.39,265.41Zm.64,9.15h0Zm-.64,7.22H410l-.64.57Zm.64,6.5v-.64a.58.58,0,0,0-.56.32.79.79,0,0,0-.08.32Zm0,.65h-.64a3.49,3.49,0,0,0,.64.64,1.47,1.47,0,0,0,.56.08l-.56.56h.56l-.56-.56v-.72h0Zm.56-33.39H410c.27,0,.43.1.48.28S410.59,255.92,410.59,255.54ZM410,262v.72h.56Zm.56,1.37h0Zm-.56,5.93a.49.49,0,0,0,.48-.32.79.79,0,0,0,.08-.4v.72Zm.56,1.85v.72a.64.64,0,0,1,.33-.64.92.92,0,0,1,.4-.08.79.79,0,0,0,.08.4.63.63,0,0,0,.64.32h0v-1.28a.71.71,0,0,0-.4-.64.66.66,0,0,0-.32-.08.82.82,0,0,0,.08.4.64.64,0,0,0,.64.32v.56h-1.45v-.56l-.56-.72a1.37,1.37,0,0,0,.08.64.9.9,0,0,0,.48.08.79.79,0,0,0-.32.08.55.55,0,0,0-.24.48Zm0,2h0v0Zm2-28.09v-1.37l.72.65q.33-.48.24-.57a.33.33,0,0,0-.24-.08.67.67,0,0,0-.4-.56.76.76,0,0,0-.32-.08v2H412c-.38-.37-.62-.56-.72-.56s-.35.19-.73.56h2Zm-1.28,45.82v.65a1.14,1.14,0,0,0-.08-.57,1.43,1.43,0,0,0-.65-.08q0,.48.09.24C410.73,291,410.94,290.93,411.32,290.93Zm.72-42h-.72a.55.55,0,0,0,.32.56.79.79,0,0,0,.4.08Zm.08-1.2a.85.85,0,0,1,.48-.08.85.85,0,0,0-.48.08,1.09,1.09,0,0,0-.08.56A1.09,1.09,0,0,1,412.12,247.76Zm11,9.79a9.61,9.61,0,0,0-.32-2.29,10.35,10.35,0,0,1-.32-2.37,4.36,4.36,0,0,0-2.89-3.57,5.56,5.56,0,0,0-2.2-.28,5.5,5.5,0,0,0-2.13.56h-.64a9.52,9.52,0,0,1-1.21,1.65,1.26,1.26,0,0,0-.08,1.64v1.93a1.8,1.8,0,0,1-.28,1c-.19.3-.09.44.28.44a10.16,10.16,0,0,1,.2,3.45,24.15,24.15,0,0,0-.2,3.05v1.93a2.16,2.16,0,0,0,.93,1.2,3.16,3.16,0,0,1,1,.81,4.7,4.7,0,0,0,2.37.4,5.55,5.55,0,0,0,2.85-1.12,3.4,3.4,0,0,0,1.56-1.33,17.7,17.7,0,0,0,1.08-1.89Zm-8.5,12.36h-.73a1.37,1.37,0,0,0,.08.64,1.43,1.43,0,0,0,.65.08Zm1.28-24.8-.64-.72a.82.82,0,0,0,.08.4A.58.58,0,0,0,415.89,245.11Zm1.37,26.8v.65a.57.57,0,0,1,.56.4,2.32,2.32,0,0,0,.72.88h.64c.32.37.54.54.64.48a3.67,3.67,0,0,0,.65-1.12l.72.64v-1.28h0v.64h-1.37c0-.32.08-.51.24-.56s.08-.08-.24-.08h-.64c0,.32,0,.4.08.24s.24-.24.56-.24a.59.59,0,0,0,.32.56.8.8,0,0,0,.33.08v.64h-1.93a1.19,1.19,0,0,0-.44-.88,1.3,1.3,0,0,0-.84-.4Zm1.28-25.52v-.72h-.72a.63.63,0,0,0,.32.64A.79.79,0,0,0,418.54,246.39Zm.64,22.95a.8.8,0,0,1-.08.33.62.62,0,0,1-.56.24.62.62,0,0,0,.56-.24A.8.8,0,0,0,419.18,269.34Zm0-23.67v-.56c-.32,0-.48.09-.48.28s.16.28.48.28h0Zm2,25a.64.64,0,0,0-.64.32.54.54,0,0,0-.08.24h.72v-.56h.56a.64.64,0,0,0-.32-.64.54.54,0,0,0-.24-.08Zm.56-2.65h.72v1.93c.22.32.4.4.56.24a.32.32,0,0,0,.08-.24,1.32,1.32,0,0,0-.08-.57,6.06,6.06,0,0,0-.56-.72V268h-.72v.64h0Zm-.56,7.86v.73h0Zm0,3.94v.72l.56-.72Zm0,2h0Zm.56-3.93v.64h.72a.67.67,0,0,0-.4-.56A.76.76,0,0,0,421.75,277.85Zm1.36-29.53a.56.56,0,0,0-.32-.56.72.72,0,0,0-.32-.08.33.33,0,0,0-.24.08c-.16.16-.08.35.24.56Zm0,33.46c-.32,0-.5,0-.56-.08a1.34,1.34,0,0,1-.08-.64,1.34,1.34,0,0,0,.08.64C422.61,281.76,422.79,281.78,423.11,281.78Zm.65,2.57h-.65l.65-.64.64.64v-.64l-.64-.64h-.65l-.64-.72v.72a2.8,2.8,0,0,0,.08.64c.11.43.29.64.56.64,0,.32,0,.48.08.48S423.43,284.67,423.76,284.35Zm0-37.39h0v.72l.64-.72Zm0,40v.64c-.33,0-.41,0-.25.08s.25.24.25.56a.72.72,0,0,1,.24-.64C424.16,287.54,424.08,287.32,423.76,287Zm.64-38h.72v-.64a.64.64,0,0,0-.64.32.66.66,0,0,0-.08.32h0Zm-.64,37.32v0Zm.64,3.37a.33.33,0,0,0-.08-.24c-.11-.11-.3,0-.56.24Zm0-23.67h0Zm.72,20.3c-.38,0-.5-.1-.36-.28s0-.28-.36-.28v.56Zm0-22.87h.56v0Zm.56,23.59a.85.85,0,0,0-.48.08,1.09,1.09,0,0,0-.08.56.54.54,0,0,0,.24-.08A.57.57,0,0,0,425.68,287Zm0,6.58a.85.85,0,0,0,.08.48c.05.06.27.08.64.08h0c-.37,0-.59-.08-.64-.24a.72.72,0,0,1-.08-.32h0Zm2-40v-.65a4.55,4.55,0,0,0-.92.08c-.25.06-.37.24-.37.57Zm-.72,4h-.57c0,.27.1.4.28.4s.29-.13.29-.4v0Zm-.57,33.38v.65a.92.92,0,0,0,.49-.08,1.17,1.17,0,0,0,.08-.57Z" transform="translate(-110.53 -93.75)"/><path class="cls-2" d="M234.67,329.3v16.8a4,4,0,0,1-.57,2.25c-.38.57-.76,1.13-1.13,1.66a27.49,27.49,0,0,1-1.66,3.57,13.9,13.9,0,0,1-2.22,2.88,15.59,15.59,0,0,1-2.85,2.65,5.91,5.91,0,0,1-3.53,1.15,14,14,0,0,0-3.36.51,15.71,15.71,0,0,1-4,.52q-1.37,0-2.85,2.76v4.61a2,2,0,0,0,0,2.87,4.3,4.3,0,0,1,.81,2.19,4.85,4.85,0,0,1-.81,2.3,10.94,10.94,0,0,0-.34,4.78,35.48,35.48,0,0,1,.34,4.66c0,.92,0,1.88-.11,2.88a6.9,6.9,0,0,1-.81,2.76c0,.92-.35,1.45-1.06,1.61a9.3,9.3,0,0,1-1.89.23,3.48,3.48,0,0,1-3.18.06,4.85,4.85,0,0,1-2.6-2.82,3.1,3.1,0,0,1-.7-2q-.12-1.38-.12-2.76V374.18a2,2,0,0,0,0-2.65v-3.79c.38-.39.48-.66.29-.81s-.29-.5-.29-1q0-2.17.12-4.14a10,10,0,0,1,.69-3.34v-2a8.4,8.4,0,0,1-.58-3.28,7.58,7.58,0,0,1,.58-3.17,3.24,3.24,0,0,0-.41-1.55,2.85,2.85,0,0,1-.4-1.32c0-2.46.1-4.66.29-6.62a26.74,26.74,0,0,0-.29-6.62,40.46,40.46,0,0,1,.29-4.95,17.23,17.23,0,0,0-.29-5.29,31.66,31.66,0,0,1,.29-4.2,10.45,10.45,0,0,0-.29-4.2,7.75,7.75,0,0,1,.12-1.44,3.59,3.59,0,0,1,.69-1.44,6.48,6.48,0,0,0,1.15-1.21c.23-.34.8-.51,1.72-.51a18,18,0,0,0,4.2-.52,17.51,17.51,0,0,1,4.21-.52,17.24,17.24,0,0,1,4.25.52,17.75,17.75,0,0,0,4.26.52h.8c1.46.84,2.69,1.59,3.69,2.24a23.52,23.52,0,0,1,3,2.36c.23,0,.46.19.69.58a1,1,0,0,1,.12.46,2.68,2.68,0,0,0,1,2.13c.69.57,1,1.05,1,1.43a11.44,11.44,0,0,1,1.49,4.78C234.6,326.37,234.67,327.92,234.67,329.3Zm-29,36.59h0Zm-.69-44a1,1,0,0,0,.12.47c.07.23.3.34.69.34h1v.92a6.13,6.13,0,0,0,1.08.92,2,2,0,0,0,.83.12v-1c0-.38-.16-.5-.47-.34a.7.7,0,0,0-.36.34,2.2,2.2,0,0,1-1-.11,1.5,1.5,0,0,1-.12-.81c-.48-.31-.76-.42-.84-.34a.44.44,0,0,0-.12.34,1.17,1.17,0,0,0-.12-.69Q205.57,321.93,205,321.93Zm.81,15.77v-1q-.58,0-.69.12a1.83,1.83,0,0,0-.12.92Zm0,38.32a.48.48,0,0,0,.34-.11c.08-.08,0-.31-.34-.69v-1H205c0,.54.12.85.35.92a1,1,0,0,0,.46.12v.8a.46.46,0,0,0-.35.12c-.23.23-.11.53.35.92Zm-.12-16.8c-.38,0-.57,0-.57.11a4,4,0,0,0,.57.93c.46-.54.73-.71.81-.52s.11,0,.11-.52Zm.12-38.32v-1c-.46,0-.58.2-.35.58A1.75,1.75,0,0,0,205.79,320.9Zm-.29,34.75a1,1,0,0,1,.29.81c.46-.39.57-.65.34-.81s-.34-.5-.34-1C205.4,355.15,205.31,355.5,205.5,355.65Zm.17-16.11h0Zm2.76,12.2a3.1,3.1,0,0,1-1.32-.35,1.2,1.2,0,0,0-1.44.35Zm-2.64-36.48v1h.92Zm0,10.24v1a1.87,1.87,0,0,0,.34-.46C206.29,325.69,206.17,325.5,205.79,325.5Zm0,9.32a.81.81,0,0,1,.48-.8,1.07,1.07,0,0,1,.48-.12h-1Zm.92,32.92v-.81a1.5,1.5,0,0,0-.81.12,1.24,1.24,0,0,0-.11.69Zm.92-53.52a1.28,1.28,0,0,0-.58.12.93.93,0,0,0-.46.92.92.92,0,0,0,.92-.46A1.25,1.25,0,0,0,207.63,314.22Zm-1,68.48a.93.93,0,0,1,.46-.92,1.28,1.28,0,0,1,.58-.12Zm1.27-26.24v.92h0Zm0,22.44a2.17,2.17,0,0,0-1,.11,1.5,1.5,0,0,0-.12.81Zm0-46.84h-1c0,.39.16.5.46.35a4.68,4.68,0,0,0,.58-.35v0Zm0,31v-.92l-1-.81q0,.58.12.69a1.83,1.83,0,0,0,.92.12Zm0,8.51a2.06,2.06,0,0,0-.11-.92,2.09,2.09,0,0,0-.93-.11v1Zm-1,15h1v-1a.89.89,0,0,0-.92.57A1,1,0,0,0,206.82,386.49ZM208.66,350h-.83c.31.39.56.5.72.35a.51.51,0,0,0,.11-.35h1q0,.58.12.69c.07.08.38.12.91.12q0-.35-.57-.69a1,1,0,0,0-.46-.12,2.06,2.06,0,0,0-.11-.92,2.09,2.09,0,0,0-.93-.11Zm-.8-22.44v-1h0Zm1.84,28.08a6.71,6.71,0,0,1-1.32-.11c-.35-.08-.52-.39-.52-.92a1.86,1.86,0,0,0,.12.92,1.22,1.22,0,0,0,.68.11,1.93,1.93,0,0,0,.46.35C209.51,356.23,209.7,356.11,209.7,355.65Zm-1,9.21v1a1.92,1.92,0,0,0-.11-.92,1.29,1.29,0,0,0-.69-.11c0,.54.1.67.29.4s.09-.4-.29-.4Zm-.8,9.32v0h0Zm.8-55.12v0Zm0,2.87v.81a2.09,2.09,0,0,0,.93-.11,1.31,1.31,0,0,0,.11-.7Zm1,53.29h-1v.8h1Zm0-61,1-.8h-1Zm1,5.64q0-.57-.51-.57c-.35,0-.52.19-.52.57h1v0Zm-1,4.84v0Zm0,23.24a1.11,1.11,0,0,0,.46-.11q.57-.24.57-.69h-1Zm1,7.71v0Zm1.73,2.76a.92.92,0,0,0-.92.52,7.49,7.49,0,0,1-.81,1.33v-1c.39.54.62.81.7.81s.11-.27.11-.81Zm12-31.87V324.7a2,2,0,0,0-.11-.92,1.81,1.81,0,0,0-.91-.12,1.8,1.8,0,0,1-1.18-.57,17.49,17.49,0,0,0-1.41-1.16,5.16,5.16,0,0,0-5.53,0,5.91,5.91,0,0,0-2.09,1.39,3.09,3.09,0,0,0-.74,2.18,17.48,17.48,0,0,1-.34,3.74,3.92,3.92,0,0,0,.34,2.82,38.8,38.8,0,0,0,.4,5.64,13.76,13.76,0,0,1-.4,5.64,2.76,2.76,0,0,0,.17,2.82,5.5,5.5,0,0,1,.85,2.82h1.81a3.59,3.59,0,0,0,4.52,0,8.24,8.24,0,0,0,5.42-5.64c0-1.92,0-3.84-.11-5.76a60,60,0,0,0-.69-6.56Zm-11.16-11.28-1,1h1.85a1.09,1.09,0,0,0-.12-.46C213.73,315.45,213.5,315.26,213.27,315.26Zm1.84,42.12v0h0Zm1-41.08a1.25,1.25,0,0,1-.58-.12.92.92,0,0,1-.46-.92v-1c-.46.46-.57.77-.35.93a.52.52,0,0,0,.35.11v1.84a1.07,1.07,0,0,0,.11.46.93.93,0,0,0,.93.46c.23,0,.3,0,.23-.11l-.29-.29a.79.79,0,0,1-.23-.35c0-.11.06-.17.29-.17Zm1.72-2.88H217v0Zm1.84,43a3.48,3.48,0,0,1-.8.8,2.79,2.79,0,0,1-1,.12h1a.86.86,0,0,0,.34-.12A.81.81,0,0,0,219.71,356.46Zm1-42.24h-1a.5.5,0,0,0-.11-.34c-.16-.08-.39,0-.69.34,0,.39.11.5.34.35a1.61,1.61,0,0,0,.46-.35Zm0,40.4v0Zm1-37.52v-.8a10.66,10.66,0,0,0,.7-1,3.07,3.07,0,0,0,.11-1,9.26,9.26,0,0,0-.69,1,2.79,2.79,0,0,0-.12,1Zm.81,34.64a1.83,1.83,0,0,0,.12.92c.07.08.3.12.68.12,0-.54-.13-.71-.4-.52S222.59,352.28,222.59,351.74Zm1.84-32.68h0v-1h0Zm0,35.56a.89.89,0,0,0,.35-.12.93.93,0,0,0,.45-.92h-.8v1h0Zm.8-38.32c0,.38.16.49.47.34a5.22,5.22,0,0,0,.57-.34Zm1,3.56h-1c.39.46.7.58.93.35a.51.51,0,0,0,.11-.35,7.75,7.75,0,0,0,.12,1.44c.07.42.38.63.92.63a1.15,1.15,0,0,0,.11.47c.08.23.31.34.69.34v-.81h-.8a1,1,0,0,0-.52-1C226.44,320.75,226.27,320.4,226.27,319.86Zm0,28.08v1a.48.48,0,0,0-.34.11c-.23.23-.12.54.34.92a1,1,0,0,0,.46-.11.9.9,0,0,0,.58-.92c.38-.46.5-.77.34-.92a.44.44,0,0,0-.34-.12Zm1.84-22.44c0,.54,0,.85.12.92s.34.12.81.12a1.94,1.94,0,0,0-.12-.92A1.5,1.5,0,0,0,228.11,325.5Zm0,3.8v0Zm.93,7.36h0Zm-.93,5.64q.69.81.93.81c.15,0,.49-.27,1-.81v1a6.85,6.85,0,0,0-1-.92A2.38,2.38,0,0,0,228.11,342.3Zm2-11.28v1c.38,0,.61.14.69.4s.12.14.12-.4h-.81v-1h0Zm.81,8.52c0-.38,0-.48-.12-.29s-.31.29-.69.29h.81ZM229,346.1a.91.91,0,0,0,.91-.46,1,1,0,0,0,.12-.46h-1Zm1,2.88v0Z" transform="translate(-110.53 -93.75)"/><path class="cls-2" d="M263,328.15v.8a19.71,19.71,0,0,1,.95,3.69,34.79,34.79,0,0,0,.83,3.79v3.8q.81,4,1.5,7.71t1.5,7q.69,4.26,1.84,8.92c.76,3.11,1.38,6,1.84,8.81a11.91,11.91,0,0,0,.57,3.85c.39,1.11.81,2.36,1.27,3.74v.92c0,.38,0,1,.11,1.78a2.76,2.76,0,0,0,.92,1.9,7.16,7.16,0,0,1,.18,3.68,11.67,11.67,0,0,1-1.21,2.88c-.46.46-.92.88-1.38,1.27a2.17,2.17,0,0,1-1.38.57,8.2,8.2,0,0,1-4.84-1.38,6.89,6.89,0,0,1-2.64-4.14q0-2.19-.12-4.32a15.67,15.67,0,0,0-.8-4.2,7.83,7.83,0,0,0-3.08-3.62,10.07,10.07,0,0,0-4.58-.86,7.78,7.78,0,0,0-3.54.74,9.13,9.13,0,0,0-3,2.82v.92a3.07,3.07,0,0,1-.11,1,7.54,7.54,0,0,1-.69.92,1.56,1.56,0,0,0-.41,1.9,9.16,9.16,0,0,1,.41,2.7,2.48,2.48,0,0,1-.52,1.5,2.14,2.14,0,0,0-.52,1.26,4.65,4.65,0,0,1-1.32,2.31,6.75,6.75,0,0,1-2.19,1.38,7.22,7.22,0,0,1-2.53.46,7.46,7.46,0,0,1-2.36-.35c-.46-.46-.88-.92-1.27-1.38a2.17,2.17,0,0,1-.57-1.38c0-1.38,0-2.78.11-4.2a16.09,16.09,0,0,1,.81-4.2,9.55,9.55,0,0,1,.46-2.94,11.74,11.74,0,0,0,.46-3.5,12.82,12.82,0,0,0,.92-3.57,19.91,19.91,0,0,1,.92-4,17,17,0,0,0,.46-3.05c.08-1.11.14-2.26.17-3.45a34.36,34.36,0,0,1,.29-3.45,10,10,0,0,1,.92-3c.46-1.38.9-2.92,1.33-4.61a19.56,19.56,0,0,0,.63-4.72v-1.95q.69-2.76,1.38-5.93t1.38-6a17.71,17.71,0,0,1,.12-1.9,3,3,0,0,1,.92-1.9v-2.76c0-.92,0-2,.11-3.28a10.27,10.27,0,0,1,.69-3.28.83.83,0,0,0,.81-.46,1.07,1.07,0,0,0,.11-.46,4.33,4.33,0,0,1,.52-3.91,6.15,6.15,0,0,1,3.28-2.53c.46-.54.86-.81,1.21-.81s.52.27.52.81a20,20,0,0,1,2.41.11,2.16,2.16,0,0,1,1.38.81c.54,0,.89.17,1,.52a6,6,0,0,0,.92,1.32,15.14,15.14,0,0,0,.4,3.68,15.17,15.17,0,0,1,.41,3.68c0,.39,0,1,.12,1.85a2.72,2.72,0,0,0,.94,2,2.53,2.53,0,0,1,.83,1.5A16.57,16.57,0,0,1,263,328.15ZM240.66,385.8a.46.46,0,0,0-.35.12c-.23.23-.11.54.35.92Zm.8-11a.6.6,0,0,1-.8.8h.8Zm2-.92a1.28,1.28,0,0,1-.58-.12,1.05,1.05,0,0,1-.46-1v1.15h-.92c0,.38.16.49.46.34a1.56,1.56,0,0,0,.46-.34Zm.11,11.27c-.07,0-.11.23-.11.69h.92Q243.65,385.11,243.53,385.11Zm.81-28.19v.92h.92a1.5,1.5,0,0,0-.12-.81A1.59,1.59,0,0,0,244.34,356.92Zm0,6.56h.92c-.38-.38-.65-.5-.81-.35A.51.51,0,0,0,244.34,363.48Zm0,1.84h0Zm2.88,9.44a1.17,1.17,0,0,0,.69-.12,1.61,1.61,0,0,0,.11-.8h-.8v.92a8.24,8.24,0,0,0-.12-1.39c-.08-.46-.38-.68-.92-.68s-.57.19-.34.57a1.46,1.46,0,0,0,.34.58h-1.84v.92c.46,0,.73,0,.8-.12s.12-.34.12-.8a.81.81,0,0,0,.46.8,1,1,0,0,0,.46.12v.8a1,1,0,0,0,.92-.34A1,1,0,0,0,247.22,374.76Zm-1-27.05a.83.83,0,0,0-.8.46.89.89,0,0,0-.12.35h.92Zm1-5.75a2,2,0,0,0-.92.11,1.5,1.5,0,0,0-.12.81h1Zm-1,14h1v-1Zm1,9.32c0-.23-.2-.46-.58-.69a1,1,0,0,0-.46-.12v.81Zm0-4.72v-1.84h-1c0,.46,0,.73.11.8a1.83,1.83,0,0,0,.92.12c-.55,0-.83.15-.83.46s.27.46.81.46c0,.46,0,.58.11.35s.31-.35.69-.35Zm.8-22.32a.73.73,0,0,0-.69.46,1.07,1.07,0,0,0-.11.46.48.48,0,0,0,.11.34.33.33,0,0,0,.23.12c.08,0,.23-.16.46-.46Zm0,5.63v-1l-.8,1Zm0,24.29v-1a1.17,1.17,0,0,0-.69.12,2,2,0,0,0-.11.92Zm.92-33.49a.81.81,0,0,0-.8.46.86.86,0,0,0-.12.34v-.8Zm-.92,2.76v0Zm0,3.68v-.92a1.5,1.5,0,0,0,.12.81,1.59,1.59,0,0,0,.8.11Zm0,6.56h0Zm.92-9.43v.92a.93.93,0,0,0,.92-.46,1,1,0,0,0,.12-.46Zm0,7.36h0Zm2.76,21.52a3.48,3.48,0,0,0-.8-.8,2.29,2.29,0,0,0-.92-.12h0a5.7,5.7,0,0,0,.92.81A2.09,2.09,0,0,0,251.7,367.16ZM250,329h.92l-.92-.8Zm7.36,20.6v-1c-.43-1.46-.87-3-1.3-4.72a18.35,18.35,0,0,1-.65-4.6h-1.73v6.44q-.69,3-1.44,6.33t-1.32,6.79a8,8,0,0,0,.23,2.19,3.22,3.22,0,0,0,1.58,1.61c.45,1,1,1.53,1.76,1.61a2.47,2.47,0,0,0,2-.69,7.19,7.19,0,0,0,2-1.56,3.28,3.28,0,0,0,.75-2.24,6.45,6.45,0,0,1-.93-2.65c-.07-.84-.11-1.53-.11-2.07a7.58,7.58,0,0,1-.69-2.65Q257.34,350.93,257.34,349.55Zm-5.64,20.37c-.38.46-.3.77.24.92a2.36,2.36,0,0,0,.8.12,6,6,0,0,0-.11-1.27C252.55,369.39,252.24,369.46,251.7,369.92Zm0-54v1.84a.94.94,0,0,0,.93-.46,1.07,1.07,0,0,0,.11-.46,1.09,1.09,0,0,0-1-.92Zm1,4.6a1.14,1.14,0,0,0-.11-.46,1,1,0,0,0-.93-.46v.92Zm-1,.81v0Zm0,10.36h1v0Zm1-2.77a1,1,0,0,0,.12.46.81.81,0,0,0,.8.46V329Zm1.61-13.11a1.88,1.88,0,0,0,.12-.93h-.81v1A1.29,1.29,0,0,0,254.35,315.84Zm.12,55.92a6.42,6.42,0,0,0-.12-1.2c-.08-.43-.31-.64-.69-.64,0,.54.12.85.35.92a1,1,0,0,0,.46.12Zm.92-53.16h0c0-.39,0-.61-.12-.69s-.34-.12-.8-.12v.81c.3.46.57.57.8.34A.44.44,0,0,0,255.39,318.6Zm0,6.67v-1.84h-.92a.7.7,0,0,1,.8.58A6.13,6.13,0,0,1,255.39,325.27Zm0-8.4.06-.92-.06.92h0Zm2.07,18.64h-.92c-.62,0-1-.09-1-.28s-.11-.1-.11.28h2.07Zm.8-5.64h-.92c0-.46,0-.69-.1-.69s-.3.23-.7.69Zm-1.72,36.37h0Zm.8-45.69.12,2a12.55,12.55,0,0,0,.69-1.38,1.76,1.76,0,0,0,.11-.58Zm.81,5.64a.63.63,0,0,0-.69.58,6.81,6.81,0,0,0-.12,1.38.65.65,0,0,0,.69-.63A7.15,7.15,0,0,0,258.15,326.19Zm-.81,11.28.12,1.73a1,1,0,0,1,.3-.81.79.79,0,0,1,.39-.11l.11-.81Zm.92,3.68h0Zm1-5.64a.46.46,0,0,0,.12.35c.15.15.42,0,.8-.35Zm0,7.37h.92a.67.67,0,0,0-.92-.92Zm.92,26.12v.92h-.92v0h.92Zm0-32.57v1c-.46,0-.58.17-.35.52a2.05,2.05,0,0,1,.35,1.21v-2.77Zm0-2.87v0Zm0,0v1.15H261a1.87,1.87,0,0,0-.12-.58Q260.57,333.56,260.22,333.56Zm.81,6.67v.92a1,1,0,0,0-.12-.46.74.74,0,0,0-.69-.46Zm-.69,7.94a1,1,0,0,1-.12-.46v.81H261C260.64,348.52,260.41,348.4,260.34,348.17Zm-.12,2.3v.92c.38,0,.61,0,.69-.11a1.5,1.5,0,0,0,.12-.81Zm.83,13c-.4.54-.63.71-.71.52s-.12,0-.12.51v-1Zm0-8.52h1.13l-.23,1,.23-1Zm1.13,9.55h-1.13a3.13,3.13,0,0,0,.8.58c.06,0,.1-.19.1-.58Zm0-7.59-.23.92.23-.92h0Zm0,6.56-.23-.92.23.92-.23-.92Zm2.64,1a1.24,1.24,0,0,1-.11.69,1.17,1.17,0,0,1-.69.12c0-.38-.19-.48-.58-.29a2.78,2.78,0,0,1-1.26.29l-.23.92.23-.92a.93.93,0,0,1,.92.46.92.92,0,0,0,.92.46v-.92a.86.86,0,0,0,.34-.12A.73.73,0,0,0,264.82,364.51Zm-1-11.73a1.07,1.07,0,0,1,.11.46,1.07,1.07,0,0,0-.11-.46,1,1,0,0,0-.81-.58A1,1,0,0,1,263.79,352.78Zm-.74-2.31v0Zm0,22.22v0Zm.95-11.17h0Zm0,16h.82c0-.54,0-.67-.11-.41S264.39,377.52,264,377.52Zm.82-16.92v-.92a.44.44,0,0,0-.34.12C264.32,360,264.44,360.22,264.82,360.6Zm0,13.24h1a1.81,1.81,0,0,0-.12-.58,1,1,0,0,0-.92-.57Zm1.85-8.52v0Zm1,8.52h0v-2.08c-.46.31-.58.58-.34.81a.44.44,0,0,0,.34.12Zm.92,4.48a.48.48,0,0,0-.11-.34c-.08-.08-.35,0-.81.34ZM267.7,382h0Zm2.76-.81v-.92a2.12,2.12,0,0,1-1.26-.4c-.39-.27-.58-.14-.58.4.46.46.77.58.92.34a1,1,0,0,1,.92-.34Zm-.92,4.6v1h.92Z" transform="translate(-110.53 -93.75)"/><path class="cls-2" d="M316.73,387.76V384c-.47-.46-.7-.76-.7-.92s.23-.46.7-.92v-.92a14.58,14.58,0,0,1-.81-3.68c-.08-1.08-.12-2.3-.12-3.68l.93-.93a21.43,21.43,0,0,1-.35-6.55,47.43,47.43,0,0,0,.35-5.64,20.69,20.69,0,0,1-.35-6.45,47.43,47.43,0,0,0,.35-5.64v-.92a.82.82,0,0,0-.47-.8,1,1,0,0,0-.46-.12h-.92a17.73,17.73,0,0,1-.11,2.19,2.64,2.64,0,0,1-.81,1.49,14.21,14.21,0,0,1-.23,2.65,2.7,2.7,0,0,1-1.61,2V356a9,9,0,0,1-.46,2.88,8.59,8.59,0,0,0-.46,2.76,22.29,22.29,0,0,0-1.27,3.22,11.11,11.11,0,0,0-.57,3.22,4.2,4.2,0,0,1-.58,2.3,20.39,20.39,0,0,0-1.26,2.53v1.85a2.44,2.44,0,0,1-2.76,2.76,1.33,1.33,0,0,1-1.61.23,9.39,9.39,0,0,1-1.39-1.15l-1.38-2.76c-.46-.93-.92-1.92-1.38-3a15.53,15.53,0,0,0-.57-4.14c-.39-1.38-.81-2.76-1.27-4.14a2.9,2.9,0,0,1-.8-1.84c-.08-.77-.12-1.39-.12-1.84a2.62,2.62,0,0,0-.11-.93,5.7,5.7,0,0,0-.81-.92,3.21,3.21,0,0,1-.81-1.49,9.17,9.17,0,0,1-.11-1.38,5,5,0,0,0-.29-1.79,15.64,15.64,0,0,0-.63-1.44,15.44,15.44,0,0,1-.63-1.43,4.83,4.83,0,0,1-.29-1.79,1,1,0,0,0-.12-.46.83.83,0,0,0-.8-.46v1.84a8.11,8.11,0,0,1-.35,2,3.66,3.66,0,0,0,.35,2.65,11,11,0,0,0,.23,1.95,3.31,3.31,0,0,1-1.15,2.76,7.66,7.66,0,0,1,.8,2.31,18.25,18.25,0,0,1,.12,2.3,14.94,14.94,0,0,0-.35,5.52,46.42,46.42,0,0,1,.35,5.76,2.53,2.53,0,0,1-.46,1.38,2.45,2.45,0,0,0-.46,1.38c-.46.46-.43.92.11,1.38a1.89,1.89,0,0,1,.81,1.38,8.5,8.5,0,0,0-.35,4.14,25.87,25.87,0,0,1,.35,4.26,8.93,8.93,0,0,1-2,3.45,10,10,0,0,1-2.7,2.07,6.31,6.31,0,0,1-3.8-1.26,4,4,0,0,1-1.72-3.34,48.1,48.1,0,0,0-.35-5.75,20.13,20.13,0,0,1,.35-6.33V355.08a2.91,2.91,0,0,1-.35-2.3,6.69,6.69,0,0,0,.35-2.31v-1.84a3.9,3.9,0,0,1-.35-2.76,11.35,11.35,0,0,0,.35-2.76,7.13,7.13,0,0,1-.35-3.68,12.86,12.86,0,0,0,.35-2.88V331a4.13,4.13,0,0,1,0-4.6v-8.51a4.15,4.15,0,0,1,0-4.61,4.27,4.27,0,0,0,1-1.78,1.59,1.59,0,0,1,1.73-1.09H286c0-.46.15-.69.46-.69s.46.23.46.69a17,17,0,0,1,3.57,1.72,5.55,5.55,0,0,1,2.07,3,14.31,14.31,0,0,0,.57,4,20.79,20.79,0,0,0,1.27,3.34,9.65,9.65,0,0,1,.92,3,21,21,0,0,0,.92,3.68,3,3,0,0,1,.81,1.84c.07.77.11,1.39.11,1.85a2.3,2.3,0,0,0,.46,1.26,3.67,3.67,0,0,0,.46.58,9.25,9.25,0,0,0,.69,3.68,27.88,27.88,0,0,0,2.07,3.8c0,.46,0,1.07.12,1.84a2.92,2.92,0,0,0,.8,1.84v2.76a3.85,3.85,0,0,1,.92,1.27.91.91,0,0,0,.93.57c.61,0,1-.19,1.15-.57a4,4,0,0,1,.92-1.27l1.38-4.14q.69-2.07,1.38-4.26a27.59,27.59,0,0,0,1-4.26,17.24,17.24,0,0,1,1.72-5c.46-1.84.92-3.71,1.38-5.63s.92-3.8,1.38-5.64a.83.83,0,0,0,.81-.46,1.11,1.11,0,0,0,.11-.46,7.94,7.94,0,0,0,.81-2.19,11.63,11.63,0,0,0,.11-1.49V313.3a4,4,0,0,1,1.33-1.38,14.18,14.18,0,0,1,2.07-1.21,16.42,16.42,0,0,1,2.24-.86,6.77,6.77,0,0,1,1.84-.34.83.83,0,0,0,.46.8,1,1,0,0,0,.47.12,9.33,9.33,0,0,1,2,3,5.26,5.26,0,0,1-.11,3.57v3.68a2.87,2.87,0,0,1,.8,1.84c.08.77.12,1.38.12,1.84a27.45,27.45,0,0,0-.46,7,19.65,19.65,0,0,1-.46,6.1,8,8,0,0,1-.12,1.38,2.62,2.62,0,0,1-.8,1.38,3.69,3.69,0,0,1,.92.12c.61.15.92.46.92.92a9.5,9.5,0,0,0-.46,4.14,9.65,9.65,0,0,1-.46,4.14V358a25.25,25.25,0,0,0,.34,4.15,8.49,8.49,0,0,1-.34,4.14V369a8.43,8.43,0,0,1,0,6.68,2.38,2.38,0,0,0,.34,1.26c.23.39.12.58-.34.58v.92a2.9,2.9,0,0,1,.34,2.3,6.6,6.6,0,0,0-.34,2.3v3.8a3,3,0,0,1,.11,2.65,4,4,0,0,1-2,1.95,2.27,2.27,0,0,1-1.33,1.44,3.72,3.72,0,0,1-2.07.23,6.12,6.12,0,0,1-2.24-.86,5.57,5.57,0,0,1-1.84-1.73.76.76,0,0,1-.29-.69,2.08,2.08,0,0,1,.23-.69,5,5,0,0,0,.28-.69A.66.66,0,0,0,316.73,387.76Zm-32.57-58.58v.92c.46,0,.73,0,.8-.11s.12-.34.12-.81Zm.92,2.77h-.92v.92c.46,0,.73,0,.8-.12S285.08,332.41,285.08,332Zm1.84,7.36a.73.73,0,0,1-.29.58c-.19.15-.36.29-.52.4a1.16,1.16,0,0,0-.34.4c-.08.16,0,.35.23.58h-.92c0,.46-.16.61-.46.46s-.46,0-.46.46h.92a1,1,0,0,0,.46-.12.83.83,0,0,0,.46-.8h.92Zm-1.84.92v0h0Zm-.92,2.88v0Zm.92,9.2a1,1,0,0,0-.46.12.82.82,0,0,0-.46.81h.92Zm-.92,4.72h.92a2.29,2.29,0,0,1-.12.92,4.91,4.91,0,0,1-.8.93h.92a3.1,3.1,0,0,1-.35,1.38,1.13,1.13,0,0,0,.35,1.38v.92a1.87,1.87,0,0,0,.34-.46c.16-.31,0-.46-.34-.46V359.8a3.74,3.74,0,0,1,.57-2.19c.39-.54.81-1.07,1.27-1.61a2.56,2.56,0,0,0-.92.11,4.85,4.85,0,0,0-.92.92h-.92v-1l.92-.92a.83.83,0,0,0-.81.46,1,1,0,0,0-.11.46Zm.92,19.57h-.92c0,.46.15.69.46.69S285.08,377.06,285.08,376.6Zm-.92,6.44v0Zm.92,4.72a1,1,0,0,0-.12-.46.81.81,0,0,0-.8-.46v.92Zm0-41v-.92a2.56,2.56,0,0,0-.69.46C284.08,346.64,284.31,346.79,285.08,346.79Zm3.68-28.88v.92a5.7,5.7,0,0,0-.81.92,2.56,2.56,0,0,0-.11.92H286a1.5,1.5,0,0,1-.12.81,1.59,1.59,0,0,1-.8.11h1.84a1.11,1.11,0,0,1,.11-.46.84.84,0,0,1,.81-.46.68.68,0,0,0,.46-.23,2.23,2.23,0,0,0,.46-1.61Zm-3.68,6.44h0Zm.92,11.28a1,1,0,0,1,.34-.92c.23-.15.12-.46-.34-.92a1.07,1.07,0,0,0-.46.11.84.84,0,0,0-.46.81H286Zm0,13.92v-.92h-.92a1.07,1.07,0,0,0,.11.46A.83.83,0,0,0,286,349.55Zm0,4.61a.83.83,0,0,0,.8-.46,1,1,0,0,0,.12-.46,1.5,1.5,0,0,0-.12-.81c-.07-.08-.34-.12-.8-.12v1.85h0Zm0,13.92h.92c.38-.38.5-.65.34-.8a.44.44,0,0,0-.34-.12l-.92-.92h0c-.46.46-.58.77-.35.92A1,1,0,0,1,286,368.08Zm-.92,3.91h0v0Zm.92,2.77h-.92v.92H286Zm0,8.28c0,.46-.12.73-.35.81s-.11.11.35.11a.83.83,0,0,1-.46.81,1.14,1.14,0,0,1-.46.11.82.82,0,0,0,.46.81,1,1,0,0,0,.46.11c.46-.46.73-.61.8-.46s.12,0,.12-.46,0-.69-.12-.69a3.29,3.29,0,0,0-.8.69V383Zm0-45.57a1.11,1.11,0,0,1,.46.11.85.85,0,0,1,.46.81.85.85,0,0,0-.46-.81A1.11,1.11,0,0,0,286,337.47Zm.92,26.93H286l.92.92Zm0,16.8v-.92a.67.67,0,0,0-.92.92Zm0-66.05h0Zm1.84,12.19h-.92v.92h0v-.92Zm-1.84,25v0Zm1.84,7.49a5.21,5.21,0,0,0-.92-.81,2.38,2.38,0,0,0-.92-.11,1,1,0,0,1,.46.11.83.83,0,0,1,.46.81ZM287.84,345h.92a.84.84,0,0,0-.46-.81,1.11,1.11,0,0,0-.46-.11Zm0,9.21c0,.46,0,.69.11.69s.35-.23.81-.69Zm0,17.83a.48.48,0,0,0,.35-.11c.15-.15,0-.5-.35-1Zm0,2.77v0Zm2.76-53.06a1.61,1.61,0,0,0-.8-.11c0,.46-.2.57-.58.34a1.7,1.7,0,0,1-.46-.34v.92c.54.46.88.69,1,.69s.46-.23.92-.69A1.5,1.5,0,0,0,290.6,321.7Zm-.92,7a.93.93,0,0,0-.92-.46v.92h1A1,1,0,0,0,289.68,328.72Zm.12,2.3.92-.92h-2a1.61,1.61,0,0,0,.11.81A1.94,1.94,0,0,0,289.8,331Zm-1,4.61,1-.92a1,1,0,0,1-.12.46A.92.92,0,0,1,288.76,335.63Zm1,3.68h0v0Zm0-6.44v0Zm0,7.36c0,.54,0,.85.11.92a1.5,1.5,0,0,0,.81.12,1.5,1.5,0,0,1-.81-.12C289.83,341.08,289.8,340.77,289.8,340.23Zm1.84-2.76h-.92a1.7,1.7,0,0,0,.34-.46c.15-.31,0-.46-.34-.46v.92Zm0,1.84v0h0Zm.92-12h-.92v-.92h.92Zm-.92,3.68a1.17,1.17,0,0,1,.46.12.84.84,0,0,1,.46.81V330.1h0a1.09,1.09,0,0,0-.46.12A.81.81,0,0,0,291.64,331Zm0,3.69a1.11,1.11,0,0,0,.11.46.83.83,0,0,0,.81.46v-.92Zm1.84,7.48a1,1,0,0,0-.12-.46.81.81,0,0,0-.8-.46Zm0,.92h-.92l.92.92Zm1.84-.92a1,1,0,0,0,.46-.12.81.81,0,0,0,.46-.8.81.81,0,0,1-.46.8,1,1,0,0,1-.46.12v.92h.92c0-.38-.15-.5-.46-.35a2,2,0,0,0-.46.35Zm3.68,4.6a1.14,1.14,0,0,0-.11-.46.83.83,0,0,0-.81-.46v.92Zm0,6.45v-.93a1.93,1.93,0,0,0,.46.35c.31.16.46,0,.46-.35H299l-.92.93v-.93H299Zm.92-2.77a1.14,1.14,0,0,0-.11-.46.84.84,0,0,0-.81-.46v.92Zm2.76,13.93c-.45-.46-.76-.58-.92-.35a1,1,0,0,1-.92.35Zm-1.61-3.57q0,.12.69.81v-.92C301.3,360.72,301.07,360.75,301.07,360.83Zm.69-5.75.92-.92-.92-.92h0v.92h.92Zm1.85,12.08h0Zm2.07-3.68c-.46,0-.58.19-.35.57a2.45,2.45,0,0,1,.35,1.27,1.5,1.5,0,0,0-.12-.81,1.59,1.59,0,0,0-.8-.11c0,.46,0,.73.11.8a1.5,1.5,0,0,0,.81.12v-1.84Zm0-4.6c.92-.47,1.42-.81,1.49-1a3.84,3.84,0,0,0-.57-1.84,1,1,0,0,1,.34-.92c.23-.16.12-.46-.34-.92a1.07,1.07,0,0,0-.46.11.83.83,0,0,0-.46.81l.92.92a2.69,2.69,0,0,1-.12,1,4.66,4.66,0,0,1-.8.92Zm.92-6.57a1.61,1.61,0,0,0,.11.81,1.5,1.5,0,0,0,.81.12.83.83,0,0,0-.46-.81A1,1,0,0,0,306.6,352.31Zm0,8.41v0Zm.92-1.84h0Zm2.76-12.09.92-.92-.92-.92a5,5,0,0,0-.8.92,2.29,2.29,0,0,0-.12.92Zm0,5.52c-.46,0-.73-.11-.8-.34s-.12-.11-.12.34v.93c.38,0,.5-.16.34-.46a1.74,1.74,0,0,0-.34-.47Zm.92-11h-.92c0,.46,0,.73.12.8s.34.12.8.12Zm-.92,2.76c0,.46,0,.73.12.8s.34.12.8.12h-.92Zm1.84,4.6c-.46,0-.73,0-.8.12s-.12.34-.12.8h.92Zm2.76-6.44a.81.81,0,0,1-.8-.46,1,1,0,0,1-.12-.46.92.92,0,0,0-.46-.92,1,1,0,0,0-.46-.12,1.14,1.14,0,0,0-.11-.46.85.85,0,0,0-.81-.46,1.5,1.5,0,0,0,.12.81,1.59,1.59,0,0,0,.8.11v1h-.92c.38.38.65.5.81.34a.48.48,0,0,0,.11-.34H314v.92ZM313,344h0Zm2.76-16.69a.83.83,0,0,0-.8.46,1,1,0,0,0-.12.46l.92.92c.46-.46.58-.76.35-.92a1,1,0,0,1-.35-.92h0Zm-.92,9.21a.82.82,0,0,0,.81-.46,1.11,1.11,0,0,0,.11-.46v.92Zm1.85,2.76h-.93c.39.39.66.5.81.35A.46.46,0,0,0,316.73,339.31Zm1.84-18.64h-.92l-.92.92h.92a1.06,1.06,0,0,0,.45-.11A.84.84,0,0,0,318.57,320.67Zm-.92,3.68h-.92c.38.39.65.5.8.35A.46.46,0,0,0,317.65,324.35Zm-.81,13.35c-.08,0-.11.23-.11.69h.92A3.43,3.43,0,0,0,316.84,337.7Zm1.73-11.28v0Zm1,5.53a1.67,1.67,0,0,0-.11-.81,2,2,0,0,0-.92-.12V332Zm0,.92a1.35,1.35,0,0,0-.57.11.84.84,0,0,0-.46.81h1.95a.67.67,0,0,0-.92-.92Zm-1,43.73v.92a1.86,1.86,0,0,0,.92-.12,1.59,1.59,0,0,0,.11-.8Zm1.95,4.6v-.92h-.92a1.5,1.5,0,0,1,.12-.81,1.59,1.59,0,0,1,.8-.11.67.67,0,0,0-.92-.92,1.35,1.35,0,0,0-.57.11.84.84,0,0,0-.46.81l1,.92a1.11,1.11,0,0,1,.46.11A.84.84,0,0,1,320.52,381.2Zm-.92-34.41a1.87,1.87,0,0,0-.34.46c-.16.31,0,.46.34.46v-.92h.92v0Zm.92-16.69c0,.47,0,.58.12.35s.34-.35.8-.35a.94.94,0,0,0-.46-.92.92.92,0,0,1-.46-.92h-.92v.92a.82.82,0,0,0,.46.81A1,1,0,0,0,320.52,330.1Zm.92,12.09v0a.84.84,0,0,0-.46-.81,1.11,1.11,0,0,0-.46-.11v.92h-.92v.92a1,1,0,0,0,.46-.12.81.81,0,0,0,.46-.8Zm-1.84,12.89v0Zm1.84,5.64H319.6v.92a.89.89,0,0,0,.92-.58,4,4,0,0,1,.92-1.26Zm-1.84,9.2V372a1.81,1.81,0,0,1,.12-.57.82.82,0,0,1,.8-.58.81.81,0,0,0-.46-.8A1,1,0,0,0,319.6,369.92Zm2.76-2.76a2.3,2.3,0,0,1-1.26-.46,3.67,3.67,0,0,1-.58-.46c-.46.46-.57.77-.34.92a1,1,0,0,1,.34.92,5,5,0,0,1,.92-.8,2.29,2.29,0,0,1,.92-.12v0Zm-1.84,17.72a.44.44,0,0,0-.34.12c-.16.15,0,.42.34.8V384h0Zm.92-68.81a1.48,1.48,0,0,0,.12.8c.07.08.34.12.8.12h-.92v-.92a1,1,0,0,0,.46-.12.48.48,0,1,0-.34-.35,1,1,0,0,0-.12.47h0v0Zm-.8,21.51a1.59,1.59,0,0,1,.8-.11,1.14,1.14,0,0,0-.46.11.84.84,0,0,0-.46.81A1.5,1.5,0,0,1,320.64,337.58Zm.8,6.45h-.92c0,.46,0,.57.12.35S321,344,321.44,344Zm-.92,4.6h.92v-.92Zm.92,21.29a1.59,1.59,0,0,0-.11-.8,1.5,1.5,0,0,0-.81-.12h1.84v.92a1.61,1.61,0,0,0,.35-.46c.15-.3,0-.46-.35-.46h-1.84a1.5,1.5,0,0,1,.81.12A1.59,1.59,0,0,1,321.44,369.92Zm.92,7.6h-1.84l1.84-1.84a1.42,1.42,0,0,0-1.15.57c-.3.39-.23.81.23,1.27,0,.46.15.69.46.69s.46-.23.46-.69a1,1,0,0,1,.12-.46.81.81,0,0,1,.8-.46Zm-1.84,8.28h0Zm1.84-66.05a.46.46,0,0,0,.35-.12c.15-.15,0-.42-.35-.8h-.92c-.38.38-.5.65-.34.8a.44.44,0,0,0,.34.12Zm-.11,12.08a1.5,1.5,0,0,1-.81.12,1.5,1.5,0,0,0,.81-.12,1.61,1.61,0,0,0,.11-.81,1.06,1.06,0,0,0-.11-.45.83.83,0,0,0-.81-.47.82.82,0,0,0,.46.81,1,1,0,0,0,.46.11A1.61,1.61,0,0,1,322.25,331.83Zm.11,7.48h0v0Zm-.92,12.08v.92h.92a1,1,0,0,1-.46-.11A.82.82,0,0,1,321.44,351.39Zm.92,5.64v-1a1.35,1.35,0,0,1-.11.57.83.83,0,0,1-.81.46Zm0,1.85a1.61,1.61,0,0,0-.46-.35c-.31-.15-.46,0-.46.35Zm0,14h-.92c0-.46.12-.72.35-.8s.11-.12-.35-.12Zm-.92,1.85h1.84a.83.83,0,0,1-.8-.46,1,1,0,0,1-.12-.46,1.14,1.14,0,0,1-.11.46.84.84,0,0,1-.81.46c0-.46.12-.73.35-.81s.11-.11-.35-.11Zm0,12.08v.92q.69,0,.69-.12A3.29,3.29,0,0,0,321.44,386.84Zm.92-50.29v.92a1.07,1.07,0,0,0,.46-.11.84.84,0,0,0,.46-.81Zm.92,6.56a.81.81,0,0,0-.8.46,1,1,0,0,0-.12.46,5.7,5.7,0,0,1,.81.92,2.56,2.56,0,0,1,.11.92,7.15,7.15,0,0,0-.11-1.27.71.71,0,0,0-.81-.57,1.5,1.5,0,0,0,.81-.12A1.59,1.59,0,0,0,323.28,343.11Zm.93,41.77h0c0-.46-.12-.61-.35-.46s-.12,0,.35-.46Z" transform="translate(-110.53 -93.75)"/><path class="cls-2" d="M386.82,329.3v16.8a4,4,0,0,1-.57,2.25c-.37.57-.76,1.13-1.13,1.66a27.49,27.49,0,0,1-1.66,3.57,13.9,13.9,0,0,1-2.22,2.88,15.27,15.27,0,0,1-2.85,2.65,5.91,5.91,0,0,1-3.52,1.15,13.86,13.86,0,0,0-3.36.51,15.84,15.84,0,0,1-4.05.52c-.91,0-1.86.92-2.84,2.76v4.61a1.93,1.93,0,0,0,0,2.87,4.37,4.37,0,0,1,.8,2.19,4.93,4.93,0,0,1-.8,2.3,10.79,10.79,0,0,0-.35,4.78,35.62,35.62,0,0,1,.35,4.66q0,1.38-.12,2.88a6.9,6.9,0,0,1-.81,2.76c0,.92-.35,1.45-1.06,1.61a9.22,9.22,0,0,1-1.89.23,3.48,3.48,0,0,1-3.18.06,4.8,4.8,0,0,1-2.59-2.82,3,3,0,0,1-.71-2q-.12-1.38-.12-2.76V374.18a2,2,0,0,0,0-2.65v-3.79c.39-.39.48-.66.29-.81s-.29-.5-.29-1q0-2.17.12-4.14a10,10,0,0,1,.69-3.34v-2a8.4,8.4,0,0,1-.58-3.28A7.58,7.58,0,0,1,355,350a3.24,3.24,0,0,0-.41-1.55,2.85,2.85,0,0,1-.4-1.32c0-2.46.1-4.66.29-6.62a26.26,26.26,0,0,0-.29-6.62,40.46,40.46,0,0,1,.29-4.95,16.93,16.93,0,0,0-.29-5.29,31.66,31.66,0,0,1,.29-4.2,10.27,10.27,0,0,0-.29-4.2,7.75,7.75,0,0,1,.12-1.44,3.59,3.59,0,0,1,.69-1.44,6.48,6.48,0,0,0,1.15-1.21c.23-.34.8-.51,1.72-.51a18,18,0,0,0,4.2-.52,17.51,17.51,0,0,1,4.21-.52,17.24,17.24,0,0,1,4.25.52,17.75,17.75,0,0,0,4.26.52h.81c1.45.84,2.68,1.59,3.68,2.24a22.84,22.84,0,0,1,3,2.36c.23,0,.46.19.69.58a1,1,0,0,1,.12.46,2.68,2.68,0,0,0,1,2.13c.69.57,1,1.05,1,1.43a11.6,11.6,0,0,1,1.5,4.78C386.75,326.37,386.82,327.92,386.82,329.3Zm-29,36.59h0Zm-.69-44a1,1,0,0,0,.12.47c.07.23.3.34.69.34h1v.92a6.13,6.13,0,0,0,1.08.92,2.06,2.06,0,0,0,.84.12v-1c0-.38-.16-.5-.48-.34a.74.74,0,0,0-.36.34,2.2,2.2,0,0,1-1-.11,1.5,1.5,0,0,1-.12-.81c-.48-.31-.76-.42-.84-.34a.44.44,0,0,0-.12.34,1.17,1.17,0,0,0-.12-.69Q357.72,321.93,357.13,321.93Zm.81,15.77v-1q-.58,0-.69.12a1.83,1.83,0,0,0-.12.92Zm0,38.32a.52.52,0,0,0,.35-.11c.07-.08,0-.31-.35-.69v-1h-.81c0,.54.12.85.35.92a1,1,0,0,0,.46.12v.8a.48.48,0,0,0-.35.12c-.23.23-.11.53.35.92Zm-.12-16.8c-.38,0-.57,0-.57.11a4,4,0,0,0,.57.93c.47-.54.73-.71.81-.52s.11,0,.11-.52Zm.12-38.32v-1c-.46,0-.58.2-.35.58A2,2,0,0,0,357.94,320.9Zm-.29,34.75a1,1,0,0,1,.29.81c.46-.39.57-.65.35-.81s-.35-.5-.35-1C357.55,355.15,357.46,355.5,357.65,355.65Zm.17-16.11h0Zm2.77,12.2a3.1,3.1,0,0,1-1.33-.35,1.2,1.2,0,0,0-1.44.35Zm-2.65-36.48v1h.92Zm0,10.24v1a2.24,2.24,0,0,0,.35-.46C358.44,325.69,358.32,325.5,357.94,325.5Zm0,9.32a.81.81,0,0,1,.48-.8,1.07,1.07,0,0,1,.48-.12h-1Zm.92,32.92v-.81a1.5,1.5,0,0,0-.81.12,1.24,1.24,0,0,0-.11.69Zm.92-53.52a1.2,1.2,0,0,0-.57.12.92.92,0,0,0-.47.92.91.91,0,0,0,.92-.46A1.25,1.25,0,0,0,359.78,314.22Zm-1,68.48a.92.92,0,0,1,.47-.92,1.2,1.2,0,0,1,.57-.12ZM360,356.46v.92h0Zm0,22.44a2.2,2.2,0,0,0-1,.11,1.5,1.5,0,0,0-.12.81Zm0-46.84h-1c0,.39.15.5.46.35a5.59,5.59,0,0,0,.57-.35v0Zm0,31v-.92l-1-.81c0,.39,0,.62.11.69a1.83,1.83,0,0,0,.92.12Zm0,8.51a.75.75,0,0,0-1-1v1Zm-1,15h1v-1a.89.89,0,0,0-.92.57A1,1,0,0,0,359,386.49ZM360.82,350H360c.32.39.56.5.72.35a.51.51,0,0,0,.12-.35h1q0,.58.12.69c.07.08.38.12.92.12,0-.23-.19-.46-.58-.69a1,1,0,0,0-.46-.12.75.75,0,0,0-1-1ZM360,327.57v-1h0Zm1.84,28.08a6.71,6.71,0,0,1-1.32-.11c-.35-.08-.52-.39-.52-.92a1.86,1.86,0,0,0,.12.92,1.24,1.24,0,0,0,.69.11,1.61,1.61,0,0,0,.46.35C361.66,356.23,361.85,356.11,361.85,355.65Zm-1,9.21v1a1.86,1.86,0,0,0-.12-.92,1.29,1.29,0,0,0-.69-.11c0,.54.1.67.29.4s.09-.4-.29-.4Zm-.81,9.32v0h0Zm.81-55.12v0Zm0,2.87v.81a2.06,2.06,0,0,0,.92-.11,1.31,1.31,0,0,0,.11-.7Zm1,53.29h-1v.8h1Zm0-61,1-.8h-1Zm1,5.64c0-.38-.18-.57-.52-.57s-.52.19-.52.57h1v0Zm-1,4.84v0Zm0,23.24a1.07,1.07,0,0,0,.46-.11c.39-.16.58-.39.58-.69h-1Zm1,7.71v0Zm1.73,2.76a.92.92,0,0,0-.93.52,8,8,0,0,1-.8,1.33v-1q.57.81.69.81c.07,0,.11-.27.11-.81Zm12-31.87V324.7c0-.54,0-.85-.11-.92a1.79,1.79,0,0,0-.9-.12,1.8,1.8,0,0,1-1.19-.57,14.57,14.57,0,0,0-1.41-1.16,5.16,5.16,0,0,0-5.53,0,5.91,5.91,0,0,0-2.09,1.39,3.09,3.09,0,0,0-.73,2.18,17.42,17.42,0,0,1-.35,3.74,3.87,3.87,0,0,0,.35,2.82,40.27,40.27,0,0,0,.39,5.64,13.93,13.93,0,0,1-.39,5.64,2.76,2.76,0,0,0,.16,2.82,5.5,5.5,0,0,1,.85,2.82h1.81a3.59,3.59,0,0,0,4.52,0,8.28,8.28,0,0,0,5.43-5.64q0-2.88-.12-5.76a57.63,57.63,0,0,0-.69-6.56Zm-11.16-11.28-1,1h1.85a1,1,0,0,0-.12-.46C365.88,315.45,365.65,315.26,365.42,315.26Zm1.84,42.12v0h0Zm1-41.08a1.25,1.25,0,0,1-.58-.12.92.92,0,0,1-.46-.92v-1c-.46.46-.57.77-.34.93a.48.48,0,0,0,.34.11v1.84a1,1,0,0,0,.12.46.92.92,0,0,0,.92.46c.23,0,.3,0,.23-.11l-.29-.29a.88.88,0,0,1-.23-.35c0-.11.06-.17.29-.17Zm1.72-2.88h-.92v0Zm1.84,43a3.48,3.48,0,0,1-.8.8,2.79,2.79,0,0,1-1,.12h1a.86.86,0,0,0,.34-.12A.81.81,0,0,0,371.86,356.46Zm1-42.24h-1a.5.5,0,0,0-.11-.34c-.16-.08-.39,0-.69.34,0,.39.11.5.34.35a1.61,1.61,0,0,0,.46-.35Zm0,40.4v0Zm1-37.52v-.8a11.93,11.93,0,0,0,.69-1,3.07,3.07,0,0,0,.11-1c-.38.54-.61.89-.69,1a2.86,2.86,0,0,0-.11,1Zm.8,34.64a1.83,1.83,0,0,0,.12.92q.11.12.69.12c0-.54-.14-.71-.41-.52S374.74,352.28,374.74,351.74Zm1.84-32.68h0v-1h0Zm0,35.56a.89.89,0,0,0,.35-.12.93.93,0,0,0,.46-.92h-.81v1h0Zm.81-38.32c0,.38.15.49.46.34a5.22,5.22,0,0,0,.57-.34Zm1,3.56h-1c.38.46.69.58.92.35a.51.51,0,0,0,.11-.35,7.75,7.75,0,0,0,.12,1.44c.07.42.38.63.92.63a1.15,1.15,0,0,0,.11.47c.08.23.31.34.7.34v-.81h-.81a1,1,0,0,0-.52-1A1,1,0,0,1,378.42,319.86Zm0,28.08v1a.48.48,0,0,0-.34.11c-.23.23-.12.54.34.92a1,1,0,0,0,.46-.11.89.89,0,0,0,.58-.92c.38-.46.5-.77.34-.92a.44.44,0,0,0-.34-.12Zm1.85-22.44c0,.54,0,.85.11.92s.34.12.81.12c0-.54,0-.85-.12-.92A1.48,1.48,0,0,0,380.27,325.5Zm0,3.8v0Zm.92,7.36h0Zm-.92,5.64c.45.54.76.81.92.81s.49-.27,1-.81v1a6.85,6.85,0,0,0-1-.92A2.36,2.36,0,0,0,380.27,342.3Zm2-11.28v1c.38,0,.61.14.69.4s.12.14.12-.4h-.81v-1h0Zm.81,8.52c0-.38,0-.48-.12-.29s-.31.29-.69.29H383Zm-1.84,6.56a.94.94,0,0,0,.92-.46,1.07,1.07,0,0,0,.11-.46h-1Zm1,2.88v0Z" transform="translate(-110.53 -93.75)"/><path class="cls-2" d="M415.19,328.15v.8a19.71,19.71,0,0,1,.95,3.69,32.84,32.84,0,0,0,.84,3.79v3.8q.79,4,1.49,7.71t1.5,7q.69,4.26,1.84,8.92c.76,3.11,1.38,6,1.84,8.81a11.91,11.91,0,0,0,.57,3.85c.39,1.11.81,2.36,1.27,3.74v.92c0,.38,0,1,.11,1.78a2.73,2.73,0,0,0,.93,1.9,7.25,7.25,0,0,1,.17,3.68,11.67,11.67,0,0,1-1.21,2.88c-.46.46-.92.88-1.38,1.27a2.17,2.17,0,0,1-1.38.57,8.15,8.15,0,0,1-4.83-1.38,6.86,6.86,0,0,1-2.65-4.14q0-2.19-.12-4.32a15.67,15.67,0,0,0-.8-4.2,7.78,7.78,0,0,0-3.08-3.62,10.07,10.07,0,0,0-4.58-.86,7.78,7.78,0,0,0-3.54.74,9.13,9.13,0,0,0-3,2.82v.92a3.07,3.07,0,0,1-.11,1,7.54,7.54,0,0,1-.69.92,1.56,1.56,0,0,0-.41,1.9,9.16,9.16,0,0,1,.41,2.7,2.42,2.42,0,0,1-.52,1.5,2.14,2.14,0,0,0-.52,1.26,4.65,4.65,0,0,1-1.32,2.31,6.65,6.65,0,0,1-2.19,1.38,7.18,7.18,0,0,1-2.53.46,7.46,7.46,0,0,1-2.36-.35q-.69-.69-1.26-1.38a2.13,2.13,0,0,1-.58-1.38c0-1.38,0-2.78.11-4.2a16.09,16.09,0,0,1,.81-4.2,9.55,9.55,0,0,1,.46-2.94,11.42,11.42,0,0,0,.46-3.5,12.82,12.82,0,0,0,.92-3.57,19.91,19.91,0,0,1,.92-4,17,17,0,0,0,.46-3.05c.08-1.11.14-2.26.17-3.45a34.36,34.36,0,0,1,.29-3.45,10,10,0,0,1,.92-3c.46-1.38.9-2.92,1.33-4.61a19.56,19.56,0,0,0,.63-4.72v-1.95q.69-2.76,1.38-5.93t1.38-6a17.71,17.71,0,0,1,.12-1.9,3,3,0,0,1,.92-1.9v-2.76c0-.92,0-2,.11-3.28a10.27,10.27,0,0,1,.69-3.28.83.83,0,0,0,.81-.46,1.07,1.07,0,0,0,.11-.46,4.33,4.33,0,0,1,.52-3.91,6.15,6.15,0,0,1,3.28-2.53c.46-.54.86-.81,1.21-.81s.52.27.52.81a20,20,0,0,1,2.41.11,2.16,2.16,0,0,1,1.38.81c.54,0,.89.17,1,.52a6,6,0,0,0,.92,1.32,15.14,15.14,0,0,0,.4,3.68,15.17,15.17,0,0,1,.41,3.68c0,.39,0,1,.12,1.85a2.72,2.72,0,0,0,.94,2,2.6,2.6,0,0,1,.84,1.5A16.89,16.89,0,0,1,415.19,328.15ZM392.81,385.8a.46.46,0,0,0-.35.12c-.23.23-.11.54.35.92Zm.8-11a.6.6,0,0,1-.8.8h.8Zm2-.92a1.28,1.28,0,0,1-.58-.12,1.05,1.05,0,0,1-.46-1v1.15h-.92c0,.38.16.49.46.34a1.56,1.56,0,0,0,.46-.34Zm.11,11.27c-.07,0-.11.23-.11.69h.92Q395.8,385.11,395.68,385.11Zm.81-28.19v.92h.92a.67.67,0,0,0-.92-.92Zm0,6.56h.92c-.38-.38-.65-.5-.81-.35A.51.51,0,0,0,396.49,363.48Zm0,1.84h0Zm2.88,9.44a1.17,1.17,0,0,0,.69-.12,1.61,1.61,0,0,0,.11-.8h-.8v.92a8.24,8.24,0,0,0-.12-1.39c-.08-.46-.38-.68-.92-.68s-.57.19-.34.57a1.46,1.46,0,0,0,.34.58h-1.84v.92a1.5,1.5,0,0,0,.81-.12,1.61,1.61,0,0,0,.11-.8.81.81,0,0,0,.46.8,1,1,0,0,0,.46.12v.8a1,1,0,0,0,.92-.34A1,1,0,0,0,399.37,374.76Zm-1-27.05a.83.83,0,0,0-.8.46.89.89,0,0,0-.12.35h.92Zm1-5.75a2,2,0,0,0-.92.11,1.5,1.5,0,0,0-.12.81h1Zm-1,14h1v-1Zm1,9.32c0-.23-.2-.46-.58-.69a1,1,0,0,0-.46-.12v.81Zm0-4.72v-1.84h-1c0,.46,0,.73.11.8a1.83,1.83,0,0,0,.92.12c-.55,0-.83.15-.83.46s.27.46.81.46c0,.46,0,.58.11.35s.31-.35.69-.35Zm.8-22.32a.73.73,0,0,0-.69.46,1.07,1.07,0,0,0-.11.46.48.48,0,0,0,.11.34.35.35,0,0,0,.23.12c.08,0,.23-.16.46-.46Zm0,5.63v-1l-.8,1Zm0,24.29v-1a1.17,1.17,0,0,0-.69.12,2,2,0,0,0-.11.92Zm.92-33.49a.81.81,0,0,0-.8.46.86.86,0,0,0-.12.34v-.8Zm-.92,2.76v0Zm0,3.68v-.92a1.5,1.5,0,0,0,.12.81,1.59,1.59,0,0,0,.8.11Zm0,6.56h0Zm.92-9.43v.92a.93.93,0,0,0,.92-.46,1,1,0,0,0,.12-.46Zm0,7.36h0Zm2.76,21.52a3.48,3.48,0,0,0-.8-.8,2.29,2.29,0,0,0-.92-.12h0a5.7,5.7,0,0,0,.92.81A2.09,2.09,0,0,0,403.85,367.16ZM402.13,329h.92l-.92-.8Zm7.36,20.6v-1q-.64-2.19-1.3-4.72a18.35,18.35,0,0,1-.65-4.6h-1.73v6.44q-.69,3-1.44,6.33t-1.32,6.79a8.46,8.46,0,0,0,.23,2.19,3.22,3.22,0,0,0,1.58,1.61c.45,1,1,1.53,1.76,1.61a2.47,2.47,0,0,0,2-.69,7.19,7.19,0,0,0,2-1.56,3.28,3.28,0,0,0,.75-2.24,6.45,6.45,0,0,1-.93-2.65c-.07-.84-.11-1.53-.11-2.07a7.58,7.58,0,0,1-.69-2.65Q409.49,350.93,409.49,349.55Zm-5.64,20.37c-.38.46-.3.77.24.92a2.41,2.41,0,0,0,.8.12,6,6,0,0,0-.11-1.27C404.7,369.39,404.39,369.46,403.85,369.92Zm0-54v1.84a.93.93,0,0,0,.93-.46,1.07,1.07,0,0,0,.11-.46,1,1,0,0,0-.57-.8A1,1,0,0,0,403.85,316Zm1,4.6a1.14,1.14,0,0,0-.11-.46,1,1,0,0,0-.93-.46v.92Zm-1,.81v0Zm0,10.36h1v0Zm1-2.77a1,1,0,0,0,.12.46.81.81,0,0,0,.8.46V329Zm1.61-13.11a1.88,1.88,0,0,0,.12-.93h-.81v1A1.29,1.29,0,0,0,406.5,315.84Zm.12,55.92a6.42,6.42,0,0,0-.12-1.2c-.08-.43-.31-.64-.69-.64,0,.54.12.85.35.92a1,1,0,0,0,.46.12Zm.92-53.16h0c0-.39,0-.61-.12-.69s-.34-.12-.8-.12v.81c.3.46.57.57.8.34A.44.44,0,0,0,407.54,318.6Zm0,6.67v-1.84h-.92a.7.7,0,0,1,.8.58A6.13,6.13,0,0,1,407.54,325.27Zm0-8.4.07-.92-.07.92h0Zm2.07,18.64h-.92c-.62,0-1-.09-1-.28s-.11-.1-.11.28h2.07Zm.8-5.64h-.92c0-.46,0-.69-.1-.69s-.3.23-.7.69Zm-1.72,36.37h0Zm.8-45.69.12,2a12.55,12.55,0,0,0,.69-1.38,1.76,1.76,0,0,0,.11-.58Zm.81,5.64a.63.63,0,0,0-.69.58,6.81,6.81,0,0,0-.12,1.38.65.65,0,0,0,.69-.63A7.15,7.15,0,0,0,410.3,326.19Zm-.81,11.28.12,1.73a1,1,0,0,1,.3-.81.82.82,0,0,1,.39-.11l.11-.81Zm.92,3.68h0Zm1-5.64a.46.46,0,0,0,.12.35c.15.15.42,0,.8-.35Zm0,7.37h.92a.67.67,0,0,0-.92-.92Zm.92,26.12v.92h-.92v0h.92Zm0-32.57v1c-.46,0-.57.17-.35.52a2.05,2.05,0,0,1,.35,1.21v-2.77Zm0-2.87v0Zm0,0v1.15h.81a1.87,1.87,0,0,0-.12-.58Q412.72,333.56,412.37,333.56Zm.81,6.67v.92a1,1,0,0,0-.12-.46.74.74,0,0,0-.69-.46Zm-.69,7.94a1,1,0,0,1-.12-.46v.81h.81C412.79,348.52,412.56,348.4,412.49,348.17Zm-.12,2.3v.92c.38,0,.61,0,.69-.11a1.5,1.5,0,0,0,.12-.81Zm.83,13c-.4.54-.63.71-.71.52s-.12,0-.12.51v-1Zm0-8.52h1.13l-.23,1,.23-1Zm1.13,9.55H413.2a3.13,3.13,0,0,0,.8.58c.06,0,.1-.19.1-.58Zm0-7.59-.23.92.23-.92h0Zm0,6.56-.23-.92.23.92-.23-.92Zm2.65,1a1.21,1.21,0,0,1-.12.69,1.17,1.17,0,0,1-.69.12c0-.38-.19-.48-.58-.29a2.78,2.78,0,0,1-1.26.29l-.23.92.23-.92a.93.93,0,0,1,.92.46.92.92,0,0,0,.92.46v-.92a.86.86,0,0,0,.34-.12A.74.74,0,0,0,417,364.51Zm-1-11.73a1.07,1.07,0,0,1,.11.46,1.07,1.07,0,0,0-.11-.46,1,1,0,0,0-.81-.58A1,1,0,0,1,415.94,352.78Zm-.74-2.31v0Zm0,22.22v0Zm.95-11.17h0Zm0,16H417c0-.54-.05-.67-.12-.41S416.54,377.52,416.15,377.52ZM417,360.6v-.92a.46.46,0,0,0-.35.12C416.47,360,416.59,360.22,417,360.6Zm0,13.24h1a2.07,2.07,0,0,0-.11-.58,1.06,1.06,0,0,0-.92-.57Zm1.84-8.52v0Zm1,8.52h0v-2.08c-.46.31-.57.58-.34.81a.44.44,0,0,0,.34.12Zm.92,4.48a.48.48,0,0,0-.11-.34c-.08-.08-.35,0-.81.34Zm-.92,3.69h0Zm2.76-.81v-.92a2.12,2.12,0,0,1-1.26-.4c-.39-.27-.58-.14-.58.4.46.46.77.58.92.34a1,1,0,0,1,.92-.34Zm-.92,4.6v1h.92Z" transform="translate(-110.53 -93.75)"/><path class="cls-2" d="M468.88,387.76V384c-.47-.46-.7-.76-.7-.92s.23-.46.7-.92v-.92a14.58,14.58,0,0,1-.81-3.68c-.08-1.08-.11-2.3-.11-3.68l.92-.93a21.43,21.43,0,0,1-.35-6.55,47.43,47.43,0,0,0,.35-5.64,20.69,20.69,0,0,1-.35-6.45,47.43,47.43,0,0,0,.35-5.64v-.92a.82.82,0,0,0-.47-.8,1,1,0,0,0-.45-.12H467a17.73,17.73,0,0,1-.11,2.19,2.64,2.64,0,0,1-.81,1.49,14.21,14.21,0,0,1-.23,2.65,2.7,2.7,0,0,1-1.61,2V356a9,9,0,0,1-.46,2.88,8.59,8.59,0,0,0-.46,2.76,21.23,21.23,0,0,0-1.26,3.22,10.83,10.83,0,0,0-.58,3.22,4.29,4.29,0,0,1-.57,2.3,19,19,0,0,0-1.27,2.53v1.85a2.44,2.44,0,0,1-2.76,2.76,1.33,1.33,0,0,1-1.61.23,9.39,9.39,0,0,1-1.39-1.15c-.45-.92-.92-1.84-1.38-2.76s-.92-1.92-1.38-3a15.53,15.53,0,0,0-.57-4.14c-.39-1.38-.81-2.76-1.27-4.14a2.9,2.9,0,0,1-.8-1.84c-.08-.77-.12-1.39-.12-1.84a2.62,2.62,0,0,0-.11-.93,5.7,5.7,0,0,0-.81-.92,3.21,3.21,0,0,1-.81-1.49,9.17,9.17,0,0,1-.11-1.38,5,5,0,0,0-.29-1.79,15.64,15.64,0,0,0-.63-1.44,15.44,15.44,0,0,1-.63-1.43,4.83,4.83,0,0,1-.29-1.79,1,1,0,0,0-.12-.46.83.83,0,0,0-.8-.46v1.84a8.11,8.11,0,0,1-.35,2,3.66,3.66,0,0,0,.35,2.65,11,11,0,0,0,.23,1.95,3.31,3.31,0,0,1-1.15,2.76,7.66,7.66,0,0,1,.8,2.31,18.25,18.25,0,0,1,.12,2.3,14.94,14.94,0,0,0-.35,5.52,46.42,46.42,0,0,1,.35,5.76,2.53,2.53,0,0,1-.46,1.38,2.45,2.45,0,0,0-.46,1.38c-.46.46-.43.92.11,1.38a1.89,1.89,0,0,1,.81,1.38,8.5,8.5,0,0,0-.35,4.14,25.87,25.87,0,0,1,.35,4.26,8.93,8.93,0,0,1-2,3.45,10,10,0,0,1-2.7,2.07,6.31,6.31,0,0,1-3.8-1.26,4,4,0,0,1-1.72-3.34,48.1,48.1,0,0,0-.35-5.75,20.13,20.13,0,0,1,.35-6.33V355.08a2.91,2.91,0,0,1-.35-2.3,6.69,6.69,0,0,0,.35-2.31v-1.84a3.9,3.9,0,0,1-.35-2.76,11.35,11.35,0,0,0,.35-2.76,7.13,7.13,0,0,1-.35-3.68,12.86,12.86,0,0,0,.35-2.88V331a4.18,4.18,0,0,1,0-4.6v-8.51a4.2,4.2,0,0,1,0-4.61,4.27,4.27,0,0,0,1-1.78,1.59,1.59,0,0,1,1.73-1.09h1.84c0-.46.15-.69.46-.69s.46.23.46.69a17,17,0,0,1,3.57,1.72,5.55,5.55,0,0,1,2.07,3,14,14,0,0,0,.58,4,19.93,19.93,0,0,0,1.26,3.34,9.65,9.65,0,0,1,.92,3,21,21,0,0,0,.92,3.68,3,3,0,0,1,.81,1.84c.07.77.11,1.39.11,1.85a2.3,2.3,0,0,0,.46,1.26,4.35,4.35,0,0,0,.46.58,9.25,9.25,0,0,0,.69,3.68,27.88,27.88,0,0,0,2.07,3.8c0,.46,0,1.07.12,1.84a3,3,0,0,0,.8,1.84v2.76a3.85,3.85,0,0,1,.92,1.27.91.91,0,0,0,.93.57c.61,0,1-.19,1.15-.57a4,4,0,0,1,.92-1.27l1.38-4.14q.69-2.07,1.38-4.26a27.59,27.59,0,0,0,1-4.26,17.55,17.55,0,0,1,1.72-5c.46-1.84.92-3.71,1.38-5.63s.92-3.8,1.38-5.64a.83.83,0,0,0,.81-.46,1.11,1.11,0,0,0,.11-.46,7.94,7.94,0,0,0,.81-2.19,10.15,10.15,0,0,0,.12-1.49V313.3a3.92,3.92,0,0,1,1.32-1.38,14.18,14.18,0,0,1,2.07-1.21,16.94,16.94,0,0,1,2.24-.86,6.77,6.77,0,0,1,1.85-.34.82.82,0,0,0,.45.8,1,1,0,0,0,.47.12,9.33,9.33,0,0,1,1.95,3,5.26,5.26,0,0,1-.11,3.57v3.68a2.87,2.87,0,0,1,.8,1.84c.08.77.12,1.38.12,1.84a27.45,27.45,0,0,0-.46,7,19.65,19.65,0,0,1-.46,6.1,8,8,0,0,1-.12,1.38,2.62,2.62,0,0,1-.8,1.38,3.69,3.69,0,0,1,.92.12c.61.15.92.46.92.92a9.5,9.5,0,0,0-.46,4.14,9.65,9.65,0,0,1-.46,4.14V358a25.25,25.25,0,0,0,.34,4.15,8.49,8.49,0,0,1-.34,4.14V369a8.43,8.43,0,0,1,0,6.68,2.38,2.38,0,0,0,.34,1.26c.23.39.12.58-.34.58v.92a2.9,2.9,0,0,1,.34,2.3,6.6,6.6,0,0,0-.34,2.3v3.8a3,3,0,0,1,.11,2.65,4,4,0,0,1-1.95,1.95,2.27,2.27,0,0,1-1.33,1.44,3.72,3.72,0,0,1-2.07.23,6.12,6.12,0,0,1-2.24-.86,5.57,5.57,0,0,1-1.84-1.73.76.76,0,0,1-.29-.69,2.34,2.34,0,0,1,.23-.69,6.76,6.76,0,0,0,.29-.69A.67.67,0,0,0,468.88,387.76Zm-32.57-58.58v.92c.46,0,.73,0,.8-.11s.12-.34.12-.81Zm.92,2.77h-.92v.92c.46,0,.73,0,.8-.12S437.23,332.41,437.23,332Zm1.84,7.36a.73.73,0,0,1-.29.58c-.19.15-.36.29-.52.4a1.16,1.16,0,0,0-.34.4c-.08.16,0,.35.23.58h-.92c0,.46-.16.61-.46.46s-.46,0-.46.46h.92a1,1,0,0,0,.46-.12.83.83,0,0,0,.46-.8h.92Zm-1.84.92v0h0Zm-.92,2.88v0Zm.92,9.2a1,1,0,0,0-.46.12.82.82,0,0,0-.46.81h.92Zm-.92,4.72h.92a2.29,2.29,0,0,1-.12.92,4.91,4.91,0,0,1-.8.93h.92a3.1,3.1,0,0,1-.35,1.38,1.13,1.13,0,0,0,.35,1.38v.92a1.87,1.87,0,0,0,.34-.46c.16-.31,0-.46-.34-.46V359.8a3.74,3.74,0,0,1,.57-2.19c.39-.54.81-1.07,1.27-1.61a2.56,2.56,0,0,0-.92.11,4.85,4.85,0,0,0-.92.92h-.92v-1l.92-.92a.83.83,0,0,0-.81.46,1.07,1.07,0,0,0-.11.46Zm.92,19.57h-.92c0,.46.15.69.46.69S437.23,377.06,437.23,376.6Zm-.92,6.44v0Zm.92,4.72a1,1,0,0,0-.12-.46.81.81,0,0,0-.8-.46v.92Zm0-41v-.92a2.56,2.56,0,0,0-.69.46C436.23,346.64,436.46,346.79,437.23,346.79Zm3.68-28.88v.92a5.7,5.7,0,0,0-.81.92,2.56,2.56,0,0,0-.11.92h-1.84a1.5,1.5,0,0,1-.12.81,1.59,1.59,0,0,1-.8.11h1.84a1.11,1.11,0,0,1,.11-.46.84.84,0,0,1,.81-.46.68.68,0,0,0,.46-.23,2.23,2.23,0,0,0,.46-1.61Zm-3.68,6.44h0Zm.92,11.28a1,1,0,0,1,.34-.92c.24-.15.12-.46-.34-.92a1.07,1.07,0,0,0-.46.11.84.84,0,0,0-.46.81h.92Zm0,13.92v-.92h-.92a1.07,1.07,0,0,0,.11.46A.83.83,0,0,0,438.15,349.55Zm0,4.61a.83.83,0,0,0,.8-.46,1,1,0,0,0,.12-.46,1.5,1.5,0,0,0-.12-.81c-.07-.08-.34-.12-.8-.12v1.85h0Zm0,13.92h.92c.38-.38.5-.65.34-.8a.44.44,0,0,0-.34-.12l-.92-.92h0c-.46.46-.58.77-.35.92A1,1,0,0,1,438.15,368.08Zm-.92,3.91h0v0Zm.92,2.77h-.92v.92h.92Zm0,8.28c0,.46-.12.73-.35.81s-.11.11.35.11a.83.83,0,0,1-.46.81,1.14,1.14,0,0,1-.46.11.82.82,0,0,0,.46.81,1,1,0,0,0,.46.11c.46-.46.73-.61.8-.46s.12,0,.12-.46,0-.69-.12-.69a3.29,3.29,0,0,0-.8.69V383Zm0-45.57a1.11,1.11,0,0,1,.46.11.85.85,0,0,1,.46.81.85.85,0,0,0-.46-.81A1.11,1.11,0,0,0,438.15,337.47Zm.92,26.93h-.92l.92.92Zm0,16.8v-.92a.67.67,0,0,0-.92.92Zm0-66.05h0Zm1.84,12.19H440v.92h0v-.92Zm-1.84,25v0Zm1.84,7.49A5.21,5.21,0,0,0,440,359a2.34,2.34,0,0,0-.92-.11,1,1,0,0,1,.46.11.82.82,0,0,1,.46.81ZM440,345h.92a.84.84,0,0,0-.46-.81A1.11,1.11,0,0,0,440,344Zm0,9.21c0,.46,0,.69.11.69s.35-.23.81-.69ZM440,372a.48.48,0,0,0,.35-.11c.15-.15,0-.5-.35-1Zm0,2.77v0Zm2.76-53.06a1.61,1.61,0,0,0-.8-.11c0,.46-.2.57-.58.34a1.7,1.7,0,0,1-.46-.34v.92c.54.46.88.69,1,.69s.46-.23.92-.69A1.5,1.5,0,0,0,442.75,321.7Zm-.92,7a.93.93,0,0,0-.92-.46v.92h1A1,1,0,0,0,441.83,328.72ZM442,331l.92-.92h-2q0,.7.12.81C441.1,331,441.41,331,442,331Zm-1,4.61,1-.92a1,1,0,0,1-.12.46A.92.92,0,0,1,440.91,335.63Zm1,3.68h0v0Zm0-6.44v0Zm0,7.36c0,.54,0,.85.11.92a1.5,1.5,0,0,0,.81.12,1.5,1.5,0,0,1-.81-.12C442,341.08,442,340.77,442,340.23Zm1.84-2.76h-.92a1.7,1.7,0,0,0,.34-.46c.16-.31,0-.46-.34-.46v.92Zm0,1.84v0h0Zm.92-12h-.92v-.92h.92Zm-.92,3.68a1.17,1.17,0,0,1,.46.12.84.84,0,0,1,.46.81V330.1h0a1.09,1.09,0,0,0-.46.12A.81.81,0,0,0,443.79,331Zm0,3.69a1.11,1.11,0,0,0,.11.46.83.83,0,0,0,.81.46v-.92Zm1.84,7.48a1,1,0,0,0-.12-.46.81.81,0,0,0-.8-.46Zm0,.92h-.92l.92.92Zm1.84-.92a1,1,0,0,0,.46-.12.81.81,0,0,0,.46-.8.81.81,0,0,1-.46.8,1,1,0,0,1-.46.12v.92h.92c0-.38-.15-.5-.46-.35a2,2,0,0,0-.46.35Zm3.68,4.6a1.14,1.14,0,0,0-.11-.46.83.83,0,0,0-.81-.46v.92Zm0,6.45v-.93a1.93,1.93,0,0,0,.46.35c.31.16.46,0,.46-.35h-.92l-.92.93v-.93h.92Zm.92-2.77A1.14,1.14,0,0,0,452,350a.84.84,0,0,0-.81-.46v.92Zm2.76,13.93c-.45-.46-.76-.58-.92-.35a1,1,0,0,1-.92.35Zm-1.61-3.57c0,.08.24.35.69.81v-.92C453.46,360.72,453.22,360.75,453.22,360.83Zm.69-5.75.92-.92-.92-.92h0v.92h.92Zm1.85,12.08h0Zm2.07-3.68c-.46,0-.58.19-.35.57a2.45,2.45,0,0,1,.35,1.27,1.5,1.5,0,0,0-.12-.81.51.51,0,1,0-.69.69,1.5,1.5,0,0,0,.81.12v-1.84Zm0-4.6c.92-.47,1.42-.81,1.49-1a3.84,3.84,0,0,0-.57-1.84,1,1,0,0,1,.34-.92c.23-.16.12-.46-.34-.92a1.07,1.07,0,0,0-.46.11.83.83,0,0,0-.46.81l.92.92a2.69,2.69,0,0,1-.12,1,4.66,4.66,0,0,1-.8.92Zm.92-6.57a1.61,1.61,0,0,0,.11.81,1.5,1.5,0,0,0,.81.12.82.82,0,0,0-.46-.81A1,1,0,0,0,458.75,352.31Zm0,8.41v0Zm.92-1.84h0Zm2.76-12.09.92-.92-.92-.92a5,5,0,0,0-.8.92,2.29,2.29,0,0,0-.12.92Zm0,5.52c-.46,0-.73-.11-.8-.34s-.12-.11-.12.34v.93c.38,0,.5-.16.35-.46a2,2,0,0,0-.35-.47Zm.92-11h-.92c0,.46,0,.73.12.8s.34.12.8.12Zm-.92,2.76c0,.46,0,.73.12.8s.34.12.8.12h-.92Zm1.84,4.6c-.46,0-.73,0-.8.12s-.12.34-.12.8h.92Zm2.76-6.44a.81.81,0,0,1-.8-.46,1,1,0,0,1-.12-.46.92.92,0,0,0-.46-.92,1,1,0,0,0-.46-.12,1.14,1.14,0,0,0-.11-.46.85.85,0,0,0-.81-.46,1.5,1.5,0,0,0,.12.81,1.59,1.59,0,0,0,.8.11v1h-.92c.38.38.65.5.81.34a.48.48,0,0,0,.11-.34h.92v.92ZM465.19,344h0ZM468,327.34a.83.83,0,0,0-.81.46,1,1,0,0,0-.12.46l.93.92c.45-.46.57-.76.34-.92a1,1,0,0,1-.34-.92h0Zm-.93,9.21a.82.82,0,0,0,.81-.46,1,1,0,0,0,.12-.46v.92Zm1.85,2.76H468c.38.39.65.5.8.35A.46.46,0,0,0,468.88,339.31Zm1.84-18.64h-.92l-.92.92h.92a1.14,1.14,0,0,0,.46-.11A.85.85,0,0,0,470.72,320.67Zm-.92,3.68h-.92c.38.39.65.5.8.35A.46.46,0,0,0,469.8,324.35ZM469,337.7c-.08,0-.11.23-.11.69h.92C469.33,337.93,469.07,337.7,469,337.7Zm1.73-11.28v0Zm1,5.53a1.67,1.67,0,0,0-.11-.81,2,2,0,0,0-.92-.12V332Zm0,.92a1.35,1.35,0,0,0-.57.11.84.84,0,0,0-.46.81h1.95a.67.67,0,0,0-.92-.92Zm-1,43.73v.92a1.86,1.86,0,0,0,.92-.12,1.59,1.59,0,0,0,.11-.8Zm1.95,4.6v-.92h-.92a1.5,1.5,0,0,1,.12-.81,1.59,1.59,0,0,1,.8-.11.67.67,0,0,0-.92-.92,1.35,1.35,0,0,0-.57.11.84.84,0,0,0-.46.81l1,.92a1.11,1.11,0,0,1,.46.11A.84.84,0,0,1,472.67,381.2Zm-.92-34.41a1.87,1.87,0,0,0-.34.46c-.16.31,0,.46.34.46v-.92h.92v0Zm.92-16.69c0,.47,0,.58.12.35s.34-.35.8-.35a.94.94,0,0,0-.46-.92.93.93,0,0,1-.46-.92h-.92v.92a.82.82,0,0,0,.46.81A1,1,0,0,0,472.67,330.1Zm.92,12.09v0a.84.84,0,0,0-.46-.81,1.07,1.07,0,0,0-.46-.11v.92h-.92v.92a1,1,0,0,0,.46-.12.81.81,0,0,0,.46-.8Zm-1.84,12.89v0Zm1.84,5.64h-1.84v.92a.89.89,0,0,0,.92-.58,4.14,4.14,0,0,1,.92-1.26Zm-1.84,9.2V372a1.81,1.81,0,0,1,.12-.57.82.82,0,0,1,.8-.58.81.81,0,0,0-.46-.8A1,1,0,0,0,471.75,369.92Zm2.76-2.76a2.3,2.3,0,0,1-1.26-.46,4.19,4.19,0,0,1-.58-.46c-.46.46-.57.77-.34.92a1,1,0,0,1,.34.92,5,5,0,0,1,.92-.8,2.32,2.32,0,0,1,.92-.12v0Zm-1.84,17.72a.44.44,0,0,0-.34.12c-.16.15,0,.42.34.8V384h0Zm.92-68.81a1.48,1.48,0,0,0,.12.8c.07.08.34.12.8.12h-.92v-.92a1,1,0,0,0,.46-.12.48.48,0,1,0-.34-.35,1,1,0,0,0-.12.47h0v0Zm-.8,21.51a1.59,1.59,0,0,1,.8-.11,1.14,1.14,0,0,0-.46.11.85.85,0,0,0-.46.81A1.5,1.5,0,0,1,472.79,337.58Zm.8,6.45h-.92c0,.46,0,.57.12.35S473.13,344,473.59,344Zm-.92,4.6h.92v-.92Zm.92,21.29a1.59,1.59,0,0,0-.11-.8,1.5,1.5,0,0,0-.81-.12h1.84v.92a1.61,1.61,0,0,0,.35-.46c.15-.3,0-.46-.35-.46h-1.84a1.5,1.5,0,0,1,.81.12A1.59,1.59,0,0,1,473.59,369.92Zm.92,7.6h-1.84l1.84-1.84a1.42,1.42,0,0,0-1.15.57c-.3.39-.23.81.23,1.27,0,.46.16.69.46.69s.46-.23.46-.69a1,1,0,0,1,.12-.46.82.82,0,0,1,.81-.46Zm-1.84,8.28h0Zm1.84-66.05a.46.46,0,0,0,.35-.12c.15-.15,0-.42-.35-.8h-.92c-.38.38-.5.65-.34.8a.44.44,0,0,0,.34.12Zm-.11,12.08a1.5,1.5,0,0,1-.81.12,1.5,1.5,0,0,0,.81-.12,1.61,1.61,0,0,0,.11-.81,1.06,1.06,0,0,0-.11-.45.48.48,0,1,0-.35.34,1,1,0,0,0,.46.11A1.61,1.61,0,0,1,474.4,331.83Zm.11,7.48h0v0Zm-.92,12.08v.92h.92a1,1,0,0,1-.46-.11A.83.83,0,0,1,473.59,351.39Zm.92,5.64v-1a1.35,1.35,0,0,1-.11.57.82.82,0,0,1-.81.46Zm0,1.85a1.61,1.61,0,0,0-.46-.35c-.3-.15-.46,0-.46.35Zm0,14h-.92c0-.46.12-.72.35-.8s.11-.12-.35-.12Zm-.92,1.85h1.85a.83.83,0,0,1-.81-.46,1,1,0,0,1-.12-.46,1.14,1.14,0,0,1-.11.46.83.83,0,0,1-.81.46c0-.46.12-.73.35-.81s.11-.11-.35-.11Zm0,12.08v.92q.69,0,.69-.12A3.29,3.29,0,0,0,473.59,386.84Zm.92-50.29v.92a1.07,1.07,0,0,0,.46-.11.84.84,0,0,0,.47-.81Zm.93,6.56a.82.82,0,0,0-.81.46,1,1,0,0,0-.12.46,5.7,5.7,0,0,1,.81.92,2.29,2.29,0,0,1,.12.92,6.3,6.3,0,0,0-.12-1.27.71.71,0,0,0-.81-.57,1.5,1.5,0,0,0,.81-.12C475.4,343.84,475.44,343.57,475.44,343.11Zm.92,41.77h0c0-.46-.12-.61-.35-.46s-.12,0,.35-.46Z" transform="translate(-110.53 -93.75)"/><path class="cls-2" d="M335.88,419.81c14.24-.58,26.47.64,38.62-1.08,2.52-.36,5.11.14,5.47,3.16s-2.16,4.1-4.53,4.6a47,47,0,0,1-7.12.8c-10.5.14-21,.21-31.5-.87-10-1-20.06-.64-30.13-.57-2.66,0-6.76.93-6.69-3.09.07-3.38,3.95-2.81,6.4-2.88C316.9,419.74,327.4,419.81,335.88,419.81Z" transform="translate(-110.53 -93.75)"/></svg>